<svg width="78" height="78" viewBox="0 0 78 78" fill="none" xmlns="http://www.w3.org/2000/svg">
<path d="M12.4602 38.9295C13.4553 38.9295 14.2963 38.0832 14.2963 37.0959V14.246H38.9223C39.9174 14.246 40.7584 13.3997 40.7584 12.4123V1.83364C40.7584 0.846294 39.9034 0 38.9223 0H1.83609C0.854973 0 0 0.846294 0 1.83364V37.0959C0 38.0832 0.854973 38.9295 1.83609 38.9295H12.4462H12.4602ZM3.53202 3.66727H37.2264V10.7197H12.4602C11.4651 10.7197 10.6241 11.566 10.6241 12.5534V35.5444H3.53202V3.66727Z" fill="#01CFFF"/>
<path d="M76.1499 37.2388H65.5398C64.5446 37.2388 63.7037 38.0851 63.7037 39.0725V63.756H40.7736C39.7785 63.756 38.9375 64.6023 38.9375 65.5897V76.1684C38.9375 77.1557 39.7925 78.002 40.7736 78.002H76.1639C77.159 78.002 78 77.1557 78 76.1684V38.9314C77.8598 37.9441 77.0048 37.2388 76.1639 37.2388H76.1499ZM74.3138 74.1937H42.4695V67.1412H65.5398C66.5349 67.1412 67.3759 66.2949 67.3759 65.3076V40.7651H74.4539V74.1937H74.3138Z" fill="#01CFFF"/>
<path d="M60.1614 58.3943V19.6058C60.1614 18.6184 59.3064 17.7722 58.3253 17.7722H19.5431C18.548 17.7722 17.707 18.6184 17.707 19.6058V58.3943C17.707 59.3816 18.562 60.2279 19.5431 60.2279H58.4654C59.3204 60.0869 60.1614 59.2406 60.1614 58.3943ZM56.6293 56.5606H21.2391V21.2984H56.6293V56.5606Z" fill="#01CFFF"/>
<path d="M23.0698 39.6348C23.2099 40.0579 22.9296 39.6348 37.6464 54.3039C38.3472 55.0091 39.4825 55.0091 40.1973 54.3039C54.7739 39.6348 54.4935 40.0579 54.6337 39.6348C54.914 39.0706 54.7739 38.3653 54.4935 37.9422C54.3534 37.6601 55.1943 38.6474 40.0571 23.5552C39.3563 22.8499 38.221 22.8499 37.5062 23.5552C22.4951 38.5064 23.3501 37.6601 23.2099 37.8011C23.0698 38.2243 22.9296 38.9295 23.0698 39.6348ZM38.9218 27.3635L48.8311 37.2369H42.4679C41.4727 37.2369 40.6318 38.0832 40.6318 39.0706C40.6318 40.0579 41.4867 40.9042 42.4679 40.9042H48.8311L38.9218 50.7776L29.0125 40.9042H35.3758C36.3709 40.9042 37.2119 40.0579 37.2119 39.0706C37.2119 38.0832 36.3569 37.2369 35.3758 37.2369H29.0125L38.9218 27.3635Z" fill="#01CFFF"/>
<path d="M69.0705 21.2984C70.0936 21.2984 70.9066 22.1165 70.9066 23.132C70.9066 24.1476 70.0796 24.9657 69.0705 24.9657C68.0613 24.9657 67.2344 24.1476 67.2344 23.132C67.2344 22.1165 68.0613 21.2984 69.0705 21.2984Z" fill="#01CFFF"/>
<path d="M10.6095 49.6491C11.6236 49.6491 12.4456 48.8282 12.4456 47.8155C12.4456 46.8028 11.6236 45.9819 10.6095 45.9819C9.59548 45.9819 8.77344 46.8028 8.77344 47.8155C8.77344 48.8282 9.59548 49.6491 10.6095 49.6491Z" fill="#01CFFF"/>
<path d="M28.3127 65.3073C29.3358 65.3073 30.1487 66.1253 30.1487 67.1409C30.1487 68.1564 29.3218 68.9745 28.3127 68.9745C27.3035 68.9745 26.4766 68.1564 26.4766 67.1409C26.4766 66.1253 27.3035 65.3073 28.3127 65.3073Z" fill="#01CFFF"/>
<path d="M3.5314 65.3073C4.55457 65.3073 5.36749 66.1253 5.36749 67.1409C5.36749 68.1564 4.54055 68.9745 3.5314 68.9745C2.52225 68.9745 1.69531 68.1564 1.69531 67.1409C1.69531 66.1253 2.52225 65.3073 3.5314 65.3073Z" fill="#01CFFF"/>
<path d="M66.1016 11.7643L68.5964 9.28186L71.1053 11.7643L68.5964 14.2609L66.1016 11.7643Z" fill="#01CFFF"/>
<path d="M71.0586 11.8044L73.5675 9.30786L76.0623 11.8044L73.5675 14.301L71.0586 11.8044Z" fill="#01CFFF"/>
<path d="M66.0312 6.71404L68.5401 4.21747L71.0349 6.71404L68.5401 9.2106L66.0312 6.71404Z" fill="#01CFFF"/>
<path d="M71.0078 6.75475L73.5027 4.25818L76.0115 6.75475L73.5027 9.23721L71.0078 6.75475Z" fill="#01CFFF"/>
<path d="M14.1556 65.4447C11.1842 65.4447 8.77344 67.8425 8.77344 70.8046C8.77344 73.7666 11.1842 76.1644 14.1556 76.1644C17.1269 76.1644 19.5377 73.7666 19.5377 70.8046C19.5377 67.8425 17.1269 65.4447 14.1556 65.4447ZM14.1556 72.4972C13.1604 72.4972 12.3195 71.6509 12.3195 70.6635C12.3195 69.6762 13.1744 68.8299 14.1556 68.8299C15.1367 68.8299 15.9917 69.6762 15.9917 70.6635C15.9917 71.6509 15.1367 72.4972 14.1556 72.4972Z" fill="#01CFFF"/>
<path d="M55.7698 9.02745C58.1806 9.02745 60.1568 7.05276 60.1568 4.65493C60.1568 2.2571 58.1806 0.28241 55.7698 0.28241C53.3591 0.28241 51.3828 2.2571 51.3828 4.65493C51.3828 7.05276 53.3591 9.02745 55.7698 9.02745ZM55.7698 3.66759C56.1903 3.66759 56.6248 4.09073 56.6248 4.51388C56.6248 4.93703 56.2043 5.36017 55.7698 5.36017C55.3353 5.36017 54.9148 4.93703 54.9148 4.51388C54.9148 4.09073 55.1952 3.66759 55.7698 3.66759Z" fill="#01CFFF"/>
</svg>
