<svg width="85" height="82" viewBox="0 0 85 82" fill="none" xmlns="http://www.w3.org/2000/svg">
<g clip-path="url(#clip0_390_3934)">
<circle cx="42" cy="41" r="16" fill="white"/>
<path d="M85 41C85 38.1877 83.2069 35.8195 80.6581 35.0794V12.1372C83.2069 11.3971 85 9.02888 85 6.21661C85 2.81227 82.1548 0 78.7169 0C75.8717 0 73.4711 1.77617 72.7301 4.29242H48.4868C47.7458 1.77617 45.3452 0 42.5 0C39.6548 0 37.2542 1.77617 36.5132 4.29242H12.2699C11.5289 1.77617 9.12831 0 6.28312 0C2.84519 0 0 2.81227 0 6.21661C0 9.02888 1.79306 11.3971 4.34188 12.1372V35.0794C1.79306 35.8195 0 38.1877 0 41C0 43.8123 1.79306 46.1805 4.34188 46.9206V69.8628C1.79306 70.6029 0 72.9711 0 75.7834C0 79.1877 2.84519 82 6.28312 82C9.12831 82 11.5141 80.2238 12.2699 77.7076H36.5132C37.2542 80.2238 39.6548 82 42.5 82C45.3452 82 47.731 80.2238 48.4868 77.7076H72.7301C73.4711 80.2238 75.8717 82 78.7169 82C82.1548 82 85 79.1877 85 75.7834C85 72.9711 83.2069 70.6029 80.6581 69.8628V46.9206C83.0588 46.1805 85 43.8123 85 41ZM78.7169 43.5162C77.3684 43.5162 76.1681 42.3321 76.1681 41C76.1681 39.6679 77.3684 38.4838 78.7169 38.4838C80.0654 38.4838 81.2657 39.6679 81.2657 41C81.2657 42.4801 80.0654 43.5162 78.7169 43.5162ZM72.7301 74.0072H48.4868C47.7458 71.491 45.3452 69.7148 42.5 69.7148C39.6548 69.7148 37.2542 71.491 36.5132 74.0072H12.2699C11.6771 72.083 10.1804 70.6029 8.07619 69.8628V46.9206C9.2765 46.4765 10.3138 45.8845 11.0696 44.8484C26.9404 65.2744 58.0596 65.4224 73.9304 44.9964C74.6714 45.8845 75.7235 46.6245 76.9238 46.9206V69.8628C74.8344 70.6029 73.3377 72.083 72.7301 74.0072ZM12.2699 7.99278H36.5132C37.2542 10.509 39.6548 12.2852 42.5 12.2852C45.3452 12.2852 47.731 10.509 48.4868 7.99278H72.7301C73.3229 9.91697 74.8196 11.3971 76.9238 12.1372V35.0794C75.7235 35.5235 74.6714 36.2635 73.7822 37.1516C57.9114 17.0217 27.0886 17.0217 11.3808 37.2996C10.6398 36.2635 9.4395 35.5235 8.23919 35.0794V12.1372C10.1804 11.5451 11.6771 9.91697 12.2847 7.99278H12.2699ZM57.4669 40.704C57.4669 48.8448 50.7392 55.5054 42.5 55.5054C34.2608 55.5054 27.5331 48.8448 27.5331 40.704C27.5331 32.5632 34.1126 25.9025 42.3518 25.9025C50.591 25.9025 57.4669 32.5632 57.4669 40.704ZM29.7856 54.1733C23.2061 51.657 17.3675 47.2166 13.1738 41.148C17.0711 35.6715 22.1539 31.3791 28.1407 28.8628C21.8576 36.4116 22.4503 47.5126 29.7856 54.1733ZM56.8741 28.8628C63.0091 31.5271 68.2549 35.6715 72.1374 41.296C67.9437 47.3646 61.9569 51.9531 55.2293 54.3213C62.5645 47.6606 63.3054 36.4116 56.8741 28.8628ZM78.7169 3.70036C80.0654 3.70036 81.2657 4.88448 81.2657 6.21661C81.2657 7.54874 80.0654 8.73285 78.7169 8.73285C77.3684 8.73285 76.1681 7.54874 76.1681 6.21661C76.1681 4.88448 77.3684 3.70036 78.7169 3.70036ZM42.5 3.70036C43.8485 3.70036 45.0488 4.88448 45.0488 6.21661C45.0488 7.54874 43.8485 8.73285 42.5 8.73285C41.1515 8.73285 39.9512 7.54874 39.9512 6.21661C39.9512 4.88448 41.1515 3.70036 42.5 3.70036ZM6.28312 3.70036C7.63162 3.70036 8.83194 4.88448 8.83194 6.21661C8.83194 7.54874 7.63162 8.73285 6.28312 8.73285C4.93462 8.73285 3.73431 7.54874 3.73431 6.21661C3.73431 4.88448 4.93462 3.70036 6.28312 3.70036ZM6.28312 38.4838C7.63162 38.4838 8.83194 39.6679 8.83194 41C8.83194 42.3321 7.63162 43.5162 6.28312 43.5162C4.93462 43.5162 3.73431 42.3321 3.73431 41C3.73431 39.6679 4.93462 38.4838 6.28312 38.4838ZM6.28312 78.2996C4.93462 78.2996 3.73431 77.1155 3.73431 75.7834C3.73431 74.4513 4.93462 73.2671 6.28312 73.2671C7.63162 73.2671 8.83194 74.4513 8.83194 75.7834C8.83194 77.2635 7.63162 78.2996 6.28312 78.2996ZM42.5 78.2996C41.1515 78.2996 39.9512 77.1155 39.9512 75.7834C39.9512 74.4513 41.1515 73.2671 42.5 73.2671C43.8485 73.2671 45.0488 74.4513 45.0488 75.7834C45.0488 77.2635 43.8485 78.2996 42.5 78.2996ZM78.7169 78.2996C77.3684 78.2996 76.1681 77.1155 76.1681 75.7834C76.1681 74.4513 77.3684 73.2671 78.7169 73.2671C80.0654 73.2671 81.2657 74.4513 81.2657 75.7834C81.2657 77.2635 80.0654 78.2996 78.7169 78.2996Z" fill="#01CFFF"/>
<path d="M42.4989 50.0289C47.5817 50.0289 51.9236 45.8845 51.9236 40.704C51.9236 35.5235 47.7299 31.3791 42.4989 31.3791C37.2679 31.3791 33.0742 35.5235 33.0742 40.704C33.0742 45.8845 37.4161 50.0289 42.4989 50.0289ZM41.0022 35.3755C39.8019 37.7437 41.595 40.704 44.4402 40.704C45.9368 40.704 47.1372 39.8159 47.7299 38.6318C49.2266 42.3322 46.5296 46.1805 42.4989 46.1805C39.3573 46.1805 36.8085 43.6643 36.8085 40.556C36.9567 38.1878 38.6016 35.9675 41.0022 35.3755Z" fill="#01CFFF"/>
<path d="M23.7995 61.1312C23.7995 60.0951 22.8956 59.207 21.8583 59.207H14.3748C13.3227 59.207 12.4336 60.0951 12.4336 61.1312C12.4336 62.1673 13.3375 63.0554 14.3748 63.0554H21.8583C22.9104 62.9074 23.7995 62.0193 23.7995 61.1312Z" fill="#01CFFF"/>
<path d="M59.4091 64.832H20.0506C18.9985 64.832 18.1094 65.7201 18.1094 66.7562C18.1094 67.7923 19.0133 68.6804 20.0506 68.6804H59.4091C60.4612 68.6804 61.3503 67.7923 61.3503 66.7562C61.2021 65.5721 60.2982 64.832 59.4091 64.832Z" fill="#01CFFF"/>
<path d="M64.9491 68.532C66.0212 68.532 66.8903 67.6705 66.8903 66.6078C66.8903 65.5451 66.0212 64.6836 64.9491 64.6836C63.8769 64.6836 63.0078 65.5451 63.0078 66.6078C63.0078 67.6705 63.8769 68.532 64.9491 68.532Z" fill="#01CFFF"/>
<path d="M27.535 63.0554C28.6071 63.0554 29.4762 62.1939 29.4762 61.1312C29.4762 60.0685 28.6071 59.207 27.535 59.207C26.4629 59.207 25.5938 60.0685 25.5938 61.1312C25.5938 62.1939 26.4629 63.0554 27.535 63.0554Z" fill="#01CFFF"/>
<path d="M51.9256 14.8014H59.4091C60.4612 14.8014 61.3503 13.9134 61.3503 12.8773C61.3503 11.8412 60.4464 10.9531 59.4091 10.9531H51.9256C50.8735 10.9531 49.9844 11.8412 49.9844 12.8773C49.9844 13.9134 50.8883 14.8014 51.9256 14.8014Z" fill="#01CFFF"/>
<path d="M36.9725 20.4265H53.8806C54.9328 20.4265 55.8219 19.5384 55.8219 18.5023C55.8219 17.4662 54.9179 16.5781 53.8806 16.5781H36.9725C35.9204 16.5781 35.0312 17.4662 35.0312 18.5023C35.0312 19.5384 35.9352 20.4265 36.9725 20.4265Z" fill="#01CFFF"/>
<path d="M64.9491 14.9499C66.0212 14.9499 66.8903 14.0884 66.8903 13.0258C66.8903 11.9631 66.0212 11.1016 64.9491 11.1016C63.8769 11.1016 63.0078 11.9631 63.0078 13.0258C63.0078 14.0884 63.8769 14.9499 64.9491 14.9499Z" fill="#01CFFF"/>
<path d="M15.1016 19.5964L17.7541 16.9766L20.3918 19.5964L17.7541 22.2163L15.1016 19.5964Z" fill="#01CFFF"/>
<path d="M20.3594 19.6433L22.9971 17.0234L25.6496 19.6433L22.9971 22.2631L20.3594 19.6433Z" fill="#01CFFF"/>
<path d="M15.0391 14.2995L17.6768 11.6797L20.3293 14.2995L17.6768 16.9194L15.0391 14.2995Z" fill="#01CFFF"/>
<path d="M20.2852 14.3426L22.9377 11.7227L25.5754 14.3426L22.9377 16.9476L20.2852 14.3426Z" fill="#01CFFF"/>
</g>
<defs>
<clipPath id="clip0_390_3934">
<rect width="85" height="82" fill="white"/>
</clipPath>
</defs>
</svg>
