<svg width="78" height="77" viewBox="0 0 78 77" fill="none" xmlns="http://www.w3.org/2000/svg">
<path d="M70.6196 0H6.45124C2.9092 0.00329172 0.0386923 2.87367 0.0354004 6.41557V55.1825C0.0386923 58.7244 2.9092 61.5947 6.45124 61.598H27.6969L24.81 69.2974H21.8473C19.724 69.2974 17.9991 71.0222 17.9991 73.1454V75.7162C17.9991 76.424 18.5752 77 19.2829 77H57.7879C58.4956 77 59.0717 76.424 59.0717 75.7162V73.1454C59.0717 71.0222 57.3468 69.2974 55.2235 69.2974H52.2608L49.3739 61.598H70.6196C74.1616 61.5947 77.0321 58.7244 77.0354 55.1825V6.41557C77.0321 2.87367 74.1583 0.00329172 70.6196 0ZM6.45124 2.56754H70.6196C72.7428 2.56754 74.4677 4.29241 74.4677 6.41557V46.1993H2.60305V6.41557C2.60305 4.29241 4.32799 2.56754 6.45124 2.56754ZM56.504 73.1454V74.4292H20.5668V73.1454C20.5668 72.4377 21.1428 71.8616 21.8506 71.8616H55.2202C55.928 71.8649 56.504 72.4377 56.504 73.1454ZM49.5154 69.2974H27.5521L30.4391 61.598H46.6284L49.5154 69.2974ZM70.6196 59.0305H6.45124C4.32799 59.0305 2.60305 57.3056 2.60305 55.1825V48.7669H74.471V55.1825C74.4677 57.3089 72.7428 59.0305 70.6196 59.0305Z" fill="url(#paint0_linear_52_991)"/>
<path d="M38.5339 50.0503C36.4106 50.0503 34.6857 51.7752 34.6857 53.8983C34.6857 56.0215 36.4106 57.7463 38.5339 57.7463C40.6571 57.7463 42.382 56.0215 42.382 53.8983C42.3853 51.7752 40.6604 50.0503 38.5339 50.0503ZM38.5339 55.1821C37.8261 55.1821 37.25 54.606 37.25 53.8983C37.25 53.1906 37.8261 52.6145 38.5339 52.6145C39.2416 52.6145 39.8177 53.1906 39.8177 53.8983C39.8177 54.606 39.2449 55.1821 38.5339 55.1821Z" fill="url(#paint1_linear_52_991)"/>
<defs>
<linearGradient id="paint0_linear_52_991" x1="38.5354" y1="0" x2="38.5354" y2="77" gradientUnits="userSpaceOnUse">
<stop stop-color="#0075FF"/>
<stop offset="1" stop-color="#00D6C9"/>
</linearGradient>
<linearGradient id="paint1_linear_52_991" x1="38.5339" y1="50.0503" x2="38.5339" y2="57.7463" gradientUnits="userSpaceOnUse">
<stop stop-color="#0075FF"/>
<stop offset="1" stop-color="#00D6C9"/>
</linearGradient>
</defs>
</svg>
