<svg width="81" height="75" viewBox="0 0 81 75" fill="none" xmlns="http://www.w3.org/2000/svg">
<path d="M79.6304 19.0367H71.618C70.862 19.0367 70.2484 19.6427 70.2484 20.3955V27.7411C68.8185 28.9776 66.9804 29.6761 64.8986 29.7685C63.0167 29.8527 61.0171 29.4206 59.1489 28.5401C59.3763 27.9504 59.4995 27.3118 59.4995 26.646C59.4995 23.7055 57.0862 21.3113 54.1196 21.3113C53.4457 21.3113 52.802 21.4336 52.2076 21.6619C51.3201 19.8112 50.8873 17.8274 50.9722 15.9604C51.0681 13.895 51.7748 12.0742 53.0212 10.6557H60.4281C61.1869 10.6557 61.8005 10.0469 61.8005 9.29687V1.36151C61.806 0.60874 61.1924 0 60.4336 0H52.424C51.668 0 51.0544 0.60874 51.0544 1.36151V8.75879C49.3314 10.6611 48.3617 13.0961 48.2329 15.8408C48.1343 17.9959 48.5616 20.189 49.4766 22.2842L34.9119 13.5879C35.0516 13.1124 35.1283 12.6123 35.1283 12.096C35.1283 9.15556 32.715 6.76136 29.7539 6.76136C26.7872 6.76136 24.374 9.15556 24.374 12.096C24.374 12.615 24.4507 13.1151 24.5904 13.5907L9.12174 22.8277C8.15204 21.8929 6.83172 21.3168 5.37443 21.3168C2.41329 21.3168 0 23.7082 0 26.6514C0 29.1217 1.70108 31.2033 4.0048 31.8067V33.7905C4.0048 34.5433 4.6184 35.152 5.37443 35.152C6.13321 35.152 6.7468 34.5433 6.7468 33.7905V31.8067C7.6535 31.5675 8.46706 31.1028 9.119 30.4723L24.5849 39.7094C24.4452 40.185 24.3685 40.6877 24.3685 41.2068C24.3685 43.6771 26.0723 45.7587 28.376 46.3621V64.502C27.4693 64.7384 26.6558 65.2058 26.0038 65.8363L10.5379 56.5992C10.6776 56.1236 10.7543 55.6236 10.7543 55.1045C10.7543 52.6342 9.05326 50.5526 6.7468 49.9493V48.1991C6.7468 47.4464 6.13321 46.8376 5.37443 46.8376C4.6184 46.8376 4.0048 47.4464 4.0048 48.1991V49.952C1.70108 50.5553 0 52.637 0 55.1045C0 58.045 2.41329 60.4392 5.37443 60.4392C6.82898 60.4392 8.15204 59.863 9.12174 58.9309L24.5876 68.1653C24.5767 68.2115 24.563 68.2549 24.552 68.3011H10.7516V65.6923C10.7516 64.9422 10.138 64.3335 9.37923 64.3335H1.37237C0.613595 64.3335 0 64.9422 0 65.6923V73.6331C0 74.3858 0.613595 74.9946 1.37237 74.9946H9.37923C10.138 74.9946 10.7516 74.3858 10.7516 73.6331V71.0269H24.5493C25.1546 73.3124 27.2557 75 29.7511 75C32.2411 75 34.3394 73.3124 34.9475 71.0269H48.7452V73.6331C48.7452 74.3858 49.3588 74.9946 50.1148 74.9946H58.1299C58.8859 74.9946 59.4995 74.3858 59.4995 73.6331V65.6923C59.4995 64.9422 58.8859 64.3335 58.1299 64.3335H50.1148C49.3588 64.3335 48.7452 64.9422 48.7452 65.6923V68.3011H34.9475C34.9366 68.2549 34.9229 68.2115 34.9092 68.1653L50.3805 58.9309C51.3502 59.863 52.6678 60.4392 54.1223 60.4392C57.089 60.4392 59.5023 58.045 59.5023 55.1045C59.5023 52.6342 57.7984 50.5526 55.4947 49.952V31.8067C56.2453 31.611 56.9301 31.255 57.5163 30.7848C59.7296 31.9181 62.0854 32.5078 64.4083 32.5078C64.611 32.5078 64.8164 32.5024 65.0191 32.4942C67.7885 32.3719 70.2456 31.4072 72.1604 29.6978H79.6276C80.3864 29.6978 81 29.0918 81 28.339V20.3982C81.0027 19.6427 80.3891 19.0367 79.6304 19.0367ZM53.7964 2.72302H59.0612V7.94079H53.7964V2.72302ZM8.0096 72.2715H2.74474V67.0538H8.0096V72.2715ZM51.4899 67.0538H56.7575V72.2715H51.4899V67.0538ZM56.7575 26.6514C56.7575 28.089 55.5742 29.2603 54.1223 29.2603C52.6733 29.2603 51.4927 28.089 51.4927 26.6514C51.4927 25.2111 52.6733 24.0398 54.1223 24.0398C55.5742 24.0371 56.7575 25.2083 56.7575 26.6514ZM48.7452 55.1045C48.7452 55.6236 48.8219 56.1236 48.9616 56.5992L33.493 65.8336C32.8383 65.2058 32.0302 64.7411 31.1235 64.502V46.3621C33.4245 45.7587 35.1283 43.6771 35.1283 41.2068C35.1283 40.6877 35.0516 40.1877 34.9092 39.7121L50.3805 30.4723C51.0325 31.1028 51.8433 31.5675 52.75 31.8067V49.952C50.4463 50.5553 48.7452 52.637 48.7452 55.1045ZM26.0093 37.3804L10.5407 28.1433C10.6804 27.6678 10.7571 27.1677 10.7571 26.6514C10.7571 26.1323 10.6804 25.6323 10.5407 25.1567L26.0066 15.9196C26.979 16.8518 28.2966 17.4279 29.7539 17.4279C31.2057 17.4279 32.526 16.8518 33.4957 15.9169L48.9643 25.1567C48.8246 25.6323 48.7479 26.1323 48.7479 26.6514C48.7479 27.1677 48.8246 27.6678 48.9643 28.1433L33.4957 37.3804C32.526 36.4483 31.2084 35.8722 29.7539 35.8722C28.2966 35.8722 26.9763 36.4483 26.0093 37.3804ZM29.7511 9.48167C31.2002 9.48167 32.3808 10.6529 32.3808 12.0933C32.3808 13.5309 31.2002 14.7022 29.7511 14.7022C28.8033 14.7022 27.9706 14.2048 27.5049 13.4575C27.5022 13.4521 27.4967 13.4439 27.494 13.4385C27.4912 13.433 27.4858 13.4276 27.4803 13.4195C27.2474 13.0308 27.116 12.577 27.116 12.0933C27.116 10.6529 28.2966 9.48167 29.7511 9.48167ZM5.37443 29.2603C3.92536 29.2603 2.74474 28.089 2.74474 26.6514C2.74474 25.2111 3.92536 24.0398 5.37443 24.0398C6.82898 24.0398 8.0096 25.2111 8.0096 26.6514C8.01234 28.089 6.83172 29.2603 5.37443 29.2603ZM27.116 41.2068C27.116 40.7149 27.2529 40.2556 27.4912 39.8616L27.494 39.8589C27.4967 39.8561 27.4967 39.8534 27.4995 39.8507C27.9624 39.0979 28.7951 38.5952 29.7511 38.5952C31.2002 38.5952 32.3808 39.7665 32.3808 41.2068C32.3808 42.6444 31.2002 43.8157 29.7511 43.8157C28.2966 43.8157 27.116 42.6444 27.116 41.2068ZM5.37443 57.7189C3.92536 57.7189 2.74474 56.5476 2.74474 55.1073C2.74474 53.6696 3.92536 52.5011 5.37443 52.5011C5.37717 52.5011 5.37717 52.5011 5.37717 52.5011C6.82898 52.5011 8.0096 53.6696 8.0096 55.1073C8.01234 56.5476 6.83172 57.7189 5.37443 57.7189ZM29.7511 72.2743C28.2966 72.2743 27.116 71.103 27.116 69.6627C27.116 69.1816 27.2474 68.7332 27.4775 68.3446C27.483 68.3338 27.4885 68.3283 27.494 68.3174C27.4995 68.3066 27.5049 68.2957 27.5132 68.2848C27.9788 67.5457 28.8033 67.0511 29.7484 67.0511C29.7484 67.0511 29.7484 67.0511 29.7511 67.0511C31.2002 67.0511 32.3808 68.2223 32.3808 69.6627C32.3836 71.103 31.2029 72.2743 29.7511 72.2743ZM56.7575 55.1045C56.7575 56.5449 55.5742 57.7161 54.1223 57.7161C52.6733 57.7161 51.4927 56.5449 51.4927 55.1045C51.4927 53.6669 52.6705 52.4984 54.1223 52.4984H54.1251C55.5769 52.4984 56.7575 53.6669 56.7575 55.1045ZM78.2607 26.9775H72.9931V21.7597H78.2607V26.9775Z" fill="url(#paint0_linear_52_884)"/>
<defs>
<linearGradient id="paint0_linear_52_884" x1="40.5" y1="0" x2="40.5" y2="75" gradientUnits="userSpaceOnUse">
<stop stop-color="#0177FF"/>
<stop offset="1" stop-color="#01D3CB"/>
</linearGradient>
</defs>
</svg>
