<svg width="100" height="62" viewBox="0 0 100 62" fill="none" xmlns="http://www.w3.org/2000/svg">
<path fill-rule="evenodd" clip-rule="evenodd" d="M32.3436 21.019H52.68H63.9781H84.3145H85.3717L85.7272 22.0147L99.2848 59.9914L100 61.9957H97.8722H63.9781H52.68H18.7859H16.6577L17.3733 59.9914L30.9309 22.0147L31.2864 21.019H32.3436ZM52.68 58.9957H63.9781H95.7439L83.2573 24.019H63.9781H52.68H33.4008L24.9312 47.7436C25.3281 47.5708 25.7577 47.3833 26.2176 47.1822C28.7678 46.067 32.1796 44.5633 35.9187 42.91C43.3965 39.6035 52.1789 35.7006 57.9849 33.1153C58.4895 32.8906 59.0806 33.1175 59.3052 33.622C59.5299 34.1266 59.303 34.7177 58.7985 34.9423C52.9916 37.528 44.2075 41.4317 36.7275 44.7391C32.9877 46.3928 29.5729 47.8978 27.0189 49.0147C25.8194 49.5392 24.7936 49.9854 24.0108 50.3216L20.9142 58.9957H21.0137L77.6167 34.1138C78.1223 33.8916 78.7123 34.1213 78.9346 34.6269C79.1568 35.1325 78.9271 35.7225 78.4215 35.9448L25.9836 58.9957H52.68Z" fill="url(#paint0_linear_52_1101)"/>
<path d="M88.6662 6.84518C85.8923 6.84518 83.644 4.54618 83.644 1.70967C83.644 0.764173 82.8936 0 81.9721 0C81.0475 0 80.3002 0.767411 80.3002 1.70967C80.3002 4.54618 78.0519 6.84518 75.278 6.84518C74.3502 6.84518 73.6029 7.61259 73.6029 8.55809C73.6029 9.50359 74.3534 10.2678 75.278 10.2678C78.0519 10.2678 80.3002 12.5668 80.3002 15.4033C80.3002 16.3488 81.0506 17.1129 81.9721 17.1129C82.8967 17.1129 83.644 16.3455 83.644 15.4033C83.644 12.5668 85.8923 10.2678 88.6662 10.2678C89.594 10.2678 90.3413 9.50035 90.3413 8.55809C90.3413 7.60935 89.5908 6.84518 88.6662 6.84518ZM81.9689 10.2678C81.494 9.61692 80.9271 9.04379 80.297 8.55809C80.9303 8.06915 81.494 7.49278 81.9689 6.84518C82.4439 7.49278 83.0107 8.06915 83.644 8.55809C83.0107 9.04379 82.4439 9.62016 81.9689 10.2678Z" fill="url(#paint1_linear_52_1101)"/>
<path d="M15.0633 45.8774C12.2894 45.8774 10.0411 43.5784 10.0411 40.7419C10.0411 39.7964 9.29066 39.0322 8.3692 39.0322C7.44456 39.0322 6.69726 39.7996 6.69726 40.7419C6.69726 43.5784 4.44901 45.8774 1.67511 45.8774C0.747306 45.8774 0 46.6448 0 47.5903C0 48.5358 0.750473 49.3 1.67511 49.3C4.44901 49.3 6.69726 51.599 6.69726 54.4355C6.69726 55.381 7.44773 56.1452 8.3692 56.1452C9.29383 56.1452 10.0411 55.3778 10.0411 54.4355C10.0411 51.599 12.2894 49.3 15.0633 49.3C15.9911 49.3 16.7384 48.5326 16.7384 47.5903C16.7384 46.6416 15.9879 45.8774 15.0633 45.8774ZM8.36603 49.3C7.89105 48.6491 7.32423 48.076 6.69409 47.5903C7.3274 47.1014 7.89105 46.525 8.36603 45.8774C8.84101 46.525 9.40782 47.1014 10.0411 47.5903C9.40782 48.076 8.84101 48.6524 8.36603 49.3Z" fill="url(#paint2_linear_52_1101)"/>
<defs>
<linearGradient id="paint0_linear_52_1101" x1="58.329" y1="21.019" x2="58.329" y2="61.9957" gradientUnits="userSpaceOnUse">
<stop stop-color="#027EFC"/>
<stop offset="1" stop-color="#02CECF"/>
</linearGradient>
<linearGradient id="paint1_linear_52_1101" x1="81.9721" y1="0" x2="81.9721" y2="17.1129" gradientUnits="userSpaceOnUse">
<stop stop-color="#0177FF"/>
<stop offset="1" stop-color="#01D4CB"/>
</linearGradient>
<linearGradient id="paint2_linear_52_1101" x1="8.36919" y1="39.0322" x2="8.36919" y2="56.1452" gradientUnits="userSpaceOnUse">
<stop stop-color="#0177FF"/>
<stop offset="1" stop-color="#01D4CB"/>
</linearGradient>
</defs>
</svg>
