<svg width="83" height="77" viewBox="0 0 83 77" fill="none" xmlns="http://www.w3.org/2000/svg">
<g clip-path="url(#clip0_52_1051)">
<path d="M0 29.1686V75.3947C0 76.2808 0.715595 76.997 1.59424 76.997H68.6337C69.5154 76.997 70.228 76.2778 70.228 75.3947V53.23C72.1362 53.9067 73.4104 55.7153 73.4225 57.7485C73.4225 58.6346 74.1381 59.3507 75.0167 59.3507C75.8984 59.3507 76.611 58.6315 76.611 57.7485C76.611 55.0902 78.7547 52.9356 81.3997 52.9356C82.2844 52.9356 82.997 52.2164 82.997 51.3333C82.997 50.4442 82.2814 49.728 81.3997 49.728C78.7547 49.728 76.611 47.5735 76.611 44.9151C76.611 44.029 75.8954 43.3129 75.0167 43.3129C74.1351 43.3129 73.4225 44.0321 73.4225 44.9151C73.4134 46.9483 72.1362 48.7539 70.228 49.4337V1.60227C70.231 0.719201 69.5154 0 68.6368 0H1.59424C0.715595 0 0 0.719201 0 1.60227V25.3693V29.1686ZM67.0365 64.1667V73.7924H34.1795L45.8192 62.094C46.4322 61.4568 46.4141 60.4402 45.78 59.8272C45.161 59.2294 44.1827 59.2294 43.5638 59.8272L29.6655 73.7955H24.605L45.8223 52.4713C46.4352 51.834 46.4171 50.8175 45.783 50.2045C45.164 49.6066 44.1857 49.6066 43.5668 50.2045L20.094 73.7955H3.19149V3.20757H50.4178L38.778 14.909C38.1439 15.525 38.1258 16.5386 38.7388 17.1758C39.3547 17.8131 40.3632 17.8283 40.9942 17.2123C41.0093 17.2001 41.0214 17.188 41.0335 17.1758L54.9318 3.20454H59.9953L38.778 24.5317C38.1439 25.1477 38.1258 26.1613 38.7388 26.7986C39.3547 27.4358 40.3632 27.451 40.9942 26.835C41.0093 26.8228 41.0214 26.8107 41.0335 26.7986L64.5062 3.20454H67.0365V64.1667ZM75.0198 52.9386C74.5668 52.3287 74.0264 51.7916 73.4255 51.3364C74.0294 50.8781 74.5668 50.338 75.0198 49.7311C75.4727 50.341 76.0131 50.8781 76.614 51.3364C76.0131 51.7885 75.4727 52.3287 75.0198 52.9386Z" fill="url(#paint0_linear_52_1051)"/>
<path d="M65.4428 62.5611C62.7978 62.5611 60.6541 60.4096 60.6541 57.7483C60.6541 56.8622 59.9385 56.146 59.0598 56.146C58.1782 56.146 57.4656 56.8652 57.4656 57.7483C57.4656 60.4096 55.3218 62.5611 52.6768 62.5611C51.7922 62.5611 51.0796 63.2803 51.0796 64.1664C51.0796 65.0526 51.7952 65.7687 52.6768 65.7687C55.3218 65.7687 57.4656 67.9233 57.4656 70.5816C57.4656 71.4677 58.1812 72.1839 59.0598 72.1839C59.9415 72.1839 60.6541 71.4647 60.6541 70.5816C60.6541 67.9233 62.7978 65.7687 65.4428 65.7687C66.3275 65.7687 67.0401 65.0495 67.0401 64.1664C67.0401 63.2803 66.3245 62.5611 65.4428 62.5611ZM59.0568 65.7718C58.6039 65.1618 58.0634 64.6247 57.4626 64.1695C58.0665 63.7113 58.6039 63.1711 59.0568 62.5642C59.5097 63.1741 60.0502 63.7113 60.6511 64.1695C60.0502 64.6216 59.5097 65.1618 59.0568 65.7718Z" fill="url(#paint1_linear_52_1051)"/>
<path d="M24.2637 21.3639C21.6187 21.3639 19.4749 19.2093 19.4749 16.551C19.4749 15.6649 18.7593 14.9487 17.8807 14.9487C16.999 14.9487 16.2865 15.6679 16.2865 16.551C16.2865 19.2093 14.1427 21.3639 11.4977 21.3639C10.613 21.3639 9.90045 22.0831 9.90045 22.9692C9.90045 23.8553 10.616 24.5715 11.4977 24.5715C14.1427 24.5715 16.2865 26.726 16.2865 29.3843C16.2865 30.2704 17.0021 30.9866 17.8807 30.9866C18.7624 30.9866 19.4749 30.2674 19.4749 29.3843C19.4749 26.726 21.6187 24.5715 24.2637 24.5715C25.1484 24.5715 25.8609 23.8523 25.8609 22.9692C25.8609 22.08 25.1453 21.3639 24.2637 21.3639ZM17.8777 24.5715C17.4248 23.9615 16.8843 23.4244 16.2834 22.9692C16.8873 22.511 17.4248 21.9708 17.8777 21.3639C18.3306 21.9708 18.8711 22.511 19.4749 22.9692C18.8711 23.4244 18.3306 23.9645 17.8777 24.5715Z" fill="url(#paint2_linear_52_1051)"/>
</g>
<defs>
<linearGradient id="paint0_linear_52_1051" x1="41.4985" y1="0" x2="41.4985" y2="76.997" gradientUnits="userSpaceOnUse">
<stop stop-color="#0177FF"/>
<stop offset="1" stop-color="#01D4CB"/>
</linearGradient>
<linearGradient id="paint1_linear_52_1051" x1="59.0598" y1="56.146" x2="59.0598" y2="72.1839" gradientUnits="userSpaceOnUse">
<stop stop-color="#0177FF"/>
<stop offset="1" stop-color="#01D4CB"/>
</linearGradient>
<linearGradient id="paint2_linear_52_1051" x1="17.8807" y1="14.9487" x2="17.8807" y2="30.9866" gradientUnits="userSpaceOnUse">
<stop stop-color="#0177FF"/>
<stop offset="1" stop-color="#01D4CB"/>
</linearGradient>
<clipPath id="clip0_52_1051">
<rect width="83" height="77" fill="white"/>
</clipPath>
</defs>
</svg>
