<svg width="70" height="70" viewBox="0 0 70 70" fill="none" xmlns="http://www.w3.org/2000/svg">
<path fill-rule="evenodd" clip-rule="evenodd" d="M35 0C15.7012 0 0 15.7012 0 35C0 54.2988 15.7012 70 35 70C54.2988 70 70 54.2988 70 35C70 15.7012 54.2988 0 35 0ZM35 66.9584C17.3792 66.9584 3.04162 52.6233 3.04162 35C3.04162 17.3767 17.3792 3.04413 35 3.04413C52.6208 3.04413 66.9584 17.3792 66.9584 35.0025C66.9584 52.6258 52.6208 66.9584 35 66.9584ZM16.7405 36.522C17.5807 36.522 18.2625 35.8402 18.2625 34.9999C18.2625 34.1596 17.5807 33.4778 16.7405 33.4778H15.2184V30.4337H19.7821C20.6224 30.4337 21.3041 29.7519 21.3041 28.9116C21.3041 28.0714 20.6224 27.3896 19.7821 27.3896H13.6963C12.856 27.3896 12.1743 28.0714 12.1743 28.9116V41.0831C12.1743 41.9234 12.856 42.6052 13.6963 42.6052C14.5366 42.6052 15.2184 41.9234 15.2184 41.0831V36.5195H16.7405V36.522ZM17.1955 20.7353C16.6722 21.3944 15.7162 21.4951 15.0596 20.9693C14.4004 20.446 14.2973 19.4849 14.8256 18.8308C19.7692 12.6671 27.1254 9.12986 34.9999 9.12986C42.8744 9.12986 50.2281 12.6671 55.1742 18.8283C55.7 19.4849 55.5994 20.4435 54.9403 20.9693C54.661 21.1957 54.3264 21.3039 53.9893 21.3039C53.5465 21.3039 53.1037 21.1102 52.8018 20.7353C48.4394 15.2961 41.9486 12.174 35.0024 12.174C28.0513 12.174 21.5655 15.2936 17.1955 20.7353ZM51.5512 50.6939C47.1838 55.2928 41.3068 57.8287 35.0022 57.8287C28.6951 57.8287 22.8181 55.2928 18.4532 50.6939C17.8796 50.08 16.911 50.0624 16.3047 50.636C15.6908 51.2122 15.6707 52.1782 16.2468 52.7871C21.1929 58.0023 27.8523 60.8704 35.0022 60.8704C42.1496 60.8704 48.8115 58.0023 53.7576 52.7871C54.3388 52.1782 54.3111 51.2147 53.6997 50.636C53.0959 50.0624 52.1273 50.0851 51.5512 50.6939ZM28.9139 27.3946C31.4297 27.3946 33.4776 29.4399 33.4776 31.9583C33.4776 34.2728 31.7417 36.1949 29.5026 36.4842L33.0297 40.0114C33.6235 40.6051 33.6235 41.5687 33.0297 42.1624C32.7354 42.4618 32.3454 42.6102 31.9555 42.6102C31.5655 42.6102 31.1781 42.4618 30.8787 42.1674L27.3918 38.6755V41.0881C27.3918 41.9284 26.71 42.6102 25.8697 42.6102C25.0295 42.6102 24.3477 41.9284 24.3477 41.0881V35.0125V34.9898V28.9166C24.3477 28.0764 25.0295 27.3946 25.8697 27.3946H28.9139ZM27.3918 33.4803H28.9139C29.7516 33.4803 30.4334 32.7985 30.4359 31.9583C30.4359 31.118 29.7516 30.4362 28.9139 30.4362H27.3918V33.4803ZM44.1298 30.4362C44.97 30.4362 45.6518 29.7544 45.6518 28.9141C45.6518 28.0739 44.97 27.3921 44.1298 27.3921H38.044C37.2037 27.3921 36.5219 28.0739 36.5219 28.9141V41.0882C36.5219 41.9285 37.2037 42.6102 38.044 42.6102H44.1298C44.97 42.6102 45.6518 41.9285 45.6518 41.0882C45.6518 40.2479 44.97 39.5661 44.1298 39.5661H39.5661V36.5194H41.0881C41.9284 36.5194 42.6102 35.8377 42.6102 34.9974C42.6102 34.1571 41.9284 33.4753 41.0881 33.4753H39.5661V30.4312H44.1298V30.4362ZM51.7402 39.5662H56.3039C57.1442 39.5662 57.826 40.248 57.826 41.0832C57.826 41.9235 57.1442 42.6053 56.3039 42.6053H50.2182C49.3779 42.6053 48.6961 41.9235 48.6961 41.0832V28.9092C48.6961 28.0689 49.3779 27.3871 50.2182 27.3871H56.3039C57.1442 27.3871 57.826 28.0689 57.826 28.9092C57.826 29.7495 57.1442 30.4313 56.3039 30.4313H51.7402V33.4779H53.2623C54.1026 33.4779 54.7844 34.1597 54.7844 35C54.7844 35.8403 54.1026 36.5221 53.2623 36.5221H51.7402V39.5662Z" fill="url(#paint0_linear_52_1064)"/>
<defs>
<linearGradient id="paint0_linear_52_1064" x1="53.2609" y1="27.387" x2="53.2609" y2="42.6051" gradientUnits="userSpaceOnUse">
<stop stop-color="#0075FF"/>
<stop offset="1" stop-color="#00D6C9"/>
</linearGradient>
</defs>
</svg>
