<svg width="70" height="70" viewBox="0 0 70 70" fill="none" xmlns="http://www.w3.org/2000/svg">
<g clip-path="url(#clip0_52_1074)">
<path d="M66.2212 23.4238C67.1571 19.212 64.7041 14.9876 60.5831 13.7145C58.5804 12.9975 57.0029 11.4225 56.2859 9.41974C55.0103 5.29603 50.7887 2.84293 46.5745 3.7814C44.4913 4.16131 42.3453 3.5927 40.7225 2.22903C37.4871 -0.742359 32.5131 -0.742359 29.2777 2.22903C27.6549 3.5927 25.5089 4.1588 23.4257 3.77637C19.2115 2.84042 14.9873 5.29603 13.7143 9.41723C12.9973 11.4174 11.4223 12.9925 9.41964 13.7145C5.29356 14.9826 2.84055 19.212 3.77899 23.4238C4.15889 25.5095 3.59029 27.6557 2.22919 29.2785C-0.744609 32.5141 -0.744609 37.4857 2.22919 40.7212C3.59029 42.3466 4.15637 44.4927 3.77647 46.5759C2.84055 50.7877 5.29356 55.0146 9.41461 56.2852C11.4173 57.0022 12.9947 58.5798 13.7118 60.58C14.9848 64.7037 19.209 67.1593 23.4232 66.2183C25.5063 65.8409 27.6524 66.407 29.2752 67.7707C32.5106 70.7421 37.4846 70.7421 40.72 67.7707C42.3428 66.407 44.4888 65.8409 46.572 66.2234C50.7861 67.1593 55.0103 64.7062 56.2834 60.585C56.9979 58.5823 58.5754 57.0047 60.5755 56.2852C64.7016 55.0171 67.1571 50.7877 66.2162 46.5759C65.8363 44.4902 66.4024 42.344 67.766 40.7212C70.7398 37.4857 70.7398 32.5141 67.766 29.2785C66.4099 27.6557 65.8413 25.5095 66.2212 23.4238ZM64.2965 38.5122C62.4725 40.842 61.6825 43.8159 62.1077 46.7445C62.2637 50.5462 62.1077 50.8607 58.676 52.6395C55.9211 53.744 53.7373 55.9304 52.6328 58.688C50.8591 62.072 50.5748 62.2783 46.7406 62.1147C43.812 61.6946 40.8383 62.4846 38.5085 64.3036C35.2152 66.397 34.7649 66.402 31.4866 64.3036C29.1569 62.4821 26.1806 61.692 23.2546 62.1147C19.4405 62.2783 19.1361 62.082 17.3573 58.6829C16.2528 55.9279 14.0665 53.7465 11.3091 52.6395C7.90759 50.8582 7.72644 50.5814 7.88494 46.747C8.30258 43.8209 7.51259 40.847 5.69611 38.5147C3.60036 35.2213 3.59784 34.7734 5.69611 31.4926C7.51762 29.1628 8.30761 26.1888 7.88494 23.2602C7.72644 19.4586 7.88494 19.1415 11.3141 17.3653C14.0716 16.2607 16.2554 14.0743 17.3624 11.3168C19.1537 7.90008 19.4229 7.74912 23.2571 7.89253C26.1831 8.31271 29.1594 7.52268 31.4892 5.70362C34.7825 3.6078 35.2328 3.60528 38.511 5.70362C40.8408 7.5252 43.8146 8.31522 46.7431 7.89253C50.5446 7.73654 50.8616 7.89253 52.6378 11.3218C53.7448 14.0794 55.9312 16.2607 58.6861 17.3678C62.0901 19.1491 62.2687 19.4259 62.1127 23.2577C61.6926 26.1863 62.4851 29.1602 64.3016 31.4926C66.3923 34.7709 66.3973 35.2313 64.2965 38.5122ZM48.5294 25.0843C49.4628 25.7335 49.6917 27.0166 49.0451 27.95C49.0401 27.9551 49.0376 27.9601 49.0326 27.9651L36.9436 45.2551C35.3209 47.5823 32.1181 48.1535 29.7909 46.5307C29.411 46.2665 29.0714 45.952 28.777 45.5972L21.0708 36.3182C20.3663 35.4276 20.5148 34.1344 21.4029 33.4248C22.2633 32.743 23.5087 32.8562 24.2333 33.6815L31.937 42.9278C32.1206 43.1945 32.4402 43.3379 32.7622 43.2976C33.0817 43.2875 33.3761 43.1265 33.5547 42.8598L45.6537 25.5699C46.3103 24.6415 47.5909 24.4201 48.5193 25.0743C48.5243 25.0793 48.5294 25.0843 48.5294 25.0843Z" fill="url(#paint0_linear_52_1074)"/>
</g>
<defs>
<linearGradient id="paint0_linear_52_1074" x1="34.9976" y1="0.000488281" x2="34.9976" y2="69.9992" gradientUnits="userSpaceOnUse">
<stop stop-color="#0177FF"/>
<stop offset="1" stop-color="#01D4CA"/>
</linearGradient>
<clipPath id="clip0_52_1074">
<rect width="70" height="70" fill="white"/>
</clipPath>
</defs>
</svg>
