<svg width="70" height="70" viewBox="0 0 70 70" fill="none" xmlns="http://www.w3.org/2000/svg">
<path d="M68 35C68 53.2254 53.2254 68 35 68C16.7746 68 2 53.2254 2 35C2 16.7746 16.7746 2 35 2C53.2254 2 68 16.7746 68 35Z" stroke="url(#paint0_linear_114_1322)" stroke-width="4"/>
<path d="M14.3875 45.4C13.6212 45.4 13 44.7788 13 44.0125V28.8792C13 27.8413 13.8413 27 14.8792 27C15.5563 27 16.1812 27.3644 16.5147 27.9538L22.1 37.825L23.9694 41.5881C24.0035 41.6566 24.0734 41.7 24.15 41.7C23.975 39.825 23.75 37.575 23.75 35.6V28.3875C23.75 27.6212 24.3712 27 25.1375 27C25.9038 27 26.525 27.6212 26.525 28.3875V43.5079C26.525 44.5529 25.6779 45.4 24.6329 45.4C23.9486 45.4 23.3177 45.0306 22.9828 44.4339L17.45 34.575L15.525 30.7H15.4C15.525 32.625 15.775 34.725 15.775 36.75V44.0125C15.775 44.7788 15.1538 45.4 14.3875 45.4Z" fill="url(#paint1_linear_114_1322)"/>
<path d="M32.3594 45.4C31.8071 45.4 31.3594 44.9523 31.3594 44.4V28C31.3594 27.4477 31.8071 27 32.3594 27H41.0344C41.7109 27 42.2594 27.5485 42.2594 28.225C42.2594 28.9015 41.7109 29.45 41.0344 29.45H34.2844V34.55H39.7719C40.4553 34.55 41.0094 35.104 41.0094 35.7875C41.0094 36.471 40.4553 37.025 39.7719 37.025H34.2844V42.95H41.3094C41.9859 42.95 42.5344 43.4985 42.5344 44.175C42.5344 44.8516 41.9859 45.4 41.3094 45.4H32.3594Z" fill="url(#paint2_linear_114_1322)"/>
<path d="M51.5621 45.4C50.7544 45.4 50.0996 44.7452 50.0996 43.9375V29.45H45.9246C45.2481 29.45 44.6996 28.9015 44.6996 28.225C44.6996 27.5485 45.2481 27 45.9246 27H57.1996C57.8762 27 58.4246 27.5485 58.4246 28.225C58.4246 28.9015 57.8762 29.45 57.1996 29.45H53.0246V43.9375C53.0246 44.7452 52.3698 45.4 51.5621 45.4Z" fill="url(#paint3_linear_114_1322)"/>
<defs>
<linearGradient id="paint0_linear_114_1322" x1="35" y1="0" x2="35" y2="70" gradientUnits="userSpaceOnUse">
<stop stop-color="#0177FF"/>
<stop offset="1" stop-color="#01D4CA"/>
</linearGradient>
<linearGradient id="paint1_linear_114_1322" x1="35.7123" y1="27" x2="35.7123" y2="45.4" gradientUnits="userSpaceOnUse">
<stop stop-color="#0281FA"/>
<stop offset="1" stop-color="#01D4CA"/>
</linearGradient>
<linearGradient id="paint2_linear_114_1322" x1="35.7123" y1="27" x2="35.7123" y2="45.4" gradientUnits="userSpaceOnUse">
<stop stop-color="#0281FA"/>
<stop offset="1" stop-color="#01D4CA"/>
</linearGradient>
<linearGradient id="paint3_linear_114_1322" x1="35.7123" y1="27" x2="35.7123" y2="45.4" gradientUnits="userSpaceOnUse">
<stop stop-color="#0281FA"/>
<stop offset="1" stop-color="#01D4CA"/>
</linearGradient>
</defs>
</svg>
