<svg width="51" height="33" viewBox="0 0 51 33" fill="none" xmlns="http://www.w3.org/2000/svg">
<ellipse cx="25.7793" cy="30.6307" rx="2.24718" ry="2.2069" fill="#6DBAE0"/>
<ellipse cx="25.7793" cy="23.7342" rx="2.24718" ry="2.2069" fill="#7DCBE6"/>
<ellipse cx="33.364" cy="23.7352" rx="2.24718" ry="2.2069" fill="#6DBAE0"/>
<ellipse cx="33.364" cy="16.8378" rx="2.24718" ry="2.2069" fill="#7DCBE6"/>
<ellipse cx="2.24718" cy="2.2069" rx="2.24718" ry="2.2069" transform="matrix(-1 0 0 1 20.4418 21.5283)" fill="#6DBAE0"/>
<ellipse cx="2.24718" cy="2.2069" rx="2.24718" ry="2.2069" transform="matrix(-1 0 0 1 20.4418 14.6309)" fill="#7DCBE6"/>
<ellipse cx="40.9474" cy="16.8378" rx="2.24718" ry="2.2069" fill="#6DBAE0"/>
<ellipse cx="40.9474" cy="9.94127" rx="2.24718" ry="2.2069" fill="#7DCBE6"/>
<ellipse cx="2.24718" cy="2.2069" rx="2.24718" ry="2.2069" transform="matrix(-1 0 0 1 12.8583 14.6309)" fill="#6DBAE0"/>
<ellipse cx="2.24718" cy="2.2069" rx="2.24718" ry="2.2069" transform="matrix(-1 0 0 1 12.8583 7.73438)" fill="#7DCBE6"/>
<ellipse cx="48.5321" cy="9.94127" rx="2.24718" ry="2.2069" fill="#6DBAE0"/>
<ellipse cx="48.5321" cy="3.04479" rx="2.24718" ry="2.2069" fill="#7DCBE6"/>
<ellipse cx="2.24718" cy="2.2069" rx="2.24718" ry="2.2069" transform="matrix(-1 0 0 1 5.27368 7.73438)" fill="#6DBAE0"/>
<ellipse cx="2.24718" cy="2.2069" rx="2.24718" ry="2.2069" transform="matrix(-1 0 0 1 5.27368 0.837891)" fill="#7DCBE6"/>
</svg>
