<svg width="157" height="33" viewBox="0 0 157 33" fill="none" xmlns="http://www.w3.org/2000/svg">
<g clip-path="url(#clip0_287_26047)">
<path d="M13.4102 33L0 25.1369V9.62219L8.32825 14.4285V20.5709L13.4102 23.4162V33Z" fill="#004097"/>
<path d="M28.0665 7.77658L19.7576 12.6117L14.5597 9.67987L9.36176 12.6117L1.0625 7.77658L14.5597 0L28.0665 7.77658Z" fill="#3693D1"/>
<path d="M15.7188 33L29.129 25.1369V9.62219L20.7911 14.4285V20.5709L15.7188 23.4162V33Z" fill="#3693D1"/>
<path d="M43.9023 22.7819V11.2564H46.0472C46.482 11.2564 46.7622 11.4486 46.8974 11.8331L47.0907 12.4579C47.2839 12.2561 47.4868 12.0734 47.6897 11.91C47.9022 11.7466 48.1244 11.6024 48.366 11.4775C48.6075 11.3525 48.8684 11.2564 49.1486 11.1891C49.4287 11.1218 49.7379 11.0833 50.0664 11.0833C50.762 11.0833 51.3417 11.266 51.8055 11.6216C52.2596 11.9773 52.6074 12.4579 52.8489 13.0635C53.0422 12.7079 53.2837 12.4003 53.5542 12.1503C53.8247 11.9004 54.1339 11.6985 54.4624 11.5351C54.7909 11.3813 55.1291 11.266 55.4865 11.1891C55.844 11.1122 56.2111 11.0737 56.5686 11.0737C57.2353 11.0737 57.8246 11.1699 58.3367 11.3717C58.8487 11.5736 59.2835 11.8523 59.6313 12.2272C59.9791 12.6021 60.24 13.0635 60.4139 13.6018C60.5878 14.1401 60.6844 14.765 60.6844 15.4571V22.7819H57.2256V15.4571C57.2256 14.2651 56.7135 13.6691 55.6798 13.6691C55.2063 13.6691 54.8199 13.8229 54.5107 14.1305C54.2015 14.4381 54.047 14.8803 54.047 15.4571V22.7819H50.5881V15.4571C50.5881 14.7938 50.4529 14.3324 50.2017 14.0632C49.9408 13.7941 49.5543 13.6595 49.0519 13.6595C48.7428 13.6595 48.4433 13.7268 48.1631 13.871C47.8829 14.0152 47.622 14.1978 47.3708 14.4381V22.7722H43.912L43.9023 22.7819Z" fill="#3693D1"/>
<path d="M65.7674 17.6296C65.8834 18.5908 66.1732 19.2926 66.6466 19.7251C67.12 20.1577 67.7384 20.3788 68.492 20.3788C68.8978 20.3788 69.2359 20.3307 69.5354 20.2346C69.8253 20.1385 70.0861 20.0327 70.3083 19.9078C70.5306 19.7924 70.7431 19.6867 70.9363 19.5905C71.1296 19.4944 71.3228 19.4464 71.5354 19.4464C71.8156 19.4464 72.0184 19.5425 72.1634 19.7443L73.1682 20.9844C72.8107 21.3881 72.4242 21.7245 72.0088 21.9841C71.5933 22.2436 71.1682 22.4359 70.7335 22.5801C70.2987 22.7242 69.8639 22.8204 69.4292 22.878C68.9944 22.9357 68.5789 22.9646 68.1828 22.9646C67.3712 22.9646 66.608 22.83 65.9027 22.5704C65.1974 22.3109 64.5694 21.9168 64.038 21.3977C63.5066 20.8786 63.0815 20.2346 62.7724 19.4656C62.4632 18.6966 62.3086 17.8026 62.3086 16.7741C62.3086 16.005 62.4439 15.2745 62.7047 14.5824C62.9656 13.8903 63.352 13.2943 63.8448 12.7752C64.3375 12.2561 64.9365 11.8428 65.6418 11.5448C66.3471 11.2468 67.1394 11.093 68.0282 11.093C68.7915 11.093 69.4968 11.2084 70.1344 11.4487C70.7721 11.689 71.3228 12.0351 71.7769 12.4772C72.231 12.929 72.5885 13.4866 72.8493 14.1402C73.1102 14.7939 73.2358 15.5436 73.2358 16.3703C73.2358 16.6299 73.2261 16.8413 73.2068 17.0048C73.1875 17.1682 73.1392 17.2931 73.0812 17.3893C73.0232 17.4854 72.9459 17.5527 72.8397 17.5911C72.7334 17.6296 72.6078 17.6488 72.4532 17.6488H65.7674V17.6296ZM70.1248 15.6302C70.1248 15.3514 70.0861 15.0919 70.0185 14.8323C69.9509 14.5728 69.8349 14.3421 69.6707 14.1402C69.5064 13.9383 69.3035 13.7749 69.0427 13.65C68.7818 13.525 68.463 13.4577 68.0959 13.4577C67.4389 13.4577 66.9268 13.65 66.55 14.0152C66.1732 14.3901 65.9317 14.9284 65.8157 15.6302H70.1248Z" fill="#3693D1"/>
<path d="M78.9634 22.9549C78.4126 22.9549 77.9296 22.878 77.5045 22.7146C77.0794 22.5512 76.7315 22.3301 76.4417 22.0321C76.1518 21.7341 75.9393 21.388 75.7847 20.9747C75.6301 20.5614 75.5625 20.0999 75.5625 19.5809V13.6211H74.577C74.3934 13.6211 74.2485 13.5634 74.1229 13.448C73.9973 13.3327 73.9297 13.1693 73.9297 12.9386V11.5928L75.775 11.2371L76.461 8.42066C76.548 8.06499 76.7992 7.89197 77.2243 7.89197H79.031V11.2564H81.9005V13.6115H79.031V19.3406C79.031 19.6097 79.0986 19.8308 79.2242 20.0038C79.3498 20.1768 79.543 20.2634 79.7846 20.2634C79.9102 20.2634 80.0165 20.2537 80.1034 20.2249C80.1904 20.1961 80.2677 20.1672 80.3256 20.1384C80.3933 20.0999 80.4512 20.0711 80.5092 20.0519C80.5672 20.023 80.6251 20.0134 80.7024 20.0134C80.8087 20.0134 80.886 20.0423 80.9536 20.0903C81.0213 20.1384 81.0792 20.2153 81.1469 20.321L82.2 21.9552C81.7555 22.2916 81.2531 22.5415 80.6928 22.705C80.1324 22.8684 79.5527 22.9549 78.9634 22.9549Z" fill="#3693D1"/>
<path d="M83.1486 12.852C83.8442 12.2368 84.6268 11.7754 85.477 11.4774C86.3272 11.1794 87.2451 11.0256 88.2209 11.0256C88.9165 11.0256 89.5542 11.141 90.1145 11.3621C90.6749 11.5928 91.158 11.9004 91.5444 12.3041C91.9309 12.7078 92.2304 13.1885 92.443 13.746C92.6555 14.3035 92.7521 14.9091 92.7521 15.5724V22.7722H91.1676C90.8392 22.7722 90.588 22.7241 90.4237 22.6376C90.2595 22.5511 90.1145 22.3589 90.0083 22.0801L89.7667 21.4457C89.4769 21.686 89.1967 21.9071 88.9262 22.0897C88.6556 22.2724 88.3851 22.4358 88.0953 22.5607C87.8054 22.6857 87.5059 22.7914 87.1774 22.8491C86.8586 22.9164 86.4915 22.9452 86.0953 22.9452C85.564 22.9452 85.0905 22.8779 84.6558 22.7434C84.221 22.6088 83.8539 22.4069 83.5544 22.1378C83.2549 21.8686 83.023 21.5418 82.8587 21.1381C82.6945 20.744 82.6172 20.2826 82.6172 19.7635C82.6172 19.3501 82.7235 18.9272 82.9264 18.5042C83.1292 18.0813 83.4964 17.6872 84.0084 17.3411C84.5205 16.9854 85.2161 16.6971 86.0857 16.4567C86.9552 16.2164 88.0566 16.0915 89.3803 16.053V15.5628C89.3803 14.8899 89.245 14.3997 88.9648 14.1017C88.6846 13.8037 88.2885 13.6499 87.7764 13.6499C87.3707 13.6499 87.0325 13.6979 86.7716 13.7844C86.5108 13.871 86.2789 13.9767 86.076 14.0824C85.8731 14.1978 85.6702 14.2939 85.477 14.3804C85.2838 14.4669 85.0519 14.515 84.7814 14.515C84.5398 14.515 84.3369 14.4573 84.1824 14.3324C84.0181 14.217 83.8828 14.0728 83.7766 13.9094L83.1486 12.8328V12.852ZM89.3803 18.0909C88.6846 18.1197 88.1146 18.1774 87.6702 18.2735C87.2257 18.36 86.8683 18.4754 86.6074 18.61C86.3465 18.7445 86.163 18.8983 86.0664 19.0618C85.9697 19.2348 85.9118 19.4174 85.9118 19.6193C85.9118 20.0134 86.018 20.2922 86.2403 20.446C86.4528 20.6094 86.7716 20.6863 87.1871 20.6863C87.6315 20.6863 88.0276 20.6094 88.3561 20.4556C88.6943 20.3018 89.0324 20.0519 89.3706 19.6962V18.0909H89.3803Z" fill="#3693D1"/>
<path d="M110.498 11.2563L106.006 22.7818H102.856L98.3633 11.2563H101.242C101.484 11.2563 101.697 11.314 101.861 11.4294C102.025 11.5447 102.141 11.6889 102.199 11.8619L103.812 17.0335C103.957 17.4565 104.083 17.8698 104.189 18.2639C104.295 18.6676 104.392 19.0618 104.469 19.4655C104.634 18.6676 104.856 17.8506 105.155 17.0335L106.827 11.8619C106.885 11.6889 107.001 11.5447 107.165 11.4294C107.329 11.314 107.522 11.2563 107.745 11.2563H110.489H110.498Z" fill="#3693D1"/>
<path d="M115.533 8.09384C115.533 8.3726 115.475 8.62253 115.369 8.86284C115.253 9.10316 115.108 9.31464 114.915 9.49727C114.722 9.67991 114.499 9.8241 114.239 9.92984C113.978 10.0356 113.707 10.0933 113.417 10.0933C113.127 10.0933 112.867 10.0452 112.625 9.92984C112.383 9.8241 112.161 9.67991 111.968 9.49727C111.775 9.31464 111.63 9.10316 111.524 8.86284C111.417 8.62253 111.359 8.36299 111.359 8.09384C111.359 7.82469 111.417 7.54592 111.524 7.30561C111.63 7.06529 111.784 6.8442 111.968 6.66156C112.161 6.47892 112.374 6.33473 112.625 6.229C112.876 6.12326 113.137 6.0752 113.417 6.0752C113.697 6.0752 113.978 6.12326 114.239 6.229C114.499 6.33473 114.722 6.47892 114.915 6.66156C115.108 6.8442 115.263 7.06529 115.369 7.30561C115.485 7.55553 115.533 7.81507 115.533 8.09384ZM115.176 11.2468V22.7723H111.717V11.2468H115.176Z" fill="#3693D1"/>
<path d="M124.961 13.7748C124.874 13.919 124.777 14.0151 124.681 14.0728C124.584 14.1305 124.449 14.1593 124.294 14.1593C124.14 14.1593 123.966 14.1209 123.801 14.0536C123.637 13.9863 123.463 13.9094 123.27 13.8229C123.077 13.7364 122.864 13.6691 122.632 13.5922C122.391 13.5249 122.12 13.4865 121.821 13.4865C121.376 13.4865 121.048 13.573 120.806 13.7364C120.575 13.8998 120.459 14.1305 120.459 14.4285C120.459 14.64 120.536 14.8226 120.69 14.9572C120.845 15.1014 121.048 15.2263 121.299 15.3321C121.55 15.4378 121.84 15.5435 122.159 15.6397C122.478 15.7358 122.806 15.8415 123.145 15.9569C123.483 16.0722 123.811 16.2164 124.13 16.3702C124.449 16.5336 124.739 16.7259 124.99 16.9566C125.241 17.1873 125.444 17.4757 125.599 17.8025C125.753 18.1389 125.83 18.5331 125.83 19.0041C125.83 19.5712 125.724 20.0999 125.521 20.5805C125.309 21.0612 125 21.4745 124.584 21.8206C124.169 22.1666 123.657 22.4358 123.058 22.6376C122.449 22.8299 121.753 22.926 120.961 22.926C120.565 22.926 120.169 22.8876 119.773 22.8107C119.377 22.7338 119 22.6376 118.623 22.5127C118.256 22.3877 117.918 22.2339 117.599 22.0609C117.29 21.8879 117.019 21.6956 116.797 21.5034L117.599 20.2345C117.686 20.0903 117.802 19.9653 117.937 19.8788C118.072 19.7923 118.256 19.7539 118.468 19.7539C118.671 19.7539 118.855 19.8019 119.009 19.8884C119.174 19.9749 119.338 20.0711 119.531 20.1768C119.715 20.2826 119.937 20.3787 120.188 20.4652C120.439 20.5517 120.748 20.5998 121.135 20.5998C121.405 20.5998 121.628 20.5709 121.821 20.5133C122.004 20.4556 122.159 20.3787 122.265 20.2826C122.381 20.1864 122.459 20.0807 122.507 19.9653C122.555 19.85 122.584 19.725 122.584 19.6001C122.584 19.3694 122.507 19.1771 122.352 19.0329C122.198 18.8887 121.995 18.7542 121.734 18.6484C121.483 18.5427 121.193 18.4465 120.864 18.3504C120.536 18.2543 120.207 18.1486 119.879 18.0332C119.541 17.9179 119.212 17.7737 118.893 17.6006C118.565 17.4372 118.285 17.2258 118.024 16.9662C117.773 16.7067 117.57 16.3991 117.406 16.0242C117.251 15.6493 117.174 15.2071 117.174 14.6784C117.174 14.1882 117.27 13.7268 117.454 13.2846C117.637 12.8424 117.927 12.4579 118.304 12.1215C118.681 11.785 119.164 11.5255 119.734 11.3236C120.304 11.1314 120.98 11.0256 121.744 11.0256C122.159 11.0256 122.565 11.0641 122.951 11.141C123.338 11.2179 123.705 11.314 124.053 11.4486C124.401 11.5832 124.71 11.737 124.99 11.9196C125.27 12.1022 125.521 12.2945 125.734 12.5156L124.951 13.7268L124.961 13.7748Z" fill="#3693D1"/>
<path d="M131.455 8.09384C131.455 8.3726 131.397 8.62253 131.291 8.86284C131.175 9.10316 131.03 9.31464 130.837 9.49727C130.643 9.67991 130.421 9.8241 130.16 9.92984C129.9 10.0356 129.629 10.0933 129.339 10.0933C129.049 10.0933 128.788 10.0452 128.547 9.92984C128.305 9.8241 128.083 9.67991 127.89 9.49727C127.697 9.31464 127.552 9.10316 127.445 8.86284C127.339 8.62253 127.281 8.36299 127.281 8.09384C127.281 7.82469 127.339 7.54592 127.445 7.30561C127.552 7.06529 127.706 6.8442 127.89 6.66156C128.083 6.47892 128.296 6.33473 128.547 6.229C128.798 6.12326 129.059 6.0752 129.339 6.0752C129.619 6.0752 129.9 6.12326 130.16 6.229C130.421 6.33473 130.643 6.47892 130.837 6.66156C131.03 6.8442 131.185 7.06529 131.291 7.30561C131.407 7.55553 131.455 7.81507 131.455 8.09384ZM131.098 11.2468V22.7723H127.639V11.2468H131.098Z" fill="#3693D1"/>
<path d="M138.856 11.0737C139.735 11.0737 140.537 11.2083 141.262 11.4871C141.986 11.7658 142.605 12.16 143.126 12.6694C143.648 13.1789 144.044 13.8037 144.334 14.5343C144.624 15.2648 144.769 16.0819 144.769 16.9951C144.769 17.9083 144.624 18.7446 144.334 19.4751C144.044 20.2153 143.648 20.8401 143.126 21.3592C142.605 21.8783 141.986 22.2724 141.262 22.5512C140.537 22.8299 139.735 22.9645 138.856 22.9645C137.977 22.9645 137.165 22.8299 136.441 22.5512C135.716 22.2724 135.088 21.8783 134.566 21.3592C134.044 20.8401 133.639 20.2153 133.349 19.4751C133.059 18.735 132.914 17.9083 132.914 16.9951C132.914 16.0819 133.059 15.2648 133.349 14.5343C133.639 13.8037 134.044 13.1789 134.566 12.6694C135.088 12.16 135.716 11.7658 136.441 11.4871C137.165 11.2083 137.977 11.0737 138.856 11.0737ZM138.856 20.3979C139.648 20.3979 140.237 20.1192 140.614 19.5616C140.991 19.0041 141.175 18.1486 141.175 17.0143C141.175 15.88 140.991 15.0245 140.614 14.467C140.237 13.9094 139.648 13.6307 138.856 13.6307C138.064 13.6307 137.436 13.9094 137.059 14.467C136.682 15.0245 136.489 15.8704 136.489 17.0143C136.489 18.1582 136.682 19.0041 137.059 19.5616C137.436 20.1192 138.035 20.3979 138.856 20.3979Z" fill="#3693D1"/>
<path d="M149.696 12.4964C149.919 12.2945 150.15 12.0927 150.392 11.9196C150.633 11.7466 150.885 11.5928 151.155 11.4678C151.426 11.3429 151.725 11.2468 152.034 11.1795C152.353 11.1122 152.691 11.0737 153.068 11.0737C153.706 11.0737 154.266 11.1891 154.749 11.4006C155.232 11.612 155.648 11.9196 155.986 12.3138C156.324 12.6983 156.575 13.1597 156.749 13.7076C156.923 14.2459 157.01 14.8322 157.01 15.4571V22.7819H153.551V15.4571C153.551 14.8899 153.416 14.4574 153.165 14.1401C152.904 13.8229 152.517 13.6691 152.015 13.6691C151.638 13.6691 151.281 13.746 150.952 13.9094C150.624 14.0729 150.295 14.2843 149.986 14.5631V22.7915H146.527V11.266H148.672C149.107 11.266 149.387 11.4582 149.522 11.8427L149.725 12.506L149.696 12.4964Z" fill="#3693D1"/>
</g>
<defs>
<clipPath id="clip0_287_26047">
<rect width="157" height="33" fill="white"/>
</clipPath>
</defs>
</svg>
