<svg width="89" height="82" viewBox="0 0 89 82" fill="none" xmlns="http://www.w3.org/2000/svg">
<g clip-path="url(#clip0_390_3749)">
<rect x="7" y="22" width="74" height="48" rx="3" fill="white"/>
<path d="M83.5163 69.2834V26.8948C83.5163 23.0945 80.4079 19.8788 76.4051 19.8788H12.7415C8.88534 19.8788 5.63031 22.9483 5.63031 26.8948V69.2834C2.52191 69.7219 0 72.3529 0 75.5686C0 79.0766 2.96178 82 6.51005 82H82.4753C86.0236 82 88.9853 79.0766 88.9853 75.5686C88.9853 72.4991 86.6101 69.7219 83.5017 69.2834H83.5163ZM9.47183 26.8948C9.47183 25.1408 10.9527 23.533 12.8735 23.533H76.5517C78.3259 23.533 79.9534 24.9946 79.9534 26.8948V69.2834H76.2585V29.0873C76.2585 28.0642 75.3641 27.1872 74.3377 27.1872H14.9555C13.9145 27.1872 13.0348 28.0642 13.0348 29.0873V69.2834H9.33987V26.8948H9.48649H9.47183ZM51.9778 69.2834C50.9367 69.2834 50.057 70.1604 50.057 71.1836V73.0838H38.9577V71.1836C38.9577 70.1604 38.0633 69.2834 37.0369 69.2834H16.9056V67.3832H59.3969C60.4379 67.3832 61.3176 66.5062 61.3176 65.4831C61.3176 64.4599 60.4232 63.5829 59.3969 63.5829H16.8763V30.9875H72.4023V69.2834H51.9631H51.9778ZM82.4753 78.492H6.65667C5.17578 78.492 3.84152 77.3226 3.84152 75.7148C3.84152 74.1069 5.02916 72.9376 6.65667 72.9376H35.3801V74.8378C35.3801 75.861 36.2745 76.738 37.3008 76.738H52.1097C53.1507 76.738 54.0305 75.861 54.0305 74.8378V72.9376H82.7539C84.2348 72.9376 85.569 74.1069 85.569 75.7148C85.569 77.3226 84.0881 78.492 82.4606 78.492H82.4753Z" fill="#01CFFF"/>
<path d="M83.5145 3.508C84.5849 3.508 85.4353 4.35577 85.4353 5.40817C85.4353 6.46058 84.5702 7.30835 83.5145 7.30835C82.4588 7.30835 81.5938 6.46058 81.5938 5.40817C81.5938 4.35577 82.4588 3.508 83.5145 3.508Z" fill="#01CFFF"/>
<path d="M61.3036 3.508C62.3739 3.508 63.2243 4.35577 63.2243 5.40817C63.2243 6.46058 62.3593 7.30835 61.3036 7.30835C60.2479 7.30835 59.3828 6.46058 59.3828 5.40817C59.3828 4.35577 60.2479 3.508 61.3036 3.508Z" fill="#01CFFF"/>
<path d="M65.0145 63.7305C66.0849 63.7305 66.9353 64.5782 66.9353 65.6307C66.9353 66.6831 66.0702 67.5308 65.0145 67.5308C63.9588 67.5308 63.0938 66.6831 63.0938 65.6307C63.0938 64.5782 63.9588 63.7305 65.0145 63.7305Z" fill="#01CFFF"/>
<path d="M44.5731 10.8164C45.6434 10.8164 46.4939 11.6642 46.4939 12.7166C46.4939 13.769 45.6288 14.6168 44.5731 14.6168C43.5174 14.6168 42.6523 13.769 42.6523 12.7166C42.6523 11.6642 43.5174 10.8164 44.5731 10.8164Z" fill="#01CFFF"/>
<path d="M14.9559 10.8164C16.0263 10.8164 16.8767 11.6642 16.8767 12.7166C16.8767 13.769 16.0116 14.6168 14.9559 14.6168C13.9002 14.6168 13.0352 13.769 13.0352 12.7166C13.0352 11.6642 13.9002 10.8164 14.9559 10.8164Z" fill="#01CFFF"/>
<path d="M24.207 13.6536L26.8316 11.0664L29.4415 13.6536L26.8316 16.2261L24.207 13.6536Z" fill="#01CFFF"/>
<path d="M29.4141 13.6809L32.0239 11.0938L34.6485 13.6809L32.0239 16.2681L29.4141 13.6809Z" fill="#01CFFF"/>
<path d="M24.25 8.52076L26.8599 5.93359L29.4844 8.52076L26.8599 11.0933L24.25 8.52076Z" fill="#01CFFF"/>
<path d="M29.4414 8.55201L32.066 5.96484L34.6758 8.55201L32.066 11.1392L29.4414 8.55201Z" fill="#01CFFF"/>
<path d="M39.0879 34.6406H22.3583C21.3172 34.6406 20.4375 35.5176 20.4375 36.5408V58.4659C20.4375 59.4891 21.3319 60.3661 22.3583 60.3661H39.0879C40.1289 60.3661 41.0087 59.4891 41.0087 58.4659V36.5408C40.862 35.3715 39.9676 34.6406 39.0879 34.6406ZM37.1672 56.5658H24.1324V38.2948H37.1672V56.5658Z" fill="#01CFFF"/>
<path d="M68.7066 58.3214V36.1039C68.56 35.2269 67.8122 34.4961 66.9325 34.4961C43.8394 34.4961 44.5725 34.4961 43.986 34.6423C43.2382 34.9346 42.7984 35.6654 42.7984 36.3963C42.7984 59.4907 42.6518 58.6137 42.945 59.0522C43.2382 59.7831 43.986 60.0754 44.5725 60.0754C67.8269 60.0754 66.9325 60.0754 67.3723 59.9292C67.6656 59.7831 68.1201 59.6369 68.2667 59.3446C68.56 59.1984 68.7066 58.7599 68.7066 58.3214ZM46.4933 40.7813L53.1499 47.3588L46.4933 53.9364V40.7813ZM49.0152 38.2965H62.3432L55.6865 44.874L49.0298 38.2965H49.0152ZM55.6719 49.9899L62.3285 56.5674H49.0005L55.6572 49.9899H55.6719ZM58.3404 47.3588L64.9971 40.7813V53.9364L58.3404 47.3588Z" fill="#01CFFF"/>
<path d="M27.9893 43.705H33.6196C34.6606 43.705 35.5403 42.828 35.5403 41.8048C35.5403 40.7816 34.4993 40.0508 33.4729 40.0508H27.8426C26.8016 40.0508 25.9219 40.9278 25.9219 41.951C25.9219 42.9741 26.9629 43.705 27.9893 43.705Z" fill="#01CFFF"/>
<path d="M27.9911 49.2574H33.6214C34.6624 49.2574 35.5421 48.3804 35.5421 47.3572C35.5421 46.334 34.6477 45.457 33.6214 45.457H27.9911C26.95 45.457 26.0703 46.334 26.0703 47.3572C26.0703 48.3804 26.9647 49.2574 27.9911 49.2574Z" fill="#01CFFF"/>
<path d="M27.9911 54.6675H33.6214C34.6624 54.6675 35.5421 53.7905 35.5421 52.7674C35.5421 51.7442 34.6477 50.8672 33.6214 50.8672H27.9911C26.95 50.8672 26.0703 51.7442 26.0703 52.7674C26.0703 53.7905 26.9647 54.6675 27.9911 54.6675Z" fill="#01CFFF"/>
<path d="M72.4155 16.3705C75.5239 16.3705 78.0458 13.8856 78.0458 10.8161C78.0458 7.74657 75.5239 5.26172 72.4155 5.26172C69.3071 5.26172 66.7852 7.74657 66.7852 10.8161C66.7852 13.8856 69.3071 16.3705 72.4155 16.3705ZM72.4155 9.06207C73.4565 9.06207 74.3362 9.93908 74.3362 10.9623C74.3362 11.9854 73.4418 12.8624 72.4155 12.8624C71.3891 12.8624 70.4947 11.9854 70.4947 10.9623C70.4947 9.79291 71.3891 9.06207 72.4155 9.06207Z" fill="#01CFFF"/>
<path d="M10.3666 9.06239C12.8885 9.06239 14.9559 7.01604 14.9559 4.53119C14.9559 2.04635 12.8885 0 10.3666 0C7.84472 0 5.77734 2.04635 5.77734 4.53119C5.77734 7.01604 7.84472 9.06239 10.3666 9.06239ZM10.3666 3.50802C10.8065 3.50802 11.261 3.94652 11.261 4.38503C11.261 4.82353 10.8212 5.26203 10.3666 5.26203C9.91211 5.26203 9.47224 4.82353 9.47224 4.38503C9.47224 3.94652 9.76548 3.50802 10.3666 3.50802Z" fill="#01CFFF"/>
<path d="M48.2691 9.06241C50.3365 9.06241 51.964 7.45456 51.964 5.40822C51.964 3.36187 50.3365 1.75403 48.2691 1.75403C46.2017 1.75403 44.5742 3.36187 44.5742 5.40822C44.5742 7.45456 46.2017 9.06241 48.2691 9.06241Z" fill="#01CFFF"/>
</g>
<defs>
<clipPath id="clip0_390_3749">
<rect width="89" height="82" fill="white"/>
</clipPath>
</defs>
</svg>
