<svg width="83" height="82" viewBox="0 0 83 82" fill="none" xmlns="http://www.w3.org/2000/svg">
<g clip-path="url(#clip0_390_3726)">
<rect x="7.35547" y="23.1289" width="68.2911" height="37.8462" rx="4" fill="white"/>
<path d="M83 18.6826C83 15.26 80.1178 12.4078 76.6648 12.4078H46.9862V11.5521C46.9862 8.12952 44.104 5.27734 40.651 5.27734C37.198 5.27734 34.3158 8.12952 34.3158 11.5521V12.4078H6.33522C2.88224 12.4078 0 15.26 0 18.6826C0 21.82 2.3115 24.3869 5.47911 24.8147V56.046C5.47911 60.4669 9.23174 64.1747 13.6978 64.1747H39.7806V71.5904C37.6118 72.3034 36.185 74.2999 36.185 76.5817C36.185 79.5765 38.6392 82.0008 41.6641 82.0008C44.689 82.0008 47.1432 79.5765 47.1432 76.5817C47.1432 74.2999 45.7021 72.3034 43.5475 71.5904V64.1747H69.6304C74.0964 64.1747 77.8491 60.4669 77.8491 56.046V24.9573C80.5886 24.5295 83.0428 21.82 83.0428 18.6826H83ZM41.4929 78.4356C40.4798 78.4356 39.6237 77.5799 39.6237 76.5817C39.6237 75.5834 40.4941 74.7278 41.4929 74.7278C42.4917 74.7278 43.362 75.5834 43.362 76.5817C43.362 77.5799 42.4917 78.4356 41.4929 78.4356ZM37.8972 11.5521C37.8972 10.126 39.0529 8.84256 40.6368 8.84256C42.2206 8.84256 43.3763 9.98343 43.3763 11.5521V12.4078H37.8972V11.5521ZM73.9252 56.046C73.9252 58.613 71.9134 60.6095 69.3165 60.6095H13.6835C11.0866 60.6095 9.07478 58.613 9.07478 56.046V55.1904H63.1097C64.1227 55.1904 64.9789 54.3347 64.9789 53.3365C64.9789 52.3382 64.1085 51.4826 63.1097 51.4826H9.07478V24.9573H73.9252V56.046ZM76.6648 21.3921H6.33522C4.8941 21.3921 3.59567 20.2513 3.59567 18.6826C3.59567 17.1139 4.75142 15.973 6.33522 15.973H76.6505C78.0916 15.973 79.3901 17.1139 79.3901 18.6826C79.3901 20.2513 78.0916 21.3921 76.6505 21.3921H76.6648Z" fill="#01CFFF"/>
<path d="M68.5879 51.625C69.6295 51.625 70.4571 52.4521 70.4571 53.4789C70.4571 54.5057 69.6153 55.3328 68.5879 55.3328C67.5606 55.3328 66.7188 54.5057 66.7188 53.4789C66.7188 52.4521 67.5606 51.625 68.5879 51.625Z" fill="#01CFFF"/>
<path d="M14.5528 48.2034H34.3004C35.3135 48.2034 36.1696 47.3478 36.1696 46.3495V30.3773C36.1696 29.3791 35.2992 28.5234 34.3004 28.5234H14.5528C13.5397 28.5234 12.6836 29.3791 12.6836 30.3773V46.4921C12.6836 47.3478 13.554 48.2034 14.5528 48.2034ZM16.2793 32.0887H32.5596V44.6382H16.2793V32.0887Z" fill="#01CFFF"/>
<path d="M41.5059 32.087H54.1906C55.2037 32.087 56.0598 31.2313 56.0598 30.2331C56.0598 29.2348 55.1894 28.3792 54.1906 28.3792H41.5059C40.4928 28.3792 39.6367 29.2348 39.6367 30.2331C39.7794 31.2313 40.5071 32.087 41.5059 32.087Z" fill="#01CFFF"/>
<path d="M41.5059 37.5047H68.6018C69.6149 37.5047 70.471 36.649 70.471 35.6508C70.471 34.6525 69.6006 33.7969 68.6018 33.7969H41.5059C40.4928 33.7969 39.6367 34.6525 39.6367 35.6508C39.7794 36.649 40.5071 37.5047 41.5059 37.5047Z" fill="#01CFFF"/>
<path d="M41.5059 42.782H68.6018C69.6149 42.782 70.471 41.9264 70.471 40.9281C70.471 39.9299 69.6006 39.0742 68.6018 39.0742H41.5059C40.4928 39.0742 39.6367 39.9299 39.6367 40.9281C39.7794 41.9264 40.5071 42.782 41.5059 42.782Z" fill="#01CFFF"/>
<path d="M41.5059 48.2H68.6018C69.6149 48.2 70.471 47.3444 70.471 46.3461C70.471 45.3478 69.6006 44.4922 68.6018 44.4922H41.5059C40.4928 44.4922 39.6367 45.3478 39.6367 46.3461C39.6367 47.3444 40.5071 48.2 41.5059 48.2Z" fill="#01CFFF"/>
<path d="M52.3067 69.5945C53.339 69.5945 54.1759 68.7645 54.1759 67.7406C54.1759 66.7167 53.339 65.8867 52.3067 65.8867C51.2744 65.8867 50.4375 66.7167 50.4375 67.7406C50.4375 68.7645 51.2744 69.5945 52.3067 69.5945Z" fill="#01CFFF"/>
<path d="M73.9239 71.3047C74.9655 71.3047 75.793 72.1318 75.793 73.1586C75.793 74.1854 74.9512 75.0125 73.9239 75.0125C72.8965 75.0125 72.0547 74.1854 72.0547 73.1586C72.0547 72.1318 72.8965 71.3047 73.9239 71.3047Z" fill="#01CFFF"/>
<path d="M27.0957 75.0125C28.1281 75.0125 28.9649 74.1825 28.9649 73.1586C28.9649 72.1347 28.1281 71.3047 27.0957 71.3047C26.0634 71.3047 25.2266 72.1347 25.2266 73.1586C25.2266 74.1825 26.0634 75.0125 27.0957 75.0125Z" fill="#01CFFF"/>
<path d="M72.1973 5.27734C73.2389 5.27734 74.0665 6.10447 74.0665 7.13126C74.0665 8.15804 73.2246 8.98517 72.1973 8.98517C71.17 8.98517 70.3281 8.15804 70.3281 7.13126C70.3281 6.10447 71.17 5.27734 72.1973 5.27734Z" fill="#01CFFF"/>
<path d="M54.1778 7.27423C55.2101 7.27423 56.0469 6.44421 56.0469 5.42032C56.0469 4.39643 55.2101 3.56641 54.1778 3.56641C53.1455 3.56641 52.3086 4.39643 52.3086 5.42032C52.3086 6.44421 53.1455 7.27423 54.1778 7.27423Z" fill="#01CFFF"/>
<path d="M27.0957 8.98517C28.1281 8.98517 28.9649 8.15514 28.9649 7.13126C28.9649 6.10737 28.1281 5.27734 27.0957 5.27734C26.0634 5.27734 25.2266 6.10737 25.2266 7.13126C25.2266 8.15514 26.0634 8.98517 27.0957 8.98517Z" fill="#01CFFF"/>
<path d="M9.0625 77.0959L11.6023 74.5859L14.1564 77.0959L11.6023 79.62L9.0625 77.0959Z" fill="#01CFFF"/>
<path d="M14.2109 77.0359L16.765 74.5117L19.3048 77.0359L16.765 79.5601L14.2109 77.0359Z" fill="#01CFFF"/>
<path d="M9.08984 72.0906L11.6439 69.5664L14.1837 72.0906L11.6439 74.6148L9.08984 72.0906Z" fill="#01CFFF"/>
<path d="M14.2539 72.032L16.7937 69.5078L19.3478 72.032L16.7937 74.5419L14.2539 72.032Z" fill="#01CFFF"/>
<path d="M61.3815 69.5938C58.3565 69.5938 55.9023 72.0181 55.9023 75.0129C55.9023 78.0077 58.3565 80.432 61.3815 80.432C64.4064 80.432 66.8606 78.0077 66.8606 75.0129C66.8606 72.0181 64.2637 69.5938 61.3815 69.5938ZM61.3815 76.7242C60.3684 76.7242 59.5123 75.8685 59.5123 74.8703C59.5123 73.872 60.3827 73.0164 61.3815 73.0164C62.3803 73.0164 63.2506 73.872 63.2506 74.8703C63.108 75.8685 62.2376 76.7242 61.3815 76.7242Z" fill="#01CFFF"/>
<path d="M11.8137 8.98435C14.2679 8.98435 16.2798 6.98783 16.2798 4.56348C16.2798 2.13913 14.2679 0 11.8137 0C9.35952 0 7.34766 1.99652 7.34766 4.42087C7.34766 6.84522 9.35952 8.98435 11.8137 8.98435ZM11.8137 3.56522C12.2418 3.56522 12.6841 3.99304 12.6841 4.42087C12.6841 4.8487 12.256 5.27652 11.8137 5.27652C11.3714 5.27652 10.9433 4.8487 10.9433 4.42087C10.9433 3.99304 11.2287 3.56522 11.8137 3.56522Z" fill="#01CFFF"/>
</g>
<defs>
<clipPath id="clip0_390_3726">
<rect width="83" height="82" fill="white"/>
</clipPath>
</defs>
</svg>
