<svg width="66" height="75" viewBox="0 0 66 75" fill="none" xmlns="http://www.w3.org/2000/svg">
<path fill-rule="evenodd" clip-rule="evenodd" d="M0.00199896 20.2119C-0.00961796 20.4221 0.0366672 20.6376 0.14706 20.8335C0.242834 21.0042 0.383774 21.1524 0.564704 21.2583L18.5272 31.7826V36.6543L1.73064 26.529C1.37751 26.316 0.937622 26.3099 0.579925 26.5123C0.222229 26.7146 0 27.0935 0 27.5059V39.1353V39.1541V54.2793C0 54.6764 0.205485 55.0447 0.543394 55.2516L32.4012 74.8311C32.5854 74.9437 32.7924 75 32.9994 75L33.0071 75C33.0336 74.9998 33.0601 74.9988 33.0866 74.9967C33.2489 74.9846 33.4093 74.9381 33.5565 74.8554C33.5854 74.8392 33.6134 74.8219 33.6405 74.8035L47.8789 65.7814L47.8999 65.7685L47.9088 65.7628L47.9251 65.7521L65.4691 54.6354C66.0019 54.2976 66.1602 53.5931 65.8223 53.0605C65.4844 52.528 64.7796 52.3698 64.2469 52.7075L48.4337 62.7275V46.1602L58.2498 40.6339V48.7241L54.3912 51.0369L54.4825 47.9785C54.5023 47.3486 54.0061 46.8221 53.376 46.8039C52.7473 46.7841 52.2192 47.2801 52.2009 47.91L52.0487 53.0545C52.0365 53.4714 52.2526 53.8609 52.6134 54.0724C52.9726 54.2824 53.4201 54.2808 53.7778 54.0663L59.9227 50.3822C59.939 50.3736 59.9552 50.3646 59.9713 50.3552L65.4341 47.1584C65.7842 46.9545 65.9988 46.5787 65.9988 46.1739V27.5544C66.0003 27.5206 66.0004 27.4867 65.9988 27.4528V20.2754C65.9988 19.8661 65.7797 19.4887 65.425 19.2848C65.0704 19.0825 64.6335 19.084 64.2804 19.2909L49.6925 27.8377L45.0459 24.7886L58.3105 17.0132C58.4829 16.9192 58.6333 16.7796 58.7416 16.5991C59.0658 16.059 58.8908 15.3575 58.3504 15.0334L45.7871 7.48922C45.665 7.37334 45.5206 7.2881 45.3658 7.2362L33.5872 0.163188C33.2264 -0.054396 32.7744 -0.054396 32.4121 0.163188L0.554258 19.2954C0.346098 19.4202 0.19215 19.6011 0.100074 19.8071C0.0413793 19.9377 0.00927414 20.0749 0.00199896 20.2119ZM47.4937 29.126L42.8476 26.0772L33.5733 31.5137C33.3952 31.6186 33.1958 31.6704 32.9964 31.6704L32.9994 31.6689C32.797 31.6689 32.5945 31.6156 32.4134 31.5076L21.2534 24.8335L16.245 27.8003L20.2238 30.1314C20.2318 30.1359 20.2397 30.1404 20.2476 30.1451L20.2657 30.1559L33.0007 37.6172L47.4937 29.126ZM34.141 39.594V49.1043L39.4714 45.5591V41.6184C39.4714 41.2121 39.6876 40.8363 40.0392 40.6324L63.7157 26.8489V22.2656L34.141 39.594ZM63.7157 29.4913L41.7546 42.2757V46.1279C41.7556 46.1554 41.7556 46.183 41.7546 46.2104V60.8829C41.7546 61.5128 41.2432 62.0241 40.613 62.0241C39.9829 62.0241 39.4714 61.5128 39.4714 60.8829V48.3008L34.141 51.846V71.784L46.1535 64.1723V45.4908C46.1535 45.0784 46.3758 44.698 46.735 44.4957L58.8343 37.6851C59.1874 37.4858 59.6197 37.4888 59.9697 37.6943C60.3198 37.8997 60.5345 38.274 60.5345 38.6802V47.3799L63.7157 45.5181V29.4913ZM19.0238 23.5001L13.9924 26.4805L3.37825 20.2618L17.9761 11.4952L22.3762 14.1105L14.4951 18.8344C14.1511 19.0414 13.941 19.4126 13.941 19.8143C13.941 20.2145 14.1526 20.5873 14.4966 20.7927L19.0238 23.5001ZM24.6004 12.7774L32.4119 8.09524C32.9522 7.77115 33.6539 7.94613 33.9781 8.4878C34.3023 9.02796 34.1273 9.7294 33.5854 10.0535L17.3034 19.8128L33.004 29.2024L55.5264 16L51.1026 13.3435L32.8381 24.8051C32.6493 24.9238 32.4393 24.9801 32.2323 24.9801C31.8517 24.9801 31.4819 24.7914 31.2642 24.446C30.9293 23.9119 31.0907 23.2074 31.6234 22.8727L37.4586 19.2109L33.6655 16.7212L26.914 20.9251C26.7268 21.0422 26.5183 21.097 26.3113 21.097V21.0985C25.9307 21.0985 25.5578 20.9083 25.3417 20.5599C25.0083 20.0243 25.1712 19.3214 25.707 18.9881L42.7894 8.35159L32.9996 2.47292L20.1982 10.1607L24.6004 12.7774ZM48.9083 12.0259L39.584 17.8772C39.5658 17.8636 39.547 17.8505 39.5278 17.8378L35.8009 15.3916L44.9875 9.67149L48.9083 12.0259ZM20.8103 38.0306V33.1204L31.8578 39.5932V56.6522L28.1347 54.5391V43.0897C28.1347 42.6896 27.9247 42.3198 27.5822 42.1129L20.8103 38.0306ZM25.8516 55.1863C25.8514 55.1967 25.8514 55.2071 25.8516 55.2174V60.0689L12.7538 52.4092V48.5019L20.8377 53.3831C21.1893 53.5961 21.6292 53.6022 21.9885 53.3998C22.3461 53.1975 22.5684 52.8186 22.5684 52.4063V45.7722C22.5684 45.3721 22.3583 45.0023 22.0174 44.7954L7.86476 36.229C7.51163 36.016 7.07174 36.0084 6.71252 36.2107C6.3533 36.4131 6.13107 36.792 6.13107 37.2043V40.9489L2.28317 38.5169V29.5265L25.8516 43.7334V55.1863ZM28.1347 57.1625L31.8578 59.2756V71.8169L2.28317 53.6418V41.2179L6.66229 43.9859C7.0139 44.2081 7.45988 44.2218 7.82366 44.0209C8.18745 43.8201 8.41424 43.4366 8.41424 43.0212V39.2295L20.2837 46.4143V50.3826L12.1997 45.5014C11.8481 45.2884 11.4082 45.2823 11.049 45.4847C10.6913 45.687 10.4691 46.0659 10.4691 46.4782V51.0732L5.92407 48.4152C5.38067 48.0972 4.6805 48.2798 4.36238 48.8245C4.04426 49.3677 4.22691 50.0676 4.77183 50.3856L26.4163 63.0451C26.7694 63.2505 27.2063 63.2535 27.5609 63.0496C27.9156 62.8457 28.1347 62.4684 28.1347 62.0591V57.1625Z" fill="url(#paint0_linear_56_2237)"/>
<defs>
<linearGradient id="paint0_linear_56_2237" x1="48.9282" y1="19.1341" x2="48.9282" y2="50.5117" gradientUnits="userSpaceOnUse">
<stop stop-color="#02B2DF"/>
<stop offset="1" stop-color="#02D0CD"/>
</linearGradient>
</defs>
</svg>
