<svg width="60" height="60" viewBox="0 0 60 60" fill="none" xmlns="http://www.w3.org/2000/svg">
<path fill-rule="evenodd" clip-rule="evenodd" d="M58.6083 7.57475H56.2099C56.2099 10.1661 56.2099 55.0166 56.3086 57.4086H58.707C59.3979 57.4086 60 58.0066 60 58.7043C60 59.402 59.4078 60 58.707 60H1.29298C0.602072 60 0 59.402 0 58.7043C0 58.0066 0.592202 57.4086 1.29298 57.4086H3.6914V7.57475H1.29298C0.602072 7.57475 0 6.97674 0 6.27907V1.29568C0 0.598007 0.602072 0 1.29298 0H58.6083C59.2992 0 59.9013 0.598007 59.9013 1.29568V6.27907C59.9013 6.97674 59.3091 7.57475 58.6083 7.57475ZM35.6407 37.4751H46.7248C47.4255 37.4751 47.919 38.0731 47.8203 38.6711V47.4419H53.6141V34.9834H6.08982V47.4419H11.8835V38.6711C11.8835 37.9734 12.4856 37.3754 13.1864 37.3754H24.1717C24.8626 37.3754 25.4647 37.9734 25.4647 38.6711V47.4419H34.3477V38.7708C34.3477 38.0731 34.9399 37.4751 35.6407 37.4751ZM34.3379 49.9336H25.4548V57.4086H34.3379V49.9336ZM57.414 2.59136H2.49712V5.08306H57.414V2.59136ZM53.7128 32.4917V7.57475H6.18852V32.4917H53.7128ZM11.9822 49.9336H6.18852V57.4086H11.9822V49.9336ZM14.4793 39.9668V57.4086H23.0663V39.9668H14.4793ZM36.9436 39.9668V57.4086H45.4318V39.9668H36.9436ZM47.9289 49.9336V57.4086H53.7226V49.9336H47.9289ZM9.48511 17.5415H13.1765C13.8773 17.5415 14.4793 16.9435 14.4793 16.2458V11.2625C14.4793 10.5648 13.8773 9.96678 13.1765 9.96678H9.48511C8.78434 9.96678 8.19213 10.5648 8.19213 11.2625V16.2458C8.29083 16.9435 8.79421 17.5415 9.48511 17.5415ZM10.788 12.5581H11.9822V15.0498H10.788V12.5581ZM16.8778 17.5415H20.5692C21.2699 17.5415 21.872 16.9435 21.872 16.2458V11.2625C21.872 10.5648 21.2699 9.96678 20.5692 9.96678H16.8778C16.177 9.96678 15.5749 10.5648 15.5749 11.2625V16.2458C15.6736 16.9435 16.177 17.5415 16.8778 17.5415ZM18.1707 12.5581H19.365V15.0498H18.1707V12.5581ZM27.952 17.5415H24.2606C23.5697 17.5415 22.9676 16.9435 22.9676 16.2458V11.2625C22.9676 10.5648 23.5598 9.96678 24.2606 9.96678H27.952C28.6527 9.96678 29.2548 10.5648 29.2548 11.2625V16.2458C29.2548 16.9435 28.6527 17.5415 27.952 17.5415ZM26.6491 12.5581H25.4548V15.0498H26.6491V12.5581ZM9.48511 30H13.1765C13.8773 30 14.4793 29.402 14.4793 28.7043V23.7209C14.4793 23.0233 13.8773 22.4252 13.1765 22.4252H9.48511C8.78434 22.4252 8.19213 23.0233 8.19213 23.7209V28.7043C8.29083 29.402 8.79421 30 9.48511 30ZM10.788 25.0166H11.9822V27.5083H10.788V25.0166ZM20.5692 30H16.8778C16.177 30 15.6736 29.402 15.5749 28.7043V23.7209C15.5749 23.0233 16.177 22.4252 16.8778 22.4252H20.5692C21.2699 22.4252 21.872 23.0233 21.872 23.7209V28.7043C21.872 29.402 21.2699 30 20.5692 30ZM19.365 25.0166H18.1707V27.5083H19.365V25.0166ZM24.2606 30H27.952C28.6527 30 29.2548 29.402 29.2548 28.7043V23.7209C29.2548 23.0233 28.6527 22.4252 27.952 22.4252H24.2606C23.5598 22.4252 22.9676 23.0233 22.9676 23.7209V28.7043C22.9676 29.402 23.5697 30 24.2606 30ZM25.4548 25.0166H26.6491V27.5083H25.4548V25.0166ZM35.6407 17.5415H31.9493C31.2584 17.5415 30.755 16.9435 30.6563 16.2458V11.2625C30.6563 10.5648 31.2485 9.96678 31.9493 9.96678H35.6407C36.3316 9.96678 36.9337 10.5648 36.9337 11.2625V16.2458C36.9337 16.9435 36.3415 17.5415 35.6407 17.5415ZM34.4464 12.5581H33.2522V15.0498H34.4464V12.5581ZM39.342 17.5415H43.0334C43.7341 17.5415 44.3264 16.9435 44.3264 16.2458V11.2625C44.3264 10.5648 43.7243 9.96678 43.0334 9.96678H39.342C38.6412 9.96678 38.049 10.5648 38.049 11.2625V16.2458C38.1477 16.9435 38.6511 17.5415 39.342 17.5415ZM40.635 12.5581H41.8292V15.0498H40.635V12.5581ZM50.4162 17.5415H46.7248C46.0339 17.5415 45.4318 16.9435 45.4318 16.2458V11.2625C45.4318 10.5648 46.024 9.96678 46.7248 9.96678H50.4162C51.1071 9.96678 51.7091 10.5648 51.7091 11.2625V16.2458C51.7091 16.9435 51.1169 17.5415 50.4162 17.5415ZM49.1133 12.5581H47.919V15.0498H49.1133V12.5581ZM31.9493 30H35.6407C36.3415 30 36.9337 29.402 36.9337 28.7043V23.7209C36.9337 23.0233 36.3316 22.4252 35.6407 22.4252H31.9493C31.2485 22.4252 30.6563 23.0233 30.6563 23.7209V28.7043C30.755 29.402 31.2584 30 31.9493 30ZM33.2522 25.0166H34.4464V27.5083H33.2522V25.0166ZM43.0334 30H39.342C38.6511 30 38.1477 29.402 38.049 28.7043V23.7209C38.049 23.0233 38.6412 22.4252 39.342 22.4252H43.0334C43.7243 22.4252 44.3264 23.0233 44.3264 23.7209V28.7043C44.3264 29.402 43.7341 30 43.0334 30ZM41.8292 25.0166H40.635V27.5083H41.8292V25.0166ZM46.7248 30H50.4162C51.1169 30 51.7091 29.402 51.7091 28.7043V23.7209C51.7091 23.0233 51.1071 22.4252 50.4162 22.4252H46.7248C46.024 22.4252 45.4318 23.0233 45.4318 23.7209V28.7043C45.4318 29.402 46.0339 30 46.7248 30ZM47.919 25.0166H49.1133V27.5083H47.919V25.0166Z" fill="url(#paint0_linear_56_2254)"/>
<defs>
<linearGradient id="paint0_linear_56_2254" x1="30" y1="0" x2="30" y2="60" gradientUnits="userSpaceOnUse">
<stop stop-color="#02B0E0"/>
<stop offset="1" stop-color="#03D1CE"/>
</linearGradient>
</defs>
</svg>
