<svg width="58" height="66" viewBox="0 0 58 66" fill="none" xmlns="http://www.w3.org/2000/svg">
<path fill-rule="evenodd" clip-rule="evenodd" d="M28.323 65.8197L0.679089 49.9921V49.9907C0.259489 49.7512 0 49.3049 0 48.8259V17.1721C0 16.6903 0.26087 16.2468 0.679089 16.0059L28.323 0.179657C28.7426 -0.0598855 29.2602 -0.0598855 29.6798 0.179657L57.3237 16.0059C57.7447 16.2468 58.0028 16.6903 58.0028 17.1721V48.8272C58.0028 49.3063 57.7433 49.7525 57.3237 49.9921L29.6812 65.8197C29.47 65.9401 29.2381 66.0003 29.0021 66.0003C28.766 66.0003 28.5328 65.9387 28.323 65.8197ZM5.52795 49.6595L29.0021 63.0998L33.9834 60.2472L14.4168 40.8429L5.52795 49.6595ZM36.4168 58.8538L55.2878 48.0497V44.5196L42.2402 31.5802L25.5776 48.1045L36.4168 58.8538ZM29.0007 2.89949L2.7136 17.9496V36.3519L20.5618 18.6559C21.0697 18.1508 21.971 18.1508 22.4803 18.6559L36.9565 33.0133L41.2809 28.7262C41.8095 28.2006 42.6694 28.2006 43.1994 28.7262L55.2864 40.7143V17.9496L29.0007 2.89949ZM21.5183 21.5112L2.7136 40.1585V48.0484L3.09317 48.266L13.4562 37.989C13.9848 37.4634 14.8447 37.4634 15.3747 37.989L23.6563 46.2018L35.0352 34.9174L21.5183 21.5112ZM19.1829 32.0152H20.069C20.6004 32.0152 21.0366 31.5841 21.0366 31.0584V30.1783C21.0366 29.6513 20.6004 29.2188 20.069 29.2188H19.1829C18.6515 29.2188 18.2153 29.6513 18.2153 30.1783V31.0584C18.2153 31.5854 18.6515 32.0152 19.1829 32.0152ZM22.9689 32.9734H23.8551C24.3892 32.9734 24.8213 33.4032 24.8213 33.9316V34.8117C24.8213 35.3401 24.3879 35.7699 23.8551 35.7699H22.9676C22.4348 35.7699 22.0014 35.3401 22.0014 34.8117V33.9316C22.0014 33.4018 22.4348 32.9734 22.9676 32.9734H22.9689ZM23.8551 32.0152H22.9689C22.4375 32.0152 22.0028 31.5854 22.0028 31.0584V30.1783C22.0028 29.6513 22.4375 29.2188 22.9689 29.2188H23.8551C24.3865 29.2188 24.8226 29.6513 24.8226 30.1783V31.0584C24.8226 31.5841 24.3865 32.0152 23.8551 32.0152ZM19.1829 35.7699H20.069C20.6004 35.7699 21.0366 35.3387 21.0366 34.8117V33.9316C21.0366 33.406 20.6004 32.9734 20.069 32.9734H19.1829C18.6515 32.9734 18.2153 33.406 18.2153 33.9316V34.8117C18.2153 35.3387 18.6515 35.7699 19.1829 35.7699ZM39.6687 40.4321H40.6432C41.2298 40.4321 41.7074 40.907 41.7074 41.4874V42.4552C41.7074 43.0342 41.2284 43.5092 40.6432 43.5092H39.6687C39.0821 43.5092 38.6046 43.0342 38.6046 42.4552V41.4874C38.6046 40.907 39.0835 40.4321 39.6687 40.4321ZM43.833 47.6402H44.8088C45.3927 47.6402 45.873 47.1652 45.873 46.5862V45.6185C45.873 45.0409 45.3941 44.5645 44.8088 44.5645H43.833C43.2491 44.5645 42.7702 45.0395 42.7702 45.6185V46.5862C42.7702 47.1652 43.2491 47.6402 43.833 47.6402ZM44.8088 43.5092H43.833C43.2491 43.5092 42.7702 43.0342 42.7702 42.4552V41.4874C42.7702 40.907 43.2491 40.4321 43.833 40.4321H44.8088C45.3941 40.4321 45.873 40.907 45.873 41.4874V42.4552C45.873 43.0342 45.3927 43.5092 44.8088 43.5092ZM40.6432 44.5631H39.6687C39.0835 44.5631 38.6046 45.0381 38.6046 45.6171V46.5849C38.6046 47.1639 39.0821 47.6389 39.6687 47.6389H40.6432C41.2284 47.6389 41.7074 47.1639 41.7074 46.5849V45.6171C41.7074 45.0395 41.2298 44.5631 40.6432 44.5631ZM12.3561 45.4693H13.1373C13.6066 45.4693 13.9903 45.8498 13.9903 46.3138V47.09C13.9903 47.554 13.6066 47.9345 13.1373 47.9345H12.3561C11.8868 47.9345 11.5045 47.554 11.5045 47.09V46.3138C11.5045 45.8498 11.8868 45.4693 12.3561 45.4693ZM15.6922 51.2429H16.4734C16.9427 51.2429 17.3251 50.8624 17.3251 50.3984V49.6236C17.3251 49.1596 16.9413 48.7791 16.4734 48.7791H15.6922C15.2243 48.7791 14.8406 49.1596 14.8406 49.6236V50.3984C14.8406 50.8638 15.2243 51.2429 15.6922 51.2429ZM16.4734 47.9345H15.6922C15.2243 47.9345 14.8406 47.554 14.8406 47.09V46.3138C14.8406 45.8498 15.2243 45.4693 15.6922 45.4693H16.4734C16.9413 45.4693 17.3251 45.8498 17.3251 46.3138V47.09C17.3251 47.554 16.9427 47.9345 16.4734 47.9345ZM13.1373 48.7791H12.3561C11.8868 48.7791 11.5045 49.1596 11.5045 49.6236V50.3984C11.5045 50.8638 11.8868 51.2429 12.3561 51.2429H13.1373C13.6066 51.2429 13.9903 50.8624 13.9903 50.3984V49.6236C13.9903 49.1596 13.6066 48.7791 13.1373 48.7791Z" fill="url(#paint0_linear_56_2306)"/>
<defs>
<linearGradient id="paint0_linear_56_2306" x1="29.0014" y1="0" x2="29.0014" y2="66.0004" gradientUnits="userSpaceOnUse">
<stop stop-color="#04B6DF"/>
<stop offset="1" stop-color="#04D0CF"/>
</linearGradient>
</defs>
</svg>
