<svg width="169" height="38" viewBox="0 0 169 38" fill="none" xmlns="http://www.w3.org/2000/svg">
<g clip-path="url(#clip0_56_2160)">
<path d="M15.2607 38L0 28.9455V11.0801L9.47746 16.6146V23.6877L15.2607 26.9641V38Z" fill="#004097"/>
<path d="M31.9397 8.95485L22.4843 14.5226L16.5691 11.1465L10.6539 14.5226L1.20947 8.95485L16.5691 0L31.9397 8.95485Z" fill="#3693D1"/>
<path d="M17.8882 38L33.1489 28.9455V11.0801L23.6604 16.6146V23.6877L17.8882 26.9641V38Z" fill="#3693D1"/>
<path d="M49.96 26.234V12.9623H52.4008C52.8956 12.9623 53.2144 13.1836 53.3683 13.6264L53.5882 14.3459C53.8081 14.1134 54.039 13.9031 54.2699 13.715C54.5118 13.5268 54.7647 13.3607 55.0395 13.2169C55.3144 13.073 55.6113 12.9623 55.9301 12.8848C56.2489 12.8073 56.6008 12.763 56.9746 12.763C57.7662 12.763 58.4259 12.9733 58.9537 13.3829C59.4704 13.7924 59.8662 14.3459 60.1411 15.0432C60.361 14.6337 60.6358 14.2795 60.9437 13.9917C61.2516 13.7039 61.6034 13.4714 61.9772 13.2833C62.351 13.1062 62.7358 12.9733 63.1426 12.8848C63.5494 12.7962 63.9672 12.752 64.3741 12.752C65.1327 12.752 65.8034 12.8626 66.3861 13.0951C66.9688 13.3275 67.4636 13.6485 67.8594 14.0802C68.2552 14.5119 68.552 15.0432 68.75 15.6631C68.9479 16.283 69.0578 17.0025 69.0578 17.7994V26.234H65.1217V17.7994C65.1217 16.4269 64.539 15.7406 63.3625 15.7406C62.8238 15.7406 62.384 15.9177 62.0322 16.2719C61.6803 16.6261 61.5044 17.1353 61.5044 17.7994V26.234H57.5683V17.7994C57.5683 17.0357 57.4144 16.5044 57.1285 16.1944C56.8317 15.8845 56.3919 15.7295 55.8202 15.7295C55.4683 15.7295 55.1275 15.807 54.8086 15.973C54.4898 16.1391 54.1929 16.3494 53.9071 16.6261V26.223H49.971L49.96 26.234Z" fill="#3693D1"/>
<path d="M74.8409 20.3009C74.9728 21.4078 75.3027 22.2158 75.8414 22.7139C76.3802 23.212 77.0838 23.4666 77.9414 23.4666C78.4032 23.4666 78.788 23.4113 79.1288 23.3006C79.4587 23.1899 79.7555 23.0681 80.0084 22.9242C80.2613 22.7914 80.5032 22.6696 80.7231 22.559C80.943 22.4483 81.1629 22.3929 81.4048 22.3929C81.7236 22.3929 81.9545 22.5036 82.1194 22.7361L83.2629 24.164C82.8561 24.6289 82.4163 25.0163 81.9435 25.3151C81.4707 25.614 80.987 25.8354 80.4922 26.0014C79.9974 26.1675 79.5027 26.2781 79.0079 26.3446C78.5131 26.411 78.0404 26.4442 77.5896 26.4442C76.666 26.4442 75.7974 26.2892 74.9948 25.9904C74.1922 25.6915 73.4776 25.2377 72.8728 24.6399C72.2681 24.0422 71.7844 23.3006 71.4325 22.4151C71.0807 21.5295 70.9048 20.5001 70.9048 19.3157C70.9048 18.4302 71.0587 17.589 71.3556 16.792C71.6524 15.995 72.0922 15.3087 72.653 14.711C73.2137 14.1133 73.8954 13.6373 74.698 13.2942C75.5006 12.951 76.4022 12.7739 77.4137 12.7739C78.2823 12.7739 79.0849 12.9068 79.8105 13.1835C80.5362 13.4602 81.1629 13.8587 81.6796 14.3679C82.1964 14.8881 82.6032 15.5301 82.9 16.2828C83.1969 17.0355 83.3398 17.8989 83.3398 18.8508C83.3398 19.1497 83.3288 19.3932 83.3068 19.5814C83.2849 19.7696 83.2299 19.9135 83.1639 20.0241C83.0979 20.1348 83.01 20.2123 82.889 20.2566C82.7681 20.3009 82.6252 20.323 82.4493 20.323H74.8409V20.3009ZM79.7995 17.9985C79.7995 17.6775 79.7555 17.3786 79.6786 17.0798C79.6016 16.7809 79.4697 16.5153 79.2828 16.2828C79.0959 16.0504 78.865 15.8622 78.5681 15.7183C78.2713 15.5744 77.9084 15.4969 77.4906 15.4969C76.743 15.4969 76.1603 15.7183 75.7315 16.1389C75.3027 16.5706 75.0278 17.1905 74.8959 17.9985H79.7995Z" fill="#3693D1"/>
<path d="M89.8596 26.4331C89.2329 26.4331 88.6832 26.3445 88.1994 26.1563C87.7156 25.9682 87.3198 25.7136 86.99 25.3704C86.6601 25.0273 86.4183 24.6288 86.2423 24.1528C86.0664 23.6769 85.9895 23.1456 85.9895 22.5478V15.685H84.868C84.6591 15.685 84.4942 15.6186 84.3512 15.4858C84.2083 15.353 84.1313 15.1648 84.1313 14.8991V13.3495L86.2313 12.9399L87.012 9.69669C87.1109 9.28713 87.3968 9.08789 87.8806 9.08789H89.9366V12.9621H93.202V15.674H89.9366V22.2711C89.9366 22.581 90.0135 22.8356 90.1565 23.0349C90.2994 23.2341 90.5193 23.3337 90.7942 23.3337C90.9371 23.3337 91.058 23.3227 91.157 23.2895C91.2559 23.2563 91.3439 23.223 91.4099 23.1898C91.4868 23.1456 91.5528 23.1124 91.6188 23.0902C91.6847 23.057 91.7507 23.0459 91.8387 23.0459C91.9596 23.0459 92.0476 23.0791 92.1245 23.1345C92.2015 23.1898 92.2674 23.2784 92.3444 23.4002L93.5428 25.2819C93.0371 25.6693 92.4654 25.9571 91.8277 26.1453C91.19 26.3334 90.5303 26.4331 89.8596 26.4331Z" fill="#3693D1"/>
<path d="M94.6096 14.7994C95.4012 14.091 96.2918 13.5597 97.2593 13.2165C98.2269 12.8734 99.2714 12.6963 100.382 12.6963C101.173 12.6963 101.899 12.8291 102.537 13.0837C103.174 13.3494 103.724 13.7036 104.164 14.1685C104.604 14.6334 104.945 15.1868 105.187 15.8288C105.428 16.4708 105.538 17.1682 105.538 17.9319V26.2227H103.735C103.361 26.2227 103.076 26.1673 102.889 26.0677C102.702 25.9681 102.537 25.7467 102.416 25.4257L102.141 24.6951C101.811 24.9718 101.492 25.2264 101.184 25.4367C100.877 25.6471 100.569 25.8352 100.239 25.9791C99.9091 26.123 99.5682 26.2448 99.1944 26.3112C98.8316 26.3887 98.4138 26.4219 97.963 26.4219C97.3583 26.4219 96.8195 26.3444 96.3248 26.1894C95.83 26.0345 95.4122 25.802 95.0714 25.4921C94.7305 25.1822 94.4667 24.8058 94.2798 24.3409C94.0928 23.8871 94.0049 23.3558 94.0049 22.758C94.0049 22.2821 94.1258 21.795 94.3567 21.308C94.5876 20.821 95.0054 20.3671 95.5881 19.9686C96.1708 19.5591 96.9625 19.227 97.952 18.9503C98.9415 18.6736 100.195 18.5297 101.701 18.4854V17.9209C101.701 17.146 101.547 16.5815 101.228 16.2384C100.91 15.8952 100.459 15.7181 99.8761 15.7181C99.4143 15.7181 99.0295 15.7735 98.7326 15.8731C98.4358 15.9727 98.1719 16.0945 97.941 16.2162C97.7101 16.3491 97.4792 16.4598 97.2593 16.5594C97.0394 16.659 96.7756 16.7143 96.4677 16.7143C96.1928 16.7143 95.9619 16.6479 95.786 16.504C95.5991 16.3712 95.4452 16.2052 95.3242 16.017L94.6096 14.7773V14.7994ZM101.701 20.832C100.91 20.8652 100.261 20.9317 99.7551 21.0423C99.2494 21.142 98.8426 21.2748 98.5457 21.4298C98.2488 21.5847 98.0399 21.7618 97.93 21.95C97.8201 22.1492 97.7541 22.3596 97.7541 22.592C97.7541 23.0458 97.875 23.3668 98.1279 23.5439C98.3698 23.7321 98.7326 23.8207 99.2054 23.8207C99.7112 23.8207 100.162 23.7321 100.536 23.555C100.921 23.3779 101.305 23.0901 101.69 22.6806V20.832H101.701Z" fill="#3693D1"/>
<path d="M117.644 14.6003C118.16 14.0469 118.743 13.593 119.403 13.2388C120.063 12.8846 120.843 12.7075 121.745 12.7075C122.426 12.7075 123.064 12.8625 123.647 13.1724C124.23 13.4824 124.735 13.9251 125.164 14.5007C125.593 15.0763 125.923 15.7958 126.165 16.626C126.407 17.4672 126.527 18.4191 126.527 19.4928C126.527 20.4891 126.385 21.4078 126.11 22.2601C125.835 23.1013 125.45 23.843 124.955 24.4628C124.46 25.0827 123.867 25.5697 123.174 25.9239C122.481 26.2782 121.723 26.4442 120.876 26.4442C120.194 26.4442 119.612 26.3446 119.15 26.1453C118.688 25.9461 118.259 25.6804 117.875 25.3484V30.4401H113.938V12.951H116.379C116.874 12.951 117.193 13.1724 117.347 13.6152L117.644 14.5893V14.6003ZM117.886 22.6254C118.182 22.9464 118.501 23.1788 118.853 23.3117C119.205 23.4445 119.568 23.522 119.942 23.522C120.315 23.522 120.645 23.4445 120.942 23.3006C121.25 23.1567 121.514 22.9242 121.734 22.6032C121.954 22.2822 122.13 21.8727 122.261 21.3524C122.393 20.8433 122.448 20.2123 122.448 19.4818C122.448 18.7512 122.393 18.1978 122.294 17.7107C122.196 17.2348 122.053 16.8473 121.866 16.5485C121.679 16.2496 121.47 16.0393 121.206 15.9175C120.953 15.7847 120.667 15.7294 120.359 15.7294C119.788 15.7294 119.304 15.8401 118.941 16.0504C118.567 16.2607 118.215 16.5706 117.875 16.9802V22.6143L117.886 22.6254Z" fill="#3693D1"/>
<path d="M128.264 14.7994C129.056 14.091 129.947 13.5597 130.914 13.2165C131.882 12.8734 132.926 12.6963 134.037 12.6963C134.828 12.6963 135.554 12.8291 136.192 13.0837C136.829 13.3494 137.379 13.7036 137.819 14.1685C138.259 14.6334 138.599 15.1868 138.841 15.8288C139.083 16.4708 139.193 17.1682 139.193 17.9319V26.2227H137.39C137.016 26.2227 136.73 26.1673 136.543 26.0677C136.357 25.9681 136.192 25.7467 136.071 25.4257L135.796 24.6951C135.466 24.9718 135.147 25.2264 134.839 25.4367C134.531 25.6471 134.224 25.8352 133.894 25.9791C133.564 26.123 133.223 26.2448 132.849 26.3112C132.486 26.3887 132.069 26.4219 131.618 26.4219C131.013 26.4219 130.474 26.3444 129.98 26.1894C129.485 26.0345 129.067 25.802 128.726 25.4921C128.385 25.1822 128.121 24.8058 127.935 24.3409C127.748 23.8871 127.66 23.3558 127.66 22.758C127.66 22.2821 127.781 21.795 128.011 21.308C128.242 20.821 128.66 20.3671 129.243 19.9686C129.826 19.5591 130.617 19.227 131.607 18.9503C132.596 18.6736 133.85 18.5297 135.356 18.4854V17.9209C135.356 17.146 135.202 16.5815 134.883 16.2384C134.564 15.8952 134.114 15.7181 133.531 15.7181C133.069 15.7181 132.684 15.7735 132.387 15.8731C132.091 15.9727 131.827 16.0945 131.596 16.2162C131.365 16.3491 131.134 16.4598 130.914 16.5594C130.694 16.659 130.43 16.7143 130.122 16.7143C129.848 16.7143 129.617 16.6479 129.441 16.504C129.254 16.3712 129.1 16.2052 128.979 16.017L128.264 14.7773V14.7994ZM135.356 20.832C134.564 20.8652 133.916 20.9317 133.41 21.0423C132.904 21.142 132.497 21.2748 132.2 21.4298C131.904 21.5847 131.695 21.7618 131.585 21.95C131.475 22.1492 131.409 22.3596 131.409 22.592C131.409 23.0458 131.53 23.3668 131.783 23.5439C132.025 23.7321 132.387 23.8207 132.86 23.8207C133.366 23.8207 133.817 23.7321 134.191 23.555C134.575 23.3779 134.96 23.0901 135.345 22.6806V20.832H135.356Z" fill="#3693D1"/>
<path d="M145.361 14.3902C145.614 14.1577 145.878 13.9253 146.153 13.726C146.428 13.5268 146.714 13.3497 147.021 13.2058C147.329 13.0619 147.67 12.9512 148.022 12.8737C148.385 12.7962 148.77 12.752 149.198 12.752C149.924 12.752 150.562 12.8848 151.111 13.1283C151.661 13.3718 152.134 13.726 152.519 14.1799C152.904 14.6226 153.189 15.1539 153.387 15.7849C153.585 16.4047 153.684 17.0799 153.684 17.7994V26.234H149.748V17.7994C149.748 17.1464 149.594 16.6483 149.308 16.283C149.011 15.9177 148.572 15.7406 148 15.7406C147.571 15.7406 147.164 15.8291 146.79 16.0173C146.417 16.2055 146.043 16.449 145.691 16.77V26.2451H141.755V12.9733H144.196C144.69 12.9733 145.009 13.1947 145.163 13.6375L145.394 14.4012L145.361 14.3902Z" fill="#3693D1"/>
<path d="M162.293 12.752C163.294 12.752 164.206 12.9069 165.031 13.2279C165.855 13.5489 166.559 14.0028 167.153 14.5894C167.746 15.1761 168.197 15.8956 168.527 16.7368C168.857 17.5781 169.022 18.5189 169.022 19.5705C169.022 20.622 168.857 21.585 168.527 22.4263C168.197 23.2786 167.746 23.9981 167.153 24.5958C166.559 25.1935 165.855 25.6474 165.031 25.9684C164.206 26.2894 163.294 26.4443 162.293 26.4443C161.292 26.4443 160.369 26.2894 159.544 25.9684C158.72 25.6474 158.005 25.1935 157.411 24.5958C156.818 23.9981 156.356 23.2786 156.026 22.4263C155.696 21.574 155.531 20.622 155.531 19.5705C155.531 18.5189 155.696 17.5781 156.026 16.7368C156.356 15.8956 156.818 15.1761 157.411 14.5894C158.005 14.0028 158.72 13.5489 159.544 13.2279C160.369 12.9069 161.292 12.752 162.293 12.752ZM162.293 23.4889C163.195 23.4889 163.865 23.1679 164.294 22.5259C164.723 21.8839 164.932 20.8988 164.932 19.5926C164.932 18.2865 164.723 17.3013 164.294 16.6593C163.865 16.0173 163.195 15.6963 162.293 15.6963C161.391 15.6963 160.677 16.0173 160.248 16.6593C159.819 17.3013 159.599 18.2754 159.599 19.5926C159.599 20.9098 159.819 21.8839 160.248 22.5259C160.677 23.1679 161.358 23.4889 162.293 23.4889Z" fill="#3693D1"/>
</g>
<defs>
<clipPath id="clip0_56_2160">
<rect width="169" height="38" fill="white"/>
</clipPath>
</defs>
</svg>
