<svg width="69" height="111" viewBox="0 0 69 111" fill="none" xmlns="http://www.w3.org/2000/svg">
<path d="M34.6261 23.7534L52.8751 13.1699L52.7333 34.0514L34.4844 44.6348L34.6261 23.7534Z" fill="white" stroke="#01CFFF" stroke-width="4" stroke-linecap="round" stroke-linejoin="round"/>
<path d="M16.6211 13.1913L34.87 2.60786L52.8738 13.1721L34.6248 23.7555L16.6211 13.1913Z" fill="white" stroke="#01CFFF" stroke-width="4" stroke-linecap="round" stroke-linejoin="round"/>
<path d="M34.626 23.7549L34.4842 44.6363L16.4805 34.0721L16.6222 13.1907L34.626 23.7549Z" fill="white" stroke="#01CFFF" stroke-width="4" stroke-linecap="round" stroke-linejoin="round"/>
<mask id="path-4-inside-1_390_3648" fill="white">
<path fill-rule="evenodd" clip-rule="evenodd" d="M18.8762 56.3676H19.6195C21.903 56.3676 23.7574 58.235 23.7574 60.5346V71.6874H24.9453V60.5346C24.9453 58.235 26.7997 56.3676 29.0832 56.3676H29.8265C32.11 56.3676 33.9644 58.235 33.9644 60.5346V71.6874H35.1445V60.5346C35.1445 58.235 36.9989 56.3676 39.2824 56.3676H40.0257C42.3092 56.3676 44.1636 58.235 44.1636 60.5346V71.6874H45.3516V60.5384C45.3516 58.2389 47.206 56.3714 49.4895 56.3714V56.3676H50.2328C52.5163 56.3676 54.3707 58.235 54.3707 60.5346V71.6874H54.3894V111H14.7383V93.5969V71.6874V60.5384C14.7383 58.2389 16.5927 56.3714 18.8762 56.3714V56.3676Z"/>
</mask>
<path d="M18.8762 56.3676V52.8676H15.3762V56.3676H18.8762ZM23.7574 71.6874H20.2574V75.1874H23.7574V71.6874ZM24.9453 71.6874V75.1874H28.4453V71.6874H24.9453ZM33.9644 71.6874H30.4644V75.1874H33.9644V71.6874ZM35.1445 71.6874V75.1874H38.6445V71.6874H35.1445ZM44.1636 71.6874H40.6636V75.1874H44.1636V71.6874ZM45.3516 71.6874V75.1874H48.8516V71.6874H45.3516ZM49.4895 56.3714V59.8714H52.9895V56.3714H49.4895ZM49.4895 56.3676V52.8676H45.9895V56.3676H49.4895ZM54.3707 71.6874H50.8707V75.1874H54.3707V71.6874ZM54.3894 71.6874H57.8894V68.1874H54.3894V71.6874ZM54.3894 111V114.5H57.8894V111H54.3894ZM14.7383 111H11.2383V114.5H14.7383V111ZM18.8762 56.3714V59.8714H22.3762V56.3714H18.8762ZM19.6195 52.8676H18.8762V59.8676H19.6195V52.8676ZM27.2574 60.5346C27.2574 56.3252 23.8591 52.8676 19.6195 52.8676V59.8676C19.9469 59.8676 20.2574 60.1448 20.2574 60.5346H27.2574ZM27.2574 71.6874V60.5346H20.2574V71.6874H27.2574ZM24.9453 68.1874H23.7574V75.1874H24.9453V68.1874ZM21.4453 60.5346V71.6874H28.4453V60.5346H21.4453ZM29.0832 52.8676C24.8436 52.8676 21.4453 56.3252 21.4453 60.5346H28.4453C28.4453 60.1448 28.7558 59.8676 29.0832 59.8676V52.8676ZM29.8265 52.8676H29.0832V59.8676H29.8265V52.8676ZM37.4644 60.5346C37.4644 56.3252 34.0661 52.8676 29.8265 52.8676V59.8676C30.1539 59.8676 30.4644 60.1448 30.4644 60.5346H37.4644ZM37.4644 71.6874V60.5346H30.4644V71.6874H37.4644ZM35.1445 68.1874H33.9644V75.1874H35.1445V68.1874ZM38.6445 71.6874V60.5346H31.6445V71.6874H38.6445ZM38.6445 60.5346C38.6445 60.1448 38.955 59.8676 39.2824 59.8676V52.8676C35.0428 52.8676 31.6445 56.3252 31.6445 60.5346H38.6445ZM39.2824 59.8676H40.0257V52.8676H39.2824V59.8676ZM40.0257 59.8676C40.3531 59.8676 40.6636 60.1448 40.6636 60.5346H47.6636C47.6636 56.3252 44.2653 52.8676 40.0257 52.8676V59.8676ZM40.6636 60.5346V71.6874H47.6636V60.5346H40.6636ZM45.3516 68.1874H44.1636V75.1874H45.3516V68.1874ZM41.8516 60.5384V71.6874H48.8516V60.5384H41.8516ZM49.4895 52.8714C45.2499 52.8714 41.8516 56.329 41.8516 60.5384H48.8516C48.8516 60.1487 49.1621 59.8714 49.4895 59.8714V52.8714ZM45.9895 56.3676V56.3714H52.9895V56.3676H45.9895ZM50.2328 52.8676H49.4895V59.8676H50.2328V52.8676ZM57.8707 60.5346C57.8707 56.3252 54.4724 52.8676 50.2328 52.8676V59.8676C50.5602 59.8676 50.8707 60.1448 50.8707 60.5346H57.8707ZM57.8707 71.6874V60.5346H50.8707V71.6874H57.8707ZM54.3894 68.1874H54.3707V75.1874H54.3894V68.1874ZM57.8894 111V71.6874H50.8894V111H57.8894ZM14.7383 114.5H54.3894V107.5H14.7383V114.5ZM11.2383 93.5969V111H18.2383V93.5969H11.2383ZM11.2383 71.6874V93.5969H18.2383V71.6874H11.2383ZM11.2383 60.5384V71.6874H18.2383V60.5384H11.2383ZM18.8762 52.8714C14.6366 52.8714 11.2383 56.329 11.2383 60.5384H18.2383C18.2383 60.1487 18.5488 59.8714 18.8762 59.8714V52.8714ZM15.3762 56.3676V56.3714H22.3762V56.3676H15.3762Z" fill="#01CFFF" mask="url(#path-4-inside-1_390_3648)"/>
<mask id="path-6-inside-2_390_3648" fill="white">
<path fill-rule="evenodd" clip-rule="evenodd" d="M54.3868 80.9481V111.004H54.3689V111.004H29.2656C29.2656 101.672 35.9274 93.8154 44.9922 91.4702V80.9481C44.9922 78.6939 46.9232 76.8644 49.3025 76.8644H50.0765C52.4557 76.8644 54.3868 78.6939 54.3868 80.9481Z"/>
</mask>
<path d="M54.3868 111.004V114.504H57.8868V111.004H54.3868ZM54.3689 111.004V107.504H50.8689V111.004H54.3689ZM54.3689 111.004V114.504H57.8689V111.004H54.3689ZM29.2656 111.004H25.7656V114.504H29.2656V111.004ZM44.9922 91.4702L45.8689 94.8586L48.4922 94.1799V91.4702H44.9922ZM57.8868 111.004V80.9481H50.8868V111.004H57.8868ZM54.3689 114.504H54.3868V107.504H54.3689V114.504ZM57.8689 111.004V111.004H50.8689V111.004H57.8689ZM29.2656 114.504H54.3689V107.504H29.2656V114.504ZM44.1155 88.0817C33.6599 90.7868 25.7656 99.9231 25.7656 111.004H32.7656C32.7656 103.42 38.195 96.844 45.8689 94.8586L44.1155 88.0817ZM41.4922 80.9481V91.4702H48.4922V80.9481H41.4922ZM49.3025 73.3644C45.1708 73.3644 41.4922 76.5852 41.4922 80.9481H48.4922C48.4922 80.8515 48.5277 80.7292 48.6623 80.6017C48.8001 80.4712 49.019 80.3644 49.3025 80.3644V73.3644ZM50.0765 73.3644H49.3025V80.3644H50.0765V73.3644ZM57.8868 80.9481C57.8868 76.5852 54.2082 73.3644 50.0765 73.3644V80.3644C50.3599 80.3644 50.5789 80.4712 50.7167 80.6017C50.8513 80.7292 50.8868 80.8515 50.8868 80.9481H57.8868Z" fill="#01CFFF" mask="url(#path-6-inside-2_390_3648)"/>
<path d="M4.54987 48.0371C2.48858 48.0371 2.48858 51.2511 4.54987 51.2511C6.61116 51.2511 6.60733 48.0371 4.54987 48.0371Z" fill="#01CFFF"/>
<path d="M1.89075 29.2763C-0.166708 29.2763 -0.166708 32.4942 1.89075 32.4942C3.94821 32.4942 3.94821 29.2763 1.89075 29.2763Z" fill="#01CFFF"/>
<path d="M11.4689 40.2681C9.41142 40.2681 9.41142 43.4821 11.4689 43.4821C13.5263 43.4821 13.5263 40.2681 11.4689 40.2681Z" fill="#01CFFF"/>
<path d="M52.1798 41.8725C50.1224 41.8725 50.1224 45.0865 52.1798 45.0865C54.2373 45.0865 54.2373 41.8725 52.1798 41.8725Z" fill="#01CFFF"/>
<path d="M61.7579 49.9118C59.7005 49.9118 59.7005 53.1258 61.7579 53.1258C63.8154 53.1258 63.8154 49.9118 61.7579 49.9118Z" fill="#01CFFF"/>
<path d="M61.4923 18.8321C59.4349 18.8321 59.4349 22.0461 61.4923 22.0461C63.5498 22.0461 63.5498 18.8321 61.4923 18.8321Z" fill="#01CFFF"/>
<path d="M66.8048 32.4955C64.7474 32.4955 64.7474 35.7096 66.8048 35.7096C68.8623 35.7096 68.8623 32.4955 66.8048 32.4955Z" fill="#01CFFF"/>
<path d="M9.07825 20.1697C7.02079 20.1697 7.02079 23.3837 9.07825 23.3837C11.1357 23.3837 11.1357 20.1697 9.07825 20.1697Z" fill="#01CFFF"/>
</svg>
