<svg width="86" height="83" viewBox="0 0 86 83" fill="none" xmlns="http://www.w3.org/2000/svg">
<g clip-path="url(#clip0_390_3673)">
<circle cx="43" cy="43" r="31" fill="white"/>
<path d="M43.0061 51.6557C47.9293 51.6557 51.9654 47.6823 51.9654 42.8259C51.9654 37.9695 47.9293 33.9961 43.0061 33.9961C38.083 33.9961 34.0469 37.9695 34.0469 42.8259C34.0469 47.6823 38.083 51.6557 43.0061 51.6557ZM46.1404 39.4411C46.4361 39.4411 46.7318 39.7355 46.7318 40.0298C46.7318 40.3241 46.4361 40.6184 46.1404 40.6184C45.8447 40.6184 45.549 40.3241 45.549 40.0298C45.6969 39.7355 45.8447 39.4411 46.1404 39.4411ZM42.5626 37.6752C42.1191 38.411 41.8234 39.1468 41.8234 40.0298C41.8234 43.2674 45.2533 45.1805 48.0919 43.856C47.6484 46.2106 45.549 47.9766 43.0209 47.9766C40.1823 47.9766 37.8021 45.622 37.8021 42.8259C37.8021 40.0298 39.8867 37.8223 42.5774 37.6752H42.5626Z" fill="#01CFFF"/>
<path d="M43.0057 75.4954C61.3677 75.4954 76.152 60.7791 76.152 42.8252C76.152 24.8713 61.3677 10.0078 43.0057 10.0078C24.6436 10.0078 9.85938 24.7241 9.85938 42.8252C9.85938 60.9263 24.6436 75.4954 43.0057 75.4954ZM14.9304 51.5078L26.5804 40.0291C25.9791 44.444 25.6785 46.7495 25.6785 46.9458V66.3713C20.6075 62.6922 16.8671 57.5415 14.9304 51.5078ZM39.4131 29.4333L50.0134 30.7578L56.5776 39.1461L55.2323 49.5947L46.7165 56.0699L36.1162 54.7454L29.552 46.3571L30.8974 35.9085L39.4131 29.4333ZM29.4042 68.5787V52.2436C33.7359 57.6887 33.5881 57.5415 33.7359 57.6887L47.6184 71.3748C41.3498 72.405 34.9335 71.3748 29.4042 68.5787ZM51.9501 70.4919L40.3002 59.0131C47.4705 59.8961 47.0122 59.8961 47.3227 59.8961H66.8822C63.1566 64.7525 57.923 68.5787 51.9501 70.4919ZM69.1147 56.217H52.6894C58.3665 51.9493 58.0708 52.0965 58.2187 52.0965C58.3665 51.9493 68.6711 41.795 72.2489 38.4103C72.9881 44.1497 72.1011 50.4777 69.1147 56.217ZM71.0514 33.9954L59.4014 45.4741C59.5493 44.0025 60.3033 38.9989 60.3033 38.8518C60.3033 38.5575 60.3033 39.1461 60.3033 19.2791C65.3743 22.811 69.1147 27.9617 71.0514 33.9954ZM56.5628 16.9245V33.2596C52.231 27.6674 52.3789 27.9617 52.231 27.8145L38.3486 14.1284C44.3215 13.0982 50.7378 13.9812 56.5628 16.9245ZM34.1647 15.0114L45.8147 26.4901C38.94 25.6071 39.1026 25.6071 38.7922 25.6071H19.0847C22.8104 20.7507 28.044 16.9245 34.1647 15.0114ZM16.8375 29.2862H33.4107C27.8814 33.5539 28.0292 33.4067 27.8814 33.5539L13.999 47.2401C12.8014 41.2064 13.8511 34.8784 16.8375 29.2862Z" fill="#01CFFF"/>
<path d="M5.67892 18.3945C6.75818 18.3945 7.61566 19.2481 7.61566 20.3077C7.61566 21.3672 6.74339 22.2208 5.67892 22.2208C4.61446 22.2208 3.74219 21.3672 3.74219 20.3077C3.74219 19.2481 4.61446 18.3945 5.67892 18.3945Z" fill="#01CFFF"/>
<path d="M30.011 5.59375C31.0902 5.59375 31.9477 6.4473 31.9477 7.50687C31.9477 8.56644 31.0754 9.41999 30.011 9.41999C28.9465 9.41999 28.0742 8.56644 28.0742 7.50687C28.0742 6.4473 28.9465 5.59375 30.011 5.59375Z" fill="#01CFFF"/>
<path d="M82.2727 18.3945C83.3371 18.3945 84.2094 19.2481 84.2094 20.3077C84.2094 21.3672 83.3371 22.2208 82.2727 22.2208C81.2082 22.2208 80.3359 21.3672 80.3359 20.3077C80.3359 19.2481 81.2082 18.3945 82.2727 18.3945Z" fill="#01CFFF"/>
<path d="M84.0617 64.457C85.1262 64.457 85.9985 65.3106 85.9985 66.3702C85.9985 67.4297 85.1262 68.2833 84.0617 68.2833C82.9973 68.2833 82.125 67.4297 82.125 66.3702C82.125 65.3106 82.9973 64.457 84.0617 64.457Z" fill="#01CFFF"/>
<path d="M76.5969 71.8164C77.6761 71.8164 78.5336 72.67 78.5336 73.7295C78.5336 74.7891 77.6614 75.6427 76.5969 75.6427C75.5324 75.6427 74.6602 74.7891 74.6602 73.7295C74.6602 72.67 75.5324 71.8164 76.5969 71.8164Z" fill="#01CFFF"/>
<path d="M8.20703 10.3587L10.8386 7.75391L13.485 10.3587L10.8386 12.9635L8.20703 10.3587Z" fill="#01CFFF"/>
<path d="M13.4375 10.4056L16.0839 7.80078L18.7155 10.4056L16.0839 13.0104L13.4375 10.4056Z" fill="#01CFFF"/>
<path d="M8.13281 5.09307L10.7792 2.48828L13.4108 5.09307L10.7792 7.69786L8.13281 5.09307Z" fill="#01CFFF"/>
<path d="M13.3789 5.13601L16.0105 2.53122L18.6569 5.13601L16.0105 7.72608L13.3789 5.13601Z" fill="#01CFFF"/>
<path d="M80.3217 79.1733H60.0229C74.0532 72.8452 83.7665 58.8647 83.7665 42.824C83.6186 20.6023 65.4044 2.64844 43.0063 2.64844C41.9566 2.64844 41.0695 3.53142 41.0695 4.56156C41.0695 5.5917 41.9714 6.47468 43.0063 6.47468C63.3198 6.47468 79.893 22.8098 79.893 42.824C79.893 62.8382 63.3198 79.1733 43.0063 79.1733C22.6927 79.1733 6.11957 62.8382 6.11957 42.824C6.11957 41.7938 5.21773 40.9108 4.18283 40.9108C3.14793 40.9108 2.24609 41.7938 2.24609 42.824C2.24609 59.0119 11.9446 72.8452 25.9896 79.1733H18.6714C17.6217 79.1733 16.7347 80.0562 16.7347 81.0864C16.7347 82.1165 17.6365 82.9995 18.6714 82.9995H80.3365C81.3862 82.9995 82.2733 82.1165 82.2733 81.0864C82.2733 80.0562 81.3714 79.1733 80.3365 79.1733H80.3217Z" fill="#01CFFF"/>
<path d="M5.67715 70.0508C2.54289 70.0508 0 72.5526 0 75.643C0 78.7334 2.54289 81.2352 5.67715 81.2352C8.81141 81.2352 11.3543 78.7334 11.3543 75.643C11.3543 72.5526 8.81141 70.0508 5.67715 70.0508ZM5.67715 77.4089C4.62747 77.4089 3.74042 76.526 3.74042 75.4958C3.74042 74.4657 4.64226 73.5827 5.67715 73.5827C6.71205 73.5827 7.61389 74.4657 7.61389 75.4958C7.61389 76.526 6.71205 77.4089 5.67715 77.4089Z" fill="#01CFFF"/>
<path d="M79.4353 12.9504C83.0131 12.9504 85.9995 10.0071 85.9995 6.47518C85.9995 2.94326 83.0131 0 79.4353 0C75.8575 0 72.8711 2.94326 72.8711 6.47518C72.8711 10.0071 75.8575 12.9504 79.4353 12.9504ZM79.4353 3.82624C80.9285 3.82624 82.2739 5.00355 82.2739 6.62234C82.2739 8.24113 81.0764 9.41844 79.4353 9.41844C77.7942 9.41844 76.5967 8.24113 76.5967 6.62234C76.5967 5.00355 77.7942 3.82624 79.4353 3.82624Z" fill="#01CFFF"/>
</g>
<defs>
<clipPath id="clip0_390_3673">
<rect width="86" height="83" fill="white"/>
</clipPath>
</defs>
</svg>
