<svg width="69" height="73" viewBox="0 0 69 73" fill="none" xmlns="http://www.w3.org/2000/svg">
<g clip-path="url(#clip0_97_1077)">
<path d="M34.3218 37.4058C30.99 37.4058 28.2803 34.68 28.2803 31.3284C28.2803 27.9768 30.99 25.251 34.3218 25.251C37.6536 25.251 40.3633 27.9768 40.3633 31.3284C40.3633 34.68 37.6536 37.4058 34.3218 37.4058ZM34.3218 27.4339C32.1864 27.4339 30.4504 29.1803 30.4504 31.3284C30.4504 33.4764 32.1864 35.2228 34.3218 35.2228C36.4572 35.2228 38.1932 33.4764 38.1932 31.3284C38.1932 29.1803 36.4572 27.4339 34.3218 27.4339Z" fill="url(#paint0_linear_97_1077)"/>
<path d="M25.6354 44.9284C25.5805 44.9284 25.524 44.924 25.4676 44.9153C24.8759 44.8236 24.4694 44.2648 24.562 43.6695C24.9902 40.8942 27.0113 38.6458 29.7138 37.94L31.4455 37.4874C32.0256 37.336 32.6173 37.6867 32.7678 38.2689C32.9182 38.8524 32.5696 39.4477 31.9909 39.599L30.2606 40.0516C28.3972 40.5377 27.004 42.0891 26.7089 44.0028C26.6264 44.5413 26.1635 44.9269 25.6383 44.9269L25.6354 44.9284Z" fill="url(#paint1_linear_97_1077)"/>
<path d="M43.4862 44.9285C42.9596 44.9285 42.4981 44.5428 42.4156 44.0044C42.1205 42.0906 40.7259 40.5407 38.8639 40.0532L37.1336 39.6006C36.5535 39.4492 36.2048 38.854 36.3553 38.2704C36.5058 37.6868 37.0989 37.3376 37.6776 37.4889L39.4079 37.9415C42.1089 38.6473 44.1314 40.8958 44.5597 43.6711C44.6508 44.2663 44.2457 44.8252 43.654 44.9168C43.5976 44.9256 43.5412 44.9299 43.4862 44.9299V44.9285Z" fill="url(#paint2_linear_97_1077)"/>
<path d="M20.3093 27.4341C20.2645 27.4341 20.2182 27.4312 20.1719 27.4254C19.5773 27.3497 19.1563 26.804 19.2301 26.2058C20.1545 18.8158 22.0194 12.4197 24.6263 7.7088C27.4171 2.66614 30.8313 0 34.5002 0C39.6998 0 44.3915 5.42541 47.3717 14.8864C47.5526 15.4613 47.2372 16.0739 46.6657 16.2573C46.0957 16.4392 45.4852 16.122 45.3029 15.5471C42.667 7.17906 38.6277 2.18443 34.5002 2.18443C31.7066 2.18443 28.8725 4.52457 26.523 8.77263C24.0867 13.1779 22.261 19.4677 21.3842 26.4809C21.3148 27.0325 20.8475 27.4356 20.3093 27.4356V27.4341Z" fill="url(#paint3_linear_97_1077)"/>
<path d="M34.5006 73C30.0794 73 26.0055 69.0794 23.0281 61.9614C20.1766 55.1433 18.6055 46.1 18.6055 36.5007C18.6055 35.4165 18.6257 34.3236 18.6662 33.251C18.6894 32.6485 19.1899 32.1755 19.7918 32.2017C20.3907 32.225 20.858 32.7315 20.8349 33.334C20.7958 34.3803 20.7756 35.4456 20.7756 36.5022C20.7756 45.8176 22.2859 54.5597 25.0289 61.1174C27.6084 67.2835 31.0603 70.8199 34.5021 70.8199C37.9438 70.8199 41.5216 67.1569 44.1184 60.7695C44.3456 60.2122 44.9792 59.9444 45.5333 60.1729C46.0874 60.4013 46.3536 61.0388 46.1265 61.5962C43.1346 68.9528 39.0072 73.0029 34.5021 73.0029L34.5006 73Z" fill="url(#paint4_linear_97_1077)"/>
<path d="M46.634 57.9056C46.5327 57.9056 46.4286 57.891 46.3258 57.8605C45.7515 57.6902 45.4231 57.0833 45.5924 56.5041C46.5805 53.1365 47.3038 49.4153 47.7436 45.4437C48.0648 42.5418 48.2268 39.5323 48.2268 36.4994C48.2268 30.748 47.6308 25.0504 46.5023 20.0223C46.3707 19.4344 46.7367 18.8493 47.3212 18.7169C47.9057 18.5845 48.4858 18.9527 48.6189 19.5406C49.7821 24.723 50.3969 30.5879 50.3969 36.4979C50.3969 39.6108 50.2305 42.7005 49.9007 45.6824C49.4479 49.782 48.6985 53.6299 47.6742 57.1197C47.5353 57.5942 47.1027 57.9027 46.634 57.9027V57.9056Z" fill="url(#paint5_linear_97_1077)"/>
<path d="M56.5177 59.6445C51.9591 59.6445 46.4109 58.5428 40.3853 56.434C39.8197 56.2361 39.5202 55.6132 39.717 55.0442C39.9137 54.4752 40.5315 54.1739 41.0986 54.3718C53.484 58.7072 63.2754 58.4511 66.0444 53.7213C66.8517 52.3431 66.9732 50.6026 66.4075 48.5477C64.4168 41.3206 54.3997 31.7141 41.482 24.6442C32.9231 19.961 24.1242 16.8742 16.7039 15.9545C9.71192 15.0871 4.70047 16.2994 2.95573 19.2813C0.992522 22.6344 3.70658 28.9824 9.86961 35.4513C10.2848 35.8865 10.2689 36.5777 9.83634 36.9939C9.40377 37.4116 8.71658 37.3971 8.30281 36.9605C5.08385 33.5812 2.67795 30.1365 1.34697 26.9989C-0.144602 23.4828 -0.235745 20.431 1.08511 18.1738C3.32175 14.3522 8.96252 12.795 16.9701 13.7875C24.6537 14.7407 33.7275 17.9148 42.5193 22.7261C56.1315 30.1743 66.3294 40.0807 68.4995 47.9641C69.2287 50.6113 69.0319 52.9209 67.915 54.8288C66.1949 57.7686 62.6171 59.4262 57.5666 59.6241C57.2237 59.6372 56.8736 59.6445 56.5177 59.6445Z" fill="url(#paint6_linear_97_1077)"/>
<path d="M34.953 54.2772C34.8112 54.2772 34.668 54.2496 34.5291 54.1899C31.8367 53.0416 29.1285 51.7231 26.481 50.2751C20.9212 47.232 15.7492 43.6651 11.5247 39.9584C11.0734 39.5625 11.0271 38.8727 11.4206 38.4187C11.8141 37.9646 12.4998 37.9166 12.9512 38.3139C17.0585 41.9172 22.0959 45.3911 27.5183 48.3584C30.105 49.7745 32.7496 51.061 35.3769 52.1816C35.9281 52.4173 36.1856 53.0577 35.9527 53.6121C35.7776 54.0284 35.3754 54.2772 34.953 54.2772Z" fill="url(#paint7_linear_97_1077)"/>
<path d="M13.1364 59.7873C7.20632 59.7873 2.99491 58.0787 1.08813 54.8319C-0.102524 52.8047 -0.316639 50.3525 0.453018 47.5466C2.65348 39.5307 12.7487 29.6026 26.1743 22.2547C34.9704 17.4405 44.0804 14.3131 51.8262 13.4501C59.8844 12.5521 65.5975 14.2272 67.9137 18.1682C69.1058 20.1954 69.3185 22.6476 68.5488 25.4535C66.3498 33.4694 56.2531 43.3975 42.8275 50.7454C34.0315 55.5596 24.9214 58.687 17.1757 59.55C15.755 59.7087 14.4067 59.7873 13.1379 59.7873H13.1364ZM27.2102 24.1728C20.7505 27.7092 14.9897 31.8932 10.5511 36.2752C6.28476 40.4869 3.51573 44.585 2.54353 48.1287C1.93591 50.3423 2.07479 52.2254 2.9544 53.723C4.78306 56.8344 9.87842 58.1689 16.9341 57.3816C24.4064 56.5492 33.2329 53.5119 41.7873 48.8302C48.247 45.2938 54.0078 41.1098 58.4464 36.7278C62.7127 32.5161 65.4818 28.418 66.454 24.8743C67.0616 22.6607 66.9227 20.7776 66.0431 19.28C64.2144 16.1686 59.1191 14.8341 52.0634 15.6214C44.5911 16.4538 35.7646 19.4911 27.2102 24.1728Z" fill="url(#paint8_linear_97_1077)"/>
</g>
<defs>
<linearGradient id="paint0_linear_97_1077" x1="34.3218" y1="25.251" x2="34.3218" y2="37.4058" gradientUnits="userSpaceOnUse">
<stop stop-color="#01AEE0"/>
<stop offset="1" stop-color="#01D1CC"/>
</linearGradient>
<linearGradient id="paint1_linear_97_1077" x1="28.6758" y1="37.4521" x2="28.6758" y2="44.9284" gradientUnits="userSpaceOnUse">
<stop stop-color="#01AEE0"/>
<stop offset="1" stop-color="#01D1CC"/>
</linearGradient>
<linearGradient id="paint2_linear_97_1077" x1="40.4464" y1="37.4536" x2="40.4464" y2="44.9299" gradientUnits="userSpaceOnUse">
<stop stop-color="#01AEE0"/>
<stop offset="1" stop-color="#01D1CC"/>
</linearGradient>
<linearGradient id="paint3_linear_97_1077" x1="33.3222" y1="0" x2="33.3222" y2="27.4356" gradientUnits="userSpaceOnUse">
<stop stop-color="#01AEE0"/>
<stop offset="1" stop-color="#01D1CC"/>
</linearGradient>
<linearGradient id="paint4_linear_97_1077" x1="32.4065" y1="32.2007" x2="32.4065" y2="73.0029" gradientUnits="userSpaceOnUse">
<stop stop-color="#01AEE0"/>
<stop offset="1" stop-color="#01D1CC"/>
</linearGradient>
<linearGradient id="paint5_linear_97_1077" x1="47.9724" y1="18.6899" x2="47.9724" y2="57.9056" gradientUnits="userSpaceOnUse">
<stop stop-color="#01AEE0"/>
<stop offset="1" stop-color="#01D1CC"/>
</linearGradient>
<linearGradient id="paint6_linear_97_1077" x1="34.5439" y1="13.4956" x2="34.5439" y2="59.6445" gradientUnits="userSpaceOnUse">
<stop stop-color="#01AEE0"/>
<stop offset="1" stop-color="#01D1CC"/>
</linearGradient>
<linearGradient id="paint7_linear_97_1077" x1="23.5959" y1="38.0444" x2="23.5959" y2="54.2772" gradientUnits="userSpaceOnUse">
<stop stop-color="#01AEE0"/>
<stop offset="1" stop-color="#01D1CC"/>
</linearGradient>
<linearGradient id="paint8_linear_97_1077" x1="34.5011" y1="13.2134" x2="34.5011" y2="59.7873" gradientUnits="userSpaceOnUse">
<stop stop-color="#01AEE0"/>
<stop offset="1" stop-color="#01D1CC"/>
</linearGradient>
<clipPath id="clip0_97_1077">
<rect width="69" height="73" fill="white"/>
</clipPath>
</defs>
</svg>
