<svg width="66" height="75" viewBox="0 0 66 75" fill="none" xmlns="http://www.w3.org/2000/svg">
<path fill-rule="evenodd" clip-rule="evenodd" d="M0.214314 20.9393C0.19624 20.9141 0.179035 20.888 0.162767 20.861C-0.161444 20.3209 0.0135994 19.6194 0.55395 19.2954L32.4118 0.163188C32.774 -0.054396 33.2261 -0.054396 33.5869 0.163188L45.3651 7.23596C45.5204 7.28792 45.6652 7.37341 45.7876 7.48972L58.3501 15.0334C58.8905 15.3575 59.0655 16.059 58.7413 16.5991C58.6359 16.7748 58.4906 16.9118 58.3239 17.0056L45.0462 24.7887L49.6923 27.8375L64.2799 19.2908C64.633 19.0839 65.0699 19.0824 65.4245 19.2848C65.7792 19.4886 65.9984 19.866 65.9984 20.2753V27.4431C66.0005 27.4835 66.0005 27.5239 65.9984 27.5641V46.1739C65.9984 46.5786 65.7838 46.9544 65.4337 47.1583L59.9708 50.3551C59.9566 50.3635 59.9423 50.3715 59.9279 50.3791L53.7775 54.0665C53.4198 54.281 52.9723 54.2826 52.6131 54.0726C52.2524 53.8611 52.0362 53.4716 52.0484 53.0547L52.2006 47.9103C52.2189 47.2803 52.7471 46.7843 53.3757 46.8041C54.0059 46.8223 54.5021 47.3488 54.4823 47.9787L54.3909 51.0371L58.2495 48.7243V40.6341L48.4334 46.1604V62.7277L64.2469 52.7075C64.7796 52.3698 65.4844 52.528 65.8223 53.0605C66.1602 53.5931 66.0019 54.2976 65.4691 54.6354L47.926 65.7515C47.9101 65.7622 47.8939 65.7725 47.8774 65.7823L33.6405 74.8035C33.6134 74.8219 33.5854 74.8392 33.5565 74.8554C33.4093 74.9381 33.2489 74.9846 33.0866 74.9967C33.0601 74.9988 33.0336 74.9998 33.0071 75L32.9994 75C32.7924 75 32.5854 74.9437 32.4012 74.8311L0.543394 55.2516C0.205485 55.0447 0 54.6764 0 54.2793V39.1541V39.1353V27.5059C0 27.0935 0.222229 26.7146 0.579925 26.5123C0.937622 26.3099 1.37751 26.316 1.73064 26.529L18.5272 36.6543V31.7826L0.570437 21.2617C0.527702 21.237 0.48641 21.2095 0.446871 21.1792C0.356215 21.1099 0.278396 21.0287 0.214314 20.9393ZM60.5342 47.3797L63.7152 45.5181V29.4916L41.7546 42.2757V46.1359C41.7553 46.1581 41.7553 46.1803 41.7546 46.2024V60.8829C41.7546 61.5128 41.2432 62.0241 40.613 62.0241C39.9829 62.0241 39.4714 61.5128 39.4714 60.8829V48.3006L34.141 51.8458V71.784L46.1533 64.1725V45.491C46.1533 45.0786 46.3755 44.6982 46.7347 44.4959L58.834 37.6853C59.1871 37.486 59.6194 37.489 59.9695 37.6945C60.3196 37.8999 60.5342 38.2742 60.5342 38.6804V47.3797ZM63.7152 26.8491V22.2655L34.141 39.5937V49.1041L39.4714 45.5589V41.6184C39.4714 41.2121 39.6876 40.8363 40.0392 40.6324L63.7152 26.8491ZM33.0004 37.617L47.4935 29.1257L42.8479 26.0773L33.5736 31.5137C33.3955 31.6187 33.1961 31.6705 32.9967 31.6705L32.9997 31.6689C32.7973 31.6689 32.5949 31.6157 32.4137 31.5076L21.2535 24.8334L16.245 27.8003L20.2238 30.1314C20.2379 30.1393 20.2519 30.1475 20.2657 30.1559L33.0004 37.617ZM14.4969 20.7928L19.0239 23.5001L13.9924 26.4805L3.37809 20.2617L17.976 11.4951L22.3765 14.1107L14.4954 18.8345C14.1514 19.0415 13.9414 19.4127 13.9414 19.8144C13.9414 20.2146 14.1529 20.5874 14.4969 20.7928ZM20.198 10.1606L24.6007 12.7775L32.4122 8.09532C32.9526 7.77122 33.6542 7.9462 33.9785 8.48788C34.3027 9.02804 34.1276 9.72948 33.5858 10.0536L17.3037 19.8129L33.0043 29.2025L55.5264 16.0002L51.1024 13.3436L32.8381 24.8051C32.6493 24.9238 32.4393 24.9801 32.2323 24.9801C31.8517 24.9801 31.4819 24.7914 31.2642 24.446C30.9293 23.9119 31.0907 23.2074 31.6234 22.8727L37.4584 19.2111L33.6653 16.7213L26.914 20.9251C26.7268 21.0422 26.5183 21.097 26.3113 21.097V21.0985C25.9307 21.0985 25.5578 20.9083 25.3417 20.5599C25.0083 20.0243 25.1712 19.3214 25.707 18.9881L42.7893 8.35169L32.9993 2.47292L20.198 10.1606ZM44.9873 9.67158L48.9081 12.026L39.5839 17.8773C39.5656 17.8637 39.5467 17.8505 39.5274 17.8378L35.8007 15.3917L44.9873 9.67158ZM20.8103 38.0306V33.1204L31.8578 39.5932V56.6522L28.1347 54.5391V43.0897C28.1347 42.6896 27.9247 42.3198 27.5822 42.1129L20.8103 38.0306ZM31.8578 59.2756L28.1347 57.1625V62.0591C28.1347 62.4684 27.9156 62.8457 27.5609 63.0496C27.2063 63.2535 26.7694 63.2505 26.4163 63.0451L4.77183 50.3856C4.22691 50.0676 4.04426 49.3677 4.36238 48.8245C4.6805 48.2798 5.38067 48.0972 5.92407 48.4152L10.4691 51.0732V46.4782C10.4691 46.0659 10.6913 45.687 11.049 45.4847C11.4082 45.2823 11.8481 45.2884 12.1997 45.5014L20.2837 50.3826V46.4143L8.41424 39.2295V43.0212C8.41424 43.4366 8.18745 43.8201 7.82366 44.0209C7.45988 44.2218 7.0139 44.2081 6.66229 43.9859L2.28317 41.2179V53.6418L31.8578 71.8169V59.2756ZM25.8516 55.1863C25.8514 55.1967 25.8514 55.2071 25.8516 55.2174V60.0689L12.7538 52.4092V48.5019L20.8377 53.3831C21.1893 53.5961 21.6292 53.6022 21.9885 53.3998C22.3461 53.1975 22.5684 52.8186 22.5684 52.4063V45.7722C22.5684 45.3721 22.3583 45.0023 22.0174 44.7954L7.86476 36.229C7.51163 36.016 7.07174 36.0084 6.71252 36.2107C6.3533 36.4131 6.13107 36.792 6.13107 37.2043V40.9489L2.28317 38.5169V29.5265L25.8516 43.7334V55.1863Z" fill="url(#paint0_linear_97_1089)"/>
<defs>
<linearGradient id="paint0_linear_97_1089" x1="48.9282" y1="19.1341" x2="48.9282" y2="50.5117" gradientUnits="userSpaceOnUse">
<stop stop-color="#02B2DF"/>
<stop offset="1" stop-color="#02D0CD"/>
</linearGradient>
</defs>
</svg>
