<svg width="61" height="60" viewBox="0 0 61 60" fill="none" xmlns="http://www.w3.org/2000/svg">
<path fill-rule="evenodd" clip-rule="evenodd" d="M59.5753 7.57475H57.1373V7.57505C57.1373 10.1695 57.1373 55.0167 57.2377 57.4086H59.6757C60.378 57.4086 60.99 58.0066 60.99 58.7043C60.99 59.402 60.388 60 59.6757 60H1.31431C0.612007 60 0 59.402 0 58.7043C0 58.0066 0.601974 57.4086 1.31431 57.4086H3.7523V7.57475H1.31431C0.612007 7.57475 0 6.97674 0 6.27907V1.29568C0 0.598007 0.612007 0 1.31431 0H59.5753C60.2776 0 60.8896 0.598007 60.8896 1.29568V6.27907C60.8896 6.97674 60.2877 7.57475 59.5753 7.57475ZM36.2288 37.4751H47.4957C48.2081 37.4751 48.7097 38.0731 48.6094 38.6711V47.4419H54.4987V34.9834H6.1903V47.4419H12.0796V38.6711C12.0796 37.9734 12.6916 37.3754 13.4039 37.3754H24.5706C25.2729 37.3754 25.8849 37.9734 25.8849 38.6711V47.4419H34.9145V38.7708C34.9145 38.0731 35.5164 37.4751 36.2288 37.4751ZM34.9044 49.9336H25.8748V57.4086H34.9044V49.9336ZM58.3613 2.59136H2.53832V5.08306H58.3613V2.59136ZM54.599 32.4917V7.57475H6.29063V32.4917H54.599ZM12.1799 49.9336H6.29063V57.4086H12.1799V49.9336ZM14.7183 39.9668V57.4086H23.4469V39.9668H14.7183ZM37.5531 39.9668V57.4086H46.1814V39.9668H37.5531ZM48.7197 49.9336V57.4086H54.609V49.9336H48.7197ZM9.64161 17.5415H13.3939C14.1063 17.5415 14.7183 16.9435 14.7183 16.2458V11.2625C14.7183 10.5648 14.1063 9.96678 13.3939 9.96678H9.64161C8.92928 9.96678 8.3273 10.5648 8.3273 11.2625V16.2458C8.42763 16.9435 8.93931 17.5415 9.64161 17.5415ZM10.966 12.5581H12.1799V15.0498H10.966V12.5581ZM17.1563 17.5415H20.9086C21.6209 17.5415 22.2329 16.9435 22.2329 16.2458V11.2625C22.2329 10.5648 21.6209 9.96678 20.9086 9.96678H17.1563C16.4439 9.96678 15.8319 10.5648 15.8319 11.2625V16.2458C15.9322 16.9435 16.4439 17.5415 17.1563 17.5415ZM18.4706 12.5581H19.6845V15.0498H18.4706V12.5581ZM28.4132 17.5415H24.6609C23.9586 17.5415 23.3465 16.9435 23.3465 16.2458V11.2625C23.3465 10.5648 23.9485 9.96678 24.6609 9.96678H28.4132C29.1255 9.96678 29.7375 10.5648 29.7375 11.2625V16.2458C29.7375 16.9435 29.1255 17.5415 28.4132 17.5415ZM27.0888 12.5581H25.8748V15.0498H27.0888V12.5581ZM9.64161 30H13.3939C14.1063 30 14.7183 29.402 14.7183 28.7043V23.7209C14.7183 23.0233 14.1063 22.4252 13.3939 22.4252H9.64161C8.92928 22.4252 8.3273 23.0233 8.3273 23.7209V28.7043C8.42763 29.402 8.93931 30 9.64161 30ZM10.966 25.0166H12.1799V27.5083H10.966V25.0166ZM20.9086 30H17.1563C16.4439 30 15.9322 29.402 15.8319 28.7043V23.7209C15.8319 23.0233 16.4439 22.4252 17.1563 22.4252H20.9086C21.6209 22.4252 22.2329 23.0233 22.2329 23.7209V28.7043C22.2329 29.402 21.6209 30 20.9086 30ZM19.6845 25.0166H18.4706V27.5083H19.6845V25.0166ZM24.6609 30H28.4132C29.1255 30 29.7375 29.402 29.7375 28.7043V23.7209C29.7375 23.0233 29.1255 22.4252 28.4132 22.4252H24.6609C23.9485 22.4252 23.3465 23.0233 23.3465 23.7209V28.7043C23.3465 29.402 23.9586 30 24.6609 30ZM25.8748 25.0166H27.0888V27.5083H25.8748V25.0166ZM36.2288 17.5415H32.4765C31.7742 17.5415 31.2625 16.9435 31.1622 16.2458V11.2625C31.1622 10.5648 31.7641 9.96678 32.4765 9.96678H36.2288C36.9311 9.96678 37.5431 10.5648 37.5431 11.2625V16.2458C37.5431 16.9435 36.9411 17.5415 36.2288 17.5415ZM35.0148 12.5581H33.8008V15.0498H35.0148V12.5581ZM39.9911 17.5415H43.7434C44.4558 17.5415 45.0577 16.9435 45.0577 16.2458V11.2625C45.0577 10.5648 44.4457 9.96678 43.7434 9.96678H39.9911C39.2788 9.96678 38.6768 10.5648 38.6768 11.2625V16.2458C38.7771 16.9435 39.2888 17.5415 39.9911 17.5415ZM41.3054 12.5581H42.5194V15.0498H41.3054V12.5581ZM51.248 17.5415H47.4957C46.7934 17.5415 46.1814 16.9435 46.1814 16.2458V11.2625C46.1814 10.5648 46.7834 9.96678 47.4957 9.96678H51.248C51.9503 9.96678 52.5623 10.5648 52.5623 11.2625V16.2458C52.5623 16.9435 51.9604 17.5415 51.248 17.5415ZM49.9237 12.5581H48.7097V15.0498H49.9237V12.5581ZM32.4765 30H36.2288C36.9411 30 37.5431 29.402 37.5431 28.7043V23.7209C37.5431 23.0233 36.9311 22.4252 36.2288 22.4252H32.4765C31.7641 22.4252 31.1622 23.0233 31.1622 23.7209V28.7043C31.2625 29.402 31.7742 30 32.4765 30ZM33.8008 25.0166H35.0148V27.5083H33.8008V25.0166ZM43.7434 30H39.9911C39.2888 30 38.7771 29.402 38.6768 28.7043V23.7209C38.6768 23.0233 39.2788 22.4252 39.9911 22.4252H43.7434C44.4457 22.4252 45.0577 23.0233 45.0577 23.7209V28.7043C45.0577 29.402 44.4558 30 43.7434 30ZM42.5194 25.0166H41.3054V27.5083H42.5194V25.0166ZM47.4957 30H51.248C51.9604 30 52.5623 29.402 52.5623 28.7043V23.7209C52.5623 23.0233 51.9503 22.4252 51.248 22.4252H47.4957C46.7834 22.4252 46.1814 23.0233 46.1814 23.7209V28.7043C46.1814 29.402 46.7934 30 47.4957 30ZM48.7097 25.0166H49.9237V27.5083H48.7097V25.0166Z" fill="url(#paint0_linear_97_1109)"/>
<defs>
<linearGradient id="paint0_linear_97_1109" x1="30.495" y1="0" x2="30.495" y2="60" gradientUnits="userSpaceOnUse">
<stop stop-color="#02B0E0"/>
<stop offset="1" stop-color="#03D1CE"/>
</linearGradient>
</defs>
</svg>
