<svg width="58" height="66" viewBox="0 0 58 66" fill="none" xmlns="http://www.w3.org/2000/svg">
<path fill-rule="evenodd" clip-rule="evenodd" d="M28.323 65.8206L0.679089 49.993V49.9917C0.259489 49.7521 0 49.3059 0 48.8268V17.1731C0 16.6912 0.26087 16.2477 0.679089 16.0068L28.323 0.180623C28.7426 -0.0589193 29.2602 -0.0589193 29.6798 0.180623L57.3237 16.0068C57.7447 16.2477 58.0028 16.6912 58.0028 17.1731V48.8282C58.0028 49.3073 57.7433 49.7535 57.3237 49.993L29.6812 65.8206C29.47 65.9411 29.2381 66.0013 29.0021 66.0013C28.766 66.0013 28.5328 65.9397 28.323 65.8206ZM5.52795 49.6604L29.0021 63.1008L33.9834 60.2482L14.4168 40.8439L5.52795 49.6604ZM36.4168 58.8547L55.2878 48.0507V44.5205L42.2402 31.5812L25.5776 48.1055L36.4168 58.8547ZM29.0007 2.90045L2.7136 17.9505V36.3528L20.5618 18.6568C21.0697 18.1518 21.971 18.1518 22.4803 18.6568L36.9565 33.0143L41.2809 28.7272C41.8095 28.2016 42.6694 28.2016 43.1994 28.7272L55.2864 40.7152V17.9505L29.0007 2.90045ZM21.5183 21.5122L2.7136 40.1595V48.0493L3.09317 48.267L13.4562 37.9899C13.9848 37.4643 14.8447 37.4643 15.3747 37.9899L23.6563 46.2028L35.0352 34.9183L21.5183 21.5122ZM23.8551 32.0162H22.9689C22.4375 32.0162 22.0028 31.5864 22.0028 31.0594V30.1793C22.0028 29.6523 22.4375 29.2197 22.9689 29.2197H23.8551C24.3865 29.2197 24.8226 29.6523 24.8226 30.1793V31.0594C24.8226 31.585 24.3865 32.0162 23.8551 32.0162ZM19.1824 32.0164H20.0685C20.5999 32.0164 21.0361 31.5852 21.0361 31.0596V30.1794C21.0361 29.6525 20.5999 29.2199 20.0685 29.2199H19.1824C18.651 29.2199 18.2148 29.6525 18.2148 30.1794V31.0596C18.2148 31.5866 18.651 32.0164 19.1824 32.0164ZM22.9685 32.9743H23.8547C24.3888 32.9743 24.8209 33.4041 24.8209 33.9325V34.8126C24.8209 35.341 24.3875 35.7708 23.8547 35.7708H22.9672C22.4344 35.7708 22.001 35.341 22.001 34.8126V33.9325C22.001 33.4027 22.4344 32.9743 22.9672 32.9743H22.9685ZM19.1824 35.7708H20.0685C20.5999 35.7708 21.0361 35.3396 21.0361 34.8126V33.9325C21.0361 33.4068 20.5999 32.9743 20.0685 32.9743H19.1824C18.651 32.9743 18.2148 33.4068 18.2148 33.9325V34.8126C18.2148 35.3396 18.651 35.7708 19.1824 35.7708ZM39.6687 40.433H40.6432C41.2298 40.433 41.7074 40.908 41.7074 41.4884V42.4561C41.7074 43.0351 41.2284 43.5101 40.6432 43.5101H39.6687C39.0821 43.5101 38.6046 43.0351 38.6046 42.4561V41.4884C38.6046 40.908 39.0835 40.433 39.6687 40.433ZM43.8333 47.6413H44.8092C45.393 47.6413 45.8733 47.1664 45.8733 46.5873V45.6196C45.8733 45.042 45.3944 44.5656 44.8092 44.5656H43.8333C43.2495 44.5656 42.7705 45.0406 42.7705 45.6196V46.5873C42.7705 47.1664 43.2495 47.6413 43.8333 47.6413ZM44.8092 43.5099H43.8333C43.2495 43.5099 42.7705 43.0349 42.7705 42.4559V41.4882C42.7705 40.9078 43.2495 40.4328 43.8333 40.4328H44.8092C45.3944 40.4328 45.8733 40.9078 45.8733 41.4882V42.4559C45.8733 43.0349 45.393 43.5099 44.8092 43.5099ZM40.6432 44.5641H39.6687C39.0835 44.5641 38.6046 45.0391 38.6046 45.6181V46.5858C38.6046 47.1648 39.0821 47.6398 39.6687 47.6398H40.6432C41.2284 47.6398 41.7074 47.1648 41.7074 46.5858V45.6181C41.7074 45.0404 41.2298 44.5641 40.6432 44.5641ZM12.3565 45.4704H13.1377C13.607 45.4704 13.9907 45.8509 13.9907 46.315V47.0911C13.9907 47.5551 13.607 47.9356 13.1377 47.9356H12.3565C11.8872 47.9356 11.5049 47.5551 11.5049 47.0911V46.315C11.5049 45.8509 11.8872 45.4704 12.3565 45.4704ZM15.6922 51.2439H16.4734C16.9427 51.2439 17.3251 50.8634 17.3251 50.3993V49.6246C17.3251 49.1606 16.9413 48.78 16.4734 48.78H15.6922C15.2243 48.78 14.8406 49.1606 14.8406 49.6246V50.3993C14.8406 50.8647 15.2243 51.2439 15.6922 51.2439ZM16.4734 47.9355H15.6922C15.2243 47.9355 14.8406 47.555 14.8406 47.0909V46.3148C14.8406 45.8508 15.2243 45.4703 15.6922 45.4703H16.4734C16.9413 45.4703 17.3251 45.8508 17.3251 46.3148V47.0909C17.3251 47.555 16.9427 47.9355 16.4734 47.9355ZM13.1377 48.78H12.3565C11.8872 48.78 11.5049 49.1605 11.5049 49.6245V50.3993C11.5049 50.8647 11.8872 51.2438 12.3565 51.2438H13.1377C13.607 51.2438 13.9907 50.8633 13.9907 50.3993V49.6245C13.9907 49.1605 13.607 48.78 13.1377 48.78Z" fill="url(#paint0_linear_97_1146)"/>
<defs>
<linearGradient id="paint0_linear_97_1146" x1="29.0014" y1="0.000976562" x2="29.0014" y2="66.0014" gradientUnits="userSpaceOnUse">
<stop stop-color="#04B6DF"/>
<stop offset="1" stop-color="#04D0CF"/>
</linearGradient>
</defs>
</svg>
