<svg width="64" height="60" viewBox="0 0 64 60" fill="none" xmlns="http://www.w3.org/2000/svg">
<path fill-rule="evenodd" clip-rule="evenodd" d="M5.98419 0H57.8948C61.1179 0 63.78 2.67206 64 6.00663V39.9595C64 43.2941 61.3379 45.9661 58.0158 45.9661H37.0492L39.8213 51.5311H44.4744C46.6965 51.5311 48.5775 53.4192 48.5775 55.76C48.5775 58.1008 46.8065 59.989 44.4744 59.989H19.5256C17.1935 59.989 15.3125 58.1008 15.3125 55.76C15.3125 53.4192 17.1935 51.5311 19.5256 51.5311H24.1788L26.9508 45.9661H5.98419C2.66208 45.9661 0 43.3051 0 39.9595V6.00663C0 2.67206 2.66208 0 5.98419 0ZM57.8838 2.78248H5.98419C4.21313 2.78248 2.88209 4.22893 2.88209 6.00663V36.1722H13.4094C11.4184 29.4921 13.0794 22.039 18.1836 16.9157L18.4036 16.6949C25.9388 9.23077 38.0282 9.23077 45.5744 16.6949L45.7944 16.9157C50.8876 22.1494 52.5597 29.4921 50.5576 36.1722H61.0959V6.00663C61.0959 4.22893 59.6549 2.78248 57.8838 2.78248ZM39.7002 20.9238L42.6923 17.9205C40.1403 15.6901 36.8182 14.2437 33.265 14.0228V18.2517C35.7071 18.4726 37.9292 19.4774 39.7002 20.9238ZM44.2434 29.2713H48.4565C48.2365 25.7048 46.7955 22.4807 44.5734 19.8086L41.5813 22.8119C43.0224 24.7111 44.0234 26.82 44.2434 29.2713ZM24.0578 20.8134C25.9498 19.3669 28.0509 18.3622 30.493 18.1413L30.383 13.9124C26.8298 14.2437 23.6177 15.5797 21.0657 17.8101L24.0578 20.8134ZM22.2867 22.8119L19.2946 19.8086C17.0725 22.4807 15.6315 25.7048 15.4115 29.2713H19.6246C19.8446 26.82 20.8457 24.5896 22.2867 22.8119ZM19.6246 32.0537H15.4115C15.5215 33.5002 15.7525 34.8362 16.3025 36.2827H20.8457C20.1746 34.9466 19.7346 33.5002 19.6246 32.0537ZM22.2867 32.1642C22.5067 33.6106 23.0567 34.9466 23.9478 36.1722V36.0618H39.8102C41.0313 34.3946 41.5813 32.4954 41.5813 30.4969C41.5813 25.1527 37.1482 20.8134 31.824 20.8134C25.9498 20.8134 21.2857 26.1575 22.2867 32.1642ZM48.5665 32.0537H44.3534C44.1334 33.3898 43.7924 34.8362 43.1324 36.2827H47.6755C48.1265 34.8362 48.4565 33.5002 48.5665 32.0537ZM44.4634 57.0961C45.1344 57.0961 45.7944 56.4336 45.7944 55.6496C45.7944 54.8767 45.1344 54.3136 44.4634 54.2032H19.5146C18.7446 54.2032 18.0736 54.8767 18.0736 55.6496C18.0736 56.4225 18.7336 57.0961 19.5146 57.0961H44.4634ZM27.1599 51.5311H36.5872L33.8151 45.9661H29.9319L27.1599 51.5311ZM5.98419 43.1837H57.8838H57.8948C59.6659 43.1837 61.1069 41.7372 60.9969 39.9595V38.9547H2.77209V39.9595C2.77209 41.7372 4.21313 43.1837 5.98419 43.1837ZM30.5036 26.4997C30.5036 25.7157 31.1637 25.0532 31.9448 25.0532C32.726 25.0532 33.3861 25.7157 33.3861 26.4997V33.4007C33.3861 34.1846 32.726 34.8471 31.9448 34.8471C31.1637 34.8471 30.5036 34.1846 30.5036 33.4007V26.4997ZM19.5148 9.79395H16.7422V12.5764H19.5148V9.79395ZM48.5775 50.2061C48.5775 49.4332 49.2377 48.7597 50.0188 48.7597C50.679 48.7597 51.3501 49.3117 51.4601 50.2061C51.4601 50.979 50.789 51.6526 50.0188 51.6526C49.2487 51.6526 48.5775 50.979 48.5775 50.2061ZM13.9704 48.7598C13.1892 48.7598 12.5291 49.4333 12.5291 50.2062C12.5291 50.9791 13.1892 51.6527 13.9704 51.6527C14.7515 51.6527 15.4117 50.9791 15.4117 50.2062C15.3017 49.3118 14.6305 48.7598 13.9704 48.7598ZM23.6287 5.56496H26.4013V8.34744H23.6287V5.56496ZM22.2867 5.56496H5.65418V8.34744H22.2867V5.56496ZM5.65418 13.9124H13.9704V16.6949H5.65418V13.9124ZM11.1993 18.1413H5.65418V20.9238H11.1993V18.1413ZM5.65418 9.79389H15.3015V12.5764H5.65418V9.79389ZM59.6664 5.56496H56.8938V8.34744H59.6664V5.56496ZM45.8054 9.79389H54.1217V12.5764H45.8054V9.79389ZM58.3348 13.9124H50.0186V16.6949H58.3348V13.9124ZM45.8054 5.56496H55.5627V8.34744H45.8054V5.56496ZM7.65624 50.0957C5.77518 50.0957 4.21313 51.6526 4.21313 53.5517C4.21313 55.4509 5.76418 56.9967 7.65624 56.9967C9.5483 56.9967 11.0993 55.4398 11.0993 53.5517C11.0993 51.6636 9.5483 50.0957 7.65624 50.0957ZM7.65624 54.3246C7.32623 54.3246 6.99622 53.9934 6.99622 53.6511C6.99622 53.3088 7.32623 52.9886 7.65624 52.9886C7.98625 52.9886 8.32726 53.3198 8.32726 53.6511C8.43727 53.9823 8.10726 54.3246 7.65624 54.3246ZM54.1217 55.7711C54.1217 53.4303 56.0028 51.5421 58.3348 51.5421C60.5569 51.5421 62.438 53.4303 62.548 55.7711C62.548 58.1119 60.6669 60 58.3348 60C56.0028 60 54.1217 58.1119 54.1217 55.7711ZM56.8938 55.6607C56.8938 56.4336 57.5538 57.1071 58.3348 57.1071C58.9949 57.1071 59.6659 56.4446 59.7759 55.6607C59.7759 54.8877 59.1159 54.2142 58.3348 54.2142C57.5538 54.2142 56.8938 54.8877 56.8938 55.6607Z" fill="url(#paint0_linear_97_1126)"/>
<defs>
<linearGradient id="paint0_linear_97_1126" x1="32" y1="0" x2="32" y2="60" gradientUnits="userSpaceOnUse">
<stop stop-color="#03B3E0"/>
<stop offset="1" stop-color="#03D1CE"/>
</linearGradient>
</defs>
</svg>
