<svg width="60" height="60" viewBox="0 0 60 60" fill="none" xmlns="http://www.w3.org/2000/svg">
<g clip-path="url(#clip0_189_1897)">
<rect width="60" height="60" fill="url(#paint0_linear_189_1897)"/>
<path fill-rule="evenodd" clip-rule="evenodd" d="M34.063 7.17033C34.3592 7.46993 34.6653 7.5698 34.9615 7.5698C35.2577 7.5698 35.5637 7.46993 35.8599 7.17033C36.3635 6.67099 36.3635 5.87206 35.8599 5.37273L30.864 0.379383C30.3704 -0.119951 29.5706 -0.119951 29.0671 0.379383C29.0492 0.397137 29.0319 0.41527 29.0153 0.433754C28.9994 0.448554 28.9837 0.463817 28.9682 0.479545L23.9821 5.47289C23.4786 5.97222 23.4786 6.77116 23.9821 7.27049C24.4758 7.76982 25.2755 7.76982 25.7791 7.27049L28.672 4.37435V13.9126C25.1733 14.1911 21.9862 15.5885 19.4592 17.7366L12.6869 10.9652H16.7843C17.4853 10.9652 18.0875 10.366 18.0875 9.66692C18.0875 8.96785 17.4853 8.36865 16.7843 8.36865H9.69525C9.69338 8.36865 9.69151 8.36866 9.68964 8.36866C9.68809 8.36866 9.68655 8.36865 9.685 8.36865C9.66795 8.36865 9.65095 8.36902 9.63402 8.36974C9.1021 8.38879 8.72892 8.65751 8.52977 9.09858C8.44177 9.2717 8.3916 9.46515 8.3916 9.66692V16.7575C8.3916 17.4565 8.984 18.0557 9.685 18.0557C10.386 18.0557 10.8895 17.4565 10.9883 16.7575V12.7575L17.7022 19.4724C15.4697 22.0346 14.0225 25.2899 13.7367 28.8412H4.30465L7.19752 25.9451C7.70106 25.4457 7.70106 24.6468 7.19752 24.1474C6.70386 23.6481 5.90412 23.6481 5.40058 24.1474L0.48928 29.0563C0.456974 29.0827 0.425583 29.111 0.395232 29.1411C0.271492 29.2638 0.17816 29.4046 0.115236 29.5546C-0.0231083 29.862 -0.0253542 30.2005 0.108499 30.5389C0.203062 30.7781 0.365554 30.9714 0.564528 31.1079L5.39112 35.932C5.68732 36.2316 5.99339 36.3315 6.28959 36.3315C6.58579 36.3315 6.89186 36.1318 7.18806 35.932C7.6916 35.4327 7.6916 34.6338 7.18806 34.1344L4.39005 31.3379H13.729C13.9928 34.8814 15.4163 38.1192 17.6249 40.671L10.9883 47.3066V43.2121C10.9883 42.513 10.3761 41.9138 9.685 41.9138C8.99387 41.9138 8.3916 42.513 8.3916 43.2121V49.7973C8.32209 49.9538 8.2832 50.125 8.2832 50.3027C8.2832 51.0017 8.88547 51.6009 9.58648 51.6009H16.6755C17.3666 51.6009 17.9689 51.0017 17.9689 50.3027C17.9689 49.6036 17.3765 49.0044 16.6755 49.0044H12.8888L19.4331 42.4591C21.9867 44.6199 25.2171 46.0146 28.7608 46.2741V55.7055L25.868 52.8093C25.3743 52.31 24.5746 52.31 24.071 52.8093C23.5675 53.3087 23.5675 54.1076 24.071 54.6069L29.0588 59.5922L29.0671 59.6005C29.3633 59.9001 29.6694 60 29.9656 60L29.9898 59.9997C30.1809 59.9996 30.2833 59.9958 30.5676 59.8999C30.9015 59.7675 31.1441 59.5034 31.2698 59.1949L35.8599 54.6072C36.3635 54.1078 36.3635 53.3089 35.8599 52.8096C35.3564 52.3102 34.5665 52.3102 34.063 52.8096L31.3674 55.5038V46.2594C34.8692 45.9648 38.0542 44.5764 40.5708 42.4341L47.1402 49.0044H43.146C42.445 49.0044 41.8428 49.6036 41.8428 50.3027C41.8428 51.0017 42.445 51.6009 43.146 51.6009H50.2351C50.3858 51.6009 50.5323 51.5724 50.6692 51.5206C50.7255 51.5091 50.7816 51.501 50.8376 51.501C51.3412 51.3013 51.6374 50.802 51.6374 50.3026V43.2121C51.6374 42.513 51.0252 41.9138 50.3341 41.9138C49.643 41.9138 49.0407 42.513 49.0407 43.2121V47.3066L42.3722 40.6391C44.5464 38.1035 45.9446 34.8859 46.2032 31.3381H55.6295L52.8318 34.1344C52.3282 34.6338 52.3282 35.4327 52.8318 35.932C53.128 36.2316 53.434 36.3315 53.7302 36.3315C54.0264 36.3315 54.3325 36.1318 54.6287 35.932L59.6246 30.9387C60.1281 30.4394 60.1281 29.6404 59.6246 29.1411C59.611 29.1273 59.5971 29.114 59.5831 29.101C59.5646 29.0808 59.5454 29.0609 59.5255 29.0412L54.5296 24.0478C54.0359 23.5485 53.2362 23.5485 52.7326 24.0478C52.2291 24.5472 52.2291 25.3461 52.7326 25.8454L55.6255 28.7416H46.1875C45.8842 25.1765 44.4315 21.9385 42.2011 19.4001L48.9316 12.6686V16.7575C48.9316 17.4565 49.5339 18.0557 50.2349 18.0557C50.926 18.0557 51.5283 17.4565 51.5283 16.7575V9.66692C51.5283 9.65126 51.528 9.63565 51.5274 9.6201C51.5359 9.43948 51.5035 9.25373 51.43 9.06798C51.2326 8.56864 50.7389 8.26904 50.2354 8.26904H43.1463C42.4453 8.26904 41.8431 8.86824 41.8431 9.56731C41.8431 10.2664 42.4453 10.8656 43.1463 10.8656H47.2437L40.4355 17.6729C37.8928 15.5359 34.6868 14.1622 31.1699 13.9052V4.27871L34.063 7.17033ZM23.7746 25.5457L19.4618 21.2323C17.6818 23.327 16.515 25.9573 16.2434 28.8412H22.4814C23.1824 28.8412 23.7748 29.4404 23.7748 30.1395C23.7748 30.7387 23.1725 31.3379 22.4814 31.3379H22.4715H16.2344C16.4846 34.2141 17.6273 36.8283 19.3834 38.9127L23.8729 34.4238C24.3765 33.9245 25.1663 33.9245 25.6699 34.4238C26.1734 34.9232 26.1734 35.7221 25.6699 36.2214L21.1941 40.6979C23.2889 42.4131 25.9021 43.5243 28.7608 43.7699V37.5297C28.7608 36.8307 29.3631 36.2314 30.0641 36.2314C30.7651 36.2314 31.3674 36.8307 31.3674 37.5297V43.7505C34.1654 43.4659 36.7202 42.3395 38.773 40.636L34.3591 36.2214C33.8556 35.7221 33.8556 34.9232 34.3591 34.4238C34.8626 33.9245 35.6624 33.9245 36.156 34.4238L40.5736 38.8407C42.3121 36.7581 43.444 34.164 43.6956 31.3381H37.4488C36.7478 31.3381 36.1455 30.7389 36.1455 30.0399C36.1455 29.3408 36.7478 28.7416 37.4488 28.7416H43.6764C43.3812 25.8979 42.1969 23.2835 40.4045 21.1971L36.156 25.4461C35.8598 25.8456 35.5538 25.9455 35.2576 25.9455C34.9614 25.9455 34.6553 25.8456 34.3591 25.546C33.8556 25.0467 33.8556 24.2477 34.3591 23.7484L38.6366 19.4715C36.5588 17.7725 33.9832 16.6602 31.1699 16.4111V22.5501C31.2686 23.2492 30.6664 23.8484 29.9752 23.8484H29.9654C29.2644 23.8484 28.672 23.2492 28.672 22.5501V16.4184C25.8607 16.6821 23.2904 17.7961 21.222 19.4991L25.5715 23.848C26.075 24.3473 26.075 25.1463 25.5715 25.6456C25.2753 25.8453 24.9692 25.9452 24.673 25.9452C24.3768 25.9452 24.0708 25.8454 23.7746 25.5457ZM26.1738 30.0401C26.1738 32.1373 27.872 33.835 29.9652 33.835C32.0583 33.835 33.7565 32.1373 33.7565 30.0401C33.7565 27.9429 32.0583 26.2451 29.9652 26.2451C27.872 26.2451 26.1738 27.9429 26.1738 30.0401ZM28.6718 30.1399C28.6718 29.4409 29.2642 28.8417 29.9652 28.8417C30.6662 28.8417 31.2684 29.341 31.2684 30.1399C31.2684 30.839 30.6563 31.4382 29.9652 31.4382C29.274 31.4382 28.6718 30.839 28.6718 30.1399Z" fill="url(#paint1_linear_189_1897)"/>
</g>
<defs>
<linearGradient id="paint0_linear_189_1897" x1="30" y1="0" x2="30" y2="60" gradientUnits="userSpaceOnUse">
<stop stop-color="white"/>
<stop offset="1" stop-color="white" stop-opacity="0"/>
</linearGradient>
<linearGradient id="paint1_linear_189_1897" x1="9.68994" y1="8.36865" x2="9.68994" y2="53.5" gradientUnits="userSpaceOnUse">
<stop stop-color="#03B3E0"/>
<stop offset="1" stop-color="#03D1CE"/>
</linearGradient>
<clipPath id="clip0_189_1897">
<rect width="60" height="60" fill="white"/>
</clipPath>
</defs>
</svg>
