<svg width="193" height="36" viewBox="0 0 193 36" fill="none" xmlns="http://www.w3.org/2000/svg">
<path d="M14.7211 36.0002L0 27.4108V10.4888L9.15093 15.7416V22.4317L14.7211 25.5287V36.0002Z" fill="#004096"/>
<path d="M30.7919 8.4867L21.6928 13.7567L15.9843 10.557L10.2758 13.7567L1.17676 8.4867L15.9843 0L30.7919 8.4867Z" fill="#3592D1"/>
<path d="M17.2461 36.0002L31.9672 27.4108V10.4888L22.8162 15.7416V22.4317L17.2461 25.5287V36.0002Z" fill="#3592D1"/>
<path d="M51.9824 25.2721V11.4641H54.5599C55.0788 11.4641 55.4248 11.7037 55.5805 12.1485L55.8054 12.9014C56.0303 12.6618 56.2725 12.4394 56.532 12.2341C56.7914 12.0288 57.0509 11.8577 57.345 11.7208C57.639 11.5668 57.9504 11.4641 58.2791 11.3786C58.6078 11.293 58.9883 11.2588 59.3862 11.2588C60.2338 11.2588 60.9258 11.4812 61.4793 11.909C62.0329 12.3367 62.4481 12.9185 62.7421 13.6371C62.9843 13.2094 63.2611 12.85 63.5897 12.5421C63.9184 12.2341 64.2817 11.9945 64.6796 11.8063C65.0774 11.6181 65.4753 11.4812 65.9251 11.3957C66.3575 11.3101 66.79 11.2588 67.2224 11.2588C68.0182 11.2588 68.7274 11.3786 69.3502 11.6181C69.9729 11.8577 70.4919 12.1998 70.9071 12.6447C71.3222 13.0896 71.6336 13.6371 71.8584 14.2873C72.0833 14.9375 72.1871 15.6732 72.1871 16.5117V25.2892H68.0182V16.5117C68.0182 15.0915 67.3954 14.3729 66.1672 14.3729C65.5964 14.3729 65.1293 14.5611 64.7661 14.9204C64.3855 15.2797 64.2125 15.8101 64.2125 16.5117V25.2892H60.0436V16.5117C60.0436 15.7246 59.8879 15.1599 59.5765 14.852C59.2651 14.5269 58.798 14.3729 58.1926 14.3729C57.812 14.3729 57.4661 14.4584 57.1201 14.6295C56.7741 14.8006 56.4627 15.023 56.1687 15.3139V25.3063H51.9997L51.9824 25.2721Z" fill="#3592D1"/>
<path d="M78.3112 19.1124C78.4496 20.2588 78.7956 21.0972 79.3665 21.6276C79.9373 22.1409 80.6811 22.3975 81.5806 22.3975C82.065 22.3975 82.4802 22.3462 82.8261 22.2265C83.1721 22.1067 83.4835 21.9869 83.7603 21.8329C84.0371 21.696 84.2792 21.5592 84.5214 21.4565C84.7463 21.3367 84.9885 21.2854 85.248 21.2854C85.5767 21.2854 85.8361 21.4052 86.0091 21.6447L87.22 23.1162C86.7875 23.6124 86.3205 24.0059 85.8188 24.3139C85.3172 24.6219 84.8155 24.8614 84.2792 25.0325C83.7603 25.2036 83.2241 25.3234 82.7051 25.3918C82.1861 25.4603 81.6844 25.4945 81.2001 25.4945C80.2141 25.4945 79.2973 25.3405 78.4496 25.0154C77.602 24.6903 76.8409 24.2284 76.2008 23.6124C75.5608 22.9964 75.0591 22.2264 74.6785 21.3025C74.298 20.3785 74.125 19.3006 74.125 18.0858C74.125 17.1618 74.2807 16.2892 74.6094 15.4679C74.9207 14.6466 75.3878 13.928 75.9759 13.2949C76.5641 12.6789 77.2906 12.1827 78.1383 11.8234C78.9859 11.4641 79.9373 11.2759 81.0098 11.2759C81.9266 11.2759 82.7743 11.4128 83.5527 11.7036C84.3311 11.9945 84.9712 12.4052 85.5247 12.9356C86.0783 13.4831 86.5107 14.1333 86.8221 14.9204C87.1335 15.7074 87.2892 16.5972 87.2892 17.5896C87.2892 17.8976 87.2892 18.1542 87.2546 18.3424C87.22 18.5306 87.1854 18.6846 87.0989 18.8044C87.0297 18.9242 86.9259 18.9926 86.8048 19.044C86.6838 19.0953 86.528 19.1124 86.3378 19.1124H78.2939H78.3112ZM83.5527 16.717C83.5527 16.3919 83.5181 16.0668 83.4316 15.7588C83.3451 15.4508 83.2067 15.177 83.0165 14.9204C82.8262 14.6808 82.5667 14.4755 82.2553 14.3215C81.9439 14.1675 81.5634 14.0991 81.1136 14.0991C80.3179 14.0991 79.7124 14.3215 79.2627 14.7664C78.8129 15.2113 78.5188 15.8615 78.3804 16.6999H83.57L83.5527 16.717Z" fill="#3592D1"/>
<path d="M94.2088 25.4941C93.5514 25.4941 92.9633 25.3915 92.4443 25.2032C91.9253 25.015 91.5102 24.7413 91.1642 24.3991C90.8183 24.0569 90.5588 23.6291 90.3858 23.1329C90.2128 22.6367 90.109 22.0892 90.109 21.4732V14.3382H88.9327C88.7251 14.3382 88.5349 14.2698 88.3792 14.1329C88.2235 13.996 88.1543 13.7907 88.1543 13.5341V11.9257L90.3685 11.4979L91.1815 8.12721C91.2853 7.69946 91.5967 7.49414 92.0984 7.49414H94.278V11.5322H97.7377V14.3553H94.278V21.2166C94.278 21.5417 94.3645 21.7983 94.5202 22.0036C94.6758 22.209 94.9007 22.3116 95.1948 22.3116C95.3505 22.3116 95.4716 22.3116 95.5754 22.2603C95.6792 22.2261 95.7656 22.1918 95.8521 22.1576C95.9213 22.1234 96.0079 22.0892 96.0598 22.055C96.1289 22.0207 96.1981 22.0036 96.3019 22.0036C96.423 22.0036 96.5268 22.0379 96.6133 22.0892C96.6998 22.1405 96.769 22.2432 96.8555 22.363L98.1182 24.3135C97.582 24.7071 96.9765 25.015 96.3019 25.2032C95.6273 25.4086 94.9353 25.4941 94.2088 25.4941Z" fill="#3592D1"/>
<path d="M99.2419 13.3805C100.09 12.6448 101.024 12.0972 102.044 11.7379C103.065 11.3786 104.172 11.2075 105.348 11.2075C106.196 11.2075 106.957 11.3444 107.632 11.6182C108.306 11.8919 108.877 12.2683 109.362 12.7474C109.829 13.2265 110.192 13.8083 110.451 14.4756C110.711 15.1429 110.832 15.8615 110.832 16.6657V25.2893H108.929C108.531 25.2893 108.237 25.2379 108.03 25.1353C107.822 25.0326 107.666 24.8102 107.528 24.468L107.234 23.7151C106.888 24.006 106.542 24.2626 106.23 24.4851C105.902 24.7075 105.573 24.8957 105.227 25.0497C104.881 25.2037 104.518 25.3235 104.12 25.3919C103.722 25.4604 103.29 25.5117 102.823 25.5117C102.183 25.5117 101.612 25.4261 101.093 25.2722C100.574 25.1182 100.124 24.8615 99.7609 24.5535C99.3976 24.2284 99.1208 23.8349 98.9132 23.3558C98.723 22.8767 98.6191 22.3292 98.6191 21.7132C98.6191 21.217 98.7402 20.7208 98.9997 20.2075C99.2592 19.6942 99.6917 19.2322 100.297 18.8045C100.92 18.3767 101.75 18.0345 102.805 17.7437C103.861 17.4528 105.175 17.2988 106.784 17.2645V16.6828C106.784 15.8786 106.611 15.2969 106.282 14.9375C105.954 14.5782 105.469 14.39 104.847 14.39C104.345 14.39 103.947 14.4414 103.636 14.544C103.324 14.6467 103.048 14.7665 102.788 14.9033C102.546 15.0402 102.304 15.16 102.062 15.2626C101.819 15.3653 101.543 15.4167 101.231 15.4167C100.937 15.4167 100.695 15.3482 100.505 15.2113C100.314 15.0744 100.141 14.9033 100.02 14.698L99.2592 13.4147L99.2419 13.3805ZM106.749 19.6429C105.919 19.6771 105.227 19.7455 104.691 19.8482C104.155 19.9509 103.722 20.0877 103.411 20.2417C103.1 20.3957 102.875 20.584 102.754 20.7893C102.632 20.9946 102.563 21.217 102.563 21.4566C102.563 21.9357 102.702 22.2608 102.961 22.449C103.221 22.6372 103.601 22.7398 104.103 22.7398C104.639 22.7398 105.106 22.6372 105.521 22.4661C105.919 22.2779 106.334 21.9699 106.749 21.5592V19.6429Z" fill="#3592D1"/>
<path d="M119.379 13.3805C120.226 12.6448 121.16 12.0972 122.181 11.7379C123.202 11.3786 124.309 11.2075 125.485 11.2075C126.333 11.2075 127.094 11.3444 127.768 11.6182C128.443 11.8919 129.014 12.2683 129.498 12.7474C129.965 13.2265 130.329 13.8083 130.588 14.4756C130.848 15.1429 130.969 15.8615 130.969 16.6657V25.2893H129.066C128.668 25.2893 128.374 25.2379 128.166 25.1353C127.959 25.0326 127.803 24.8102 127.665 24.468L127.371 23.7151C127.025 24.006 126.679 24.2626 126.367 24.4851C126.039 24.7075 125.71 24.8957 125.364 25.0497C125.018 25.2037 124.655 25.3235 124.257 25.3919C123.859 25.4604 123.426 25.5117 122.959 25.5117C122.319 25.5117 121.748 25.4261 121.23 25.2722C120.711 25.1182 120.261 24.8615 119.898 24.5535C119.534 24.2284 119.257 23.8349 119.05 23.3558C118.86 22.8767 118.756 22.3292 118.756 21.7132C118.756 21.217 118.877 20.7208 119.136 20.2075C119.396 19.6942 119.828 19.2322 120.434 18.8045C121.057 18.3767 121.887 18.0345 122.942 17.7437C123.997 17.4528 125.312 17.2988 126.921 17.2645V16.6828C126.921 15.8786 126.748 15.2969 126.419 14.9375C126.09 14.5782 125.606 14.39 124.983 14.39C124.482 14.39 124.084 14.4414 123.772 14.544C123.461 14.6467 123.184 14.7665 122.925 14.9033C122.683 15.0402 122.44 15.16 122.198 15.2626C121.956 15.3653 121.679 15.4167 121.368 15.4167C121.074 15.4167 120.832 15.3482 120.641 15.2113C120.451 15.0744 120.278 14.9033 120.157 14.698L119.396 13.4147L119.379 13.3805ZM126.886 19.6429C126.056 19.6771 125.364 19.7455 124.828 19.8482C124.291 19.9509 123.859 20.0877 123.548 20.2417C123.236 20.3957 123.011 20.584 122.89 20.7893C122.769 20.9946 122.7 21.217 122.7 21.4566C122.7 21.9357 122.838 22.2608 123.098 22.449C123.357 22.6372 123.738 22.7398 124.239 22.7398C124.776 22.7398 125.243 22.6372 125.658 22.4661C126.056 22.2779 126.471 21.9699 126.886 21.5592V19.6429Z" fill="#3592D1"/>
<path d="M143.873 14.7489C143.752 14.9028 143.631 15.0226 143.51 15.1082C143.388 15.1937 143.233 15.245 143.008 15.245C142.783 15.245 142.61 15.1937 142.454 15.0911C142.281 14.9884 142.108 14.8857 141.901 14.766C141.693 14.6462 141.451 14.5435 141.174 14.4409C140.897 14.3382 140.551 14.2869 140.136 14.2869C139.617 14.2869 139.185 14.3895 138.804 14.5606C138.424 14.7489 138.13 15.0055 137.888 15.3648C137.645 15.7241 137.472 16.1348 137.351 16.631C137.23 17.1272 137.178 17.6918 137.178 18.3249C137.178 19.6424 137.438 20.669 137.957 21.3705C138.476 22.0891 139.185 22.4313 140.084 22.4313C140.569 22.4313 140.949 22.3629 141.243 22.2431C141.52 22.1234 141.762 21.9865 141.97 21.8496C142.178 21.7127 142.351 21.5758 142.524 21.4389C142.697 21.3192 142.904 21.2507 143.146 21.2507C143.475 21.2507 143.734 21.3705 143.907 21.6101L145.118 23.0815C144.686 23.5777 144.236 23.9713 143.752 24.2793C143.285 24.5872 142.783 24.8268 142.299 24.9979C141.797 25.169 141.295 25.2888 140.794 25.3572C140.292 25.4257 139.808 25.4599 139.323 25.4599C138.476 25.4599 137.663 25.3059 136.884 24.9808C136.106 24.6557 135.431 24.1937 134.843 23.5949C134.255 22.9789 133.788 22.2431 133.442 21.3534C133.096 20.4637 132.923 19.4542 132.923 18.3249C132.923 17.3325 133.079 16.4085 133.373 15.5359C133.667 14.6633 134.116 13.9276 134.705 13.2774C135.293 12.6443 136.019 12.1481 136.884 11.7717C137.749 11.3952 138.752 11.2241 139.894 11.2241C141.036 11.2241 141.953 11.3952 142.766 11.7374C143.596 12.0796 144.34 12.5929 144.997 13.2602L143.89 14.7146L143.873 14.7489Z" fill="#3592D1"/>
<path d="M161.811 25.2719H157.642V14.3214H151.796V21.1826C151.796 21.5077 151.882 21.7643 152.038 21.9696C152.193 22.1749 152.418 22.2776 152.712 22.2776C152.868 22.2776 152.989 22.2776 153.093 22.2263C153.197 22.1921 153.283 22.1579 153.37 22.1236C153.439 22.0894 153.525 22.0552 153.577 22.021C153.647 21.9868 153.716 21.9696 153.819 21.9696C153.941 21.9696 154.044 22.0039 154.131 22.0552C154.217 22.1065 154.287 22.2092 154.373 22.329L155.636 24.2795C155.1 24.6731 154.494 24.981 153.819 25.1693C153.145 25.3746 152.453 25.4601 151.726 25.4601C151.069 25.4601 150.481 25.3575 149.962 25.1693C149.443 24.981 149.028 24.7073 148.682 24.3651C148.336 24.0229 148.076 23.5951 147.903 23.0989C147.73 22.6027 147.627 22.0552 147.627 21.4392V14.3042H146.45C146.243 14.3042 146.052 14.2358 145.897 14.0989C145.741 13.962 145.672 13.7567 145.672 13.5001V11.8917L147.886 11.4468L148.699 8.0932C148.803 7.66545 149.114 7.46013 149.616 7.46013H151.796V11.4982H161.811V25.2719ZM162.382 7.68257C162.382 8.00767 162.313 8.31564 162.175 8.60652C162.036 8.89739 161.863 9.15404 161.621 9.37647C161.379 9.59891 161.119 9.77001 160.808 9.88978C160.497 10.0096 160.168 10.078 159.822 10.078C159.476 10.078 159.165 10.0096 158.871 9.88978C158.577 9.77001 158.317 9.59891 158.075 9.37647C157.85 9.15404 157.66 8.89739 157.539 8.60652C157.418 8.31564 157.348 8.00767 157.348 7.68257C157.348 7.35748 157.418 7.04949 157.539 6.7415C157.677 6.45063 157.85 6.19398 158.075 5.97155C158.3 5.74911 158.559 5.57801 158.871 5.45823C159.182 5.33846 159.493 5.27002 159.822 5.27002C160.151 5.27002 160.497 5.33846 160.808 5.45823C161.119 5.57801 161.396 5.76622 161.621 5.97155C161.846 6.19398 162.036 6.45063 162.175 6.7415C162.313 7.03238 162.382 7.35748 162.382 7.68257Z" fill="#3592D1"/>
<path d="M171.152 11.2588C172.207 11.2588 173.176 11.4299 174.041 11.755C174.906 12.0801 175.649 12.5592 176.289 13.1751C176.912 13.7911 177.397 14.5268 177.743 15.3995C178.089 16.2721 178.262 17.2645 178.262 18.3424C178.262 19.4204 178.089 20.4299 177.743 21.3196C177.397 22.2094 176.912 22.9622 176.289 23.5782C175.667 24.1941 174.923 24.6732 174.041 24.9983C173.176 25.3234 172.207 25.4945 171.152 25.4945C170.097 25.4945 169.111 25.3234 168.246 24.9983C167.363 24.6732 166.62 24.1941 165.98 23.5782C165.34 22.9622 164.855 22.2094 164.509 21.3196C164.163 20.4299 163.99 19.4546 163.99 18.3424C163.99 17.2303 164.163 16.2721 164.509 15.3995C164.855 14.5268 165.34 13.774 165.98 13.1751C166.62 12.5763 167.363 12.0972 168.246 11.755C169.128 11.4299 170.097 11.2588 171.152 11.2588ZM171.152 22.4318C172.103 22.4318 172.812 22.0896 173.28 21.4223C173.729 20.755 173.954 19.7284 173.954 18.3595C173.954 16.9907 173.729 15.9812 173.28 15.3139C172.83 14.6466 172.121 14.3215 171.152 14.3215C170.183 14.3215 169.439 14.6466 168.989 15.3139C168.54 15.9812 168.298 16.9907 168.298 18.3595C168.298 19.7284 168.522 20.7379 168.989 21.4223C169.457 22.1067 170.166 22.4318 171.152 22.4318Z" fill="#3592D1"/>
<path d="M184.213 12.9698C184.49 12.7302 184.767 12.4907 185.044 12.2854C185.338 12.08 185.632 11.8918 185.961 11.755C186.289 11.601 186.635 11.4983 187.016 11.4127C187.396 11.3272 187.811 11.293 188.261 11.293C189.022 11.293 189.697 11.4298 190.285 11.6865C190.873 11.9432 191.375 12.3196 191.773 12.7816C192.171 13.2435 192.482 13.8082 192.69 14.4413C192.897 15.0914 193.001 15.7759 193.001 16.5287V25.3063H188.832V16.5287C188.832 15.8614 188.676 15.331 188.365 14.9546C188.054 14.5781 187.587 14.3899 186.981 14.3899C186.531 14.3899 186.099 14.4926 185.701 14.6808C185.303 14.869 184.905 15.1257 184.542 15.4679V25.3234H180.373V11.5154H182.951C183.469 11.5154 183.815 11.7549 183.971 12.1998L184.213 13.004V12.9698Z" fill="#3592D1"/>
</svg>
