<svg width="63" height="80" viewBox="0 0 63 80" fill="none" xmlns="http://www.w3.org/2000/svg">
<path fill-rule="evenodd" clip-rule="evenodd" d="M15.0633 6.81815C12.2894 6.81815 10.0411 4.52823 10.0411 1.70292C10.0411 0.761155 9.29066 0 8.3692 0C7.44456 0 6.69726 0.764381 6.69726 1.70292C6.69726 4.52823 4.44901 6.81815 1.67511 6.81815C0.747306 6.81815 0 7.58253 0 8.5243C0 9.46607 0.750473 10.2272 1.67511 10.2272C4.44901 10.2272 6.69726 12.5171 6.69726 15.3424C6.69726 16.2842 7.44773 17.0454 8.3692 17.0454C9.29383 17.0454 10.0411 16.281 10.0411 15.3424C10.0411 12.5171 12.2894 10.2272 15.0633 10.2272C15.9911 10.2272 16.7384 9.46284 16.7384 8.5243C16.7384 7.5793 15.9879 6.81815 15.0633 6.81815ZM8.36603 10.2272C7.89105 9.57895 7.32423 9.00808 6.69409 8.5243C7.3274 8.03729 7.89105 7.4632 8.36603 6.81815C8.84101 7.4632 9.40782 8.03729 10.0411 8.5243C9.40782 9.00808 8.84101 9.58218 8.36603 10.2272ZM15.0111 34.1984C19.2207 25.5287 24.1418 18.4901 28.4278 13.8668C30.5771 11.5484 32.5208 9.88718 34.0921 8.92299C34.8792 8.44001 35.5165 8.167 35.9974 8.05049C36.4829 7.93286 36.6827 8.00271 36.7273 8.02421L36.7313 8.01601L52.218 15.7294C46.504 18.8635 38.7909 28.2339 32.5029 40.6475C32.1946 41.2562 31.8891 41.8718 31.587 42.4942C31.2764 43.1337 30.9735 43.7716 30.6784 44.4072C24.8507 56.9576 22.0364 68.6399 22.9583 75.0047L8.72167 67.5941C8.64627 67.4696 8.55802 67.2877 8.46689 67.0357C8.27744 66.5118 8.10815 65.7762 7.99118 64.8253C7.7578 62.9282 7.75198 60.3362 8.09286 57.2195C8.77371 50.9947 10.8211 42.8277 15.0111 34.1984ZM35.2938 5.13885C36.0543 4.95461 36.8775 4.91016 37.6546 5.17002L37.673 5.13348L56.9439 14.7316C57.1363 14.7853 57.322 14.855 57.5005 14.941C62.8759 17.5305 59.7622 33.9353 51.0531 51.8716L50.9681 52.0463C50.9339 52.1781 50.8736 52.2992 50.793 52.404C42.1179 70.0534 30.8728 82.2232 25.5508 79.6594C25.3903 79.5821 25.237 79.4923 25.0909 79.3903L25.0469 79.4742L7.01033 70.0856L6.98563 70.1171C6.93712 70.0792 6.88994 70.0398 6.84405 69.9991L6.6154 69.8801L6.65102 69.8121C6.18366 69.3197 5.8669 68.6813 5.64123 68.0573C5.35185 67.257 5.14404 66.2865 5.00989 65.1959C4.74101 63.0101 4.74847 60.1776 5.10695 56.9002C5.82483 50.3368 7.96711 41.8371 12.3083 32.8964C16.63 23.9961 21.7113 16.703 26.2244 11.8347C28.4746 9.40737 30.6296 7.53286 32.5219 6.37166C33.4666 5.79194 34.4023 5.35485 35.2938 5.13885ZM48.3503 50.5696L48.2408 50.7947H46C45.4477 50.7947 45 51.2424 45 51.7947C45 52.347 45.4477 52.7947 46 52.7947H47.2412C46.7214 53.8107 46.1942 54.8048 45.6616 55.7749H43C42.4477 55.7749 42 56.2227 42 56.7749C42 57.3272 42.4477 57.7749 43 57.7749H44.5366C43.9462 58.7994 43.3508 59.7936 42.753 60.7552H40C39.4477 60.7552 39 61.2029 39 61.7552C39 62.3075 39.4477 62.7552 40 62.7552H41.4754C40.7931 63.7944 40.1099 64.789 39.4296 65.7355H37C36.4477 65.7355 36 66.1832 36 66.7355C36 67.2877 36.4477 67.7355 37 67.7355H37.941C37.1137 68.8077 36.2947 69.8034 35.4908 70.7157H33C32.4477 70.7157 32 71.1634 32 71.7157C32 72.268 32.4477 72.7157 33 72.7157H33.6198C32.8568 73.4792 32.1301 74.1401 31.4464 74.6999H28C27.4477 74.6999 27 75.1476 27 75.6999C27 76.2522 27.4477 76.6999 28 76.6999H28.3334C27.2859 77.1383 26.886 76.9727 26.8611 76.9607C26.8335 76.9474 26.3119 76.6665 25.9959 74.9642C25.6939 73.3378 25.7069 70.9851 26.149 67.9722C26.5855 64.9976 27.4141 61.5498 28.6166 57.8012L28.714 57.8968C30.3592 56.219 33.0252 52.9633 35.6924 48.3909V59.3616H37.6924V46.2493C38.9287 46.1441 40.0654 45.8482 40.9727 45.3995C42.0606 44.8616 43.1249 43.9311 43.1249 42.5987C43.1249 41.2662 42.0606 40.3357 40.9727 39.7978C40.7601 39.6926 40.5349 39.5959 40.2987 39.508C41.8041 35.9188 43.0011 32.1986 44.0563 27.6809C45.5406 25.7436 47.0084 24.0381 48.4188 22.5985C50.5624 20.4106 52.4569 18.9572 53.9665 18.1934C55.048 17.6461 55.6655 17.5766 55.9646 17.5954L56.3266 17.7757L56.3328 17.7632C56.5148 17.968 56.8281 18.4867 57.0151 19.7313C57.0693 20.0921 57.1077 20.4862 57.1293 20.9131H55C54.4477 20.9131 54 21.3609 54 21.9131C54 22.4654 54.4477 22.9131 55 22.9131H57.118C57.0701 23.8121 56.9675 24.8068 56.8052 25.8934H54C53.4477 25.8934 53 26.3411 53 26.8934C53 27.4457 53.4477 27.8934 54 27.8934H56.4584C56.2717 28.8464 56.0482 29.8414 55.7887 30.8737H53C52.4477 30.8737 52 31.3214 52 31.8737C52 32.4259 52.4477 32.8736 53 32.8736H55.2541C54.9807 33.8407 54.6788 34.8353 54.3491 35.8539H51C50.4477 35.8539 50 36.3016 50 36.8539C50 37.4062 50.4477 37.8539 51 37.8539H53.6765C53.3365 38.8294 52.9726 39.8238 52.5856 40.8342H50C49.4477 40.8342 49 41.2819 49 41.8342C49 42.3865 49.4477 42.8342 50 42.8342H51.7973C51.3998 43.8155 50.9816 44.8097 50.543 45.8144H48C47.4477 45.8144 47 46.2621 47 46.8144C47 47.3667 47.4477 47.8144 48 47.8144H49.6492C49.2322 48.7263 48.7992 49.6453 48.3503 50.5696ZM34.6807 46.1222C34.2098 46.0394 33.7616 45.9278 33.3442 45.79C32.2322 48.1924 31.2377 50.5525 30.3642 52.8375C31.6995 51.0534 33.2023 48.7989 34.6807 46.1222ZM34.2083 43.9642C34.9149 44.1686 35.7591 44.292 36.6778 44.292C38.062 44.292 39.2657 44.0124 40.0863 43.6067C40.9699 43.1698 41.1249 42.7537 41.1249 42.5987C41.1249 42.4436 40.9699 42.0275 40.0863 41.5906C39.2657 41.1849 38.062 40.9053 36.6778 40.9053C36.4691 40.9053 36.2992 40.895 36.1864 40.8881L36.1862 40.8881L36.1831 40.8879C36.153 40.8861 36.1271 40.8845 36.1057 40.8835C36.0132 40.879 35.9345 40.8782 35.7827 40.8975L35.7757 40.8424C35.577 41.2232 35.3794 41.6073 35.1832 41.9947C34.8825 42.5884 34.5845 43.189 34.2897 43.7962L34.2083 43.9642ZM36.8124 38.9061C37.334 38.9118 37.844 38.951 38.3335 39.0208C39.2369 36.8948 40.0282 34.7249 40.7446 32.357C39.4133 34.3826 38.0928 36.5737 36.8124 38.9061ZM56.9983 65.24C56.9983 67.7164 59.0131 69.7236 61.4989 69.7236C62.3275 69.7236 63 70.3908 63 71.2191C63 72.0418 62.3303 72.7118 61.4989 72.7118C59.0131 72.7118 56.9983 74.7189 56.9983 77.1954C56.9983 78.0181 56.3286 78.6881 55.5 78.6881C54.6742 78.6881 54.0017 78.0209 54.0017 77.1954C54.0017 74.7189 51.9869 72.7118 49.5011 72.7118C48.6725 72.7118 48 72.0446 48 71.2191C48 70.3936 48.6697 69.7236 49.5011 69.7236C51.9869 69.7236 54.0017 67.7164 54.0017 65.24C54.0017 64.4173 54.6714 63.7473 55.5 63.7473C56.3258 63.7473 56.9983 64.4145 56.9983 65.24ZM53.9989 71.2191C54.5636 71.6432 55.0715 72.1435 55.4972 72.7118C55.9228 72.1464 56.4308 71.6432 56.9983 71.2191C56.4308 70.7922 55.9228 70.289 55.4972 69.7236C55.0715 70.289 54.5664 70.7922 53.9989 71.2191Z" fill="url(#paint0_linear_55_1231)"/>
<defs>
<linearGradient id="paint0_linear_55_1231" x1="31.5" y1="0" x2="31.5" y2="80.0004" gradientUnits="userSpaceOnUse">
<stop stop-color="#0178FF"/>
<stop offset="1" stop-color="#01D4CB"/>
</linearGradient>
</defs>
</svg>
