<svg width="72" height="76" viewBox="0 0 72 76" fill="none" xmlns="http://www.w3.org/2000/svg">
<path fill-rule="evenodd" clip-rule="evenodd" d="M29.759 3.90245V10.5371C28.7355 10.3565 27.6861 10.2676 26.6323 10.2676C25.5785 10.2676 24.5292 10.3565 23.5057 10.5371V3.90245H29.759ZM22.6162 13.8301C22.4357 13.9259 22.2368 13.9888 22.0285 14.0098C17.8188 15.4534 14.4714 18.8847 13.1246 23.1335C12.7539 24.5028 12.4943 25.8844 12.4943 27.377C12.4943 28.8696 12.7415 30.2511 13.1246 31.6204C14.4964 35.9872 18.0062 39.4781 22.381 40.8597C23.7528 41.2298 25.137 41.4888 26.6323 41.4888C28.1277 41.4888 29.5118 41.2421 30.8836 40.8597C35.2585 39.4904 38.7559 35.9872 40.14 31.6204C40.5108 30.2511 40.7703 28.8696 40.7703 27.377C40.7703 25.8844 40.5232 24.5028 40.14 23.1335C38.7998 18.8673 35.4189 15.437 31.1843 13.993C31.0084 13.9706 30.8401 13.9182 30.6848 13.8414C29.3779 13.4997 28.0555 13.2651 26.6323 13.2651C25.2224 13.2651 23.9113 13.4844 22.6162 13.8301ZM20.2554 2.28649V11.4747C15.8844 13.2502 12.4028 16.6524 10.6902 21.0025C10.6615 21.0005 10.6326 20.9995 10.6035 20.9995H1.47065C0.679711 20.9995 0 21.7396 0 22.6154V31.9781C0 32.8539 0.679711 33.6064 1.47065 33.6064H10.6035C10.6233 33.6064 10.643 33.606 10.6627 33.6052C12.4266 38.0269 15.8573 41.5598 20.2554 43.2785V52.3194C20.2554 53.1211 20.9967 53.8119 21.8739 53.812V58.4378C21.8739 59.3013 22.6277 60.0538 23.5052 60.0538H23.9599L16.0037 73.2896C15.497 74.042 15.7442 74.9055 16.4981 75.4113L16.5335 75.4281C16.7801 75.5456 17.016 75.658 17.2519 75.658L17.2643 75.6456C17.7586 75.6456 18.2653 75.3989 18.5125 74.7698L25.013 64.0379V74.0173C25.013 74.8932 25.7545 75.6456 26.6319 75.6456C27.5094 75.6456 28.2632 74.8932 28.2632 74.0173V64.326L34.6278 74.9056C34.9986 75.4113 35.5052 75.658 35.9996 75.658C36.2591 75.658 36.5063 75.5347 36.7534 75.4113C37.495 75.0413 37.7421 74.0421 37.2478 73.2896L29.2915 60.0538H29.7585C30.6236 60.0538 31.3775 59.3136 31.3775 58.4378V53.8119C32.1187 53.8116 32.872 53.121 32.872 52.4304V43.3097C37.3492 41.534 40.9184 38.0596 42.6236 33.6062H51.7072V33.6186C52.5352 33.6186 53.252 32.8661 53.252 31.8669V22.5043C53.252 21.6284 52.5476 20.876 51.7072 20.876H42.5277C40.7871 16.5247 37.2676 13.0644 32.8733 11.3976V2.28649C32.8733 1.41067 32.1318 0.658203 31.2544 0.658203H21.8743C21.0093 0.658203 20.2554 1.41067 20.2554 2.28649ZM27.1398 56.9329H28.2631V53.812H25.1365V56.9329H26.4871C26.7055 56.8915 26.9289 56.8916 27.1386 56.9326L27.1398 56.9329ZM23.5052 50.5801H23.5051V44.192C24.5288 44.3727 25.5783 44.4617 26.6323 44.4617C27.6859 44.4617 28.735 44.3727 29.7583 44.1922V50.5801H23.5052ZM2.92894 24.2437H9.77366C9.59273 25.2653 9.5036 26.3128 9.5036 27.3646C9.5036 28.4165 9.59719 29.4639 9.77901 30.4855H2.92894V24.2437ZM50.1501 30.362H43.5124C43.679 29.3796 43.7611 28.3741 43.7611 27.3646C43.7611 26.2722 43.6601 25.1797 43.4642 24.1202H50.1501V30.362ZM17.2403 27.229C17.2403 28.1048 17.9941 28.8572 18.8716 28.8572V28.8696C19.6131 28.8696 20.3669 28.1171 20.3669 27.2413C20.3669 24.4905 22.1218 22.122 24.7418 21.2462C25.99 20.8762 27.2382 20.8762 28.4864 21.2462C29.3638 21.4929 30.2413 21.1229 30.4885 20.247C30.7356 19.3712 30.3649 18.4954 29.4874 18.2487C27.6089 17.6196 25.7428 17.6196 23.8644 18.2487C19.8602 19.4946 17.2403 23.1089 17.2403 27.229ZM70.0107 54.4285L65.6961 61.039C65.7285 61.1509 65.7458 61.2672 65.7458 61.3858V67.6646H70.3814C71.2588 67.6646 72.0003 68.417 72.0003 69.2928V74.0297C72.0003 74.9055 71.2465 75.658 70.3814 75.658H57.8747C56.9972 75.658 56.2557 74.9055 56.2557 74.0297V69.2928C56.2557 68.417 57.0096 67.6646 57.8747 67.6646H62.4961V62.5582L52.4103 56.0916L41.2523 54.1944C40.758 54.071 40.2513 53.8243 40.1277 53.3186C39.8805 52.8128 40.0041 52.3194 40.2513 51.826L49.6313 37.4798C49.8785 37.1097 50.3851 36.8506 50.8795 36.7273C51.3738 36.7273 51.8805 36.8506 52.1277 37.2207L59.6292 45.8309C59.7108 45.9144 59.7789 46.0042 59.8341 46.0989L69.5164 52.3068C70.2703 52.8002 70.3938 53.7994 70.0107 54.4285ZM66.501 54.1942L58.8153 49.1422L55.4079 54.3628L63.1271 59.4368L66.501 54.1942ZM44.1318 51.4559L52.5108 52.9485L56.3913 46.9534L51.0154 40.835L44.1442 51.4436L44.1318 51.4559ZM68.886 72.5371H59.506V70.9088H68.886V72.5371ZM57.8867 11.6492C57.8867 14.2643 60.0123 16.386 62.6323 16.386C65.1287 16.386 67.3779 14.2643 67.3779 11.6492C67.3779 9.03403 65.2523 6.91232 62.6323 6.91232C60.0123 6.91232 57.8867 9.03403 57.8867 11.6492ZM61.0134 11.7602C61.0134 10.8967 61.7549 10.1442 62.6323 10.1442C63.3862 10.1442 64.14 10.8844 64.2636 11.7602C64.2636 12.636 63.4974 13.3885 62.6323 13.3885C61.7672 13.3885 61.0134 12.6237 61.0134 11.7602ZM47.0116 71.0323C44.3917 71.0323 42.266 68.9106 42.266 66.2954C42.266 63.6803 44.3917 61.5586 47.0116 61.5586C49.6316 61.5586 51.6337 63.6803 51.6337 66.2954C51.6337 68.9106 49.508 71.0323 47.0116 71.0323ZM47.0116 64.7905C46.1342 64.7905 45.3927 65.543 45.3927 66.4065C45.3927 67.2699 46.1466 68.0347 47.0116 68.0347C47.8767 68.0347 48.6306 67.2823 48.6306 66.4065C48.6306 65.5306 47.7532 64.7905 47.0116 64.7905ZM4.75765 50.7036C4.75765 53.3188 6.88329 55.4405 9.50327 55.4405C11.9997 55.4405 14.2489 53.3188 14.2489 50.7036C14.2489 48.0885 12.1233 45.9668 9.50327 45.9668C6.88329 45.9668 4.75765 48.0885 4.75765 50.7036ZM7.87196 50.827C7.87196 49.9512 8.62583 49.1987 9.50327 49.1987C10.2448 49.1987 11.1222 49.9512 11.1222 50.827C11.1222 51.7028 10.3807 52.4553 9.50327 52.4553C8.62583 52.4553 7.87196 51.7028 7.87196 50.827Z" fill="url(#paint0_linear_56_1251)"/>
<defs>
<linearGradient id="paint0_linear_56_1251" x1="9.5038" y1="45.9667" x2="9.5038" y2="55.4404" gradientUnits="userSpaceOnUse">
<stop stop-color="#0177FF"/>
<stop offset="1" stop-color="#01D3CB"/>
</linearGradient>
</defs>
</svg>
