<svg width="66" height="67" viewBox="0 0 66 67" fill="none" xmlns="http://www.w3.org/2000/svg">
<path fill-rule="evenodd" clip-rule="evenodd" d="M31.5088 8.38315C31.5088 8.32725 31.5053 8.27193 31.4986 8.21739V6.30123C31.4986 4.43412 33.043 2.89266 34.9136 2.89266H39.8564V12.3258V12.3259V20.5651L39.8567 20.5922L39.8572 20.6105L39.8578 20.625C39.8569 20.6447 39.8564 20.6645 39.8564 20.6844V30.2478H34.9542C33.0696 30.2478 31.5136 28.7064 31.5136 26.8393V24.755C31.5136 24.7174 31.512 24.68 31.5088 24.6429V8.50295C31.5109 8.46345 31.5109 8.42349 31.5088 8.38315ZM28.6318 26.1663V26.8393C28.6318 30.237 31.404 32.9834 34.8447 32.9834H41.167L41.181 32.9835L41.1808 32.9833C41.2577 32.9826 41.3336 32.9764 41.4079 32.965C41.4532 32.96 41.4966 32.9517 41.5427 32.9381C41.6826 32.9038 41.8151 32.8506 41.936 32.7812L51.278 29.1299C51.8317 28.9128 52.1574 28.37 52.1574 27.8164V5.1939C52.1574 4.54258 51.8317 4.09751 51.278 3.8804L41.8357 0.189887C41.6403 0.0861435 41.42 0.0268555 41.1889 0.0268555H34.9136C31.4986 0.0268555 28.7471 2.78411 28.7471 6.18182V6.95234H25.7604C24.1148 6.95234 22.6747 8.07544 22.1627 9.59032H19.2155C19.1829 8.2042 18.5294 6.81877 17.5665 5.85606C16.5785 4.75968 15.1454 4.20605 13.7231 4.20605C10.6506 4.20605 8.22949 6.62679 8.22949 9.69885V12.3478H3.85423C1.72626 12.3478 0 14.2149 0 16.5163C0 17.6127 0.303996 18.7091 1.11827 19.4798C1.92169 20.2397 2.84453 20.6847 3.85423 20.6847H8.22949V23.42C8.22949 25.9948 9.93035 28.1122 12.29 28.73V39.7897H9.55324C8.78239 39.7897 8.12012 40.4411 8.12012 41.2118C8.12012 41.9825 8.78239 42.6447 9.55324 42.6447H12.29V54.7988L5.82991 63.8234C5.38478 64.377 5.49335 65.2563 6.15562 65.6905C6.70933 66.1356 7.58875 66.027 8.02303 65.3648L12.29 59.379V64.6048C12.29 65.3647 12.9522 66.0269 13.7229 66.0269C14.4828 66.0269 15.145 65.3755 15.145 64.7134V59.2963L19.5532 65.3648C19.7703 65.7013 20.2154 65.9184 20.6497 65.9184V65.9076C20.8669 65.9076 21.2034 65.799 21.5291 65.6905C22.1805 65.2563 22.2891 64.4855 21.8548 63.8234L15.145 54.45V28.7259C17.5071 28.0906 19.2118 25.9142 19.2168 23.4309H22.1312C22.6134 24.9948 24.0798 26.1663 25.7604 26.1663H28.6318ZM21.9639 20.6953V12.4561H19.1171V20.6953H21.9639ZM42.701 21.998V21.9871C44.1232 21.9871 45.4478 21.4335 46.5444 20.2285C47.6409 19.2407 48.1946 17.8078 48.1946 16.3858C48.1946 13.3137 45.7735 10.893 42.701 10.893L42.701 3.32678L49.6169 6.07318V26.9371L42.701 29.6835L42.701 21.998ZM42.701 13.7588V19.2516C43.4718 19.2516 44.1232 18.9259 44.6769 18.4808C45.2307 17.9272 45.4478 17.2759 45.4478 16.5052C45.4478 14.9637 44.1341 13.7588 42.701 13.7588ZM8.22949 18.0686V15.2028H3.85423C3.14853 15.2028 2.52968 15.865 2.52968 16.6357C2.52968 16.9613 2.62739 17.2979 2.93139 17.6235C3.13767 17.8406 3.44167 18.0686 3.84338 18.0686H8.22949ZM16.3857 21.8076V11.3196C16.3768 11.2579 16.3722 11.1952 16.3722 11.1317V9.69885C16.3722 8.92812 16.0465 8.26594 15.6014 7.72318C15.0477 7.16956 14.3963 6.95245 13.6254 6.95245C12.0837 6.95245 10.8786 8.15739 10.8786 9.69885V23.42C10.8786 24.9614 12.0837 26.1664 13.6254 26.1664C15.1671 26.1664 16.3722 24.9614 16.3722 23.42V21.9979C16.3722 21.9336 16.3768 21.8701 16.3857 21.8076ZM24.6772 10.7951C24.6772 10.133 25.1062 9.69874 25.7604 9.69874H28.7955V23.4199H25.7604C25.1062 23.4199 24.6772 22.9856 24.6772 22.3235V10.7951ZM56.3364 12.4454C55.9021 12.4454 55.457 12.2283 55.2398 11.7832C54.8055 11.121 55.0227 10.2417 55.5655 9.91609L63.806 4.42329C64.4683 3.97823 65.3477 4.20619 65.6734 4.74895C65.9991 5.30257 65.8905 6.29041 65.3477 6.61607L57.1072 12.1089C56.7815 12.326 56.5535 12.4345 56.3364 12.4345V12.4454ZM63.6978 28.6958C63.915 28.8043 64.2515 28.9129 64.4687 28.9129V28.9237C65.0115 28.9237 65.3481 28.6958 65.5652 28.3701C66.0104 27.8165 65.9018 26.9372 65.2395 26.503L56.9991 21.0102C56.4454 20.5651 55.566 20.6737 55.1317 21.3359C54.6865 21.8895 54.7951 22.7688 55.4574 23.203L63.6978 28.6958ZM64.5778 17.9383H56.3373C55.5665 17.9383 54.915 17.2762 54.915 16.5054C54.915 15.7347 55.5773 15.0834 56.3373 15.0834H64.5778C65.3486 15.0834 66 15.7456 66 16.5054C66 17.2653 65.2292 17.9383 64.5778 17.9383ZM27.457 41.8741C27.457 44.5119 29.6501 46.7047 32.2884 46.7047C34.9266 46.7047 37.1198 44.5119 37.1198 41.8741C37.1198 39.2362 34.9266 37.0435 32.2884 37.0435C29.6501 37.0435 27.457 39.2362 27.457 41.8741ZM30.2038 41.9826C30.2038 40.7777 31.1918 39.8984 32.2884 39.8984C33.3849 39.8984 34.3729 40.7777 34.3729 41.9826C34.3729 43.1876 33.3849 44.0668 32.2884 44.0668C31.0833 44.0668 30.2038 43.1876 30.2038 41.9826ZM55.5765 49.451C52.9382 49.451 50.7451 47.2582 50.7451 44.6204C50.7451 41.9825 52.9382 39.7897 55.5765 39.7897C58.2147 39.7897 60.4078 41.9825 60.4078 44.6204C60.4078 47.2582 58.2147 49.451 55.5765 49.451ZM55.5765 42.6447C54.4799 42.6447 53.4919 43.524 53.4919 44.7289C53.4919 45.9339 54.3713 46.8131 55.5765 46.8131C56.673 46.8131 57.661 45.9339 57.661 44.7289C57.661 43.524 56.7816 42.6447 55.5765 42.6447ZM37.0117 57.0282C37.0117 59.666 39.2048 61.8588 41.8431 61.8588C44.4813 61.8588 46.6744 59.666 46.6744 57.0282C46.6744 54.3903 44.4813 52.1976 41.8431 52.1976C39.2048 52.1976 37.0117 54.3903 37.0117 57.0282ZM39.7585 57.0282C39.7585 55.8232 40.7465 54.944 41.8431 54.944C43.0482 54.944 43.9276 55.8232 43.9276 57.0282C43.9276 58.2331 43.0482 59.1124 41.8431 59.1124C40.638 59.1124 39.7585 58.1246 39.7585 57.0282Z" fill="url(#paint0_linear_56_1273)"/>
<defs>
<linearGradient id="paint0_linear_56_1273" x1="41.0748" y1="22.0752" x2="41.8414" y2="61.8589" gradientUnits="userSpaceOnUse">
<stop stop-color="#0C91DF"/>
<stop offset="1" stop-color="#02D0CD"/>
</linearGradient>
</defs>
</svg>
