<svg width="70" height="71" viewBox="0 0 70 71" fill="none" xmlns="http://www.w3.org/2000/svg">
<g clip-path="url(#clip0_56_1274)">
<path d="M66.2155 23.4775C67.1515 19.2657 64.6984 15.0414 60.5774 13.7683C58.5747 13.0512 56.9973 11.4762 56.2802 9.47345C55.0047 5.34974 50.783 2.89664 46.5688 3.83511C44.4857 4.21503 42.3396 3.64641 40.7169 2.28274C37.4814 -0.688648 32.5075 -0.688648 29.272 2.28274C27.6492 3.64641 25.5032 4.21251 23.42 3.83008C19.2059 2.89413 14.9817 5.34974 13.7086 9.47094C12.9916 11.4712 11.4166 13.0462 9.41397 13.7683C5.28788 15.0363 2.83488 19.2657 3.77331 23.4775C4.15321 25.5632 3.58462 27.7094 2.22351 29.3322C-0.750286 32.5678 -0.750286 37.5394 2.22351 40.7749C3.58462 42.4003 4.1507 44.5464 3.77079 46.6297C2.83488 50.8414 5.28788 55.0683 9.40894 56.3389C11.4116 57.0559 12.9891 58.6335 13.7061 60.6337C14.9791 64.7574 19.2034 67.213 23.4175 66.272C25.5007 65.8946 27.6467 66.4607 29.2695 67.8244C32.5049 70.7958 37.4789 70.7958 40.7143 67.8244C42.3371 66.4607 44.4832 65.8946 46.5663 66.2771C50.7805 67.213 55.0047 64.7599 56.2777 60.6387C56.9922 58.636 58.5697 57.0585 60.5698 56.3389C64.6959 55.0708 67.1515 50.8414 66.2105 46.6297C65.8306 44.5439 66.3967 42.3978 67.7603 40.7749C70.7341 37.5394 70.7341 32.5678 67.7603 29.3322C66.4042 27.7094 65.8356 25.5632 66.2155 23.4775ZM64.2909 38.5659C62.4668 40.8957 61.6768 43.8696 62.102 46.7982C62.258 50.5999 62.102 50.9144 58.6703 52.6932C55.9154 53.7977 53.7316 55.9841 52.6271 58.7417C50.8534 62.1257 50.5691 62.332 46.7349 62.1684C43.8064 61.7483 40.8326 62.5383 38.5028 64.3574C35.2095 66.4507 34.7592 66.4557 31.481 64.3574C29.1512 62.5358 26.1749 61.7458 23.2489 62.1684C19.4348 62.332 19.1304 62.1357 17.3516 58.7366C16.2472 55.9816 14.0608 53.8002 11.3034 52.6932C7.90191 50.9119 7.72076 50.6351 7.87927 46.8008C8.29691 43.8746 7.50691 40.9007 5.69043 38.5684C3.59468 35.275 3.59216 34.8271 5.69043 31.5463C7.51194 29.2165 8.30194 26.2426 7.87927 23.3139C7.72076 19.5123 7.87927 19.1953 11.3084 17.419C14.0659 16.3144 16.2497 14.128 17.3567 11.3705C19.148 7.95379 19.4172 7.80283 23.2514 7.94625C26.1774 8.36642 29.1537 7.57639 31.4835 5.75733C34.7768 3.66151 35.2271 3.65899 38.5054 5.75733C40.8351 7.57891 43.8089 8.36893 46.7374 7.94625C50.5389 7.79025 50.8559 7.94625 52.6322 11.3755C53.7392 14.1331 55.9255 16.3144 58.6804 17.4215C62.0844 19.2028 62.2631 19.4796 62.1071 23.3114C61.6869 26.24 62.4794 29.2139 64.2959 31.5463C66.3866 34.8246 66.3916 35.285 64.2909 38.5659ZM48.5237 25.138C49.4571 25.7872 49.686 27.0703 49.0395 28.0038C49.0344 28.0088 49.0319 28.0138 49.0269 28.0189L36.938 45.3088C35.3152 47.6361 32.1125 48.2072 29.7852 46.5844C29.4053 46.3202 29.0657 46.0057 28.7713 45.6509L21.0651 36.372C20.3607 35.4813 20.5091 34.1881 21.3972 33.4786C22.2577 32.7967 23.503 32.9099 24.2276 33.7352L31.9313 42.9815C32.115 43.2482 32.4345 43.3916 32.7565 43.3513C33.076 43.3413 33.3704 43.1802 33.549 42.9135L45.648 25.6236C46.3047 24.6952 47.5853 24.4738 48.5136 25.128C48.5187 25.133 48.5237 25.138 48.5237 25.138Z" fill="url(#paint0_linear_56_1274)"/>
</g>
<defs>
<linearGradient id="paint0_linear_56_1274" x1="34.9919" y1="0.0541992" x2="34.9919" y2="70.0529" gradientUnits="userSpaceOnUse">
<stop stop-color="#0177FF"/>
<stop offset="1" stop-color="#01D4CA"/>
</linearGradient>
<clipPath id="clip0_56_1274">
<rect x="-0.00585938" y="0.0537109" width="70" height="70" fill="white"/>
</clipPath>
</defs>
</svg>
