<svg width="151" height="38" viewBox="0 0 151 38" fill="none" xmlns="http://www.w3.org/2000/svg">
<path d="M15.1611 38L0 28.9455V11.0801L9.40885 16.6146L9.41976 23.6877L15.1502 26.9641L15.1611 38Z" fill="#004097"/>
<path d="M31.708 8.94378L22.3319 14.5226L16.4486 11.1465L10.5763 14.5226L1.2002 8.95485L16.4486 0L31.708 8.94378Z" fill="#3693D1"/>
<path d="M17.7697 37.9998L32.909 28.9453V11.0688L23.5002 16.6144V23.6875L17.7588 26.964L17.7697 37.9998Z" fill="#3693D1"/>
<path d="M49.5215 25.7355V12.4637H51.9446C52.4358 12.4637 52.7524 12.6851 52.9052 13.1279L53.1235 13.8474C53.3418 13.6149 53.571 13.4046 53.8002 13.2164C54.0404 13.0283 54.2914 12.8622 54.5643 12.7183C54.8372 12.5744 55.1319 12.4637 55.4484 12.3862C55.7649 12.3088 56.1142 12.2645 56.4853 12.2645C57.2712 12.2645 57.9261 12.4748 58.4501 12.8844C58.9631 13.2939 59.356 13.8474 59.6289 14.5447C59.8472 14.1352 60.1201 13.7809 60.4257 13.4931C60.7313 13.2054 61.0806 12.9729 61.4517 12.7847C61.8119 12.6076 62.2049 12.4748 62.6087 12.3862C63.0126 12.2977 63.4274 12.2534 63.8312 12.2534C64.5844 12.2534 65.2502 12.3641 65.8287 12.5966C66.4072 12.8179 66.8984 13.15 67.2913 13.5817C67.6843 14.0134 67.979 14.5447 68.1864 15.1646C68.3828 15.7955 68.492 16.5039 68.492 17.3009V25.7355H64.5844V17.3009C64.5844 15.9283 64.0059 15.2421 62.838 15.2421C62.3031 15.2421 61.8665 15.4192 61.5172 15.7734C61.1679 16.1276 60.9933 16.6368 60.9933 17.3009V25.7355H57.0857V17.3009C57.0857 16.5371 56.9329 16.0058 56.6382 15.6959C56.3434 15.386 55.9068 15.231 55.3393 15.231C54.99 15.231 54.6516 15.3085 54.3351 15.4745C54.0185 15.6405 53.7238 15.8509 53.44 16.1276V25.7244H49.5324L49.5215 25.7355Z" fill="#3693D1"/>
<path d="M74.2221 19.8023C74.3531 20.9092 74.6805 21.7173 75.2154 22.2154C75.7502 22.7135 76.4488 22.957 77.3001 22.957C77.7586 22.957 78.1406 22.9017 78.479 22.791C78.8064 22.6803 79.1011 22.5585 79.3522 22.4257C79.6032 22.2929 79.8434 22.16 80.0617 22.0494C80.28 21.9387 80.4983 21.8833 80.7384 21.8833C81.055 21.8833 81.2842 21.994 81.4479 22.2265L82.5831 23.6433C82.1792 24.1082 81.7426 24.4956 81.2733 24.7945C80.8039 25.0933 80.3236 25.3147 79.8325 25.4808C79.3413 25.6468 78.8501 25.7575 78.3589 25.8239C77.8677 25.8903 77.3984 25.9235 76.9509 25.9235C76.034 25.9235 75.1717 25.7685 74.3749 25.4697C73.5672 25.1708 72.8686 24.717 72.2683 24.1193C71.6679 23.5215 71.1877 22.7799 70.8384 21.8944C70.4891 21.0089 70.3145 19.9794 70.3145 18.7951C70.3145 17.9095 70.4673 17.0683 70.762 16.2713C71.0567 15.4743 71.4933 14.7881 72.05 14.1903C72.6066 13.5926 73.2834 13.1166 74.0802 12.7735C74.877 12.4193 75.772 12.2533 76.7762 12.2422C77.6385 12.2422 78.4353 12.375 79.1557 12.6517C79.8761 12.9285 80.4983 13.3159 81.0113 13.8361C81.5243 14.3564 81.9282 14.9984 82.2229 15.7511C82.5176 16.5038 82.6595 17.3671 82.6595 18.3191C82.6595 18.618 82.6486 18.8615 82.6267 19.0496C82.6049 19.2378 82.5503 19.3817 82.4848 19.4924C82.4193 19.6031 82.332 19.6806 82.212 19.7249C82.1028 19.7691 81.95 19.7913 81.7753 19.7913H74.2221V19.8023ZM79.1448 17.5C79.1448 17.179 79.1011 16.8801 79.0247 16.5812C78.9483 16.2824 78.8173 16.0167 78.6318 15.7843C78.4462 15.5518 78.217 15.3637 77.9223 15.2198C77.6276 15.0759 77.2674 14.9984 76.8526 14.9984C76.1104 14.9984 75.5319 15.2198 75.1062 15.6404C74.6914 16.0721 74.4076 16.6919 74.2767 17.5H79.1448Z" fill="#3693D1"/>
<path d="M89.1214 25.9345C88.4992 25.9345 87.9534 25.846 87.4732 25.6578C86.9929 25.4696 86.6 25.215 86.2725 24.883C85.9451 24.5509 85.7049 24.1413 85.5303 23.6654C85.3556 23.1894 85.2792 22.6581 85.2792 22.0604V15.1976H84.1659C83.9694 15.1976 83.7948 15.1312 83.6529 14.9983C83.511 14.8655 83.4346 14.6773 83.4346 14.4117V12.862L85.5194 12.4524L86.2943 9.20922C86.3926 8.79967 86.6764 8.58936 87.1566 8.58936H89.1978V12.4635H92.4396V15.1754H89.1978V21.7726C89.1978 22.0825 89.2742 22.3371 89.4161 22.5363C89.558 22.7356 89.7763 22.8352 90.0491 22.8352C90.191 22.8352 90.3111 22.8241 90.4093 22.7909C90.5076 22.7577 90.5949 22.7245 90.6604 22.6913C90.7368 22.647 90.8023 22.6138 90.8569 22.5917C90.9114 22.5695 90.9878 22.5474 91.0752 22.5474C91.1952 22.5474 91.2935 22.5806 91.359 22.636C91.4354 22.6913 91.5009 22.7799 91.5773 22.9016L92.767 24.7834C92.2649 25.1708 91.6973 25.4586 91.0642 25.6467C90.4312 25.8349 89.7763 25.9345 89.1104 25.9345H89.1214Z" fill="#3693D1"/>
<path d="M93.8474 14.3009C94.6333 13.5925 95.5174 13.0611 96.4779 12.718C97.4385 12.3749 98.4754 12.1978 99.5779 12.1978C100.364 12.1978 101.084 12.3306 101.717 12.5852C102.35 12.8508 102.896 13.205 103.333 13.6699C103.769 14.1348 104.108 14.6883 104.348 15.3303C104.588 15.9723 104.697 16.6696 104.697 17.4334V25.7241H102.907C102.536 25.7241 102.252 25.6688 102.067 25.5691C101.881 25.4695 101.717 25.2481 101.597 24.9271L101.324 24.1966C100.997 24.4733 100.68 24.7279 100.375 24.9382C100.069 25.1485 99.7634 25.3367 99.436 25.4806C99.1085 25.6245 98.7701 25.7463 98.399 25.8127C98.0388 25.8902 97.624 25.9234 97.1765 25.9234C96.5762 25.9234 96.0413 25.8459 95.5502 25.6909C95.059 25.5359 94.6442 25.3035 94.3058 24.9936C93.9675 24.6836 93.7055 24.3073 93.5199 23.8534C93.3344 23.3996 93.2471 22.8683 93.2471 22.2706C93.2471 21.7946 93.3671 21.3076 93.5964 20.8205C93.8256 20.3335 94.2404 19.8797 94.8189 19.4812C95.3974 19.0716 96.1832 18.7396 97.1656 18.4628C98.148 18.1861 99.3923 18.0311 100.888 17.9979V17.4334C100.888 16.6586 100.724 16.0941 100.418 15.7509C100.113 15.4078 99.6543 15.2307 99.0757 15.2307C98.6173 15.2307 98.2353 15.286 97.9406 15.3856C97.6459 15.4853 97.3839 15.607 97.1547 15.7288C96.9255 15.8505 96.6963 15.9723 96.4779 16.0719C96.2596 16.1715 95.9977 16.2269 95.6921 16.2269C95.4192 16.2269 95.19 16.1605 95.0153 16.0166C94.8298 15.8837 94.6769 15.7177 94.5569 15.5295L93.8474 14.2898V14.3009ZM100.899 20.3224C100.113 20.3556 99.4687 20.422 98.9666 20.5217C98.4645 20.6213 98.0606 20.7541 97.7659 20.9091C97.4712 21.064 97.2638 21.2412 97.1547 21.4293C97.0455 21.6286 96.98 21.8389 96.98 22.0713C96.98 22.5252 97.1001 22.8462 97.3512 23.0233C97.5913 23.2114 97.9515 23.3 98.4208 23.3C98.9229 23.3 99.3705 23.2114 99.7416 23.0343C100.124 22.8572 100.506 22.5694 100.888 22.1599V20.3114L100.899 20.3224Z" fill="#3693D1"/>
<path d="M116.246 19.7914C116.376 20.8983 116.704 21.7064 117.25 22.2045C117.785 22.7026 118.483 22.9572 119.334 22.9461C119.793 22.9461 120.186 22.8908 120.513 22.7801C120.841 22.6694 121.135 22.5476 121.387 22.4148C121.638 22.282 121.878 22.1491 122.096 22.0495C122.314 21.9388 122.533 21.8835 122.773 21.8835C123.089 21.8835 123.319 21.9942 123.482 22.2266L124.617 23.6435C124.214 24.1084 123.777 24.4958 123.308 24.7946C122.838 25.0935 122.358 25.3149 121.867 25.4809C121.376 25.647 120.884 25.7576 120.393 25.8241C119.902 25.8905 119.433 25.9237 118.985 25.9237C118.068 25.9237 117.206 25.7687 116.398 25.4698C115.591 25.171 114.892 24.7172 114.292 24.1194C113.691 23.5217 113.211 22.7801 112.862 21.8945C112.513 21.009 112.338 19.9796 112.338 18.7952C112.338 17.9097 112.491 17.0684 112.785 16.2715C113.08 15.4745 113.517 14.7882 114.073 14.1905C114.63 13.5928 115.307 13.1168 116.104 12.7737C116.9 12.4195 117.795 12.2534 118.8 12.2534C119.662 12.2534 120.459 12.3862 121.179 12.663C121.9 12.9397 122.522 13.3382 123.035 13.8474C123.548 14.3676 123.952 15.0096 124.246 15.7623C124.541 16.515 124.683 17.3784 124.683 18.3303C124.683 18.6292 124.672 18.8727 124.639 19.0609C124.617 19.249 124.563 19.3929 124.497 19.5036C124.432 19.6143 124.345 19.6918 124.224 19.7361C124.115 19.7804 123.963 19.8025 123.788 19.8025H116.235L116.246 19.7914ZM121.168 17.4891C121.168 17.1681 121.125 16.8692 121.048 16.5703C120.972 16.2715 120.841 16.0058 120.655 15.7734C120.47 15.5409 120.24 15.3527 119.946 15.2089C119.651 15.065 119.291 14.9875 118.876 14.9875C118.134 14.9875 117.555 15.2089 117.13 15.6295C116.704 16.0612 116.431 16.681 116.3 17.4891H121.168Z" fill="#3693D1"/>
<path d="M138.654 12.4412L131.668 29.1555C131.548 29.4211 131.406 29.6204 131.243 29.7421C131.079 29.8639 130.806 29.9303 130.435 29.9303H127.51L130.031 24.5508L124.803 12.4412H128.263C128.568 12.4412 128.798 12.5077 128.961 12.6405C129.125 12.7733 129.245 12.9394 129.322 13.1275L131.472 18.8502C131.679 19.3705 131.843 19.9018 131.963 20.4552C132.05 20.1785 132.149 19.9128 132.236 19.6361C132.323 19.3594 132.422 19.0937 132.531 18.8281L134.474 13.1275C134.55 12.9283 134.681 12.7622 134.877 12.6294C135.074 12.4966 135.281 12.4302 135.51 12.4302H138.665L138.654 12.4412Z" fill="#3693D1"/>
<path d="M142.562 19.7804C142.693 20.8873 143.02 21.6953 143.555 22.1934C144.09 22.6915 144.789 22.935 145.64 22.935C146.098 22.935 146.48 22.8797 146.819 22.769C147.146 22.6583 147.441 22.5366 147.692 22.3927C147.954 22.2598 148.183 22.127 148.402 22.0274C148.62 21.9167 148.838 21.8613 149.078 21.8613C149.395 21.8613 149.624 21.972 149.788 22.2045L150.923 23.6213C150.519 24.0862 150.082 24.4736 149.613 24.7725C149.144 25.0714 148.663 25.2927 148.172 25.4588C147.681 25.6248 147.19 25.7355 146.699 25.8019C146.208 25.8683 145.738 25.9015 145.291 25.9015C144.374 25.9015 143.512 25.7466 142.715 25.4477C141.907 25.1488 141.208 24.695 140.608 24.0973C140.008 23.4996 139.528 22.7579 139.178 21.8724C138.829 20.9869 138.654 19.9575 138.654 18.7731C138.654 17.8876 138.807 17.0463 139.102 16.2493C139.397 15.4524 139.833 14.7661 140.39 14.1684C140.946 13.5706 141.623 13.0947 142.42 12.7515C143.217 12.3973 144.112 12.2202 145.116 12.2202C145.978 12.2202 146.775 12.353 147.496 12.6298C148.216 12.9065 148.838 13.2939 149.351 13.8142C149.864 14.3344 150.268 14.9764 150.563 15.7291C150.857 16.4818 150.999 17.3452 150.999 18.2971C150.999 18.596 150.988 18.8395 150.967 19.0277C150.945 19.2158 150.89 19.3597 150.825 19.4704C150.759 19.5811 150.672 19.6586 150.552 19.7029C150.443 19.7472 150.29 19.7693 150.115 19.7693H142.562V19.7804ZM147.485 17.478C147.485 17.157 147.441 16.8581 147.365 16.5593C147.288 16.2604 147.157 15.9948 146.972 15.7623C146.786 15.5299 146.557 15.3417 146.262 15.1978C145.967 15.0539 145.607 14.9764 145.192 14.9764C144.45 14.9764 143.872 15.1978 143.446 15.6184C143.031 16.0501 142.747 16.67 142.616 17.478H147.485Z" fill="#3693D1"/>
</svg>
