<svg width="198" height="38" viewBox="0 0 198 38" fill="none" xmlns="http://www.w3.org/2000/svg">
<g clip-path="url(#clip0_34_26588)">
<path d="M15.156 38L0 28.9455V11.0801L9.41245 16.6146V23.6877L15.156 26.9641V38Z" fill="#004097"/>
<path d="M31.7207 8.95485L22.3301 14.5226L16.4555 11.1465L10.5809 14.5226L1.20117 8.95485L16.4555 0L31.7207 8.95485Z" fill="#3693D1"/>
<path d="M17.7656 38L32.9216 28.9455V11.0801L23.4983 16.6146V23.6877L17.7656 26.9641V38Z" fill="#3693D1"/>
<path d="M49.6172 26.234V12.9623H52.0413C52.5326 12.9623 52.8493 13.1836 53.0022 13.6264L53.2206 14.3459C53.439 14.1134 53.6683 13.9031 53.8976 13.715C54.1378 13.5268 54.3889 13.3607 54.6619 13.2169C54.9349 13.073 55.2297 12.9623 55.5464 12.8848C55.863 12.8073 56.2125 12.763 56.5837 12.763C57.3699 12.763 58.0251 12.9733 58.5492 13.3829C59.0624 13.7924 59.4555 14.3459 59.7285 15.0432C59.9469 14.6337 60.2198 14.2795 60.5256 13.9917C60.8313 13.7039 61.1807 13.4714 61.552 13.2833C61.9233 13.1062 62.3054 12.9733 62.7095 12.8848C63.1135 12.7962 63.5284 12.752 63.9324 12.752C64.6858 12.752 65.3519 12.8626 65.9307 13.0951C66.5094 13.3275 67.0007 13.6485 67.3938 14.0802C67.7869 14.5119 68.0818 15.0432 68.2783 15.6631C68.4748 16.283 68.584 17.0025 68.584 17.7994V26.234H64.6749V17.7994C64.6749 16.4269 64.0962 15.7406 62.9278 15.7406C62.3928 15.7406 61.956 15.9177 61.6066 16.2719C61.2572 16.6261 61.0825 17.1353 61.0825 17.7994V26.234H57.1734V17.7994C57.1734 17.0357 57.0205 16.5044 56.7366 16.1944C56.4418 15.8845 56.005 15.7295 55.4372 15.7295C55.0878 15.7295 54.7493 15.807 54.4326 15.973C54.1159 16.1391 53.8211 16.3494 53.5372 16.6261V26.223H49.6281L49.6172 26.234Z" fill="#3693D1"/>
<path d="M74.3281 20.3009C74.4591 21.4078 74.7867 22.2158 75.3217 22.7139C75.8568 23.212 76.5556 23.4666 77.4073 23.4666C77.8659 23.4666 78.2481 23.4113 78.5866 23.3006C78.9142 23.1899 79.209 23.0681 79.4601 22.9242C79.7113 22.7914 79.9515 22.6696 80.1699 22.559C80.3883 22.4483 80.6067 22.3929 80.8469 22.3929C81.1636 22.3929 81.3929 22.5036 81.5567 22.7361L82.6923 24.164C82.2882 24.6289 81.8515 25.0163 81.3819 25.3151C80.9124 25.614 80.432 25.8354 79.9406 26.0014C79.4492 26.1675 78.9579 26.2781 78.4665 26.3446C77.9751 26.411 77.5056 26.4442 77.0579 26.4442C76.1407 26.4442 75.278 26.2892 74.4809 25.9904C73.6838 25.6915 72.9741 25.2377 72.3735 24.6399C71.7729 24.0422 71.2925 23.3006 70.9431 22.4151C70.5937 21.5295 70.4189 20.5001 70.4189 19.3157C70.4189 18.4302 70.5718 17.589 70.8666 16.792C71.1615 15.995 71.5982 15.3087 72.1551 14.711C72.712 14.1133 73.389 13.6373 74.1861 13.2942C74.9832 12.951 75.8786 12.7739 76.8832 12.7739C77.7458 12.7739 78.5429 12.9068 79.2636 13.1835C79.9843 13.4602 80.6067 13.8587 81.1199 14.3679C81.6331 14.8881 82.0371 15.5301 82.3319 16.2828C82.6267 17.0355 82.7687 17.8989 82.7687 18.8508C82.7687 19.1497 82.7578 19.3932 82.7359 19.5814C82.7141 19.7696 82.6595 19.9135 82.594 20.0241C82.5285 20.1348 82.4411 20.2123 82.321 20.2566C82.2009 20.3009 82.0589 20.323 81.8842 20.323H74.3281V20.3009ZM79.2527 17.9985C79.2527 17.6775 79.209 17.3786 79.1326 17.0798C79.0561 16.7809 78.9251 16.5153 78.7395 16.2828C78.5538 16.0504 78.3245 15.8622 78.0297 15.7183C77.7349 15.5744 77.3746 15.4969 76.9596 15.4969C76.2171 15.4969 75.6384 15.7183 75.2125 16.1389C74.7867 16.5706 74.5137 17.1905 74.3827 17.9985H79.2527Z" fill="#3693D1"/>
<path d="M89.2437 26.4331C88.6213 26.4331 88.0753 26.3445 87.5948 26.1563C87.1144 25.9682 86.7213 25.7136 86.3937 25.3704C86.0661 25.0273 85.8259 24.6288 85.6512 24.1528C85.4765 23.6769 85.4001 23.1456 85.4001 22.5478V15.685H84.2863C84.0788 15.685 83.915 15.6186 83.7731 15.4858C83.6311 15.353 83.5547 15.1648 83.5547 14.8991V13.3495L85.6403 12.9399L86.4156 9.69669C86.5138 9.28713 86.7977 9.08789 87.2782 9.08789H89.3201V12.9621H92.5631V15.674H89.3201V22.2711C89.3201 22.581 89.3965 22.8356 89.5385 23.0349C89.6804 23.2341 89.8988 23.3337 90.1718 23.3337C90.3138 23.3337 90.4339 23.3227 90.5321 23.2895C90.6304 23.2563 90.7178 23.223 90.7833 23.1898C90.8597 23.1456 90.9252 23.1124 90.9907 23.0902C91.0563 23.057 91.1218 23.0459 91.2091 23.0459C91.3292 23.0459 91.4166 23.0791 91.493 23.1345C91.5695 23.1898 91.635 23.2784 91.7114 23.4002L92.9016 25.2819C92.3993 25.6693 91.8315 25.9571 91.1982 26.1453C90.5649 26.3334 89.9097 26.4331 89.2437 26.4331Z" fill="#3693D1"/>
<path d="M93.9717 14.7994C94.7578 14.091 95.6423 13.5597 96.6032 13.2165C97.5641 12.8734 98.6014 12.6963 99.7043 12.6963C100.49 12.6963 101.211 12.8291 101.844 13.0837C102.478 13.3494 103.024 13.7036 103.461 14.1685C103.897 14.6334 104.236 15.1868 104.476 15.8288C104.716 16.4708 104.825 17.1682 104.825 17.9319V26.2227H103.035C102.663 26.2227 102.38 26.1673 102.194 26.0677C102.008 25.9681 101.844 25.7467 101.724 25.4257L101.451 24.6951C101.124 24.9718 100.807 25.2264 100.501 25.4367C100.196 25.6471 99.8899 25.8352 99.5623 25.9791C99.2348 26.123 98.8963 26.2448 98.525 26.3112C98.1647 26.3887 97.7497 26.4219 97.302 26.4219C96.7015 26.4219 96.1664 26.3444 95.6751 26.1894C95.1837 26.0345 94.7688 25.802 94.4303 25.4921C94.0918 25.1822 93.8297 24.8058 93.6441 24.3409C93.4584 23.8871 93.3711 23.3558 93.3711 22.758C93.3711 22.2821 93.4912 21.795 93.7205 21.308C93.9498 20.821 94.3647 20.3671 94.9435 19.9686C95.5222 19.5591 96.3084 19.227 97.2911 18.9503C98.2739 18.6736 99.5187 18.5297 101.015 18.4854V17.9209C101.015 17.146 100.862 16.5815 100.545 16.2384C100.228 15.8952 99.7807 15.7181 99.202 15.7181C98.7434 15.7181 98.3612 15.7735 98.0664 15.8731C97.7716 15.9727 97.5095 16.0945 97.2802 16.2162C97.0509 16.3491 96.8216 16.4598 96.6032 16.5594C96.3848 16.659 96.1228 16.7143 95.817 16.7143C95.544 16.7143 95.3147 16.6479 95.14 16.504C94.9544 16.3712 94.8015 16.2052 94.6814 16.017L93.9717 14.7773V14.7994ZM101.015 20.832C100.228 20.8652 99.5842 20.9317 99.0819 21.0423C98.5796 21.142 98.1756 21.2748 97.8808 21.4298C97.5859 21.5847 97.3785 21.7618 97.2693 21.95C97.1601 22.1492 97.0946 22.3596 97.0946 22.592C97.0946 23.0458 97.2147 23.3668 97.4658 23.5439C97.7061 23.7321 98.0664 23.8207 98.5359 23.8207C99.0382 23.8207 99.4859 23.7321 99.8572 23.555C100.239 23.3779 100.622 23.0901 101.004 22.6806V20.832H101.015Z" fill="#3693D1"/>
<path d="M122.776 16.1057C122.656 16.2496 122.547 16.3603 122.438 16.4488C122.329 16.5374 122.176 16.5817 121.968 16.5817C121.761 16.5817 121.597 16.5374 121.444 16.4378C121.291 16.3492 121.116 16.2385 120.92 16.1278C120.723 16.0172 120.494 15.9065 120.243 15.8179C119.981 15.7294 119.653 15.674 119.271 15.674C118.791 15.674 118.376 15.7626 118.026 15.9397C117.677 16.1168 117.393 16.3714 117.164 16.7034C116.934 17.0355 116.771 17.4451 116.661 17.921C116.552 18.4081 116.498 18.9505 116.498 19.5482C116.498 20.8211 116.738 21.7952 117.229 22.4815C117.71 23.1678 118.376 23.5109 119.227 23.5109C119.686 23.5109 120.046 23.4555 120.308 23.3338C120.571 23.212 120.8 23.0903 120.985 22.9464C121.171 22.8025 121.346 22.6807 121.499 22.559C121.652 22.4372 121.848 22.3819 122.088 22.3819C122.405 22.3819 122.634 22.4925 122.798 22.725L123.934 24.1529C123.53 24.6178 123.104 25.0052 122.656 25.3041C122.208 25.6029 121.75 25.8243 121.291 25.9904C120.822 26.1564 120.352 26.2671 119.883 26.3335C119.413 26.3999 118.954 26.4331 118.507 26.4331C117.71 26.4331 116.945 26.2782 116.214 25.9682C115.482 25.6583 114.849 25.2155 114.292 24.6289C113.735 24.0422 113.298 23.3227 112.982 22.4704C112.654 21.6181 112.49 20.644 112.49 19.5482C112.49 18.5962 112.632 17.6997 112.916 16.8695C113.2 16.0393 113.615 15.3198 114.172 14.6999C114.718 14.0911 115.406 13.6152 116.214 13.261C117.022 12.9068 117.972 12.7407 119.031 12.7407C120.09 12.7407 120.964 12.9068 121.728 13.2388C122.503 13.5709 123.202 14.0579 123.824 14.6999L122.787 16.0946L122.776 16.1057Z" fill="#3693D1"/>
<path d="M125.157 14.7994C125.943 14.091 126.828 13.5597 127.789 13.2165C128.75 12.8734 129.787 12.6963 130.89 12.6963C131.676 12.6963 132.397 12.8291 133.03 13.0837C133.663 13.3494 134.209 13.7036 134.646 14.1685C135.083 14.6334 135.421 15.1868 135.662 15.8288C135.902 16.4708 136.011 17.1682 136.011 17.9319V26.2227H134.22C133.849 26.2227 133.565 26.1673 133.379 26.0677C133.194 25.9681 133.03 25.7467 132.91 25.4257L132.637 24.6951C132.309 24.9718 131.993 25.2264 131.687 25.4367C131.381 25.6471 131.075 25.8352 130.748 25.9791C130.42 26.123 130.082 26.2448 129.711 26.3112C129.35 26.3887 128.935 26.4219 128.488 26.4219C127.887 26.4219 127.352 26.3444 126.861 26.1894C126.369 26.0345 125.954 25.802 125.616 25.4921C125.277 25.1822 125.015 24.8058 124.83 24.3409C124.644 23.8871 124.557 23.3558 124.557 22.758C124.557 22.2821 124.677 21.795 124.906 21.308C125.135 20.821 125.55 20.3671 126.129 19.9686C126.708 19.5591 127.494 19.227 128.477 18.9503C129.459 18.6736 130.704 18.5297 132.2 18.4854V17.9209C132.2 17.146 132.047 16.5815 131.731 16.2384C131.414 15.8952 130.966 15.7181 130.388 15.7181C129.929 15.7181 129.547 15.7735 129.252 15.8731C128.957 15.9727 128.695 16.0945 128.466 16.2162C128.236 16.3491 128.007 16.4598 127.789 16.5594C127.57 16.659 127.308 16.7143 127.003 16.7143C126.73 16.7143 126.5 16.6479 126.326 16.504C126.14 16.3712 125.987 16.2052 125.867 16.017L125.157 14.7773V14.7994ZM132.2 20.832C131.414 20.8652 130.77 20.9317 130.267 21.0423C129.765 21.142 129.361 21.2748 129.066 21.4298C128.771 21.5847 128.564 21.7618 128.455 21.95C128.346 22.1492 128.28 22.3596 128.28 22.592C128.28 23.0458 128.4 23.3668 128.651 23.5439C128.892 23.7321 129.252 23.8207 129.721 23.8207C130.224 23.8207 130.671 23.7321 131.043 23.555C131.425 23.3779 131.807 23.0901 132.189 22.6806V20.832H132.2Z" fill="#3693D1"/>
<path d="M142.192 14.6003C142.705 14.0469 143.283 13.593 143.939 13.2388C144.594 12.8846 145.369 12.7075 146.264 12.7075C146.941 12.7075 147.575 12.8625 148.153 13.1724C148.732 13.4824 149.234 13.9251 149.66 14.5007C150.086 15.0763 150.414 15.7958 150.654 16.626C150.894 17.4672 151.014 18.4191 151.014 19.4928C151.014 20.4891 150.872 21.4078 150.599 22.2601C150.326 23.1013 149.944 23.843 149.453 24.4628C148.962 25.0827 148.372 25.5697 147.684 25.9239C146.996 26.2782 146.243 26.4442 145.402 26.4442C144.725 26.4442 144.146 26.3446 143.687 26.1453C143.229 25.9461 142.803 25.6804 142.421 25.3484V30.4401H138.512V12.951H140.936C141.427 12.951 141.744 13.1724 141.897 13.6152L142.192 14.5893V14.6003ZM142.432 22.6254C142.727 22.9464 143.043 23.1788 143.393 23.3117C143.742 23.4445 144.102 23.522 144.474 23.522C144.845 23.522 145.173 23.4445 145.467 23.3006C145.773 23.1567 146.035 22.9242 146.254 22.6032C146.472 22.2822 146.647 21.8727 146.778 21.3524C146.909 20.8433 146.963 20.2123 146.963 19.4818C146.963 18.7512 146.909 18.1978 146.81 17.7107C146.712 17.2348 146.57 16.8473 146.385 16.5485C146.199 16.2496 145.991 16.0393 145.729 15.9175C145.478 15.7847 145.194 15.7294 144.889 15.7294C144.321 15.7294 143.84 15.8401 143.48 16.0504C143.109 16.2607 142.759 16.5706 142.421 16.9802V22.6143L142.432 22.6254Z" fill="#3693D1"/>
<path d="M157.533 26.4331C156.91 26.4331 156.364 26.3445 155.884 26.1563C155.403 25.9682 155.01 25.7136 154.683 25.3704C154.355 25.0273 154.115 24.6288 153.94 24.1528C153.766 23.6769 153.689 23.1456 153.689 22.5478V15.685H152.575C152.368 15.685 152.204 15.6186 152.062 15.4858C151.92 15.353 151.844 15.1648 151.844 14.8991V13.3495L153.929 12.9399L154.705 9.69669C154.803 9.28713 155.087 9.08789 155.567 9.08789H157.609V12.9621H160.852V15.674H157.609V22.2711C157.609 22.581 157.686 22.8356 157.828 23.0349C157.969 23.2341 158.188 23.3337 158.461 23.3337C158.603 23.3337 158.723 23.3227 158.821 23.2895C158.919 23.2563 159.007 23.223 159.072 23.1898C159.149 23.1456 159.214 23.1124 159.28 23.0902C159.345 23.057 159.411 23.0459 159.498 23.0459C159.618 23.0459 159.706 23.0791 159.782 23.1345C159.859 23.1898 159.924 23.2784 160 23.4002L161.191 25.2819C160.688 25.6693 160.121 25.9571 159.487 26.1453C158.854 26.3334 158.199 26.4331 157.533 26.4331Z" fill="#3693D1"/>
<path d="M174.283 12.9622V26.234H171.858C171.367 26.234 171.05 26.0126 170.898 25.5699L170.668 24.8061C170.417 25.0496 170.155 25.2821 169.882 25.4813C169.609 25.6806 169.325 25.8577 169.019 25.9905C168.714 26.1344 168.375 26.2451 168.026 26.3226C167.665 26.4001 167.283 26.4443 166.857 26.4443C166.137 26.4443 165.503 26.3226 164.957 26.068C164.412 25.8134 163.942 25.4703 163.56 25.0054C163.178 24.5515 162.894 24.0202 162.697 23.4003C162.501 22.7915 162.402 22.1163 162.402 21.3747V12.9512H166.311V21.3747C166.311 22.0278 166.453 22.537 166.748 22.9022C167.043 23.2564 167.48 23.4446 168.048 23.4446C168.473 23.4446 168.878 23.3561 169.249 23.1679C169.62 22.9797 169.991 22.7362 170.341 22.4152V12.9622H174.25H174.283Z" fill="#3693D1"/>
<path d="M180.594 14.9986C180.998 14.2792 181.468 13.7146 181.992 13.3051C182.516 12.8955 183.127 12.6963 183.804 12.6963C184.394 12.6963 184.875 12.8402 185.246 13.1169L184.995 16.0391C184.951 16.2273 184.885 16.3601 184.787 16.4266C184.689 16.493 184.558 16.5262 184.394 16.5262C184.329 16.5262 184.241 16.5262 184.132 16.5151C184.023 16.504 183.914 16.493 183.794 16.4819C183.673 16.4708 183.553 16.4598 183.433 16.4376C183.313 16.4376 183.204 16.4155 183.095 16.4155C182.527 16.4155 182.068 16.5705 181.73 16.8804C181.391 17.1903 181.096 17.6109 180.867 18.1644V26.2337H176.958V12.9619H179.284C179.48 12.9619 179.644 12.9841 179.775 13.0173C179.906 13.0505 180.015 13.1058 180.103 13.1723C180.19 13.2387 180.256 13.3383 180.31 13.4601C180.354 13.5818 180.398 13.7257 180.43 13.8917L180.638 15.0097L180.594 14.9986Z" fill="#3693D1"/>
<path d="M189.56 20.3009C189.691 21.4078 190.018 22.2158 190.553 22.7139C191.088 23.212 191.787 23.4666 192.639 23.4666C193.097 23.4666 193.48 23.4113 193.818 23.3006C194.146 23.1899 194.44 23.0681 194.692 22.9242C194.943 22.7914 195.183 22.6696 195.401 22.559C195.62 22.4483 195.838 22.3929 196.078 22.3929C196.395 22.3929 196.624 22.5036 196.788 22.7361L197.924 24.164C197.52 24.6289 197.083 25.0163 196.613 25.3151C196.144 25.614 195.663 25.8354 195.172 26.0014C194.681 26.1675 194.189 26.2781 193.698 26.3446C193.207 26.411 192.737 26.4442 192.289 26.4442C191.372 26.4442 190.509 26.2892 189.712 25.9904C188.915 25.6915 188.206 25.2377 187.605 24.6399C187.004 24.0422 186.524 23.3006 186.175 22.4151C185.825 21.5295 185.65 20.5001 185.65 19.3157C185.65 18.4302 185.803 17.589 186.098 16.792C186.393 15.995 186.83 15.3087 187.387 14.711C187.943 14.1133 188.62 13.6373 189.418 13.2942C190.215 12.951 191.11 12.7739 192.115 12.7739C192.977 12.7739 193.774 12.9068 194.495 13.1835C195.216 13.4602 195.838 13.8587 196.351 14.3679C196.865 14.8881 197.269 15.5301 197.563 16.2828C197.858 17.0355 198 17.8989 198 18.8508C198 19.1497 197.989 19.3932 197.967 19.5814C197.946 19.7696 197.891 19.9135 197.825 20.0241C197.76 20.1348 197.673 20.2123 197.552 20.2566C197.432 20.3009 197.29 20.323 197.116 20.323H189.56V20.3009ZM194.484 17.9985C194.484 17.6775 194.44 17.3786 194.364 17.0798C194.288 16.7809 194.157 16.5153 193.971 16.2828C193.785 16.0504 193.556 15.8622 193.261 15.7183C192.966 15.5744 192.606 15.4969 192.191 15.4969C191.449 15.4969 190.87 15.7183 190.444 16.1389C190.018 16.5706 189.745 17.1905 189.614 17.9985H194.484Z" fill="#3693D1"/>
</g>
<defs>
<clipPath id="clip0_34_26588">
<rect width="198" height="38" fill="white"/>
</clipPath>
</defs>
</svg>
