<svg width="126" height="19" viewBox="0 0 126 19" fill="none" xmlns="http://www.w3.org/2000/svg">
<path d="M16.1377 10.0532C16.6585 10.4113 17.0817 10.863 17.4072 11.4082C17.7327 11.9453 17.8955 12.5801 17.8955 13.3125C17.8955 14.1914 17.7083 14.936 17.334 15.5464C16.9678 16.1486 16.4388 16.6247 15.7471 16.9746C15.0146 17.349 14.1683 17.6134 13.208 17.7681C12.2559 17.9227 11.1328 18 9.83887 18H0.842285V17.0479C1.09456 17.0234 1.41195 16.9868 1.79443 16.938C2.17692 16.8892 2.44548 16.8322 2.6001 16.7671C2.9012 16.645 3.10465 16.4863 3.21045 16.291C3.32438 16.0876 3.38135 15.8271 3.38135 15.5098V3.30273C3.38135 3.00977 3.33659 2.76562 3.24707 2.57031C3.15755 2.375 2.94189 2.2041 2.6001 2.05762C2.34782 1.95182 2.05485 1.86637 1.72119 1.80127C1.38753 1.72803 1.09456 1.67106 0.842285 1.63037V0.678223H10.2539C12.6221 0.678223 14.3311 1.00374 15.3809 1.65479C16.4307 2.30583 16.9556 3.26611 16.9556 4.53564C16.9556 5.12158 16.8376 5.63835 16.6016 6.08594C16.3656 6.52539 16.0278 6.90788 15.5884 7.2334C15.1896 7.53451 14.7135 7.79492 14.1602 8.01465C13.6068 8.23438 13.0127 8.41748 12.3779 8.56396V8.7959C13.0127 8.861 13.6719 9.00342 14.3555 9.22314C15.0391 9.43473 15.6331 9.71143 16.1377 10.0532ZM12.207 4.84082C12.207 3.88053 11.9344 3.13184 11.3892 2.59473C10.8521 2.05762 10.0423 1.78906 8.95996 1.78906C8.80534 1.78906 8.60189 1.7972 8.34961 1.81348C8.10547 1.82161 7.89388 1.82975 7.71484 1.83789V8.25879H8.34961C9.66797 8.25879 10.6405 7.95361 11.2671 7.34326C11.8937 6.72477 12.207 5.89062 12.207 4.84082ZM13.0615 13.1538C13.0615 11.9494 12.7035 11.0257 11.9873 10.3828C11.2712 9.73991 10.2417 9.41846 8.89893 9.41846C8.7443 9.41846 8.53678 9.4266 8.27637 9.44287C8.02409 9.45101 7.83691 9.45915 7.71484 9.46729V15.8027C7.78809 16.1038 8.01595 16.3602 8.39844 16.5718C8.78092 16.7752 9.24479 16.877 9.79004 16.877C10.7585 16.877 11.5438 16.5514 12.146 15.9004C12.7563 15.2493 13.0615 14.3338 13.0615 13.1538ZM35.791 2.60693C36.6455 3.38818 37.321 4.33219 37.8174 5.43896C38.3219 6.54574 38.5742 7.80713 38.5742 9.22314C38.5742 10.4845 38.3626 11.6849 37.9395 12.8242C37.5163 13.9635 36.9059 14.9442 36.1084 15.7661C35.2702 16.6206 34.2855 17.2879 33.1543 17.7681C32.0231 18.2401 30.6763 18.4761 29.1138 18.4761C27.8524 18.4761 26.6602 18.2686 25.5371 17.8535C24.4141 17.4385 23.4253 16.8363 22.5708 16.0469C21.7244 15.2738 21.0531 14.3338 20.5566 13.2271C20.0602 12.1203 19.812 10.8874 19.812 9.52832C19.812 8.1123 20.0521 6.83057 20.5322 5.68311C21.0205 4.52751 21.6878 3.53874 22.5342 2.7168C23.3724 1.91113 24.3652 1.29264 25.5127 0.861328C26.6683 0.421875 27.8971 0.202148 29.1992 0.202148C30.4932 0.202148 31.7057 0.413737 32.8369 0.836914C33.9762 1.26009 34.9609 1.8501 35.791 2.60693ZM32.6538 14.9971C33.02 14.2565 33.2845 13.4183 33.4473 12.4824C33.61 11.5465 33.6914 10.4886 33.6914 9.30859C33.6914 8.30762 33.6182 7.33512 33.4717 6.39111C33.3333 5.43896 33.0933 4.59261 32.7515 3.85205C32.4015 3.11149 31.9377 2.51742 31.3599 2.06982C30.7821 1.62223 30.0618 1.39844 29.1992 1.39844C27.7262 1.39844 26.6073 2.09831 25.8423 3.49805C25.0773 4.88965 24.6948 6.85905 24.6948 9.40625C24.6948 10.4886 24.7762 11.5099 24.939 12.4702C25.1099 13.4305 25.3743 14.2687 25.7324 14.9849C26.0986 15.7091 26.5625 16.2747 27.124 16.6816C27.6855 17.0804 28.3773 17.2798 29.1992 17.2798C30.0049 17.2798 30.6966 17.0763 31.2744 16.6694C31.8522 16.2625 32.312 15.7051 32.6538 14.9971ZM59.5825 10.9565C59.3302 10.981 59.1064 11.0094 58.9111 11.042C58.7158 11.0745 58.4717 11.1396 58.1787 11.2373C57.8451 11.3431 57.6253 11.5181 57.5195 11.7622C57.4137 12.0063 57.3608 12.2627 57.3608 12.5312V14.5454C57.3608 14.9523 57.3649 15.2819 57.373 15.5342C57.3812 15.7783 57.3934 16.0835 57.4097 16.4497C56.5959 16.938 55.3914 17.3978 53.7964 17.8291C52.2095 18.2604 50.7487 18.4761 49.4141 18.4761C48.1608 18.4761 46.9849 18.2848 45.8862 17.9023C44.7876 17.5199 43.8232 16.9461 42.9932 16.1812C42.1631 15.4243 41.508 14.4844 41.0278 13.3613C40.5558 12.2383 40.3198 10.9525 40.3198 9.50391C40.3198 8.15299 40.5436 6.90381 40.9912 5.75635C41.4388 4.60889 42.0858 3.62012 42.9321 2.79004C43.7622 1.9681 44.7713 1.33333 45.9595 0.885742C47.1558 0.438151 48.4782 0.214355 49.9268 0.214355C50.9115 0.214355 51.8229 0.336426 52.6611 0.580566C53.4993 0.816569 54.1911 1.07292 54.7363 1.34961L55.4932 0.678223H56.5552L56.665 7.00146H55.5908C54.9723 5.10531 54.2318 3.69743 53.3691 2.77783C52.5065 1.85824 51.416 1.39844 50.0977 1.39844C48.5352 1.39844 47.3267 2.08203 46.4722 3.44922C45.6258 4.81641 45.2026 6.70036 45.2026 9.10107C45.2026 11.6483 45.6177 13.6421 46.4478 15.0825C47.286 16.5229 48.4701 17.2432 50 17.2432C50.7161 17.2432 51.3509 17.1374 51.9043 16.9258C52.4658 16.7061 52.9012 16.4538 53.2104 16.1689V12.6533C53.2104 12.3604 53.1576 12.1162 53.0518 11.9209C52.946 11.7174 52.7344 11.5425 52.417 11.396C52.1729 11.2821 51.8677 11.1885 51.5015 11.1152C51.1353 11.042 50.8301 10.9891 50.5859 10.9565V10.0044H59.5825V10.9565ZM76.4893 2.60693C77.3438 3.38818 78.0192 4.33219 78.5156 5.43896C79.0202 6.54574 79.2725 7.80713 79.2725 9.22314C79.2725 10.4845 79.0609 11.6849 78.6377 12.8242C78.2145 13.9635 77.6042 14.9442 76.8066 15.7661C75.9684 16.6206 74.9837 17.2879 73.8525 17.7681C72.7214 18.2401 71.3745 18.4761 69.812 18.4761C68.5506 18.4761 67.3584 18.2686 66.2354 17.8535C65.1123 17.4385 64.1235 16.8363 63.269 16.0469C62.4227 15.2738 61.7513 14.3338 61.2549 13.2271C60.7585 12.1203 60.5103 10.8874 60.5103 9.52832C60.5103 8.1123 60.7503 6.83057 61.2305 5.68311C61.7188 4.52751 62.3861 3.53874 63.2324 2.7168C64.0706 1.91113 65.0635 1.29264 66.2109 0.861328C67.3665 0.421875 68.5954 0.202148 69.8975 0.202148C71.1914 0.202148 72.404 0.413737 73.5352 0.836914C74.6745 1.26009 75.6592 1.8501 76.4893 2.60693ZM73.3521 14.9971C73.7183 14.2565 73.9827 13.4183 74.1455 12.4824C74.3083 11.5465 74.3896 10.4886 74.3896 9.30859C74.3896 8.30762 74.3164 7.33512 74.1699 6.39111C74.0316 5.43896 73.7915 4.59261 73.4497 3.85205C73.0998 3.11149 72.6359 2.51742 72.0581 2.06982C71.4803 1.62223 70.7601 1.39844 69.8975 1.39844C68.4245 1.39844 67.3055 2.09831 66.5405 3.49805C65.7756 4.88965 65.3931 6.85905 65.3931 9.40625C65.3931 10.4886 65.4744 11.5099 65.6372 12.4702C65.8081 13.4305 66.0726 14.2687 66.4307 14.9849C66.7969 15.7091 67.2607 16.2747 67.8223 16.6816C68.3838 17.0804 69.0755 17.2798 69.8975 17.2798C70.7031 17.2798 71.3949 17.0763 71.9727 16.6694C72.5505 16.2625 73.0103 15.7051 73.3521 14.9971ZM96.5576 5.30469H95.6177C95.3817 4.62923 94.9626 3.91309 94.3604 3.15625C93.7663 2.39128 93.2007 1.97217 92.6636 1.89893C92.4194 1.86637 92.0939 1.83789 91.687 1.81348C91.2801 1.78906 90.9058 1.77686 90.564 1.77686H87.8662V8.57617H89.5874C90.0757 8.57617 90.4989 8.52327 90.8569 8.41748C91.215 8.30355 91.5324 8.10417 91.8091 7.81934C92.0125 7.61589 92.2078 7.27816 92.395 6.80615C92.5903 6.32601 92.7083 5.91504 92.749 5.57324H93.6768V12.8608H92.749C92.7165 12.4946 92.5903 12.0511 92.3706 11.5303C92.1509 11.0013 91.9637 10.6514 91.8091 10.4805C91.5731 10.2201 91.272 10.0288 90.9058 9.90674C90.5396 9.77653 90.1001 9.71143 89.5874 9.71143H87.8662V15.4487C87.8662 15.7417 87.9191 15.994 88.0249 16.2056C88.1388 16.409 88.3504 16.5758 88.6597 16.7061C88.8387 16.7793 89.0828 16.8485 89.3921 16.9136C89.7095 16.9705 90.0228 17.0153 90.332 17.0479V18H80.9937V17.0479C81.2297 17.0234 81.543 16.9909 81.9336 16.9502C82.3242 16.9014 82.5968 16.8444 82.7515 16.7793C83.0444 16.6654 83.2479 16.5067 83.3618 16.3032C83.4757 16.0998 83.5327 15.8394 83.5327 15.522V3.30273C83.5327 3.02604 83.4798 2.78597 83.374 2.58252C83.2764 2.37093 83.0688 2.19596 82.7515 2.05762C82.5236 1.95996 82.2225 1.87044 81.8481 1.78906C81.4738 1.70768 81.189 1.65479 80.9937 1.63037V0.678223H96.5576V5.30469ZM107.324 18H97.7173V17.0479C97.937 17.0316 98.2585 17.0072 98.6816 16.9746C99.113 16.9421 99.41 16.8932 99.5728 16.8281C99.8739 16.7061 100.077 16.5474 100.183 16.3521C100.297 16.1486 100.354 15.8923 100.354 15.583V3.30273C100.354 3.02604 100.301 2.7819 100.195 2.57031C100.09 2.35872 99.882 2.18783 99.5728 2.05762C99.3774 1.97624 99.0885 1.89486 98.7061 1.81348C98.3236 1.72396 97.994 1.66292 97.7173 1.63037V0.678223H107.324V1.63037C107.08 1.65479 106.775 1.69141 106.409 1.74023C106.042 1.78092 105.733 1.84196 105.481 1.92334C105.164 2.02913 104.952 2.19596 104.846 2.42383C104.74 2.64355 104.688 2.89583 104.688 3.18066V15.4487C104.688 15.7417 104.74 15.994 104.846 16.2056C104.96 16.409 105.172 16.5758 105.481 16.7061C105.652 16.7793 105.933 16.8525 106.323 16.9258C106.722 16.9909 107.056 17.0316 107.324 17.0479V18ZM125.049 5.63428H124.109C123.857 4.89372 123.45 4.10026 122.888 3.25391C122.335 2.40755 121.822 1.95182 121.35 1.88672C121.09 1.85417 120.768 1.82568 120.386 1.80127C120.003 1.77686 119.674 1.76465 119.397 1.76465H118.823V15.3511C118.823 15.644 118.876 15.9045 118.982 16.1323C119.088 16.3521 119.295 16.527 119.604 16.6572C119.792 16.7305 120.081 16.8078 120.471 16.8892C120.87 16.9624 121.208 17.0153 121.484 17.0479V18H111.829V17.0479C112.065 17.0234 112.394 16.9909 112.817 16.9502C113.249 16.9014 113.542 16.8444 113.696 16.7793C114.014 16.6491 114.225 16.4741 114.331 16.2544C114.437 16.0347 114.49 15.7743 114.49 15.4731V1.76465H113.916C113.639 1.76465 113.31 1.77686 112.927 1.80127C112.545 1.82568 112.223 1.85417 111.963 1.88672C111.491 1.95182 110.974 2.40755 110.413 3.25391C109.859 4.10026 109.456 4.89372 109.204 5.63428H108.264V0.678223H125.049V5.63428Z" fill="white"/>
</svg>
