<svg width="187" height="34" viewBox="0 0 187 34" fill="none" xmlns="http://www.w3.org/2000/svg">
<path d="M14.4608 0L0 8.50022V25.5002L14.4608 34L28.9203 25.4998V8.50022L14.4608 0ZM17.9133 17L25.4678 12.5592V21.4408L17.9133 17ZM23.7407 9.51475L14.4608 14.9705L5.17966 9.51475L14.4608 4.0603L23.7407 9.51475ZM11.007 17L3.45253 21.4408V12.5592L11.007 17ZM5.17966 24.4853L14.4608 19.0295L23.7407 24.4853L14.4608 29.941L5.17966 24.4853Z" fill="white"/>
<path d="M61.9146 27.3673H60.6648V31.058H59.634V27.3673H58.3838V26.5349H61.9146V27.3673Z" fill="white"/>
<path d="M66.3152 26.5349V31.058H65.2779V29.1468H63.4725V31.058H62.4365V26.5349H63.4725V28.426H65.2779V26.5349H66.3152Z" fill="white"/>
<path d="M68.2111 27.3419V28.398H69.6075V29.1735H68.2111V30.2524H70.0346V31.058H67.1738V26.5349H70.0346V27.3419H68.2111Z" fill="white"/>
<path d="M78.1305 26.5349L76.7578 31.0585H75.825L74.9902 28.2548C74.9735 28.2124 74.9576 28.1642 74.9447 28.1112C74.9305 28.0578 74.9158 28.0035 74.9016 27.9448C74.8875 28.0035 74.8728 28.0578 74.8586 28.1112C74.8444 28.1646 74.8285 28.2124 74.8131 28.2548L73.9654 31.0585H73.0326L71.6611 26.5349H72.526C72.6163 26.5349 72.6907 26.5564 72.7505 26.5975C72.8107 26.6387 72.8498 26.6947 72.8679 26.7626L73.4781 29.1222C73.4966 29.1967 73.5147 29.2777 73.5332 29.3657C73.5517 29.4533 73.5685 29.5452 73.5882 29.6411C73.6248 29.4471 73.6691 29.2742 73.7216 29.1222L74.4415 26.7626C74.46 26.7039 74.4991 26.6523 74.5589 26.6058C74.6191 26.5594 74.6922 26.5353 74.7769 26.5353H75.0814C75.1717 26.5353 75.2435 26.5568 75.2982 26.5993C75.3532 26.6418 75.3949 26.6965 75.4237 26.763L76.1368 29.1227C76.1888 29.2676 76.2348 29.4314 76.2714 29.6161C76.2869 29.5229 76.3041 29.4353 76.3208 29.3543C76.3393 29.272 76.3561 29.1945 76.3746 29.1227L76.9844 26.763C76.9999 26.7031 77.0395 26.6501 77.1005 26.605C77.162 26.5599 77.2352 26.5358 77.3199 26.5358H78.1305V26.5349Z" fill="white"/>
<path d="M82.8201 28.7951C82.8201 29.1222 82.765 29.4256 82.6541 29.7076C82.5431 29.9883 82.3874 30.233 82.1866 30.4419C81.9853 30.6508 81.7423 30.8128 81.4589 30.9314C81.1755 31.0483 80.8607 31.1083 80.5158 31.1083C80.1696 31.1083 79.8548 31.0483 79.5701 30.9314C79.2854 30.8132 79.0424 30.6508 78.8399 30.4419C78.6373 30.233 78.4807 29.9883 78.3711 29.7076C78.2601 29.4256 78.2051 29.1222 78.2051 28.7951C78.2051 28.468 78.2601 28.1633 78.3711 27.8813C78.4807 27.6006 78.6377 27.3572 78.8399 27.1483C79.0424 26.9421 79.2854 26.7801 79.5701 26.6614C79.8548 26.5445 80.1696 26.4845 80.5158 26.4845C80.8607 26.4845 81.1755 26.5445 81.4589 26.6627C81.7423 26.7822 81.9853 26.9447 82.1866 27.1522C82.3879 27.3585 82.5431 27.6032 82.6541 27.8852C82.7654 28.1672 82.8201 28.4693 82.8201 28.7951ZM81.766 28.7951C81.766 28.5718 81.7372 28.3695 81.6813 28.1913C81.6236 28.0118 81.5415 27.8603 81.4357 27.7363C81.3286 27.6111 81.1979 27.517 81.0426 27.4504C80.8887 27.3839 80.7136 27.3506 80.5162 27.3506C80.3163 27.3506 80.1386 27.3839 79.9834 27.4504C79.8281 27.517 79.6974 27.6116 79.5903 27.7363C79.4845 27.8598 79.4024 28.0118 79.3447 28.1913C79.2884 28.3695 79.26 28.5718 79.26 28.7951C79.26 29.0197 79.2888 29.2233 79.3447 29.4015C79.4024 29.5811 79.4845 29.7326 79.5903 29.8565C79.6974 29.9817 79.8281 30.0758 79.9834 30.1411C80.1386 30.2063 80.3167 30.2383 80.5162 30.2383C80.7136 30.2383 80.8887 30.2063 81.0426 30.1411C81.1979 30.0758 81.3286 29.9817 81.4357 29.8565C81.5415 29.733 81.6236 29.5811 81.6813 29.4015C81.7372 29.2233 81.766 29.0197 81.766 28.7951Z" fill="white"/>
<path d="M87.0625 31.058H86.1284C85.9559 31.058 85.8317 30.9915 85.7573 30.8597L85.0193 29.5457C84.984 29.4896 84.9462 29.4484 84.9032 29.4235C84.8614 29.3981 84.7999 29.385 84.7204 29.385H84.4576V31.058H83.4268V26.5349H84.873C85.1943 26.5349 85.4674 26.5682 85.6949 26.6347C85.9224 26.7039 86.1065 26.7972 86.2501 26.9167C86.3937 27.0363 86.497 27.1786 86.5623 27.3423C86.6277 27.5061 86.6591 27.6843 86.6591 27.8756C86.6591 28.0232 86.6406 28.1616 86.6015 28.2921C86.5636 28.4225 86.506 28.5434 86.4303 28.6537C86.3559 28.7641 86.263 28.8639 86.1521 28.9502C86.0411 29.0377 85.9129 29.1082 85.7693 29.1643C85.8372 29.2002 85.8987 29.2427 85.9585 29.2961C86.0174 29.3495 86.0695 29.4117 86.1168 29.4848L87.0625 31.058ZM84.873 28.6616C85.0128 28.6616 85.1328 28.6428 85.2309 28.6069C85.3302 28.571 85.4098 28.5206 85.4738 28.4567C85.5366 28.3928 85.5822 28.317 85.611 28.2308C85.6386 28.1458 85.6528 28.0525 85.6528 27.954C85.6528 27.7544 85.59 27.5989 85.4635 27.4886C85.3354 27.3756 85.1384 27.3209 84.873 27.3209H84.4576V28.6616H84.873Z" fill="white"/>
<path d="M90.1145 30.2204V31.058H87.4365V26.5349H88.4674V30.2204H90.1145Z" fill="white"/>
<path d="M94.6701 28.7956C94.6701 29.1227 94.6137 29.4235 94.5041 29.6998C94.3931 29.9765 94.2361 30.216 94.0353 30.4166C93.834 30.6189 93.591 30.7756 93.3076 30.8886C93.0242 31.0015 92.7094 31.0576 92.3645 31.0576H90.6387V26.5349H92.3645C92.7094 26.5349 93.0242 26.5923 93.3076 26.7066C93.591 26.8195 93.834 26.978 94.0353 27.1786C94.2366 27.3791 94.3931 27.6173 94.5041 27.894C94.6142 28.1695 94.6701 28.4698 94.6701 28.7956ZM93.6147 28.7956C93.6147 28.5723 93.5859 28.37 93.53 28.1905C93.4723 28.0096 93.3902 27.8568 93.2844 27.7316C93.1773 27.6064 93.0466 27.5109 92.8926 27.443C92.7374 27.3765 92.5619 27.3419 92.3649 27.3419H91.6751V30.2519H92.3649C92.5623 30.2519 92.7374 30.2173 92.8926 30.1508C93.0466 30.0829 93.1773 29.987 93.2844 29.8622C93.3902 29.737 93.4723 29.5842 93.53 29.4033C93.5859 29.2243 93.6147 29.0207 93.6147 28.7956Z" fill="white"/>
<path d="M101.834 26.5187C102.14 26.5187 102.402 26.548 102.617 26.6049C102.832 26.6636 103.008 26.7459 103.144 26.851C103.281 26.9561 103.38 27.0853 103.442 27.2368C103.504 27.387 103.535 27.556 103.535 27.7421C103.535 27.8432 103.521 27.9417 103.492 28.0359C103.465 28.1291 103.419 28.218 103.358 28.299C103.297 28.38 103.219 28.4558 103.124 28.5236C103.028 28.5915 102.913 28.6515 102.779 28.7005C103.071 28.7737 103.288 28.8893 103.428 29.0517C103.569 29.2128 103.638 29.4226 103.638 29.6783C103.638 29.8709 103.602 30.0505 103.529 30.2155C103.456 30.3819 103.349 30.5269 103.207 30.649C103.066 30.7725 102.891 30.8684 102.685 30.9376C102.477 31.0068 102.241 31.0414 101.975 31.0414H100.199V26.5187H101.834ZM101.229 27.3046V28.4216H101.766C101.879 28.4216 101.983 28.4137 102.074 28.3962C102.166 28.3805 102.244 28.3511 102.307 28.31C102.371 28.2688 102.42 28.2115 102.453 28.1396C102.487 28.0665 102.504 27.9759 102.504 27.8655C102.504 27.7578 102.491 27.6685 102.463 27.5967C102.439 27.5262 102.397 27.4675 102.342 27.4251C102.287 27.3813 102.217 27.3506 102.133 27.3318C102.049 27.313 101.949 27.3038 101.833 27.3038H101.229V27.3046ZM101.956 30.2506C102.091 30.2506 102.202 30.2335 102.289 30.1976C102.377 30.163 102.443 30.1166 102.493 30.0619C102.541 30.0058 102.575 29.9436 102.593 29.8718C102.612 29.8013 102.62 29.7308 102.62 29.6577C102.62 29.5754 102.609 29.501 102.588 29.4344C102.567 29.3678 102.531 29.3122 102.479 29.2667C102.426 29.2216 102.359 29.1857 102.272 29.1603C102.187 29.1362 102.08 29.1244 101.95 29.1244H101.23V30.251L101.956 30.2506Z" fill="white"/>
<path d="M105.318 27.3257V28.3818H106.715V29.1572H105.318V30.2357H107.142V31.0418H104.281V26.5187H107.142V27.3257H105.318Z" fill="white"/>
<path d="M111.762 31.0418H110.963C110.872 31.0418 110.801 31.0217 110.746 30.9779C110.691 30.9354 110.649 30.882 110.62 30.8154L110.359 30.0268H108.67L108.408 30.8154C108.385 30.8741 108.345 30.9245 108.288 30.9709C108.229 31.0186 108.157 31.0414 108.072 31.0414H107.268L108.988 26.5178H110.042L111.762 31.0418ZM110.124 29.3131L109.712 28.0735C109.682 27.9965 109.65 27.9032 109.614 27.7968C109.58 27.6904 109.545 27.5748 109.511 27.4496C109.481 27.5774 109.448 27.693 109.413 27.8008C109.379 27.9085 109.346 28.0017 109.315 28.0801L108.907 29.3131H110.124Z" fill="white"/>
<path d="M113.851 30.2133C113.989 30.2133 114.112 30.1892 114.222 30.1428C114.33 30.0964 114.422 30.0298 114.497 29.9431C114.573 29.8569 114.629 29.7505 114.67 29.6239C114.709 29.5005 114.729 29.3564 114.729 29.1983V26.5182H115.76V29.1983C115.76 29.4764 115.715 29.7303 115.628 29.962C115.539 30.1936 115.412 30.3928 115.247 30.5605C115.083 30.7295 114.883 30.8583 114.647 30.9515C114.411 31.0461 114.146 31.0925 113.851 31.0925C113.554 31.0925 113.288 31.0461 113.053 30.9515C112.816 30.8583 112.617 30.7295 112.451 30.5605C112.286 30.3928 112.161 30.1936 112.073 29.962C111.985 29.7303 111.942 29.4764 111.942 29.1983V26.5182H112.973V29.194C112.973 29.3538 112.993 29.4961 113.032 29.6222C113.073 29.7457 113.129 29.8538 113.205 29.9414C113.28 30.029 113.372 30.0955 113.48 30.1424C113.589 30.1892 113.712 30.2133 113.851 30.2133Z" fill="white"/>
<path d="M119.756 27.351H118.506V31.0417H117.476V27.351H116.226V26.5182H119.756V27.351Z" fill="white"/>
<path d="M121.315 26.5192H120.277V31.0427H121.315V26.5192Z" fill="white"/>
<path d="M123.212 27.3257V28.4711H124.732V29.2812H123.212V31.0418H122.175V26.5187H125.036V27.3257H123.212Z" fill="white"/>
<path d="M127.483 30.2133C127.622 30.2133 127.745 30.1892 127.855 30.1428C127.963 30.0964 128.055 30.0298 128.13 29.9431C128.206 29.8569 128.262 29.7505 128.303 29.6239C128.342 29.5005 128.362 29.3564 128.362 29.1983V26.5182H129.392V29.1983C129.392 29.4764 129.348 29.7303 129.26 29.962C129.171 30.1936 129.045 30.3928 128.88 30.5605C128.715 30.7295 128.516 30.8583 128.279 30.9515C128.044 31.0461 127.779 31.0925 127.484 31.0925C127.187 31.0925 126.921 31.0461 126.686 30.9515C126.449 30.8583 126.25 30.7295 126.084 30.5605C125.919 30.3928 125.794 30.1936 125.706 29.962C125.618 29.7303 125.575 29.4764 125.575 29.1983V26.5182H126.606V29.194C126.606 29.3538 126.626 29.4961 126.665 29.6222C126.705 29.7457 126.762 29.8538 126.837 29.9414C126.913 30.029 127.005 30.0955 127.113 30.1424C127.222 30.1892 127.345 30.2133 127.483 30.2133Z" fill="white"/>
<path d="M132.874 30.2037V31.0417H130.196V26.5182H131.227V30.2037H132.874Z" fill="white"/>
<path d="M139.62 26.5182V31.0417H138.71V28.4404C138.71 28.3804 138.713 28.3152 138.716 28.2447C138.718 28.1755 138.725 28.1037 138.732 28.0306L137.551 30.3569C137.515 30.4287 137.467 30.4835 137.404 30.5207C137.342 30.5592 137.272 30.5767 137.192 30.5767H137.051C136.973 30.5767 136.902 30.5597 136.84 30.5207C136.778 30.4835 136.729 30.4287 136.692 30.3569L135.513 28.0253C135.518 28.0997 135.523 28.1729 135.528 28.2434C135.531 28.3152 135.533 28.3804 135.533 28.4404V31.0417H134.624V26.5182H135.412C135.456 26.5182 135.495 26.5195 135.528 26.5221C135.562 26.5234 135.592 26.53 135.618 26.541C135.646 26.5515 135.669 26.5677 135.69 26.5887C135.711 26.6101 135.733 26.6404 135.753 26.6793L136.896 28.975C136.938 29.0534 136.977 29.1362 137.013 29.2198C137.051 29.3047 137.088 29.3914 137.122 29.4803C137.157 29.3897 137.192 29.3008 137.23 29.2128C137.268 29.1265 137.308 29.0438 137.35 28.9641L138.491 26.6793C138.512 26.6408 138.532 26.6101 138.553 26.5887C138.575 26.5672 138.599 26.5515 138.625 26.541C138.652 26.5304 138.682 26.5239 138.716 26.5221C138.75 26.5195 138.787 26.5182 138.833 26.5182H139.62Z" fill="white"/>
<path d="M141.516 27.3257V28.3818H142.913V29.1572H141.516V30.2357H143.34V31.0418H140.479V26.5187H143.34V27.3257H141.516Z" fill="white"/>
<path d="M147.166 27.351H145.915V31.0417H144.885V27.351H143.635V26.5182H147.166V27.351Z" fill="white"/>
<path d="M151.241 31.0418H150.442C150.351 31.0418 150.279 31.0217 150.225 30.9779C150.17 30.9354 150.128 30.882 150.099 30.8154L149.838 30.0268H148.149L147.886 30.8154C147.864 30.8741 147.823 30.9245 147.766 30.9709C147.707 31.0186 147.635 31.0414 147.551 31.0414H146.746L148.466 26.5178H149.52L151.241 31.0418ZM149.603 29.3131L149.191 28.0735C149.161 27.9965 149.129 27.9032 149.093 27.7968C149.059 27.6904 149.024 27.5748 148.99 27.4496C148.96 27.5774 148.926 27.693 148.892 27.8008C148.858 27.9085 148.825 28.0017 148.794 28.0801L148.386 29.3131H149.603Z" fill="white"/>
<path d="M155.205 26.5182L153.425 31.0417H152.49L150.71 26.5182H151.54C151.63 26.5182 151.702 26.5396 151.756 26.5821C151.811 26.6246 151.853 26.6793 151.882 26.7459L152.742 29.1664C152.782 29.2728 152.821 29.3884 152.86 29.5136C152.899 29.6388 152.936 29.7702 152.97 29.9059C152.999 29.7702 153.03 29.6384 153.067 29.5136C153.102 29.3884 153.14 29.2728 153.18 29.1664L154.035 26.7459C154.057 26.6872 154.096 26.6355 154.155 26.5891C154.212 26.5427 154.284 26.5186 154.37 26.5186L155.205 26.5182Z" fill="white"/>
<path d="M156.592 27.3257V28.3818H157.988V29.1572H156.592V30.2357H158.415V31.0418H155.555V26.5187H158.415V27.3257H156.592Z" fill="white"/>
<path d="M162.685 31.0423H161.75C161.578 31.0423 161.454 30.9757 161.379 30.8439L160.641 29.5299C160.606 29.4739 160.568 29.4327 160.525 29.4077C160.484 29.3823 160.422 29.3692 160.342 29.3692H160.08V31.0423H159.049V26.5192H160.495C160.816 26.5192 161.089 26.5524 161.317 26.619C161.543 26.6882 161.729 26.7814 161.872 26.901C162.015 27.0205 162.119 27.1628 162.184 27.3266C162.25 27.4903 162.281 27.6686 162.281 27.8599C162.281 28.0075 162.263 28.1458 162.224 28.2763C162.186 28.4068 162.128 28.5276 162.052 28.638C161.978 28.7483 161.885 28.8482 161.774 28.9344C161.663 29.022 161.535 29.0925 161.391 29.1485C161.459 29.1844 161.521 29.2269 161.581 29.2803C161.64 29.3333 161.692 29.3959 161.739 29.469L162.685 31.0423ZM160.495 28.6459C160.635 28.6459 160.755 28.627 160.853 28.5911C160.952 28.5552 161.032 28.5049 161.096 28.4409C161.159 28.377 161.204 28.3013 161.233 28.215C161.261 28.1301 161.275 28.0368 161.275 27.9383C161.275 27.7386 161.212 27.5832 161.086 27.4728C160.957 27.3599 160.76 27.3051 160.495 27.3051H160.08V28.6459H160.495Z" fill="white"/>
<path d="M165.514 27.4382C165.483 27.4872 165.452 27.5244 165.418 27.5485C165.384 27.5739 165.342 27.5871 165.288 27.5871C165.241 27.5871 165.191 27.5726 165.138 27.542C165.083 27.5113 165.022 27.478 164.954 27.4408C164.886 27.4036 164.809 27.3703 164.721 27.3397C164.634 27.3103 164.535 27.2946 164.422 27.2946C164.229 27.2946 164.085 27.337 163.991 27.4211C163.897 27.5047 163.849 27.6181 163.849 27.7604C163.849 27.8524 163.878 27.9281 163.934 27.9877C163.991 28.0477 164.066 28.0994 164.158 28.1418C164.251 28.1869 164.357 28.2255 164.475 28.2614C164.594 28.2986 164.716 28.3384 164.84 28.3835C164.964 28.4273 165.085 28.4807 165.204 28.539C165.323 28.6003 165.428 28.676 165.521 28.7688C165.613 28.8621 165.689 28.9751 165.745 29.1095C165.802 29.2426 165.829 29.4033 165.829 29.5925C165.829 29.8013 165.794 29.9966 165.723 30.1792C165.652 30.3613 165.55 30.5212 165.414 30.6552C165.278 30.7909 165.112 30.8973 164.914 30.9757C164.716 31.0527 164.49 31.0913 164.238 31.0913C164.1 31.0913 163.959 31.0768 163.817 31.0488C163.673 31.0195 163.534 30.9783 163.4 30.9253C163.266 30.8736 163.14 30.811 163.022 30.7379C162.905 30.6661 162.802 30.5851 162.714 30.4958L163.018 30.0062C163.043 29.9703 163.076 29.941 163.115 29.9169C163.154 29.8928 163.197 29.881 163.245 29.881C163.306 29.881 163.368 29.9012 163.429 29.9397C163.491 29.9795 163.561 30.022 163.639 30.0702C163.717 30.1179 163.808 30.1621 163.909 30.202C164.011 30.2405 164.13 30.2606 164.27 30.2606C164.455 30.2606 164.602 30.2182 164.705 30.1341C164.81 30.0505 164.86 29.9174 164.86 29.7352C164.86 29.6301 164.831 29.5439 164.776 29.4773C164.718 29.4121 164.644 29.3565 164.551 29.3135C164.459 29.2698 164.354 29.2312 164.235 29.1979C164.118 29.166 163.997 29.1288 163.873 29.0876C163.749 29.0478 163.628 28.9983 163.51 28.9387C163.393 28.8801 163.287 28.8017 163.196 28.7058C163.103 28.6099 163.028 28.4904 162.971 28.3467C162.913 28.2018 162.885 28.0249 162.885 27.8134C162.885 27.6444 162.92 27.4785 162.987 27.3173C163.054 27.1549 163.152 27.0113 163.282 26.8852C163.413 26.7599 163.572 26.6592 163.761 26.583C163.949 26.5073 164.167 26.4688 164.411 26.4688C164.547 26.4688 164.68 26.4793 164.808 26.502C164.937 26.5235 165.06 26.5554 165.176 26.5979C165.291 26.6404 165.4 26.6912 165.5 26.7507C165.601 26.8094 165.691 26.876 165.771 26.9504L165.514 27.4382Z" fill="white"/>
<path d="M167.474 27.3257V28.3818H168.871V29.1572H167.474V30.2357H169.298V31.0418H166.438V26.5187H169.298V27.3257H167.474Z" fill="white"/>
<path d="M175.372 28.7793C175.372 29.1064 175.316 29.4072 175.206 29.6835C175.095 29.9602 174.938 30.1997 174.737 30.4003C174.536 30.6026 174.293 30.7593 174.01 30.8723C173.726 30.9853 173.412 31.0413 173.067 31.0413H171.341V26.5182H173.067C173.412 26.5182 173.726 26.5755 174.01 26.6898C174.293 26.8028 174.536 26.9613 174.737 27.1618C174.939 27.3628 175.095 27.6006 175.206 27.8773C175.316 28.1527 175.372 28.4535 175.372 28.7793ZM174.317 28.7793C174.317 28.556 174.288 28.3537 174.232 28.1742C174.174 27.9933 174.092 27.8405 173.987 27.7153C173.879 27.5901 173.749 27.4946 173.595 27.4268C173.44 27.3602 173.264 27.3256 173.067 27.3256H172.377V30.2356H173.067C173.264 30.2356 173.44 30.201 173.595 30.1345C173.749 30.0666 173.879 29.9707 173.987 29.8459C174.092 29.7207 174.174 29.5679 174.232 29.3871C174.288 29.2075 174.317 29.0039 174.317 28.7793Z" fill="white"/>
<path d="M179.816 31.0418H179.016C178.926 31.0418 178.854 31.0217 178.8 30.9779C178.745 30.9354 178.703 30.882 178.674 30.8154L178.413 30.0268H176.724L176.461 30.8154C176.439 30.8741 176.399 30.9245 176.341 30.9709C176.282 31.0186 176.211 31.0414 176.126 31.0414H175.321L177.042 26.5178H178.096L179.816 31.0418ZM178.178 29.3131L177.766 28.0735C177.736 27.9965 177.703 27.9032 177.668 27.7968C177.634 27.6904 177.599 27.5748 177.565 27.4496C177.535 27.5774 177.502 27.693 177.467 27.8008C177.433 27.9085 177.4 28.0017 177.369 28.0801L176.961 29.3131H178.178Z" fill="white"/>
<path d="M182.924 27.351H181.674V31.0417H180.644V27.351H179.394V26.5182H182.924V27.351Z" fill="white"/>
<path d="M187 31.0418H186.201C186.111 31.0418 186.039 31.0217 185.984 30.9779C185.929 30.9354 185.887 30.882 185.859 30.8154L185.598 30.0268H183.909L183.646 30.8154C183.624 30.8741 183.583 30.9245 183.526 30.9709C183.467 31.0186 183.395 31.0414 183.311 31.0414H182.506L184.226 26.5178H185.28L187 31.0418ZM185.362 29.3131L184.951 28.0735C184.921 27.9965 184.888 27.9032 184.853 27.7968C184.819 27.6904 184.783 27.5748 184.749 27.4496C184.719 27.5774 184.685 27.693 184.651 27.8008C184.617 27.9085 184.585 28.0017 184.553 28.0801L184.146 29.3131H185.362Z" fill="white"/>
<path d="M59.7293 2.31458V21.5091H55.873V10.4702C55.873 10.2149 55.8794 9.93819 55.8927 9.63913C55.9056 9.34139 55.9293 9.03795 55.9633 8.73057L50.9561 18.5978C50.8008 18.9052 50.5918 19.139 50.3277 19.2962C50.065 19.4543 49.7661 19.5331 49.4289 19.5331H48.8346C48.4974 19.5331 48.1972 19.4547 47.9345 19.2962C47.6717 19.1394 47.4614 18.9052 47.3061 18.5978L42.2989 8.70386C42.3252 9.02044 42.3458 9.33044 42.3643 9.63344C42.3811 9.93557 42.3892 10.2145 42.3892 10.4702V21.5091H38.5342V2.31458H41.8719C42.0611 2.31458 42.2284 2.31852 42.3708 2.32771C42.5131 2.33691 42.64 2.3623 42.7522 2.40609C42.8645 2.44987 42.9651 2.51774 43.0567 2.61101C43.147 2.70296 43.2356 2.833 43.3221 2.99939L48.1736 12.7348C48.346 13.0698 48.512 13.4157 48.6724 13.7761C48.832 14.1364 48.9847 14.5051 49.1309 14.8825C49.2771 14.4968 49.4302 14.1176 49.5906 13.7493C49.7502 13.3811 49.9209 13.0299 50.1015 12.6959L54.9414 2.99939C55.0275 2.833 55.1152 2.70296 55.2068 2.61101C55.2971 2.51774 55.399 2.44987 55.51 2.40609C55.6222 2.3623 55.7504 2.33691 55.8927 2.32771C56.0351 2.31852 56.2011 2.31458 56.3903 2.31458H59.7293Z" fill="white"/>
<path d="M67.4337 5.73992V10.2193H73.3608V13.5124H67.4337V18.0837H75.1714V21.51H63.0342V2.31409H75.1714V5.73992H67.4337Z" fill="white"/>
<path d="M92.8603 5.8455H87.5555V21.5105H83.1818V5.8455H77.877V2.31458H92.8603V5.8455Z" fill="white"/>
<path d="M110.337 21.5095H106.947C106.567 21.5095 106.261 21.4202 106.029 21.2393C105.795 21.0598 105.619 20.8295 105.497 20.548L104.386 17.2018H97.2166L96.1036 20.548C96.0081 20.794 95.8382 21.016 95.5927 21.2131C95.3458 21.4114 95.0426 21.5095 94.6796 21.5095H91.2637L98.5618 2.31494H103.038L110.337 21.5095ZM103.389 14.1718L101.642 8.91571C101.513 8.58206 101.374 8.18842 101.228 7.73611C101.081 7.2838 100.934 6.79427 100.788 6.26796C100.658 6.80259 100.52 7.3 100.374 7.75626C100.226 8.21251 100.089 8.60746 99.9595 8.94111L98.2259 14.1718H103.389Z" fill="white"/>
<path d="M119.642 2.31494C120.944 2.31494 122.053 2.4371 122.967 2.68318C123.882 2.92926 124.628 3.27649 125.205 3.72311C125.784 4.17148 126.204 4.71662 126.467 5.35765C126.731 5.99868 126.861 6.71414 126.861 7.5058C126.861 7.93534 126.801 8.35043 126.68 8.74933C126.56 9.14953 126.37 9.52347 126.111 9.87069C125.853 10.2179 125.52 10.5358 125.115 10.8257C124.708 11.1155 124.222 11.3656 123.653 11.5757C124.894 11.8831 125.813 12.3805 126.408 13.064C127.003 13.7502 127.301 14.6373 127.301 15.7267C127.301 16.5433 127.146 17.3025 126.835 18.0049C126.526 18.7072 126.07 19.3202 125.47 19.843C124.871 20.3658 124.131 20.7739 123.251 21.0681C122.372 21.3633 121.366 21.5095 120.236 21.5095H112.706V2.31494H119.642ZM117.08 5.64795V10.3909H119.357C119.84 10.3909 120.275 10.355 120.663 10.2845C121.053 10.2153 121.382 10.0918 121.653 9.91623C121.925 9.74065 122.133 9.49982 122.274 9.19157C122.416 8.88419 122.488 8.49843 122.488 8.03167C122.488 7.57542 122.432 7.19492 122.32 6.89323C122.209 6.58979 122.035 6.34678 121.802 6.16156C121.57 5.9781 121.275 5.84499 120.915 5.76661C120.558 5.68823 120.133 5.64839 119.642 5.64839L117.08 5.64795ZM120.159 18.1502C120.738 18.1502 121.209 18.0758 121.576 17.9269C121.944 17.778 122.23 17.5836 122.437 17.3472C122.644 17.1103 122.786 16.8419 122.865 16.5437C122.942 16.2447 122.981 15.9412 122.981 15.6338C122.981 15.2827 122.935 14.9661 122.843 14.6854C122.753 14.4048 122.598 14.1666 122.379 13.9739C122.159 13.7812 121.868 13.6306 121.505 13.5255C121.143 13.4204 120.685 13.3675 120.133 13.3675H117.08V18.1502H120.159Z" fill="white"/>
<path d="M147.202 21.5095H143.812C143.432 21.5095 143.126 21.4202 142.894 21.2393C142.66 21.0598 142.484 20.8295 142.363 20.548L141.251 17.2018H134.082L132.969 20.548C132.873 20.794 132.703 21.016 132.458 21.2131C132.211 21.4114 131.908 21.5095 131.545 21.5095H128.129L135.427 2.31494H139.904L147.202 21.5095ZM140.254 14.1718L138.508 8.91571C138.378 8.58206 138.24 8.18842 138.093 7.73611C137.946 7.2838 137.8 6.79427 137.653 6.26796C137.524 6.80259 137.385 7.3 137.239 7.75626C137.091 8.21251 136.954 8.60746 136.825 8.94111L135.091 14.1718H140.254Z" fill="white"/>
<path d="M166.279 2.31458V21.5091H164.001C163.665 21.5091 163.383 21.4544 163.155 21.3454C162.926 21.235 162.699 21.045 162.476 20.7722L153.586 9.32344C153.62 9.66541 153.644 9.99774 153.657 10.3183C153.67 10.6388 153.677 10.9391 153.677 11.2198V21.5087H149.82V2.31458H152.123C152.314 2.31458 152.473 2.32377 152.603 2.34128C152.732 2.35836 152.848 2.39164 152.952 2.4398C153.056 2.48753 153.155 2.55671 153.25 2.64472C153.345 2.7323 153.452 2.85096 153.573 2.99983L162.54 14.527C162.497 14.1587 162.467 13.801 162.449 13.4538C162.433 13.1066 162.423 12.7808 162.423 12.4721V2.31458H166.279Z" fill="white"/>
<path d="M174.5 10.0874H175.199C175.845 10.0874 176.312 9.8812 176.596 9.46917L180.841 3.1968C181.09 2.86446 181.359 2.63283 181.649 2.50541C181.938 2.37887 182.298 2.31538 182.729 2.31538H186.533L180.944 10.0739C180.547 10.6098 180.121 10.9969 179.662 11.2338C179.99 11.3572 180.288 11.5276 180.556 11.7469C180.822 11.9663 181.073 12.2522 181.306 12.6034L187 21.5091H183.091C182.842 21.5091 182.628 21.492 182.452 21.4556C182.275 21.4224 182.121 21.3694 181.993 21.2989C181.864 21.2284 181.751 21.1435 181.656 21.0423C181.56 20.9412 181.471 20.8243 181.384 20.6925L177.114 14.0133C176.958 13.7672 176.762 13.5943 176.524 13.4931C176.287 13.392 175.967 13.3416 175.562 13.3416H174.5V21.5091H170.126V2.31494H174.5V10.0874Z" fill="white"/>
<path d="M40.1687 26.4688C40.4745 26.4688 40.7368 26.4981 40.951 26.555C41.1665 26.6137 41.3428 26.696 41.4787 26.8011C41.6159 26.9062 41.7139 27.0353 41.7767 27.1868C41.8382 27.337 41.8696 27.506 41.8696 27.6921C41.8696 27.7933 41.8554 27.8918 41.8266 27.9859C41.7991 28.0792 41.7535 28.1681 41.692 28.2491C41.6318 28.3301 41.5535 28.4059 41.458 28.4737C41.3626 28.5416 41.2477 28.6016 41.1131 28.6506C41.4056 28.7237 41.6228 28.8393 41.7625 29.0018C41.9036 29.1629 41.9728 29.3727 41.9728 29.6284C41.9728 29.821 41.9363 30.0005 41.8632 30.1656C41.7901 30.332 41.683 30.4769 41.5419 30.5991C41.4009 30.7226 41.2258 30.8185 41.0194 30.8877C40.8117 30.9568 40.5751 30.9914 40.3089 30.9914H38.5332V26.4688H40.1687ZM39.5641 27.2547V28.3717H40.1008C40.2143 28.3717 40.3175 28.3638 40.4091 28.3463C40.5007 28.3305 40.579 28.3012 40.6418 28.26C40.7059 28.2189 40.7553 28.1615 40.788 28.0897C40.822 28.0166 40.8388 27.926 40.8388 27.8156C40.8388 27.7079 40.8259 27.6186 40.7983 27.5468C40.7734 27.4763 40.7317 27.4176 40.6771 27.3751C40.622 27.3313 40.5528 27.3007 40.468 27.2819C40.3846 27.263 40.284 27.2538 40.1687 27.2538H39.5641V27.2547ZM40.2904 30.2006C40.4263 30.2006 40.5373 30.1836 40.6237 30.1477C40.7115 30.1131 40.7777 30.0667 40.8276 30.0119C40.8757 29.9559 40.9097 29.8937 40.9282 29.8219C40.9467 29.7514 40.9544 29.6809 40.9544 29.6078C40.9544 29.5255 40.9441 29.451 40.9231 29.3845C40.902 29.3179 40.8654 29.2623 40.8134 29.2168C40.7614 29.1717 40.6934 29.1358 40.607 29.1104C40.5222 29.0863 40.4147 29.0745 40.2844 29.0745H39.5645V30.2011L40.2904 30.2006Z" fill="white"/>
<path d="M44.4707 30.1634C44.6092 30.1634 44.7317 30.1393 44.8418 30.0929C44.9502 30.0465 45.0418 29.98 45.1175 29.8933C45.1932 29.807 45.2495 29.7006 45.2899 29.5741C45.3291 29.4506 45.3489 29.3065 45.3489 29.1485V26.4688H46.3797V29.1489C46.3797 29.4269 46.3354 29.6809 46.2477 29.9125C46.1587 30.1442 46.0322 30.3434 45.8675 30.5111C45.7028 30.6801 45.5033 30.8088 45.2667 30.9021C45.0315 30.9967 44.7666 31.0431 44.4711 31.0431C44.1744 31.0431 43.9082 30.9967 43.6729 30.9021C43.4364 30.8088 43.2364 30.6801 43.0708 30.5111C42.9061 30.3434 42.781 30.1442 42.6932 29.9125C42.6055 29.6809 42.5625 29.4269 42.5625 29.1489V26.4688H43.5934V29.1445C43.5934 29.3043 43.6131 29.4467 43.6523 29.5728C43.6927 29.6962 43.749 29.8044 43.8247 29.892C43.9004 29.9795 43.992 30.0461 44.1004 30.0929C44.2096 30.1398 44.3322 30.1634 44.4707 30.1634Z" fill="white"/>
<path d="M48.2219 26.4696H47.1846V30.9932H48.2219V26.4696Z" fill="white"/>
<path d="M51.7586 30.1542V30.9919H49.0811V26.4688H50.1115V30.1542H51.7586Z" fill="white"/>
<path d="M56.3146 28.7295C56.3146 29.0566 56.2583 29.3574 56.1486 29.6337C56.0376 29.9104 55.8807 30.1499 55.6798 30.3505C55.4786 30.5528 55.2356 30.7095 54.9522 30.8225C54.6688 30.9355 54.3539 30.9915 54.009 30.9915H52.2832V26.4684H54.009C54.3539 26.4684 54.6688 26.5257 54.9522 26.64C55.2356 26.753 55.4786 26.9115 55.6798 27.112C55.8811 27.3126 56.0376 27.5508 56.1486 27.8275C56.2587 28.1034 56.3146 28.4037 56.3146 28.7295ZM55.2592 28.7295C55.2592 28.5062 55.2304 28.3039 55.1745 28.1244C55.1169 27.9435 55.0347 27.7907 54.9289 27.6655C54.8219 27.5403 54.6911 27.4448 54.5372 27.3769C54.3819 27.3104 54.2064 27.2758 54.0095 27.2758H53.3197V30.1858H54.0095C54.2069 30.1858 54.3819 30.1512 54.5372 30.0847C54.6911 30.0168 54.8219 29.9209 54.9289 29.7961C55.0347 29.6709 55.1169 29.5181 55.1745 29.3373C55.2304 29.1577 55.2592 28.9546 55.2592 28.7295Z" fill="white"/>
<path d="M97.8142 27.4544C97.7828 27.5035 97.7514 27.5407 97.7175 27.5648C97.6835 27.5901 97.6418 27.6033 97.588 27.6033C97.5411 27.6033 97.4913 27.5888 97.4379 27.5582C97.3829 27.5275 97.3218 27.4943 97.2539 27.457C97.1859 27.4198 97.1089 27.3865 97.0212 27.3559C96.9335 27.3266 96.8346 27.3108 96.7219 27.3108C96.5283 27.3108 96.3847 27.3533 96.291 27.4373C96.1968 27.521 96.1486 27.6344 96.1486 27.7767C96.1486 27.8686 96.1774 27.9444 96.2333 28.0039C96.291 28.0639 96.3654 28.1156 96.4578 28.1581C96.5507 28.2032 96.6565 28.2417 96.7752 28.2776C96.8939 28.3148 97.0156 28.3547 97.1395 28.3998C97.2638 28.4435 97.385 28.497 97.5037 28.5552C97.6224 28.6165 97.7282 28.6922 97.8211 28.7851C97.9127 28.8783 97.9884 28.9913 98.0443 29.1257C98.1019 29.2588 98.129 29.4195 98.129 29.6087C98.129 29.8176 98.0938 30.0128 98.0232 30.1954C97.9514 30.3776 97.8495 30.5374 97.7136 30.6714C97.5777 30.8071 97.4117 30.9135 97.2134 30.9919C97.016 31.069 96.7903 31.1075 96.5382 31.1075C96.3998 31.1075 96.2587 31.093 96.1164 31.065C95.9727 31.0357 95.8342 30.9945 95.6996 30.9415C95.5663 30.8899 95.4399 30.8273 95.322 30.7541C95.2046 30.6823 95.1014 30.6013 95.0137 30.512L95.3182 30.0225C95.3431 29.9866 95.3758 29.9572 95.4149 29.9332C95.4541 29.9091 95.4971 29.8972 95.5444 29.8972C95.6059 29.8972 95.6674 29.9174 95.7284 29.9559C95.7912 29.9958 95.8605 30.0382 95.9387 30.0864C96.017 30.1341 96.1073 30.1784 96.2092 30.2182C96.3112 30.2567 96.4299 30.2769 96.5696 30.2769C96.755 30.2769 96.9016 30.2344 97.0049 30.1503C97.1094 30.0667 97.1601 29.9336 97.1601 29.7514C97.1601 29.6463 97.1313 29.5601 97.0754 29.4935C97.0178 29.4283 96.9434 29.3727 96.8509 29.3298C96.7593 29.286 96.6535 29.2475 96.5348 29.2142C96.4174 29.1822 96.297 29.145 96.1731 29.1038C96.0488 29.064 95.9276 29.0145 95.8101 28.955C95.6927 28.8963 95.5869 28.8179 95.4953 28.722C95.4025 28.6261 95.328 28.5066 95.2709 28.363C95.2132 28.218 95.1848 28.0411 95.1848 27.8297C95.1848 27.6606 95.2201 27.4947 95.2868 27.3336C95.3534 27.1711 95.4515 27.0275 95.5818 26.9014C95.7125 26.7762 95.8716 26.6755 96.0613 26.5993C96.2492 26.5235 96.4664 26.485 96.7107 26.485C96.8466 26.485 96.9799 26.4955 97.1076 26.5183C97.2371 26.5397 97.3597 26.5717 97.4762 26.6142C97.591 26.6566 97.6994 26.7074 97.8 26.767C97.9007 26.8256 97.9906 26.8922 98.0705 26.9666L97.8142 27.4544Z" fill="white"/>
</svg>
