<svg width="187" height="34" viewBox="0 0 187 34" fill="none" xmlns="http://www.w3.org/2000/svg">
<path d="M14.4608 0L0 8.50022V25.5002L14.4608 34L28.9203 25.4998V8.50022L14.4608 0ZM17.9133 17L25.4678 12.5592V21.4408L17.9133 17ZM23.7407 9.51474L14.4608 14.9705L5.17966 9.51474L14.4608 4.0603L23.7407 9.51474ZM11.007 17L3.45253 21.4408V12.5592L11.007 17ZM5.17966 24.4853L14.4608 19.0295L23.7407 24.4853L14.4608 29.941L5.17966 24.4853Z" fill="black"/>
<path d="M61.9142 27.3673H60.6644V31.058H59.6335V27.3673H58.3834V26.5349H61.9142V27.3673Z" fill="black"/>
<path d="M66.315 26.5349V31.058H65.2777V29.1467H63.4723V31.058H62.4363V26.5349H63.4723V28.426H65.2777V26.5349H66.315Z" fill="black"/>
<path d="M68.2115 27.3419V28.398H69.608V29.1734H68.2115V30.2523H70.035V31.058H67.1742V26.5349H70.035V27.3419H68.2115Z" fill="black"/>
<path d="M78.1309 26.5349L76.7581 31.0584H75.8254L74.9906 28.2548C74.9738 28.2123 74.9579 28.1642 74.945 28.1112C74.9308 28.0578 74.9162 28.0035 74.902 27.9448C74.8878 28.0035 74.8732 28.0578 74.859 28.1112C74.8448 28.1646 74.8289 28.2123 74.8134 28.2548L73.9658 31.0584H73.033L71.6615 26.5349H72.5264C72.6167 26.5349 72.6911 26.5563 72.7508 26.5975C72.8111 26.6387 72.8502 26.6947 72.8682 26.7626L73.4785 29.1222C73.497 29.1967 73.5151 29.2777 73.5336 29.3657C73.552 29.4532 73.5688 29.5452 73.5886 29.6411C73.6252 29.4471 73.6695 29.2742 73.7219 29.1222L74.4418 26.7626C74.4603 26.7039 74.4995 26.6522 74.5592 26.6058C74.6195 26.5594 74.6926 26.5353 74.7773 26.5353H75.0818C75.1721 26.5353 75.2439 26.5568 75.2985 26.5993C75.3536 26.6417 75.3953 26.6965 75.4241 26.763L76.1371 29.1227C76.1892 29.2676 76.2352 29.4313 76.2718 29.6161C76.2872 29.5229 76.3044 29.4353 76.3212 29.3543C76.3397 29.272 76.3565 29.1945 76.375 29.1227L76.9848 26.763C77.0003 26.703 77.0398 26.65 77.1009 26.6049C77.1624 26.5598 77.2355 26.5358 77.3202 26.5358L78.1309 26.5349Z" fill="black"/>
<path d="M82.8199 28.7951C82.8199 29.1222 82.7648 29.4257 82.6539 29.7076C82.5429 29.9883 82.3872 30.2331 82.1864 30.4419C81.9851 30.6508 81.7421 30.8128 81.4587 30.9315C81.1753 31.0484 80.8605 31.1084 80.5156 31.1084C80.1694 31.1084 79.8546 31.0484 79.5699 30.9315C79.2852 30.8132 79.0422 30.6508 78.8397 30.4419C78.6371 30.2331 78.4806 29.9883 78.3709 29.7076C78.2599 29.4257 78.2049 29.1222 78.2049 28.7951C78.2049 28.468 78.2599 28.1633 78.3709 27.8813C78.4806 27.6006 78.6375 27.3572 78.8397 27.1483C79.0422 26.9421 79.2852 26.7801 79.5699 26.6614C79.8546 26.5445 80.1694 26.4845 80.5156 26.4845C80.8605 26.4845 81.1753 26.5445 81.4587 26.6627C81.7421 26.7823 81.9851 26.9447 82.1864 27.1523C82.3877 27.3585 82.5429 27.6033 82.6539 27.8853C82.7652 28.1672 82.8199 28.4694 82.8199 28.7951ZM81.7658 28.7951C81.7658 28.5718 81.737 28.3695 81.6811 28.1913C81.6234 28.0118 81.5413 27.8603 81.4355 27.7364C81.3284 27.6112 81.1977 27.517 81.0424 27.4505C80.8885 27.3839 80.7134 27.3506 80.516 27.3506C80.3161 27.3506 80.1384 27.3839 79.9832 27.4505C79.8279 27.517 79.6972 27.6116 79.5901 27.7364C79.4843 27.8599 79.4022 28.0118 79.3445 28.1913C79.2882 28.3695 79.2598 28.5718 79.2598 28.7951C79.2598 29.0198 79.2886 29.2234 79.3445 29.4016C79.4022 29.5811 79.4843 29.7326 79.5901 29.8565C79.6972 29.9817 79.8279 30.0759 79.9832 30.1411C80.1384 30.2064 80.3165 30.2383 80.516 30.2383C80.7134 30.2383 80.8885 30.2064 81.0424 30.1411C81.1977 30.0759 81.3284 29.9817 81.4355 29.8565C81.5413 29.733 81.6234 29.5811 81.6811 29.4016C81.737 29.2234 81.7658 29.0198 81.7658 28.7951Z" fill="black"/>
<path d="M87.0624 31.058H86.1283C85.9559 31.058 85.8316 30.9914 85.7572 30.8597L85.0192 29.5456C84.9839 29.4896 84.9461 29.4484 84.9031 29.4235C84.8614 29.3981 84.7999 29.3849 84.7203 29.3849H84.4575V31.058H83.4267V26.5349H84.873C85.1942 26.5349 85.4673 26.5682 85.6948 26.6347C85.9223 26.7039 86.1064 26.7972 86.25 26.9167C86.3937 27.0362 86.4969 27.1785 86.5623 27.3423C86.6276 27.5061 86.659 27.6843 86.659 27.8756C86.659 28.0232 86.6405 28.1615 86.6014 28.292C86.5635 28.4225 86.5059 28.5434 86.4302 28.6537C86.3558 28.764 86.2629 28.8639 86.152 28.9501C86.041 29.0377 85.9129 29.1082 85.7692 29.1643C85.8372 29.2002 85.8987 29.2426 85.9585 29.296C86.0174 29.3495 86.0694 29.4116 86.1167 29.4848L87.0624 31.058ZM84.873 28.6616C85.0127 28.6616 85.1327 28.6428 85.2308 28.6069C85.3301 28.5709 85.4097 28.5206 85.4738 28.4567C85.5366 28.3927 85.5821 28.317 85.611 28.2307C85.6385 28.1458 85.6527 28.0525 85.6527 27.954C85.6527 27.7543 85.5899 27.5989 85.4634 27.4886C85.3353 27.3756 85.1383 27.3209 84.873 27.3209H84.4575V28.6616H84.873Z" fill="black"/>
<path d="M90.1146 30.2204V31.058H87.4366V26.5349H88.4674V30.2204H90.1146Z" fill="black"/>
<path d="M94.6702 28.7956C94.6702 29.1227 94.6139 29.4235 94.5042 29.6998C94.3932 29.9765 94.2363 30.216 94.0354 30.4165C93.8342 30.6188 93.5912 30.7756 93.3078 30.8886C93.0244 31.0015 92.7095 31.0576 92.3646 31.0576H90.6388V26.5349H92.3646C92.7095 26.5349 93.0244 26.5922 93.3078 26.7065C93.5912 26.8195 93.8342 26.978 94.0354 27.1785C94.2367 27.3791 94.3932 27.6173 94.5042 27.894C94.6143 28.1694 94.6702 28.4698 94.6702 28.7956ZM93.6148 28.7956C93.6148 28.5723 93.586 28.37 93.5301 28.1904C93.4725 28.0096 93.3903 27.8568 93.2845 27.7316C93.1775 27.6063 93.0467 27.5109 92.8928 27.443C92.7375 27.3765 92.562 27.3419 92.3651 27.3419H91.6752V30.2519H92.3651C92.5625 30.2519 92.7375 30.2173 92.8928 30.1508C93.0467 30.0829 93.1775 29.987 93.2845 29.8622C93.3903 29.737 93.4725 29.5842 93.5301 29.4033C93.586 29.2242 93.6148 29.0206 93.6148 28.7956Z" fill="black"/>
<path d="M101.834 26.5187C102.14 26.5187 102.402 26.548 102.616 26.6049C102.832 26.6636 103.008 26.7459 103.144 26.851C103.281 26.9561 103.379 27.0853 103.442 27.2368C103.504 27.387 103.535 27.556 103.535 27.7421C103.535 27.8432 103.521 27.9417 103.492 28.0359C103.465 28.1291 103.419 28.218 103.357 28.299C103.297 28.38 103.219 28.4558 103.123 28.5237C103.028 28.5915 102.913 28.6515 102.779 28.7006C103.071 28.7737 103.288 28.8893 103.428 29.0517C103.569 29.2129 103.638 29.4226 103.638 29.6783C103.638 29.871 103.602 30.0505 103.529 30.2156C103.455 30.3819 103.348 30.5269 103.207 30.649C103.066 30.7725 102.891 30.8684 102.685 30.9376C102.477 31.0068 102.241 31.0414 101.974 31.0414H100.199V26.5187H101.834ZM101.229 27.3046V28.4216H101.766C101.879 28.4216 101.983 28.4138 102.074 28.3962C102.166 28.3805 102.244 28.3511 102.307 28.31C102.371 28.2688 102.42 28.2115 102.453 28.1397C102.487 28.0665 102.504 27.9759 102.504 27.8656C102.504 27.7578 102.491 27.6685 102.463 27.5967C102.438 27.5262 102.397 27.4675 102.342 27.4251C102.287 27.3813 102.217 27.3506 102.133 27.3318C102.049 27.313 101.949 27.3038 101.833 27.3038L101.229 27.3046ZM101.955 30.2506C102.091 30.2506 102.202 30.2335 102.289 30.1976C102.376 30.163 102.443 30.1166 102.493 30.0619C102.541 30.0058 102.575 29.9436 102.593 29.8718C102.612 29.8013 102.619 29.7308 102.619 29.6577C102.619 29.5754 102.609 29.501 102.588 29.4344C102.567 29.3679 102.53 29.3122 102.478 29.2667C102.426 29.2216 102.358 29.1857 102.272 29.1603C102.187 29.1362 102.08 29.1244 101.949 29.1244H101.229V30.251L101.955 30.2506Z" fill="black"/>
<path d="M105.318 27.3257V28.3818H106.714V29.1572H105.318V30.2357H107.142V31.0418H104.281V26.5187H107.142V27.3257H105.318Z" fill="black"/>
<path d="M111.762 31.0418H110.963C110.872 31.0418 110.8 31.0217 110.746 30.9779C110.691 30.9354 110.649 30.882 110.62 30.8154L110.359 30.0268H108.67L108.408 30.8154C108.385 30.8741 108.345 30.9245 108.288 30.9709C108.229 31.0186 108.157 31.0414 108.072 31.0414H107.268L108.988 26.5178H110.042L111.762 31.0418ZM110.124 29.3131L109.712 28.0735C109.682 27.9965 109.65 27.9032 109.614 27.7968C109.58 27.6904 109.545 27.5748 109.511 27.4496C109.481 27.5774 109.448 27.693 109.413 27.8007C109.379 27.9085 109.346 28.0017 109.315 28.0801L108.907 29.3131H110.124Z" fill="black"/>
<path d="M113.85 30.2134C113.989 30.2134 114.112 30.1893 114.222 30.1429C114.33 30.0965 114.422 30.0299 114.497 29.9432C114.573 29.8569 114.629 29.7505 114.67 29.624C114.709 29.5005 114.729 29.3565 114.729 29.1984V26.5182H115.76V29.1984C115.76 29.4764 115.715 29.7304 115.628 29.962C115.538 30.1937 115.412 30.3929 115.247 30.5606C115.083 30.7296 114.883 30.8583 114.647 30.9516C114.411 31.0462 114.146 31.0926 113.851 31.0926C113.554 31.0926 113.288 31.0462 113.053 30.9516C112.816 30.8583 112.617 30.7296 112.451 30.5606C112.286 30.3929 112.161 30.1937 112.073 29.962C111.985 29.7304 111.942 29.4764 111.942 29.1984V26.5182H112.973V29.194C112.973 29.3538 112.993 29.4961 113.032 29.6223C113.073 29.7457 113.129 29.8539 113.205 29.9415C113.28 30.029 113.372 30.0956 113.48 30.1424C113.589 30.1893 113.712 30.2134 113.85 30.2134Z" fill="black"/>
<path d="M119.757 27.3511H118.506V31.0418H117.476V27.3511H116.226V26.5182H119.757V27.3511Z" fill="black"/>
<path d="M121.315 26.5191H120.278V31.0427H121.315V26.5191Z" fill="black"/>
<path d="M123.212 27.3257V28.4711H124.731V29.2812H123.212V31.0418H122.174V26.5187H125.035V27.3257H123.212Z" fill="black"/>
<path d="M127.484 30.2134C127.622 30.2134 127.745 30.1893 127.855 30.1429C127.963 30.0965 128.055 30.0299 128.131 29.9432C128.206 29.8569 128.263 29.7505 128.303 29.624C128.342 29.5005 128.362 29.3565 128.362 29.1984V26.5182H129.393V29.1984C129.393 29.4764 129.349 29.7304 129.261 29.962C129.172 30.1937 129.045 30.3929 128.881 30.5606C128.716 30.7296 128.516 30.8583 128.28 30.9516C128.045 31.0462 127.78 31.0926 127.484 31.0926C127.188 31.0926 126.921 31.0462 126.686 30.9516C126.45 30.8583 126.25 30.7296 126.084 30.5606C125.919 30.3929 125.794 30.1937 125.706 29.962C125.619 29.7304 125.576 29.4764 125.576 29.1984V26.5182H126.607V29.194C126.607 29.3538 126.626 29.4961 126.665 29.6223C126.706 29.7457 126.762 29.8539 126.838 29.9415C126.914 30.029 127.005 30.0956 127.114 30.1424C127.223 30.1893 127.345 30.2134 127.484 30.2134Z" fill="black"/>
<path d="M132.875 30.2037V31.0418H130.197V26.5182H131.228V30.2037H132.875Z" fill="black"/>
<path d="M139.62 26.5182V31.0418H138.711V28.4405C138.711 28.3805 138.713 28.3152 138.716 28.2447C138.718 28.1756 138.725 28.1037 138.733 28.0306L137.552 30.357C137.515 30.4288 137.467 30.4835 137.404 30.5207C137.343 30.5593 137.272 30.5768 137.192 30.5768H137.051C136.973 30.5768 136.903 30.5597 136.84 30.5207C136.778 30.4835 136.729 30.4288 136.692 30.357L135.513 28.0254C135.518 28.0998 135.523 28.1729 135.528 28.2434C135.531 28.3152 135.533 28.3805 135.533 28.4405V31.0418H134.624V26.5182H135.412C135.456 26.5182 135.495 26.5196 135.528 26.5222C135.562 26.5235 135.592 26.5301 135.618 26.541C135.646 26.5515 135.669 26.5677 135.69 26.5887C135.711 26.6102 135.733 26.6404 135.753 26.6794L136.896 28.9751C136.938 29.0535 136.977 29.1362 137.014 29.2199C137.051 29.3048 137.088 29.3915 137.122 29.4804C137.157 29.3897 137.192 29.3009 137.23 29.2129C137.268 29.1266 137.309 29.0438 137.35 28.9641L138.491 26.6794C138.512 26.6408 138.533 26.6102 138.554 26.5887C138.575 26.5673 138.599 26.5515 138.625 26.541C138.652 26.5305 138.682 26.5239 138.716 26.5222C138.75 26.5196 138.788 26.5182 138.833 26.5182H139.62Z" fill="black"/>
<path d="M141.516 27.3257V28.3818H142.913V29.1572H141.516V30.2357H143.34V31.0418H140.479V26.5187H143.34V27.3257H141.516Z" fill="black"/>
<path d="M147.166 27.3511H145.916V31.0418H144.885V27.3511H143.635V26.5182H147.166V27.3511Z" fill="black"/>
<path d="M151.241 31.0418H150.442C150.351 31.0418 150.28 31.0217 150.225 30.9779C150.17 30.9354 150.128 30.882 150.099 30.8154L149.838 30.0268H148.149L147.886 30.8154C147.864 30.8741 147.824 30.9245 147.766 30.9709C147.707 31.0186 147.636 31.0414 147.551 31.0414H146.746L148.467 26.5178H149.521L151.241 31.0418ZM149.603 29.3131L149.192 28.0735C149.162 27.9965 149.129 27.9032 149.094 27.7968C149.06 27.6904 149.024 27.5748 148.99 27.4496C148.96 27.5774 148.926 27.693 148.892 27.8007C148.858 27.9085 148.826 28.0017 148.794 28.0801L148.387 29.3131H149.603Z" fill="black"/>
<path d="M155.205 26.5182L153.424 31.0418H152.49L150.71 26.5182H151.539C151.63 26.5182 151.701 26.5397 151.756 26.5822C151.811 26.6246 151.853 26.6794 151.882 26.7459L152.741 29.1664C152.782 29.2728 152.821 29.3884 152.86 29.5137C152.899 29.6389 152.936 29.7703 152.97 29.906C152.999 29.7703 153.03 29.6385 153.066 29.5137C153.102 29.3884 153.14 29.2728 153.18 29.1664L154.035 26.7459C154.057 26.6873 154.096 26.6356 154.155 26.5892C154.212 26.5428 154.284 26.5187 154.37 26.5187L155.205 26.5182Z" fill="black"/>
<path d="M156.592 27.3257V28.3818H157.988V29.1572H156.592V30.2357H158.416V31.0418H155.555V26.5187H158.416V27.3257H156.592Z" fill="black"/>
<path d="M162.685 31.0422H161.751C161.578 31.0422 161.454 30.9757 161.38 30.8439L160.642 29.5299C160.606 29.4738 160.568 29.4327 160.525 29.4077C160.484 29.3823 160.422 29.3692 160.343 29.3692H160.08V31.0422H159.049V26.5191H160.495C160.817 26.5191 161.09 26.5524 161.317 26.619C161.543 26.6881 161.729 26.7814 161.872 26.9009C162.015 27.0205 162.119 27.1628 162.185 27.3265C162.25 27.4903 162.281 27.6685 162.281 27.8599C162.281 28.0074 162.263 28.1458 162.224 28.2763C162.186 28.4067 162.128 28.5276 162.053 28.6379C161.978 28.7483 161.885 28.8481 161.774 28.9344C161.663 29.0219 161.535 29.0924 161.392 29.1485C161.46 29.1844 161.521 29.2269 161.581 29.2803C161.64 29.3333 161.692 29.3959 161.739 29.469L162.685 31.0422ZM160.495 28.6458C160.635 28.6458 160.755 28.627 160.853 28.5911C160.952 28.5552 161.032 28.5048 161.096 28.4409C161.159 28.377 161.205 28.3012 161.233 28.215C161.261 28.13 161.275 28.0368 161.275 27.9382C161.275 27.7386 161.212 27.5831 161.086 27.4728C160.958 27.3598 160.761 27.3051 160.495 27.3051H160.08V28.6458H160.495Z" fill="black"/>
<path d="M165.514 27.4382C165.483 27.4872 165.451 27.5245 165.417 27.5485C165.383 27.5739 165.342 27.5871 165.288 27.5871C165.241 27.5871 165.191 27.5726 165.138 27.542C165.083 27.5113 165.022 27.478 164.954 27.4408C164.886 27.4036 164.809 27.3703 164.721 27.3397C164.633 27.3103 164.534 27.2946 164.422 27.2946C164.228 27.2946 164.085 27.3371 163.991 27.4211C163.897 27.5048 163.849 27.6182 163.849 27.7605C163.849 27.8524 163.877 27.9282 163.933 27.9877C163.991 28.0477 164.065 28.0994 164.158 28.1418C164.251 28.1869 164.356 28.2255 164.475 28.2614C164.594 28.2986 164.716 28.3384 164.839 28.3835C164.964 28.4273 165.085 28.4807 165.204 28.539C165.322 28.6003 165.428 28.676 165.521 28.7689C165.613 28.8621 165.688 28.9751 165.744 29.1095C165.802 29.2426 165.829 29.4033 165.829 29.5925C165.829 29.8013 165.794 29.9966 165.723 30.1792C165.651 30.3614 165.549 30.5212 165.414 30.6552C165.278 30.7909 165.112 30.8973 164.913 30.9757C164.716 31.0527 164.49 31.0913 164.238 31.0913C164.1 31.0913 163.959 31.0768 163.816 31.0488C163.673 31.0195 163.534 30.9783 163.4 30.9253C163.266 30.8737 163.14 30.811 163.022 30.7379C162.905 30.6661 162.801 30.5851 162.714 30.4958L163.018 30.0063C163.043 29.9704 163.076 29.941 163.115 29.9169C163.154 29.8929 163.197 29.881 163.244 29.881C163.306 29.881 163.367 29.9012 163.428 29.9397C163.491 29.9795 163.56 30.022 163.639 30.0702C163.717 30.1179 163.807 30.1621 163.909 30.202C164.011 30.2405 164.13 30.2607 164.27 30.2607C164.455 30.2607 164.602 30.2182 164.705 30.1341C164.809 30.0505 164.86 29.9174 164.86 29.7352C164.86 29.6301 164.831 29.5439 164.775 29.4773C164.718 29.4121 164.643 29.3565 164.551 29.3136C164.459 29.2698 164.353 29.2312 164.235 29.198C164.117 29.166 163.997 29.1288 163.873 29.0876C163.749 29.0478 163.627 28.9983 163.51 28.9388C163.393 28.8801 163.287 28.8017 163.195 28.7058C163.102 28.6099 163.028 28.4904 162.971 28.3468C162.913 28.2018 162.885 28.0249 162.885 27.8134C162.885 27.6444 162.92 27.4785 162.987 27.3173C163.053 27.1549 163.151 27.0113 163.282 26.8852C163.412 26.7599 163.572 26.6592 163.761 26.583C163.949 26.5073 164.166 26.4688 164.411 26.4688C164.547 26.4688 164.68 26.4793 164.808 26.502C164.937 26.5235 165.06 26.5555 165.176 26.5979C165.291 26.6404 165.399 26.6912 165.5 26.7508C165.601 26.8094 165.69 26.876 165.77 26.9504L165.514 27.4382Z" fill="black"/>
<path d="M167.474 27.3257V28.3818H168.871V29.1572H167.474V30.2357H169.298V31.0418H166.438V26.5187H169.298V27.3257H167.474Z" fill="black"/>
<path d="M175.372 28.7794C175.372 29.1065 175.316 29.4073 175.206 29.6836C175.095 29.9603 174.939 30.1998 174.738 30.4003C174.536 30.6026 174.293 30.7594 174.01 30.8724C173.727 30.9853 173.412 31.0414 173.067 31.0414H171.341V26.5182H173.067C173.412 26.5182 173.727 26.5756 174.01 26.6899C174.293 26.8029 174.536 26.9614 174.738 27.1619C174.939 27.3629 175.095 27.6006 175.206 27.8774C175.317 28.1528 175.372 28.4536 175.372 28.7794ZM174.317 28.7794C174.317 28.5561 174.288 28.3538 174.232 28.1742C174.175 27.9934 174.093 27.8406 173.987 27.7154C173.88 27.5901 173.749 27.4947 173.595 27.4268C173.44 27.3603 173.265 27.3257 173.067 27.3257H172.378V30.2357H173.067C173.265 30.2357 173.44 30.2011 173.595 30.1346C173.749 30.0667 173.88 29.9708 173.987 29.846C174.093 29.7208 174.175 29.568 174.232 29.3871C174.288 29.2076 174.317 29.004 174.317 28.7794Z" fill="black"/>
<path d="M179.815 31.0418H179.016C178.926 31.0418 178.854 31.0217 178.799 30.9779C178.744 30.9354 178.702 30.882 178.674 30.8154L178.413 30.0268H176.724L176.461 30.8154C176.439 30.8741 176.398 30.9245 176.341 30.9709C176.282 31.0186 176.21 31.0414 176.125 31.0414H175.321L177.041 26.5178H178.095L179.815 31.0418ZM178.177 29.3131L177.766 28.0735C177.736 27.9965 177.703 27.9032 177.668 27.7968C177.634 27.6904 177.598 27.5748 177.564 27.4496C177.534 27.5774 177.502 27.693 177.466 27.8007C177.432 27.9085 177.4 28.0017 177.368 28.0801L176.961 29.3131H178.177Z" fill="black"/>
<path d="M182.925 27.3511H181.675V31.0418H180.644V27.3511H179.394V26.5182H182.925V27.3511Z" fill="black"/>
<path d="M187 31.0418H186.201C186.11 31.0418 186.038 31.0217 185.984 30.9779C185.929 30.9354 185.887 30.882 185.858 30.8154L185.597 30.0268H183.908L183.646 30.8154C183.623 30.8741 183.583 30.9245 183.526 30.9709C183.467 31.0186 183.395 31.0414 183.31 31.0414H182.505L184.226 26.5178H185.28L187 31.0418ZM185.362 29.3131L184.95 28.0735C184.92 27.9965 184.888 27.9032 184.852 27.7968C184.818 27.6904 184.783 27.5748 184.749 27.4496C184.719 27.5774 184.685 27.693 184.651 27.8007C184.617 27.9085 184.584 28.0017 184.553 28.0801L184.145 29.3131H185.362Z" fill="black"/>
<path d="M59.7295 2.31454V21.5091H55.8731V10.4702C55.8731 10.2149 55.8796 9.93816 55.8929 9.6391C55.9058 9.34135 55.9294 9.03791 55.9634 8.73053L50.9562 18.5978C50.801 18.9051 50.592 19.139 50.3279 19.2962C50.0651 19.4542 49.7662 19.533 49.4291 19.533H48.8347C48.4976 19.533 48.1974 19.4547 47.9346 19.2962C47.6718 19.1394 47.4615 18.9051 47.3063 18.5978L42.2991 8.70382C42.3253 9.0204 42.346 9.33041 42.3645 9.63341C42.3812 9.93553 42.3894 10.2144 42.3894 10.4702V21.5091H38.5343V2.31454H41.872C42.0613 2.31454 42.2286 2.31848 42.3709 2.32768C42.5133 2.33687 42.6401 2.36227 42.7524 2.40605C42.8646 2.44984 42.9652 2.51771 43.0569 2.61097C43.1472 2.70292 43.2358 2.83297 43.3222 2.99936L48.1737 12.7348C48.3462 13.0697 48.5122 13.4157 48.6726 13.776C48.8321 14.1364 48.9848 14.5051 49.131 14.8825C49.2773 14.4967 49.4304 14.1176 49.5908 13.7493C49.7503 13.3811 49.9211 13.0299 50.1017 12.6958L54.9416 2.99936C55.0276 2.83297 55.1153 2.70292 55.2069 2.61097C55.2972 2.51771 55.3992 2.44984 55.5101 2.40605C55.6224 2.36227 55.7505 2.33687 55.8929 2.32768C56.0352 2.31848 56.2012 2.31454 56.3905 2.31454H59.7295Z" fill="black"/>
<path d="M67.4336 5.73994V10.2193H73.3607V13.5124H67.4336V18.0837H75.1712V21.51H63.034V2.3141H75.1712V5.73994H67.4336Z" fill="black"/>
<path d="M92.8605 5.84546H87.5557V21.5104H83.182V5.84546H77.8772V2.31454H92.8605V5.84546Z" fill="black"/>
<path d="M110.337 21.5095H106.948C106.567 21.5095 106.262 21.4202 106.029 21.2394C105.795 21.0599 105.619 20.8295 105.498 20.548L104.386 17.2019H97.217L96.104 20.548C96.0085 20.7941 95.8387 21.0161 95.5931 21.2131C95.3463 21.4115 95.0431 21.5095 94.6801 21.5095H91.2641L98.5622 2.31498H103.039L110.337 21.5095ZM103.389 14.1718L101.643 8.91575C101.513 8.5821 101.375 8.18846 101.229 7.73615C101.081 7.28384 100.935 6.79431 100.788 6.268C100.659 6.80263 100.52 7.30004 100.374 7.75629C100.227 8.21254 100.089 8.60749 99.9599 8.94115L98.2264 14.1718H103.389Z" fill="black"/>
<path d="M119.936 2C121.238 2 122.347 2.12216 123.261 2.36824C124.176 2.61432 124.922 2.96155 125.499 3.40816C126.078 3.85654 126.498 4.40167 126.761 5.0427C127.025 5.68373 127.155 6.3992 127.155 7.19086C127.155 7.6204 127.095 8.03549 126.974 8.43439C126.854 8.83459 126.664 9.20853 126.405 9.55575C126.147 9.90297 125.814 10.2209 125.409 10.5107C125.002 10.8006 124.516 11.0506 123.947 11.2608C125.188 11.5682 126.107 12.0656 126.702 12.7491C127.297 13.4352 127.595 14.3223 127.595 15.4117C127.595 16.2283 127.44 16.9876 127.129 17.6899C126.82 18.3922 126.364 19.0053 125.764 19.5281C125.165 20.0509 124.425 20.459 123.545 20.7532C122.666 21.0483 121.66 21.1946 120.53 21.1946H113V2H119.936ZM117.374 5.33301V10.0759H119.651C120.134 10.0759 120.569 10.04 120.957 9.96953C121.347 9.90035 121.676 9.77687 121.947 9.60129C122.219 9.42571 122.427 9.18488 122.568 8.87663C122.71 8.56925 122.782 8.18349 122.782 7.71673C122.782 7.26048 122.726 6.87997 122.614 6.57829C122.503 6.27485 122.329 6.03184 122.096 5.84662C121.864 5.66316 121.569 5.53005 121.209 5.45167C120.852 5.37329 120.427 5.33344 119.936 5.33344L117.374 5.33301ZM120.453 17.8353C121.032 17.8353 121.503 17.7609 121.87 17.612C122.238 17.4631 122.524 17.2687 122.731 17.0322C122.938 16.7954 123.08 16.527 123.158 16.2288C123.235 15.9297 123.275 15.6263 123.275 15.3189C123.275 14.9677 123.229 14.6512 123.137 14.3705C123.047 14.0898 122.892 13.8516 122.673 13.659C122.453 13.4663 122.162 13.3157 121.799 13.2106C121.437 13.1055 120.979 13.0525 120.427 13.0525H117.374V17.8353H120.453Z" fill="black"/>
<path d="M147.202 21.5095H143.812C143.432 21.5095 143.126 21.4202 142.894 21.2394C142.66 21.0599 142.484 20.8295 142.363 20.548L141.251 17.2019H134.082L132.969 20.548C132.873 20.7941 132.703 21.0161 132.458 21.2131C132.211 21.4115 131.908 21.5095 131.545 21.5095H128.129L135.427 2.31498H139.904L147.202 21.5095ZM140.254 14.1718L138.508 8.91575C138.378 8.5821 138.24 8.18846 138.093 7.73615C137.946 7.28384 137.8 6.79431 137.653 6.268C137.524 6.80263 137.385 7.30004 137.239 7.75629C137.091 8.21254 136.954 8.60749 136.825 8.94115L135.091 14.1718H140.254Z" fill="black"/>
<path d="M166.279 2.31454V21.5091H164.001C163.665 21.5091 163.383 21.4544 163.154 21.3453C162.926 21.235 162.699 21.045 162.475 20.7722L153.586 9.3234C153.62 9.66537 153.644 9.99771 153.657 10.3182C153.669 10.6387 153.676 10.9391 153.676 11.2198V21.5087H149.82V2.31454H152.123C152.313 2.31454 152.473 2.32373 152.602 2.34125C152.732 2.35833 152.848 2.3916 152.951 2.43977C153.056 2.4875 153.155 2.55668 153.249 2.64469C153.345 2.73226 153.452 2.85092 153.573 2.99979L162.539 14.527C162.496 14.1587 162.466 13.801 162.449 13.4538C162.432 13.1065 162.423 12.7808 162.423 12.4721V2.31454H166.279Z" fill="black"/>
<path d="M174.5 10.0875H175.199C175.846 10.0875 176.312 9.88124 176.596 9.46921L180.841 3.19683C181.09 2.86449 181.359 2.63287 181.649 2.50545C181.938 2.37891 182.299 2.31542 182.729 2.31542H186.533L180.944 10.0739C180.547 10.6098 180.121 10.9969 179.662 11.2338C179.99 11.3573 180.288 11.5276 180.556 11.747C180.823 11.9663 181.073 12.2523 181.306 12.6034L187 21.5091H183.092C182.842 21.5091 182.628 21.492 182.452 21.4557C182.275 21.4224 182.121 21.3694 181.993 21.2989C181.864 21.2284 181.752 21.1435 181.656 21.0423C181.561 20.9412 181.471 20.8243 181.384 20.6925L177.114 14.0133C176.959 13.7673 176.762 13.5943 176.525 13.4932C176.287 13.392 175.967 13.3417 175.562 13.3417H174.5V21.5091H170.126V2.31498H174.5V10.0875Z" fill="black"/>
<path d="M40.169 26.4688C40.4748 26.4688 40.7371 26.4981 40.9513 26.555C41.1667 26.6137 41.3431 26.696 41.479 26.8011C41.6161 26.9062 41.7142 27.0354 41.777 27.1869C41.8385 27.337 41.8699 27.5061 41.8699 27.6922C41.8699 27.7933 41.8557 27.8918 41.8269 27.986C41.7994 28.0792 41.7538 28.1681 41.6923 28.2491C41.6321 28.3301 41.5538 28.4059 41.4583 28.4737C41.3628 28.5416 41.248 28.6016 41.1134 28.6506C41.4058 28.7238 41.623 28.8394 41.7628 29.0018C41.9039 29.1629 41.9731 29.3727 41.9731 29.6284C41.9731 29.821 41.9365 30.0006 41.8634 30.1656C41.7903 30.332 41.6832 30.477 41.5422 30.5991C41.4011 30.7226 41.2261 30.8185 41.0197 30.8877C40.8119 30.9569 40.5754 30.9914 40.3092 30.9914H38.5335V26.4688H40.169ZM39.5643 27.2547V28.3717H40.101C40.2146 28.3717 40.3178 28.3638 40.4094 28.3463C40.501 28.3306 40.5793 28.3012 40.6421 28.2601C40.7061 28.2189 40.7556 28.1615 40.7883 28.0897C40.8223 28.0166 40.839 27.926 40.839 27.8156C40.839 27.7079 40.8261 27.6186 40.7986 27.5468C40.7737 27.4763 40.7319 27.4176 40.6773 27.3751C40.6223 27.3314 40.553 27.3007 40.4683 27.2819C40.3849 27.2631 40.2843 27.2539 40.169 27.2539L39.5643 27.2547ZM40.2907 30.2007C40.4266 30.2007 40.5376 30.1836 40.624 30.1477C40.7117 30.1131 40.778 30.0667 40.8278 30.0119C40.876 29.9559 40.91 29.8937 40.9285 29.8219C40.947 29.7514 40.9547 29.6809 40.9547 29.6078C40.9547 29.5255 40.9444 29.451 40.9233 29.3845C40.9022 29.3179 40.8657 29.2623 40.8137 29.2168C40.7616 29.1717 40.6937 29.1358 40.6072 29.1104C40.5225 29.0863 40.415 29.0745 40.2847 29.0745H39.5648V30.2011L40.2907 30.2007Z" fill="black"/>
<path d="M44.4705 30.1635C44.6089 30.1635 44.7315 30.1394 44.8416 30.093C44.95 30.0465 45.0416 29.98 45.1173 29.8933C45.193 29.807 45.2493 29.7006 45.2897 29.5741C45.3289 29.4506 45.3486 29.3066 45.3486 29.1485V26.4688H46.3795V29.1489C46.3795 29.427 46.3352 29.6809 46.2475 29.9126C46.1584 30.1442 46.032 30.3434 45.8673 30.5111C45.7026 30.6801 45.503 30.8089 45.2665 30.9021C45.0313 30.9967 44.7663 31.0431 44.4709 31.0431C44.1741 31.0431 43.9079 30.9967 43.6727 30.9021C43.4362 30.8089 43.2362 30.6801 43.0706 30.5111C42.9059 30.3434 42.7807 30.1442 42.693 29.9126C42.6053 29.6809 42.5623 29.427 42.5623 29.1489V26.4688H43.5931V29.1445C43.5931 29.3044 43.6129 29.4467 43.6521 29.5728C43.6925 29.6963 43.7488 29.8044 43.8245 29.892C43.9002 29.9795 43.9918 30.0461 44.1002 30.093C44.2094 30.1398 44.332 30.1635 44.4705 30.1635Z" fill="black"/>
<path d="M48.2215 26.4696H47.1841V30.9932H48.2215V26.4696Z" fill="black"/>
<path d="M51.7583 30.1543V30.9919H49.0807V26.4688H50.1111V30.1543H51.7583Z" fill="black"/>
<path d="M56.3148 28.7295C56.3148 29.0565 56.2584 29.3573 56.1488 29.6336C56.0378 29.9104 55.8808 30.1499 55.68 30.3504C55.4787 30.5527 55.2358 30.7095 54.9523 30.8224C54.6689 30.9354 54.3541 30.9914 54.0092 30.9914H52.2834V26.4683H54.0092C54.3541 26.4683 54.6689 26.5257 54.9523 26.64C55.2358 26.7529 55.4787 26.9114 55.68 27.112C55.8813 27.3125 56.0378 27.5507 56.1488 27.8275C56.2589 28.1033 56.3148 28.4037 56.3148 28.7295ZM55.2594 28.7295C55.2594 28.5061 55.2306 28.3039 55.1747 28.1243C55.1171 27.9435 55.0349 27.7907 54.9291 27.6654C54.822 27.5402 54.6913 27.4448 54.5373 27.3769C54.3821 27.3103 54.2066 27.2757 54.0096 27.2757H53.3198V30.1858H54.0096C54.207 30.1858 54.3821 30.1512 54.5373 30.0846C54.6913 30.0168 54.822 29.9209 54.9291 29.7961C55.0349 29.6709 55.1171 29.518 55.1747 29.3372C55.2306 29.1577 55.2594 28.9545 55.2594 28.7295Z" fill="black"/>
<path d="M97.8139 27.4544C97.7825 27.5034 97.7512 27.5407 97.7172 27.5647C97.6832 27.5901 97.6415 27.6033 97.5877 27.6033C97.5409 27.6033 97.491 27.5888 97.4376 27.5582C97.3826 27.5275 97.3215 27.4942 97.2536 27.457C97.1856 27.4198 97.1086 27.3865 97.0209 27.3559C96.9332 27.3265 96.8343 27.3108 96.7216 27.3108C96.5281 27.3108 96.3844 27.3533 96.2907 27.4373C96.1965 27.521 96.1483 27.6344 96.1483 27.7767C96.1483 27.8686 96.1771 27.9444 96.233 28.0039C96.2907 28.0639 96.3651 28.1156 96.4575 28.158C96.5504 28.2031 96.6562 28.2417 96.7749 28.2776C96.8936 28.3148 97.0153 28.3546 97.1392 28.3997C97.2635 28.4435 97.3847 28.4969 97.5034 28.5552C97.6221 28.6165 97.7279 28.6922 97.8208 28.7851C97.9124 28.8783 97.9881 28.9913 98.044 29.1257C98.1017 29.2588 98.1287 29.4195 98.1287 29.6087C98.1287 29.8175 98.0935 30.0128 98.0229 30.1954C97.9511 30.3776 97.8492 30.5374 97.7133 30.6714C97.5774 30.8071 97.4114 30.9135 97.2132 30.9919C97.0158 31.0689 96.79 31.1075 96.538 31.1075C96.3995 31.1075 96.2584 31.093 96.1161 31.065C95.9724 31.0357 95.8339 30.9945 95.6993 30.9415C95.566 30.8899 95.4396 30.8272 95.3217 30.7541C95.2043 30.6823 95.1011 30.6013 95.0134 30.512L95.3179 30.0225C95.3428 29.9866 95.3755 29.9572 95.4146 29.9331C95.4538 29.9091 95.4968 29.8972 95.5441 29.8972C95.6056 29.8972 95.6671 29.9174 95.7281 29.9559C95.7909 29.9957 95.8602 30.0382 95.9384 30.0864C96.0167 30.1341 96.107 30.1783 96.209 30.2182C96.3109 30.2567 96.4296 30.2769 96.5694 30.2769C96.7547 30.2769 96.9014 30.2344 97.0046 30.1503C97.1091 30.0667 97.1598 29.9336 97.1598 29.7514C97.1598 29.6463 97.131 29.5601 97.0751 29.4935C97.0175 29.4283 96.9431 29.3727 96.8506 29.3298C96.759 29.286 96.6532 29.2474 96.5345 29.2142C96.4171 29.1822 96.2967 29.145 96.1728 29.1038C96.0485 29.064 95.9273 29.0145 95.8099 28.955C95.6925 28.8963 95.5867 28.8179 95.4951 28.722C95.4022 28.6261 95.3278 28.5066 95.2706 28.363C95.2129 28.218 95.1845 28.0411 95.1845 27.8296C95.1845 27.6606 95.2198 27.4947 95.2865 27.3335C95.3531 27.1711 95.4512 27.0275 95.5815 26.9014C95.7122 26.7761 95.8714 26.6754 96.061 26.5993C96.2489 26.5235 96.4661 26.485 96.7104 26.485C96.8463 26.485 96.9796 26.4955 97.1074 26.5182C97.2368 26.5397 97.3594 26.5717 97.4759 26.6141C97.5907 26.6566 97.6991 26.7074 97.7998 26.767C97.9004 26.8256 97.9903 26.8922 98.0703 26.9666L97.8139 27.4544Z" fill="black"/>
</svg>
