<svg width="158" height="167" viewBox="0 0 158 167" fill="none" xmlns="http://www.w3.org/2000/svg">
<g clip-path="url(#clip0_37_1498)">
<path d="M79.1129 0L27.0923 29.9195V89.7586L79.1129 119.678L131.133 89.7586V29.9195L79.1129 0ZM91.5354 59.8391L118.711 44.2067V75.4714L91.5354 59.8391ZM112.5 33.4878L79.1129 52.6884L45.7259 33.4878L79.1129 14.2872L112.5 33.4878ZM66.6905 59.8391L39.5147 75.4714V44.2067L66.6905 59.8391ZM45.7259 86.1903L79.1129 66.9897L112.5 86.1903L79.1129 105.391L45.7259 86.1903Z" fill="white"/>
<path d="M2.54619 137.534C2.8731 137.534 3.15736 137.562 3.39899 137.633C3.6264 137.689 3.82539 137.774 3.96752 137.888C4.10965 138.001 4.22336 138.142 4.29442 138.298C4.36549 138.454 4.39392 138.638 4.39392 138.836C4.39392 138.95 4.3797 139.049 4.35128 139.148C4.32285 139.247 4.266 139.346 4.20914 139.431C4.13808 139.516 4.0528 139.601 3.95331 139.672C3.85381 139.743 3.72589 139.813 3.58376 139.856C3.89645 139.927 4.13808 140.054 4.29442 140.224C4.45077 140.394 4.52184 140.62 4.52184 140.889C4.52184 141.088 4.4792 141.286 4.40813 141.456C4.32285 141.626 4.20914 141.782 4.0528 141.923C3.89645 142.051 3.71168 142.15 3.48427 142.235C3.25685 142.305 3.00101 142.348 2.71675 142.348H0.769531V137.548H2.54619V137.534ZM1.89238 138.369V139.558H2.47512C2.60304 139.558 2.71675 139.558 2.81624 139.53C2.91574 139.516 3.00101 139.488 3.07208 139.431C3.14315 139.389 3.2 139.332 3.22843 139.247C3.25685 139.162 3.28528 139.077 3.28528 138.95C3.28528 138.822 3.28528 138.737 3.24264 138.666C3.21421 138.596 3.17157 138.525 3.11472 138.482C3.05787 138.44 2.9868 138.397 2.88731 138.383C2.80203 138.369 2.68832 138.355 2.5604 138.355H1.90659L1.89238 138.369ZM2.67411 141.498C2.81624 141.498 2.94416 141.484 3.02944 141.442C3.12893 141.399 3.2 141.357 3.25685 141.3C3.31371 141.243 3.34213 141.173 3.37056 141.102C3.38477 141.031 3.39899 140.946 3.39899 140.875C3.39899 140.79 3.39899 140.705 3.37056 140.635C3.34213 140.564 3.31371 140.507 3.25685 140.451C3.2 140.408 3.12893 140.366 3.02944 140.337C2.92995 140.309 2.81624 140.295 2.67411 140.295H1.89238V141.498H2.67411Z" fill="white"/>
<path d="M7.208 141.456C7.36435 141.456 7.49227 141.428 7.60597 141.385C7.71968 141.343 7.81917 141.272 7.90445 141.173C7.98973 141.088 8.04659 140.974 8.08923 140.833C8.13187 140.705 8.14608 140.55 8.14608 140.38V137.534H9.26893V140.38C9.26893 140.677 9.22629 140.946 9.1268 141.187C9.0273 141.428 8.89938 141.64 8.71461 141.824C8.52984 142.008 8.31664 142.136 8.0608 142.235C7.80496 142.334 7.5207 142.376 7.19379 142.376C6.86688 142.376 6.58262 142.334 6.32678 142.235C6.07094 142.136 5.85774 141.994 5.67297 141.824C5.4882 141.64 5.36028 141.428 5.26078 141.187C5.16129 140.946 5.11865 140.677 5.11865 140.38V137.534H6.2415V140.38C6.2415 140.55 6.26993 140.705 6.31257 140.833C6.35521 140.96 6.41206 141.074 6.49734 141.173C6.58262 141.272 6.68211 141.343 6.79582 141.385C6.90952 141.442 7.05166 141.456 7.19379 141.456H7.208Z" fill="white"/>
<path d="M11.2874 142.334H10.1646V137.534H11.2874V142.334Z" fill="white"/>
<path d="M15.1246 141.442V142.334H12.2251V137.534H13.3479V141.442H15.1388H15.1246Z" fill="white"/>
<path d="M20.0711 139.941C20.0711 140.295 20.0142 140.606 19.8863 140.904C19.7726 141.201 19.602 141.456 19.3746 141.668C19.1614 141.881 18.8914 142.051 18.5787 142.164C18.266 142.277 17.9249 142.348 17.5553 142.348H15.6792V137.548H17.5553C17.9249 137.548 18.266 137.604 18.5787 137.732C18.8914 137.859 19.1472 138.015 19.3746 138.227C19.5878 138.44 19.7584 138.695 19.8863 138.992C20 139.289 20.0711 139.601 20.0711 139.955V139.941ZM18.9198 139.941C18.9198 139.7 18.8914 139.488 18.8203 139.304C18.7635 139.12 18.664 138.95 18.5503 138.822C18.4366 138.695 18.2944 138.581 18.1239 138.511C17.9533 138.44 17.7685 138.397 17.5553 138.397H16.802V141.484H17.5553C17.7685 141.484 17.9675 141.442 18.1239 141.371C18.2944 141.3 18.4366 141.201 18.5503 141.059C18.664 140.932 18.7492 140.762 18.8203 140.578C18.8772 140.38 18.9198 140.167 18.9198 139.927V139.941Z" fill="white"/>
<path d="M25.5289 138.412H24.1787V142.334H23.0558V138.412H21.7056V137.534H25.5432V138.412H25.5289Z" fill="white"/>
<path d="M30.3043 137.534V142.334H29.1814V140.309H27.22V142.334H26.0972V137.534H27.22V139.544H29.1814V137.534H30.3043Z" fill="white"/>
<path d="M32.3656 138.397V139.516H33.8864V140.337H32.3656V141.484H34.3412V142.348H31.2427V137.548H34.3412V138.412H32.3656V138.397Z" fill="white"/>
<path d="M43.1249 137.534L41.6325 142.334H40.6234L39.7137 139.36C39.7137 139.36 39.6853 139.261 39.6569 139.204C39.6284 139.148 39.6284 139.091 39.6142 139.035C39.6 139.091 39.5858 139.148 39.5716 139.204C39.5574 139.261 39.5432 139.318 39.5289 139.36L38.6051 142.334H37.5959L36.1035 137.534H37.0416C37.1411 137.534 37.2122 137.562 37.2832 137.604C37.3543 137.647 37.3969 137.704 37.4112 137.774L38.0792 140.281C38.0934 140.366 38.1218 140.451 38.136 140.535C38.1502 140.62 38.1787 140.72 38.1929 140.833C38.2355 140.62 38.2782 140.436 38.335 140.281L39.1168 137.774C39.1168 137.774 39.1736 137.661 39.2447 137.604C39.3015 137.562 39.3868 137.534 39.4863 137.534H39.8132C39.9127 137.534 39.9838 137.562 40.0548 137.604C40.1259 137.647 40.1543 137.704 40.197 137.774L40.9645 140.281C41.0213 140.436 41.064 140.606 41.1066 140.805C41.1208 140.705 41.1493 140.606 41.1635 140.521C41.1777 140.436 41.2061 140.351 41.2203 140.281L41.8883 137.774C41.8883 137.774 41.9452 137.661 42.0163 137.604C42.0873 137.562 42.1584 137.534 42.2579 137.534H43.1391H43.1249Z" fill="white"/>
<path d="M48.2131 139.941C48.2131 140.295 48.1563 140.606 48.0284 140.904C47.9146 141.201 47.7441 141.47 47.5167 141.682C47.3035 141.909 47.0334 142.079 46.7207 142.206C46.408 142.334 46.0669 142.39 45.6974 142.39C45.3278 142.39 44.9867 142.334 44.674 142.206C44.3613 142.079 44.1055 141.909 43.8781 141.682C43.6649 141.456 43.4943 141.201 43.3664 140.904C43.2527 140.606 43.1816 140.281 43.1816 139.941C43.1816 139.601 43.2385 139.275 43.3664 138.964C43.4801 138.666 43.6507 138.411 43.8781 138.185C44.1055 137.958 44.3613 137.788 44.674 137.661C44.9867 137.534 45.3278 137.477 45.6974 137.477C46.0669 137.477 46.408 137.534 46.7207 137.661C47.0334 137.788 47.2893 137.958 47.5167 138.185C47.7299 138.411 47.9004 138.666 48.0284 138.964C48.1421 139.261 48.2131 139.587 48.2131 139.927V139.941ZM47.0619 139.941C47.0619 139.7 47.0334 139.488 46.9624 139.304C46.9055 139.119 46.806 138.95 46.6923 138.822C46.5786 138.695 46.4365 138.596 46.2659 138.525C46.0953 138.454 45.9106 138.426 45.6974 138.426C45.4842 138.426 45.2852 138.454 45.1146 138.525C44.9441 138.596 44.8019 138.695 44.6882 138.822C44.5745 138.95 44.4892 139.119 44.4182 139.304C44.3613 139.488 44.3187 139.714 44.3187 139.941C44.3187 140.167 44.3471 140.394 44.4182 140.592C44.475 140.776 44.5745 140.946 44.6882 141.074C44.8019 141.201 44.9441 141.3 45.1146 141.371C45.2852 141.442 45.47 141.47 45.6974 141.47C45.9248 141.47 46.1096 141.442 46.2659 141.371C46.4365 141.3 46.5786 141.201 46.6923 141.074C46.806 140.946 46.8913 140.776 46.9624 140.592C47.0192 140.408 47.0619 140.181 47.0619 139.941Z" fill="white"/>
<path d="M52.8184 142.334H51.8093C51.6245 142.334 51.4824 142.263 51.4113 142.121L50.6154 140.72C50.6154 140.72 50.5301 140.62 50.4875 140.592C50.4448 140.564 50.3737 140.55 50.2885 140.55H50.0042V142.334H48.8813V137.534H50.4448C50.8001 137.534 51.0844 137.576 51.3402 137.647C51.5819 137.718 51.7809 137.817 51.9372 137.944C52.0936 138.072 52.2073 138.227 52.2783 138.397C52.3494 138.567 52.3778 138.766 52.3778 138.964C52.3778 139.119 52.3636 139.261 52.321 139.403C52.2783 139.544 52.2215 139.672 52.1362 139.785C52.0509 139.898 51.9514 140.012 51.8377 140.097C51.724 140.196 51.5819 140.266 51.4255 140.323C51.4966 140.366 51.5677 140.408 51.6245 140.465C51.6814 140.521 51.7382 140.592 51.7951 140.663L52.8184 142.334ZM50.4448 139.785C50.6012 139.785 50.7291 139.771 50.8286 139.728C50.9281 139.686 51.0276 139.643 51.0986 139.573C51.1697 139.502 51.2123 139.431 51.2408 139.332C51.2692 139.233 51.2834 139.148 51.2834 139.035C51.2834 138.822 51.2123 138.652 51.0702 138.539C50.9281 138.426 50.7149 138.355 50.4306 138.355H49.9758V139.785H50.4306H50.4448Z" fill="white"/>
<path d="M56.1441 141.442V142.334H53.2446V137.534H54.3674V141.442H56.1583H56.1441Z" fill="white"/>
<path d="M61.0906 139.941C61.0906 140.295 61.0338 140.606 60.9058 140.904C60.7921 141.201 60.6216 141.456 60.3942 141.668C60.181 141.881 59.9109 142.051 59.5982 142.164C59.2855 142.277 58.9444 142.348 58.5749 142.348H56.6987V137.548H58.5749C58.9444 137.548 59.2855 137.604 59.5982 137.732C59.9109 137.859 60.1668 138.015 60.3942 138.227C60.6074 138.44 60.7779 138.695 60.9058 138.992C61.0196 139.289 61.0906 139.601 61.0906 139.955V139.941ZM59.9393 139.941C59.9393 139.7 59.9109 139.488 59.8398 139.304C59.783 139.12 59.6835 138.95 59.5698 138.822C59.4561 138.695 59.314 138.581 59.1434 138.511C58.9728 138.44 58.7881 138.397 58.5749 138.397H57.8216V141.484H58.5749C58.7881 141.484 58.987 141.442 59.1434 141.371C59.314 141.3 59.4561 141.201 59.5698 141.059C59.6835 140.932 59.7688 140.762 59.8398 140.578C59.8967 140.38 59.9393 140.167 59.9393 139.927V139.941Z" fill="white"/>
<path d="M65.0559 137.534C65.3828 137.534 65.6671 137.562 65.9087 137.633C66.1361 137.689 66.3351 137.774 66.4773 137.888C66.6194 138.001 66.7331 138.142 66.8042 138.298C66.8752 138.454 66.9037 138.638 66.9037 138.836C66.9037 138.95 66.8894 139.049 66.861 139.148C66.8326 139.247 66.7757 139.346 66.7189 139.431C66.6478 139.516 66.5625 139.601 66.463 139.672C66.3636 139.743 66.2356 139.813 66.0935 139.856C66.4062 139.927 66.6478 140.054 66.8042 140.224C66.9605 140.394 67.0316 140.62 67.0316 140.889C67.0316 141.088 66.9889 141.286 66.9179 141.456C66.8326 141.626 66.7189 141.782 66.5625 141.923C66.4062 142.051 66.2214 142.15 65.994 142.235C65.7666 142.305 65.5108 142.348 65.2265 142.348H63.2935V137.548H65.0701L65.0559 137.534ZM64.4021 138.369V139.558H64.9849C65.1128 139.558 65.2265 139.558 65.326 139.53C65.4255 139.516 65.5108 139.488 65.5818 139.431C65.6529 139.389 65.7097 139.332 65.7382 139.247C65.7666 139.162 65.795 139.077 65.795 138.95C65.795 138.822 65.795 138.737 65.7524 138.666C65.724 138.596 65.6813 138.525 65.6245 138.482C65.5676 138.44 65.4965 138.397 65.397 138.383C65.3118 138.369 65.1981 138.355 65.0701 138.355H64.4163L64.4021 138.369ZM65.1838 141.498C65.326 141.498 65.4539 141.484 65.5392 141.442C65.6387 141.399 65.7097 141.357 65.7666 141.3C65.8234 141.243 65.8519 141.173 65.8803 141.102C65.8945 141.031 65.9087 140.946 65.9087 140.875C65.9087 140.79 65.9087 140.705 65.8803 140.635C65.8519 140.564 65.8234 140.507 65.7666 140.451C65.7097 140.408 65.6387 140.366 65.5392 140.337C65.4397 140.309 65.326 140.295 65.1838 140.295H64.4021V141.498H65.1838Z" fill="white"/>
<path d="M68.8367 138.397V139.516H70.3576V140.337H68.8367V141.484H70.8124V142.348H67.7139V137.548H70.8124V138.412H68.8367V138.397Z" fill="white"/>
<path d="M75.8297 142.334H74.9627C74.8632 142.334 74.7921 142.305 74.7211 142.263C74.65 142.22 74.6216 142.164 74.5931 142.093L74.3089 141.258H72.4754L72.1911 142.093C72.1911 142.093 72.12 142.206 72.0632 142.263C72.0063 142.305 71.9211 142.334 71.8358 142.334H70.9546L72.8165 137.534H73.9678L75.8297 142.334ZM74.053 140.493L73.6124 139.176C73.584 139.091 73.5414 138.992 73.4987 138.879C73.4561 138.766 73.4277 138.638 73.385 138.511C73.3566 138.638 73.314 138.766 73.2855 138.879C73.2571 138.992 73.2145 139.091 73.186 139.176L72.7454 140.479H74.0673L74.053 140.493Z" fill="white"/>
<path d="M78.0894 141.456C78.2457 141.456 78.3737 141.428 78.4874 141.385C78.6011 141.343 78.7006 141.272 78.7858 141.173C78.8711 141.088 78.928 140.974 78.9706 140.833C79.0133 140.705 79.0275 140.55 79.0275 140.38V137.534H80.1503V140.38C80.1503 140.677 80.1077 140.946 80.0082 141.187C79.9087 141.428 79.7808 141.64 79.596 141.824C79.4112 142.008 79.198 142.136 78.9422 142.235C78.6864 142.334 78.4021 142.376 78.0752 142.376C77.7483 142.376 77.464 142.334 77.2082 142.235C76.9523 142.136 76.7391 141.994 76.5544 141.824C76.3696 141.64 76.2417 141.428 76.1422 141.187C76.0427 140.946 76 140.677 76 140.38V137.534H77.1229V140.38C77.1229 140.55 77.1513 140.705 77.194 140.833C77.2366 140.96 77.2935 141.074 77.3787 141.173C77.464 141.272 77.5635 141.343 77.6772 141.385C77.7909 141.442 77.933 141.456 78.0752 141.456H78.0894Z" fill="white"/>
<path d="M84.5143 138.412H83.164V142.334H82.0412V138.412H80.6909V137.534H84.5285V138.412H84.5143Z" fill="white"/>
<path d="M86.2053 142.334H85.0825V137.534H86.2053V142.334Z" fill="white"/>
<path d="M88.2522 138.397V139.615H89.9009V140.479H88.2522V142.348H87.1294V137.548H90.2278V138.412H88.2522V138.397Z" fill="white"/>
<path d="M92.8999 141.456C93.0562 141.456 93.1842 141.428 93.2979 141.385C93.4116 141.343 93.5111 141.272 93.5963 141.173C93.6816 141.088 93.7385 140.974 93.7811 140.833C93.8238 140.705 93.838 140.55 93.838 140.38V137.534H94.9608V140.38C94.9608 140.677 94.9182 140.946 94.8187 141.187C94.7192 141.428 94.5913 141.64 94.4065 141.824C94.2217 142.008 94.0085 142.136 93.7527 142.235C93.4969 142.334 93.2126 142.376 92.8857 142.376C92.5588 142.376 92.2745 142.334 92.0187 142.235C91.7628 142.136 91.5496 141.994 91.3649 141.824C91.1801 141.64 91.0522 141.428 90.9527 141.187C90.8532 140.946 90.8105 140.677 90.8105 140.38V137.534H91.9334V140.38C91.9334 140.55 91.9618 140.705 92.0045 140.833C92.0471 140.96 92.104 141.074 92.1892 141.173C92.2745 141.272 92.374 141.343 92.4877 141.385C92.6014 141.442 92.7436 141.456 92.8857 141.456H92.8999Z" fill="white"/>
<path d="M98.7556 141.442V142.334H95.856V137.534H96.9789V141.442H98.7698H98.7556Z" fill="white"/>
<path d="M106.075 137.534V142.334H105.095V139.573C105.095 139.573 105.095 139.445 105.095 139.36C105.095 139.289 105.095 139.204 105.109 139.134L103.83 141.597C103.787 141.668 103.73 141.739 103.673 141.767C103.602 141.81 103.531 141.824 103.446 141.824H103.29C103.204 141.824 103.119 141.81 103.062 141.767C102.991 141.725 102.949 141.668 102.906 141.597L101.627 139.119C101.627 139.204 101.627 139.275 101.641 139.346C101.655 139.417 101.641 139.488 101.641 139.558V142.32H100.66V137.519H101.513C101.513 137.519 101.598 137.519 101.641 137.519C101.684 137.519 101.712 137.519 101.74 137.534C101.769 137.534 101.797 137.562 101.811 137.59C101.84 137.619 101.854 137.647 101.883 137.689L103.119 140.125C103.162 140.21 103.204 140.295 103.247 140.38C103.29 140.465 103.332 140.564 103.361 140.663C103.403 140.564 103.432 140.465 103.474 140.38C103.517 140.295 103.56 140.196 103.602 140.111L104.839 137.689C104.839 137.689 104.882 137.619 104.91 137.59C104.938 137.562 104.967 137.548 104.981 137.534C105.009 137.534 105.038 137.519 105.081 137.519C105.123 137.519 105.166 137.519 105.208 137.519H106.061L106.075 137.534Z" fill="white"/>
<path d="M108.137 138.397V139.516H109.657V140.337H108.137V141.484H110.112V142.348H107.014V137.548H110.112V138.412H108.137V138.397Z" fill="white"/>
<path d="M114.262 138.412H112.912V142.334H111.789V138.412H110.439V137.534H114.277V138.412H114.262Z" fill="white"/>
<path d="M118.683 142.334H117.816C117.716 142.334 117.645 142.305 117.574 142.263C117.503 142.22 117.475 142.164 117.446 142.093L117.162 141.258H115.328L115.044 142.093C115.044 142.093 114.973 142.206 114.916 142.263C114.859 142.305 114.774 142.334 114.689 142.334H113.808L115.67 137.534H116.821L118.683 142.334ZM116.906 140.493L116.466 139.176C116.437 139.091 116.394 138.992 116.352 138.879C116.309 138.766 116.281 138.638 116.238 138.511C116.21 138.638 116.167 138.766 116.139 138.879C116.11 138.992 116.068 139.091 116.039 139.176L115.598 140.479H116.92L116.906 140.493Z" fill="white"/>
<path d="M122.989 137.534L121.056 142.334H120.047L118.114 137.534H119.01C119.109 137.534 119.18 137.562 119.251 137.604C119.322 137.647 119.351 137.704 119.393 137.774L120.331 140.351C120.374 140.465 120.417 140.592 120.459 140.72C120.502 140.847 120.545 140.989 120.573 141.13C120.602 140.989 120.644 140.847 120.673 140.72C120.715 140.592 120.758 140.465 120.801 140.351L121.724 137.774C121.724 137.774 121.795 137.661 121.852 137.604C121.909 137.562 121.994 137.534 122.08 137.534H122.989Z" fill="white"/>
<path d="M124.496 138.397V139.516H126.017V140.337H124.496V141.484H126.472V142.348H123.373V137.548H126.472V138.412H124.496V138.397Z" fill="white"/>
<path d="M131.105 142.334H130.096C129.911 142.334 129.769 142.263 129.698 142.121L128.902 140.72C128.902 140.72 128.817 140.62 128.774 140.592C128.732 140.564 128.66 140.55 128.575 140.55H128.291V142.334H127.168V137.534H128.732C129.087 137.534 129.371 137.576 129.627 137.647C129.869 137.718 130.068 137.817 130.224 137.944C130.38 138.072 130.494 138.227 130.565 138.397C130.636 138.567 130.665 138.766 130.665 138.964C130.665 139.119 130.65 139.261 130.608 139.403C130.565 139.544 130.508 139.672 130.423 139.785C130.338 139.898 130.238 140.012 130.124 140.097C130.011 140.196 129.869 140.266 129.712 140.323C129.783 140.366 129.854 140.408 129.911 140.465C129.968 140.521 130.025 140.592 130.082 140.663L131.105 142.334ZM128.732 139.785C128.888 139.785 129.016 139.771 129.115 139.728C129.215 139.686 129.314 139.643 129.385 139.573C129.456 139.502 129.499 139.431 129.527 139.332C129.556 139.233 129.57 139.148 129.57 139.035C129.57 138.822 129.499 138.652 129.357 138.539C129.215 138.426 129.002 138.355 128.717 138.355H128.263V139.785H128.717H128.732Z" fill="white"/>
<path d="M134.189 138.511C134.189 138.511 134.118 138.61 134.09 138.624C134.062 138.638 134.005 138.666 133.948 138.666C133.891 138.666 133.848 138.652 133.777 138.624C133.706 138.596 133.649 138.553 133.578 138.511C133.507 138.468 133.422 138.44 133.322 138.397C133.223 138.355 133.123 138.355 132.996 138.355C132.782 138.355 132.626 138.397 132.527 138.482C132.427 138.567 132.37 138.695 132.37 138.836C132.37 138.935 132.399 139.006 132.47 139.077C132.527 139.148 132.612 139.19 132.711 139.247C132.811 139.304 132.924 139.332 133.052 139.374C133.18 139.417 133.308 139.459 133.45 139.502C133.578 139.544 133.72 139.601 133.848 139.672C133.976 139.742 134.09 139.813 134.189 139.912C134.289 140.012 134.374 140.139 134.431 140.281C134.488 140.422 134.531 140.592 134.531 140.79C134.531 141.017 134.488 141.215 134.417 141.413C134.346 141.612 134.232 141.781 134.076 141.923C133.934 142.065 133.749 142.178 133.536 142.263C133.322 142.348 133.081 142.39 132.797 142.39C132.64 142.39 132.498 142.376 132.342 142.348C132.185 142.32 132.029 142.277 131.887 142.22C131.745 142.164 131.603 142.093 131.475 142.022C131.347 141.951 131.233 141.852 131.134 141.767L131.461 141.243C131.461 141.243 131.517 141.173 131.56 141.144C131.603 141.116 131.645 141.102 131.702 141.102C131.773 141.102 131.83 141.116 131.901 141.158C131.972 141.201 132.043 141.243 132.129 141.3C132.214 141.357 132.313 141.399 132.427 141.442C132.541 141.484 132.669 141.498 132.811 141.498C133.01 141.498 133.166 141.456 133.28 141.371C133.394 141.286 133.45 141.144 133.45 140.946C133.45 140.833 133.422 140.748 133.351 140.677C133.294 140.606 133.209 140.55 133.109 140.507C133.01 140.465 132.896 140.422 132.768 140.38C132.64 140.351 132.512 140.309 132.37 140.266C132.228 140.224 132.1 140.167 131.972 140.111C131.844 140.054 131.731 139.969 131.631 139.87C131.532 139.771 131.446 139.643 131.389 139.488C131.333 139.332 131.29 139.148 131.29 138.921C131.29 138.737 131.333 138.567 131.404 138.397C131.475 138.227 131.588 138.072 131.731 137.944C131.873 137.817 132.043 137.703 132.256 137.619C132.47 137.534 132.697 137.505 132.967 137.505C133.109 137.505 133.266 137.505 133.394 137.534C133.536 137.562 133.664 137.59 133.791 137.633C133.919 137.675 134.033 137.732 134.147 137.788C134.261 137.845 134.36 137.916 134.445 138.001L134.161 138.525L134.189 138.511Z" fill="white"/>
<path d="M136.307 138.397V139.516H137.828V140.337H136.307V141.484H138.283V142.348H135.184V137.548H138.283V138.412H136.307V138.397Z" fill="white"/>
<path d="M144.892 139.941C144.892 140.295 144.835 140.606 144.707 140.904C144.594 141.201 144.423 141.456 144.196 141.668C143.982 141.881 143.712 142.051 143.4 142.164C143.087 142.277 142.746 142.348 142.376 142.348H140.5V137.548H142.376C142.746 137.548 143.087 137.604 143.4 137.732C143.712 137.859 143.968 138.015 144.196 138.227C144.409 138.44 144.579 138.695 144.707 138.992C144.821 139.289 144.892 139.601 144.892 139.955V139.941ZM143.741 139.941C143.741 139.7 143.712 139.488 143.641 139.304C143.584 139.12 143.485 138.95 143.371 138.822C143.258 138.695 143.115 138.581 142.945 138.511C142.774 138.44 142.589 138.397 142.376 138.397H141.623V141.484H142.376C142.589 141.484 142.788 141.442 142.945 141.371C143.115 141.3 143.258 141.201 143.371 141.059C143.485 140.932 143.57 140.762 143.641 140.578C143.698 140.38 143.741 140.167 143.741 139.927V139.941Z" fill="white"/>
<path d="M149.71 142.334H148.843C148.744 142.334 148.673 142.305 148.602 142.263C148.531 142.22 148.502 142.164 148.474 142.093L148.19 141.258H146.356L146.072 142.093C146.072 142.093 146.001 142.206 145.944 142.263C145.887 142.305 145.802 142.334 145.716 142.334H144.835L146.697 137.534H147.848L149.71 142.334ZM147.934 140.493L147.493 139.176C147.465 139.091 147.422 138.992 147.379 138.879C147.337 138.766 147.308 138.638 147.266 138.511C147.237 138.638 147.195 138.766 147.166 138.879C147.138 138.992 147.095 139.091 147.067 139.176L146.626 140.479H147.948L147.934 140.493Z" fill="white"/>
<path d="M153.093 138.412H151.743V142.334H150.62V138.412H149.27V137.534H153.107V138.412H153.093Z" fill="white"/>
<path d="M157.514 142.334H156.647C156.547 142.334 156.476 142.305 156.405 142.263C156.334 142.22 156.305 142.164 156.277 142.093L155.993 141.258H154.159L153.875 142.093C153.875 142.093 153.804 142.206 153.747 142.263C153.69 142.305 153.605 142.334 153.52 142.334H152.638L154.5 137.534H155.652L157.514 142.334ZM155.737 140.493L155.296 139.176C155.268 139.091 155.225 138.992 155.183 138.879C155.14 138.766 155.111 138.638 155.069 138.511C155.04 138.638 154.998 138.766 154.969 138.879C154.941 138.992 154.898 139.091 154.87 139.176L154.429 140.479H155.751L155.737 140.493Z" fill="white"/>
<path d="M23.2549 146.837V167H19.1189V155.403C19.1189 155.134 19.1189 154.851 19.1331 154.525C19.1331 154.214 19.1757 153.888 19.2042 153.577L13.8315 163.942C13.661 164.267 13.4336 164.508 13.1635 164.678C12.8792 164.848 12.5666 164.933 12.197 164.933H11.5574C11.2021 164.933 10.8752 164.848 10.5909 164.678C10.3066 164.508 10.0792 164.267 9.92286 163.942L4.55024 153.548C4.57867 153.874 4.60709 154.2 4.62131 154.525C4.63552 154.837 4.64973 155.134 4.64973 155.403V167H0.513672V146.837H4.09542C4.2944 146.837 4.47918 146.837 4.63552 146.837C4.79187 146.837 4.91979 146.879 5.04771 146.922C5.16141 146.964 5.27512 147.035 5.37461 147.134C5.47411 147.233 5.55938 147.361 5.65888 147.545L10.861 157.768C11.0457 158.122 11.2163 158.476 11.4011 158.858C11.5716 159.241 11.7422 159.623 11.8985 160.019C12.0549 159.609 12.2254 159.212 12.396 158.83C12.5666 158.448 12.7513 158.079 12.9503 157.725L18.1382 147.545C18.2377 147.375 18.3229 147.233 18.4224 147.134C18.5219 147.035 18.6356 146.964 18.7493 146.922C18.863 146.879 19.0052 146.851 19.1615 146.837C19.3179 146.822 19.4884 146.837 19.7016 146.837H23.2834H23.2549Z" fill="white"/>
<path d="M32.1808 150.433V155.134H38.5483V158.589H32.1808V163.389H40.4813V166.986H27.4478V146.822H40.4813V150.419H32.1808V150.433Z" fill="white"/>
<path d="M58.1911 150.546H52.4915V167H47.8012V150.546H42.1016V146.837H58.1768V150.546H58.1911Z" fill="white"/>
<path d="M77.0237 167H73.3851C72.9729 167 72.646 166.901 72.4044 166.717C72.1628 166.533 71.9638 166.292 71.8359 165.995L70.6419 162.483H62.9526L61.7586 165.995C61.6591 166.25 61.4744 166.49 61.2043 166.689C60.9343 166.901 60.6074 167 60.2236 167H56.5566L64.3881 146.837H69.1922L77.0237 167ZM69.5617 159.297L67.6856 153.775C67.5434 153.421 67.4013 153.01 67.245 152.543C67.0886 152.062 66.9323 151.552 66.7759 151C66.6338 151.566 66.4917 152.09 66.3353 152.557C66.179 153.039 66.0226 153.449 65.8947 153.803L64.0328 159.297H69.5759H69.5617Z" fill="white"/>
<path d="M86.3331 146.837C87.726 146.837 88.9199 146.964 89.9006 147.219C90.8814 147.474 91.6773 147.842 92.3027 148.309C92.9281 148.776 93.3687 149.357 93.653 150.022C93.9372 150.702 94.0794 151.453 94.0794 152.274C94.0794 152.727 94.0225 153.166 93.8804 153.577C93.7524 154.001 93.5535 154.384 93.2692 154.752C92.9849 155.12 92.6296 155.446 92.2032 155.757C91.7626 156.055 91.2509 156.324 90.6397 156.55C91.9758 156.876 92.9565 157.4 93.5961 158.108C94.2357 158.83 94.5484 159.764 94.5484 160.897C94.5484 161.761 94.3778 162.554 94.0509 163.29C93.724 164.026 93.2266 164.678 92.587 165.216C91.9474 165.768 91.1514 166.193 90.1991 166.504C89.2468 166.816 88.1808 166.972 86.9585 166.972H78.8711V146.808H86.3189L86.3331 146.837ZM83.5757 150.334V155.318H86.0204C86.5463 155.318 87.0011 155.276 87.4275 155.205C87.8397 155.134 88.1951 155.007 88.4935 154.823C88.792 154.639 89.0052 154.384 89.1616 154.058C89.3179 153.732 89.389 153.336 89.389 152.84C89.389 152.345 89.3321 151.962 89.2042 151.651C89.0905 151.325 88.8915 151.07 88.6499 150.886C88.4082 150.702 88.0813 150.561 87.6976 150.476C87.3138 150.391 86.859 150.348 86.3331 150.348H83.5757V150.334ZM86.8874 163.46C87.5128 163.46 88.0103 163.375 88.4083 163.219C88.8062 163.064 89.1047 162.865 89.3321 162.61C89.5595 162.356 89.7017 162.087 89.7869 161.761C89.8722 161.449 89.9149 161.124 89.9149 160.812C89.9149 160.444 89.8722 160.118 89.7727 159.821C89.6732 159.524 89.5027 159.283 89.2753 159.071C89.0336 158.872 88.7209 158.717 88.3372 158.603C87.9534 158.49 87.456 158.433 86.859 158.433H83.5757V163.46H86.8874Z" fill="white"/>
<path d="M115.57 167H111.931C111.519 167 111.192 166.901 110.951 166.717C110.709 166.533 110.51 166.292 110.382 165.995L109.188 162.483H101.499L100.305 165.995C100.206 166.25 100.021 166.49 99.7507 166.689C99.4807 166.901 99.1537 167 98.77 167H95.103L102.934 146.837H107.739L115.57 167ZM108.108 159.297L106.232 153.775C106.09 153.421 105.948 153.01 105.791 152.543C105.635 152.062 105.479 151.552 105.322 151C105.18 151.566 105.038 152.09 104.882 152.557C104.725 153.039 104.569 153.449 104.441 153.803L102.579 159.297H108.122H108.108Z" fill="white"/>
<path d="M135.113 146.837V167H132.669C132.313 167 132.001 166.943 131.759 166.83C131.517 166.717 131.276 166.519 131.034 166.221L121.497 154.2C121.54 154.554 121.554 154.908 121.568 155.247C121.582 155.587 121.582 155.899 121.582 156.196V167H117.446V146.837H119.919C120.118 146.837 120.289 146.837 120.431 146.865C120.573 146.893 120.701 146.922 120.801 146.964C120.9 147.007 121.014 147.091 121.113 147.176C121.213 147.276 121.326 147.389 121.454 147.545L131.077 159.651C131.034 159.269 130.991 158.887 130.977 158.518C130.963 158.15 130.949 157.81 130.949 157.485V146.822H135.085L135.113 146.837Z" fill="white"/>
<path d="M143.997 154.993H144.75C145.447 154.993 145.944 154.78 146.242 154.341L150.805 147.757C151.075 147.403 151.359 147.162 151.672 147.035C151.985 146.907 152.368 146.837 152.837 146.837H156.917L150.919 154.978C150.492 155.545 150.037 155.941 149.54 156.196C149.895 156.324 150.208 156.508 150.492 156.734C150.777 156.961 151.047 157.272 151.302 157.64L157.414 166.986H153.221C152.951 166.986 152.724 166.972 152.539 166.929C152.354 166.887 152.184 166.844 152.041 166.759C151.899 166.689 151.786 166.589 151.686 166.49C151.587 166.377 151.487 166.264 151.388 166.122L146.811 159.113C146.64 158.858 146.427 158.674 146.171 158.561C145.916 158.448 145.574 158.405 145.134 158.405H143.997V166.986H139.306V146.822H143.997V154.978V154.993Z" fill="white"/>
</g>
<defs>
<clipPath id="clip0_37_1498">
<rect width="158" height="167" fill="white"/>
</clipPath>
</defs>
</svg>
