<svg width="158" height="167" viewBox="0 0 158 167" fill="none" xmlns="http://www.w3.org/2000/svg">
<path d="M79.1128 0L27.0922 29.9195V89.7586L79.1128 119.678L131.133 89.7586V29.9195L79.1128 0ZM91.5353 59.8391L118.711 44.2067V75.4714L91.5353 59.8391ZM112.5 33.4878L79.1128 52.6884L45.7258 33.4878L79.1128 14.2872L112.5 33.4878ZM66.6904 59.8391L39.5146 75.4714V44.2067L66.6904 59.8391ZM45.7258 86.1903L79.1128 66.9897L112.5 86.1903L79.1128 105.391L45.7258 86.1903Z" fill="#3693D1"/>
<path d="M2.54607 137.534C2.87298 137.534 3.15724 137.562 3.39887 137.633C3.62628 137.689 3.82527 137.774 3.9674 137.888C4.10953 138.001 4.22324 138.142 4.2943 138.298C4.36537 138.454 4.3938 138.638 4.3938 138.836C4.3938 138.95 4.37958 139.049 4.35116 139.148C4.32273 139.247 4.26588 139.346 4.20902 139.431C4.13796 139.516 4.05268 139.601 3.95319 139.672C3.85369 139.743 3.72577 139.813 3.58364 139.856C3.89633 139.927 4.13796 140.054 4.2943 140.224C4.45065 140.394 4.52172 140.62 4.52172 140.889C4.52172 141.088 4.47908 141.286 4.40801 141.456C4.32273 141.626 4.20902 141.782 4.05268 141.923C3.89633 142.051 3.71156 142.15 3.48415 142.235C3.25673 142.305 3.00089 142.348 2.71663 142.348H0.769409V137.548H2.54607V137.534ZM1.89226 138.369V139.558H2.475C2.60292 139.558 2.71663 139.558 2.81612 139.53C2.91562 139.516 3.00089 139.488 3.07196 139.431C3.14303 139.389 3.19988 139.332 3.22831 139.247C3.25673 139.162 3.28516 139.077 3.28516 138.95C3.28516 138.822 3.28516 138.737 3.24252 138.666C3.21409 138.596 3.17145 138.525 3.1146 138.482C3.05775 138.44 2.98668 138.397 2.88719 138.383C2.80191 138.369 2.6882 138.355 2.56028 138.355H1.90647L1.89226 138.369ZM2.67399 141.498C2.81612 141.498 2.94404 141.484 3.02932 141.442C3.12881 141.399 3.19988 141.357 3.25673 141.3C3.31359 141.243 3.34201 141.173 3.37044 141.102C3.38465 141.031 3.39887 140.946 3.39887 140.875C3.39887 140.79 3.39887 140.705 3.37044 140.635C3.34201 140.564 3.31359 140.507 3.25673 140.451C3.19988 140.408 3.12881 140.366 3.02932 140.337C2.92983 140.309 2.81612 140.295 2.67399 140.295H1.89226V141.498H2.67399Z" fill="#3693D1"/>
<path d="M7.20788 141.456C7.36423 141.456 7.49215 141.428 7.60585 141.385C7.71956 141.343 7.81905 141.272 7.90433 141.173C7.98961 141.088 8.04647 140.974 8.08911 140.833C8.13175 140.705 8.14596 140.55 8.14596 140.38V137.534H9.26881V140.38C9.26881 140.677 9.22617 140.946 9.12668 141.187C9.02718 141.428 8.89926 141.64 8.71449 141.824C8.52972 142.008 8.31652 142.136 8.06068 142.235C7.80484 142.334 7.52058 142.376 7.19367 142.376C6.86676 142.376 6.5825 142.334 6.32666 142.235C6.07082 142.136 5.85762 141.994 5.67285 141.824C5.48808 141.64 5.36016 141.428 5.26066 141.187C5.16117 140.946 5.11853 140.677 5.11853 140.38V137.534H6.24138V140.38C6.24138 140.55 6.26981 140.705 6.31245 140.833C6.35509 140.96 6.41194 141.074 6.49722 141.173C6.5825 141.272 6.68199 141.343 6.7957 141.385C6.9094 141.442 7.05154 141.456 7.19367 141.456H7.20788Z" fill="#3693D1"/>
<path d="M11.2872 142.334H10.1644V137.534H11.2872V142.334Z" fill="#3693D1"/>
<path d="M15.1247 141.442V142.334H12.2252V137.534H13.348V141.442H15.1389H15.1247Z" fill="#3693D1"/>
<path d="M20.071 139.941C20.071 140.295 20.0141 140.606 19.8862 140.904C19.7725 141.201 19.6019 141.456 19.3745 141.668C19.1613 141.881 18.8913 142.051 18.5786 142.164C18.2659 142.277 17.9248 142.348 17.5552 142.348H15.6791V137.548H17.5552C17.9248 137.548 18.2659 137.604 18.5786 137.732C18.8913 137.859 19.1471 138.015 19.3745 138.227C19.5877 138.44 19.7583 138.695 19.8862 138.992C19.9999 139.289 20.071 139.601 20.071 139.955V139.941ZM18.9197 139.941C18.9197 139.7 18.8913 139.488 18.8202 139.304C18.7634 139.12 18.6639 138.95 18.5502 138.822C18.4365 138.695 18.2943 138.581 18.1238 138.511C17.9532 138.44 17.7684 138.397 17.5552 138.397H16.8019V141.484H17.5552C17.7684 141.484 17.9674 141.442 18.1238 141.371C18.2943 141.3 18.4365 141.201 18.5502 141.059C18.6639 140.932 18.7491 140.762 18.8202 140.578C18.8771 140.38 18.9197 140.167 18.9197 139.927V139.941Z" fill="#3693D1"/>
<path d="M25.5289 138.412H24.1787V142.334H23.0558V138.412H21.7056V137.534H25.5432V138.412H25.5289Z" fill="#3693D1"/>
<path d="M30.3045 137.534V142.334H29.1816V140.309H27.2202V142.334H26.0974V137.534H27.2202V139.544H29.1816V137.534H30.3045Z" fill="#3693D1"/>
<path d="M32.3655 138.397V139.516H33.8863V140.337H32.3655V141.484H34.3411V142.348H31.2426V137.548H34.3411V138.412H32.3655V138.397Z" fill="#3693D1"/>
<path d="M43.125 137.534L41.6326 142.334H40.6235L39.7138 139.36C39.7138 139.36 39.6854 139.261 39.657 139.204C39.6285 139.148 39.6285 139.091 39.6143 139.035C39.6001 139.091 39.5859 139.148 39.5717 139.204C39.5575 139.261 39.5433 139.318 39.529 139.36L38.6052 142.334H37.596L36.1036 137.534H37.0417C37.1412 137.534 37.2123 137.562 37.2833 137.604C37.3544 137.647 37.397 137.704 37.4113 137.774L38.0793 140.281C38.0935 140.366 38.1219 140.451 38.1361 140.535C38.1503 140.62 38.1788 140.72 38.193 140.833C38.2356 140.62 38.2783 140.436 38.3351 140.281L39.1169 137.774C39.1169 137.774 39.1737 137.661 39.2448 137.604C39.3016 137.562 39.3869 137.534 39.4864 137.534H39.8133C39.9128 137.534 39.9839 137.562 40.0549 137.604C40.126 137.647 40.1544 137.704 40.1971 137.774L40.9646 140.281C41.0214 140.436 41.0641 140.606 41.1067 140.805C41.1209 140.705 41.1494 140.606 41.1636 140.521C41.1778 140.436 41.2062 140.351 41.2204 140.281L41.8884 137.774C41.8884 137.774 41.9453 137.661 42.0164 137.604C42.0874 137.562 42.1585 137.534 42.258 137.534H43.1392H43.125Z" fill="#3693D1"/>
<path d="M48.2133 139.941C48.2133 140.295 48.1565 140.606 48.0286 140.904C47.9148 141.201 47.7443 141.47 47.5169 141.682C47.3037 141.909 47.0336 142.079 46.7209 142.206C46.4082 142.334 46.0671 142.39 45.6976 142.39C45.328 142.39 44.9869 142.334 44.6742 142.206C44.3615 142.079 44.1057 141.909 43.8783 141.682C43.6651 141.456 43.4945 141.201 43.3666 140.904C43.2529 140.606 43.1818 140.281 43.1818 139.941C43.1818 139.601 43.2387 139.275 43.3666 138.964C43.4803 138.666 43.6509 138.411 43.8783 138.185C44.1057 137.958 44.3615 137.788 44.6742 137.661C44.9869 137.534 45.328 137.477 45.6976 137.477C46.0671 137.477 46.4082 137.534 46.7209 137.661C47.0336 137.788 47.2895 137.958 47.5169 138.185C47.7301 138.411 47.9006 138.666 48.0286 138.964C48.1423 139.261 48.2133 139.587 48.2133 139.927V139.941ZM47.0621 139.941C47.0621 139.7 47.0336 139.488 46.9626 139.304C46.9057 139.119 46.8062 138.95 46.6925 138.822C46.5788 138.695 46.4367 138.596 46.2661 138.525C46.0955 138.454 45.9108 138.426 45.6976 138.426C45.4844 138.426 45.2854 138.454 45.1148 138.525C44.9443 138.596 44.8021 138.695 44.6884 138.822C44.5747 138.95 44.4894 139.119 44.4184 139.304C44.3615 139.488 44.3189 139.714 44.3189 139.941C44.3189 140.167 44.3473 140.394 44.4184 140.592C44.4752 140.776 44.5747 140.946 44.6884 141.074C44.8021 141.201 44.9443 141.3 45.1148 141.371C45.2854 141.442 45.4702 141.47 45.6976 141.47C45.925 141.47 46.1098 141.442 46.2661 141.371C46.4367 141.3 46.5788 141.201 46.6925 141.074C46.8062 140.946 46.8915 140.776 46.9626 140.592C47.0194 140.408 47.0621 140.181 47.0621 139.941Z" fill="#3693D1"/>
<path d="M52.8184 142.334H51.8093C51.6245 142.334 51.4824 142.263 51.4113 142.121L50.6154 140.72C50.6154 140.72 50.5301 140.62 50.4875 140.592C50.4448 140.564 50.3737 140.55 50.2885 140.55H50.0042V142.334H48.8813V137.534H50.4448C50.8001 137.534 51.0844 137.576 51.3402 137.647C51.5819 137.718 51.7809 137.817 51.9372 137.944C52.0936 138.072 52.2073 138.227 52.2783 138.397C52.3494 138.567 52.3778 138.766 52.3778 138.964C52.3778 139.119 52.3636 139.261 52.321 139.403C52.2783 139.544 52.2215 139.672 52.1362 139.785C52.0509 139.898 51.9514 140.012 51.8377 140.097C51.724 140.196 51.5819 140.266 51.4255 140.323C51.4966 140.366 51.5677 140.408 51.6245 140.465C51.6814 140.521 51.7382 140.592 51.7951 140.663L52.8184 142.334ZM50.4448 139.785C50.6012 139.785 50.7291 139.771 50.8286 139.728C50.9281 139.686 51.0276 139.643 51.0986 139.573C51.1697 139.502 51.2123 139.431 51.2408 139.332C51.2692 139.233 51.2834 139.148 51.2834 139.035C51.2834 138.822 51.2123 138.652 51.0702 138.539C50.9281 138.426 50.7149 138.355 50.4306 138.355H49.9758V139.785H50.4306H50.4448Z" fill="#3693D1"/>
<path d="M56.1443 141.442V142.334H53.2448V137.534H54.3676V141.442H56.1585H56.1443Z" fill="#3693D1"/>
<path d="M61.0905 139.941C61.0905 140.295 61.0337 140.606 60.9057 140.904C60.792 141.201 60.6215 141.456 60.3941 141.668C60.1809 141.881 59.9108 142.051 59.5981 142.164C59.2854 142.277 58.9443 142.348 58.5748 142.348H56.6986V137.548H58.5748C58.9443 137.548 59.2854 137.604 59.5981 137.732C59.9108 137.859 60.1667 138.015 60.3941 138.227C60.6073 138.44 60.7778 138.695 60.9057 138.992C61.0195 139.289 61.0905 139.601 61.0905 139.955V139.941ZM59.9392 139.941C59.9392 139.7 59.9108 139.488 59.8397 139.304C59.7829 139.12 59.6834 138.95 59.5697 138.822C59.456 138.695 59.3139 138.581 59.1433 138.511C58.9727 138.44 58.788 138.397 58.5748 138.397H57.8215V141.484H58.5748C58.788 141.484 58.9869 141.442 59.1433 141.371C59.3139 141.3 59.456 141.201 59.5697 141.059C59.6834 140.932 59.7687 140.762 59.8397 140.578C59.8966 140.38 59.9392 140.167 59.9392 139.927V139.941Z" fill="#3693D1"/>
<path d="M65.056 137.534C65.3829 137.534 65.6672 137.562 65.9088 137.633C66.1362 137.689 66.3352 137.774 66.4774 137.888C66.6195 138.001 66.7332 138.142 66.8043 138.298C66.8753 138.454 66.9038 138.638 66.9038 138.836C66.9038 138.95 66.8895 139.049 66.8611 139.148C66.8327 139.247 66.7758 139.346 66.719 139.431C66.6479 139.516 66.5626 139.601 66.4631 139.672C66.3637 139.743 66.2357 139.813 66.0936 139.856C66.4063 139.927 66.6479 140.054 66.8043 140.224C66.9606 140.394 67.0317 140.62 67.0317 140.889C67.0317 141.088 66.989 141.286 66.918 141.456C66.8327 141.626 66.719 141.782 66.5626 141.923C66.4063 142.051 66.2215 142.15 65.9941 142.235C65.7667 142.305 65.5109 142.348 65.2266 142.348H63.2936V137.548H65.0702L65.056 137.534ZM64.4022 138.369V139.558H64.985C65.1129 139.558 65.2266 139.558 65.3261 139.53C65.4256 139.516 65.5109 139.488 65.5819 139.431C65.653 139.389 65.7098 139.332 65.7383 139.247C65.7667 139.162 65.7951 139.077 65.7951 138.95C65.7951 138.822 65.7951 138.737 65.7525 138.666C65.7241 138.596 65.6814 138.525 65.6246 138.482C65.5677 138.44 65.4966 138.397 65.3971 138.383C65.3119 138.369 65.1982 138.355 65.0702 138.355H64.4164L64.4022 138.369ZM65.1839 141.498C65.3261 141.498 65.454 141.484 65.5393 141.442C65.6388 141.399 65.7098 141.357 65.7667 141.3C65.8235 141.243 65.852 141.173 65.8804 141.102C65.8946 141.031 65.9088 140.946 65.9088 140.875C65.9088 140.79 65.9088 140.705 65.8804 140.635C65.852 140.564 65.8235 140.507 65.7667 140.451C65.7098 140.408 65.6388 140.366 65.5393 140.337C65.4398 140.309 65.3261 140.295 65.1839 140.295H64.4022V141.498H65.1839Z" fill="#3693D1"/>
<path d="M68.8368 138.397V139.516H70.3577V140.337H68.8368V141.484H70.8125V142.348H67.714V137.548H70.8125V138.412H68.8368V138.397Z" fill="#3693D1"/>
<path d="M75.8298 142.334H74.9628C74.8633 142.334 74.7922 142.305 74.7212 142.263C74.6501 142.22 74.6217 142.164 74.5932 142.093L74.309 141.258H72.4755L72.1912 142.093C72.1912 142.093 72.1201 142.206 72.0633 142.263C72.0064 142.305 71.9212 142.334 71.8359 142.334H70.9547L72.8166 137.534H73.9679L75.8298 142.334ZM74.0531 140.493L73.6125 139.176C73.5841 139.091 73.5415 138.992 73.4988 138.879C73.4562 138.766 73.4278 138.638 73.3851 138.511C73.3567 138.638 73.3141 138.766 73.2856 138.879C73.2572 138.992 73.2146 139.091 73.1861 139.176L72.7455 140.479H74.0674L74.0531 140.493Z" fill="#3693D1"/>
<path d="M78.0896 141.456C78.2459 141.456 78.3739 141.428 78.4876 141.385C78.6013 141.343 78.7008 141.272 78.786 141.173C78.8713 141.088 78.9282 140.974 78.9708 140.833C79.0135 140.705 79.0277 140.55 79.0277 140.38V137.534H80.1505V140.38C80.1505 140.677 80.1079 140.946 80.0084 141.187C79.9089 141.428 79.781 141.64 79.5962 141.824C79.4114 142.008 79.1982 142.136 78.9424 142.235C78.6866 142.334 78.4023 142.376 78.0754 142.376C77.7485 142.376 77.4642 142.334 77.2084 142.235C76.9525 142.136 76.7393 141.994 76.5546 141.824C76.3698 141.64 76.2419 141.428 76.1424 141.187C76.0429 140.946 76.0002 140.677 76.0002 140.38V137.534H77.1231V140.38C77.1231 140.55 77.1515 140.705 77.1942 140.833C77.2368 140.96 77.2937 141.074 77.3789 141.173C77.4642 141.272 77.5637 141.343 77.6774 141.385C77.7911 141.442 77.9332 141.456 78.0754 141.456H78.0896Z" fill="#3693D1"/>
<path d="M84.5141 138.412H83.1638V142.334H82.041V138.412H80.6907V137.534H84.5283V138.412H84.5141Z" fill="#3693D1"/>
<path d="M86.2054 142.334H85.0826V137.534H86.2054V142.334Z" fill="#3693D1"/>
<path d="M88.252 138.397V139.615H89.9007V140.479H88.252V142.348H87.1292V137.548H90.2276V138.412H88.252V138.397Z" fill="#3693D1"/>
<path d="M92.8999 141.456C93.0562 141.456 93.1842 141.428 93.2979 141.385C93.4116 141.343 93.5111 141.272 93.5963 141.173C93.6816 141.088 93.7385 140.974 93.7811 140.833C93.8238 140.705 93.838 140.55 93.838 140.38V137.534H94.9608V140.38C94.9608 140.677 94.9182 140.946 94.8187 141.187C94.7192 141.428 94.5913 141.64 94.4065 141.824C94.2217 142.008 94.0085 142.136 93.7527 142.235C93.4969 142.334 93.2126 142.376 92.8857 142.376C92.5588 142.376 92.2745 142.334 92.0187 142.235C91.7628 142.136 91.5496 141.994 91.3649 141.824C91.1801 141.64 91.0522 141.428 90.9527 141.187C90.8532 140.946 90.8105 140.677 90.8105 140.38V137.534H91.9334V140.38C91.9334 140.55 91.9618 140.705 92.0045 140.833C92.0471 140.96 92.104 141.074 92.1892 141.173C92.2745 141.272 92.374 141.343 92.4877 141.385C92.6014 141.442 92.7436 141.456 92.8857 141.456H92.8999Z" fill="#3693D1"/>
<path d="M98.7557 141.442V142.334H95.8561V137.534H96.979V141.442H98.7699H98.7557Z" fill="#3693D1"/>
<path d="M106.075 137.534V142.334H105.095V139.573C105.095 139.573 105.095 139.445 105.095 139.36C105.095 139.289 105.095 139.204 105.109 139.134L103.83 141.597C103.787 141.668 103.73 141.739 103.673 141.767C103.602 141.81 103.531 141.824 103.446 141.824H103.29C103.204 141.824 103.119 141.81 103.062 141.767C102.991 141.725 102.949 141.668 102.906 141.597L101.627 139.119C101.627 139.204 101.627 139.275 101.641 139.346C101.655 139.417 101.641 139.488 101.641 139.558V142.32H100.66V137.519H101.513C101.513 137.519 101.598 137.519 101.641 137.519C101.684 137.519 101.712 137.519 101.74 137.534C101.769 137.534 101.797 137.562 101.811 137.59C101.84 137.619 101.854 137.647 101.883 137.689L103.119 140.125C103.162 140.21 103.204 140.295 103.247 140.38C103.29 140.465 103.332 140.564 103.361 140.663C103.403 140.564 103.432 140.465 103.474 140.38C103.517 140.295 103.56 140.196 103.602 140.111L104.839 137.689C104.839 137.689 104.882 137.619 104.91 137.59C104.938 137.562 104.967 137.548 104.981 137.534C105.009 137.534 105.038 137.519 105.081 137.519C105.123 137.519 105.166 137.519 105.208 137.519H106.061L106.075 137.534Z" fill="#3693D1"/>
<path d="M108.137 138.397V139.516H109.657V140.337H108.137V141.484H110.112V142.348H107.014V137.548H110.112V138.412H108.137V138.397Z" fill="#3693D1"/>
<path d="M114.262 138.412H112.912V142.334H111.789V138.412H110.439V137.534H114.277V138.412H114.262Z" fill="#3693D1"/>
<path d="M118.683 142.334H117.816C117.716 142.334 117.645 142.305 117.574 142.263C117.503 142.22 117.475 142.164 117.446 142.093L117.162 141.258H115.328L115.044 142.093C115.044 142.093 114.973 142.206 114.916 142.263C114.859 142.305 114.774 142.334 114.689 142.334H113.808L115.67 137.534H116.821L118.683 142.334ZM116.906 140.493L116.466 139.176C116.437 139.091 116.394 138.992 116.352 138.879C116.309 138.766 116.281 138.638 116.238 138.511C116.21 138.638 116.167 138.766 116.139 138.879C116.11 138.992 116.068 139.091 116.039 139.176L115.598 140.479H116.92L116.906 140.493Z" fill="#3693D1"/>
<path d="M122.989 137.534L121.056 142.334H120.047L118.114 137.534H119.01C119.109 137.534 119.18 137.562 119.251 137.604C119.322 137.647 119.351 137.704 119.393 137.774L120.331 140.351C120.374 140.465 120.417 140.592 120.459 140.72C120.502 140.847 120.545 140.989 120.573 141.13C120.602 140.989 120.644 140.847 120.673 140.72C120.715 140.592 120.758 140.465 120.801 140.351L121.724 137.774C121.724 137.774 121.795 137.661 121.852 137.604C121.909 137.562 121.994 137.534 122.08 137.534H122.989Z" fill="#3693D1"/>
<path d="M124.496 138.397V139.516H126.017V140.337H124.496V141.484H126.472V142.348H123.373V137.548H126.472V138.412H124.496V138.397Z" fill="#3693D1"/>
<path d="M131.105 142.334H130.096C129.911 142.334 129.769 142.263 129.698 142.121L128.902 140.72C128.902 140.72 128.817 140.62 128.774 140.592C128.732 140.564 128.66 140.55 128.575 140.55H128.291V142.334H127.168V137.534H128.732C129.087 137.534 129.371 137.576 129.627 137.647C129.869 137.718 130.068 137.817 130.224 137.944C130.38 138.072 130.494 138.227 130.565 138.397C130.636 138.567 130.665 138.766 130.665 138.964C130.665 139.119 130.65 139.261 130.608 139.403C130.565 139.544 130.508 139.672 130.423 139.785C130.338 139.898 130.238 140.012 130.124 140.097C130.011 140.196 129.869 140.266 129.712 140.323C129.783 140.366 129.854 140.408 129.911 140.465C129.968 140.521 130.025 140.592 130.082 140.663L131.105 142.334ZM128.732 139.785C128.888 139.785 129.016 139.771 129.115 139.728C129.215 139.686 129.314 139.643 129.385 139.573C129.456 139.502 129.499 139.431 129.527 139.332C129.556 139.233 129.57 139.148 129.57 139.035C129.57 138.822 129.499 138.652 129.357 138.539C129.215 138.426 129.002 138.355 128.717 138.355H128.263V139.785H128.717H128.732Z" fill="#3693D1"/>
<path d="M134.189 138.511C134.189 138.511 134.118 138.61 134.09 138.624C134.062 138.638 134.005 138.666 133.948 138.666C133.891 138.666 133.848 138.652 133.777 138.624C133.706 138.596 133.649 138.553 133.578 138.511C133.507 138.468 133.422 138.44 133.322 138.397C133.223 138.355 133.123 138.355 132.996 138.355C132.782 138.355 132.626 138.397 132.527 138.482C132.427 138.567 132.37 138.695 132.37 138.836C132.37 138.935 132.399 139.006 132.47 139.077C132.527 139.148 132.612 139.19 132.711 139.247C132.811 139.304 132.924 139.332 133.052 139.374C133.18 139.417 133.308 139.459 133.45 139.502C133.578 139.544 133.72 139.601 133.848 139.672C133.976 139.742 134.09 139.813 134.189 139.912C134.289 140.012 134.374 140.139 134.431 140.281C134.488 140.422 134.531 140.592 134.531 140.79C134.531 141.017 134.488 141.215 134.417 141.413C134.346 141.612 134.232 141.781 134.076 141.923C133.934 142.065 133.749 142.178 133.536 142.263C133.322 142.348 133.081 142.39 132.797 142.39C132.64 142.39 132.498 142.376 132.342 142.348C132.185 142.32 132.029 142.277 131.887 142.22C131.745 142.164 131.603 142.093 131.475 142.022C131.347 141.951 131.233 141.852 131.134 141.767L131.461 141.243C131.461 141.243 131.517 141.173 131.56 141.144C131.603 141.116 131.645 141.102 131.702 141.102C131.773 141.102 131.83 141.116 131.901 141.158C131.972 141.201 132.043 141.243 132.129 141.3C132.214 141.357 132.313 141.399 132.427 141.442C132.541 141.484 132.669 141.498 132.811 141.498C133.01 141.498 133.166 141.456 133.28 141.371C133.394 141.286 133.45 141.144 133.45 140.946C133.45 140.833 133.422 140.748 133.351 140.677C133.294 140.606 133.209 140.55 133.109 140.507C133.01 140.465 132.896 140.422 132.768 140.38C132.64 140.351 132.512 140.309 132.37 140.266C132.228 140.224 132.1 140.167 131.972 140.111C131.844 140.054 131.731 139.969 131.631 139.87C131.532 139.771 131.446 139.643 131.389 139.488C131.333 139.332 131.29 139.148 131.29 138.921C131.29 138.737 131.333 138.567 131.404 138.397C131.475 138.227 131.588 138.072 131.731 137.944C131.873 137.817 132.043 137.703 132.256 137.619C132.47 137.534 132.697 137.505 132.967 137.505C133.109 137.505 133.266 137.505 133.394 137.534C133.536 137.562 133.664 137.59 133.791 137.633C133.919 137.675 134.033 137.732 134.147 137.788C134.261 137.845 134.36 137.916 134.445 138.001L134.161 138.525L134.189 138.511Z" fill="#3693D1"/>
<path d="M136.307 138.397V139.516H137.828V140.337H136.307V141.484H138.283V142.348H135.184V137.548H138.283V138.412H136.307V138.397Z" fill="#3693D1"/>
<path d="M144.892 139.941C144.892 140.295 144.835 140.606 144.707 140.904C144.594 141.201 144.423 141.456 144.196 141.668C143.982 141.881 143.712 142.051 143.4 142.164C143.087 142.277 142.746 142.348 142.376 142.348H140.5V137.548H142.376C142.746 137.548 143.087 137.604 143.4 137.732C143.712 137.859 143.968 138.015 144.196 138.227C144.409 138.44 144.579 138.695 144.707 138.992C144.821 139.289 144.892 139.601 144.892 139.955V139.941ZM143.741 139.941C143.741 139.7 143.712 139.488 143.641 139.304C143.584 139.12 143.485 138.95 143.371 138.822C143.258 138.695 143.115 138.581 142.945 138.511C142.774 138.44 142.589 138.397 142.376 138.397H141.623V141.484H142.376C142.589 141.484 142.788 141.442 142.945 141.371C143.115 141.3 143.258 141.201 143.371 141.059C143.485 140.932 143.57 140.762 143.641 140.578C143.698 140.38 143.741 140.167 143.741 139.927V139.941Z" fill="#3693D1"/>
<path d="M149.71 142.334H148.843C148.744 142.334 148.673 142.305 148.602 142.263C148.531 142.22 148.502 142.164 148.474 142.093L148.19 141.258H146.356L146.072 142.093C146.072 142.093 146.001 142.206 145.944 142.263C145.887 142.305 145.802 142.334 145.716 142.334H144.835L146.697 137.534H147.848L149.71 142.334ZM147.934 140.493L147.493 139.176C147.465 139.091 147.422 138.992 147.379 138.879C147.337 138.766 147.308 138.638 147.266 138.511C147.237 138.638 147.195 138.766 147.166 138.879C147.138 138.992 147.095 139.091 147.067 139.176L146.626 140.479H147.948L147.934 140.493Z" fill="#3693D1"/>
<path d="M153.093 138.412H151.743V142.334H150.62V138.412H149.27V137.534H153.107V138.412H153.093Z" fill="#3693D1"/>
<path d="M157.514 142.334H156.647C156.547 142.334 156.476 142.305 156.405 142.263C156.334 142.22 156.305 142.164 156.277 142.093L155.993 141.258H154.159L153.875 142.093C153.875 142.093 153.804 142.206 153.747 142.263C153.69 142.305 153.605 142.334 153.52 142.334H152.638L154.5 137.534H155.652L157.514 142.334ZM155.737 140.493L155.296 139.176C155.268 139.091 155.225 138.992 155.183 138.879C155.14 138.766 155.111 138.638 155.069 138.511C155.04 138.638 154.998 138.766 154.969 138.879C154.941 138.992 154.898 139.091 154.87 139.176L154.429 140.479H155.751L155.737 140.493Z" fill="#3693D1"/>
<path d="M23.2547 146.837V167H19.1187V155.403C19.1187 155.134 19.1187 154.851 19.1329 154.525C19.1329 154.214 19.1755 153.888 19.204 153.577L13.8313 163.942C13.6608 164.267 13.4334 164.508 13.1633 164.678C12.879 164.848 12.5664 164.933 12.1968 164.933H11.5572C11.2019 164.933 10.875 164.848 10.5907 164.678C10.3064 164.508 10.079 164.267 9.92268 163.942L4.55006 153.548C4.57849 153.874 4.60691 154.2 4.62113 154.525C4.63534 154.837 4.64955 155.134 4.64955 155.403V167H0.513489V146.837H4.09524C4.29422 146.837 4.479 146.837 4.63534 146.837C4.79169 146.837 4.91961 146.879 5.04753 146.922C5.16123 146.964 5.27494 147.035 5.37443 147.134C5.47393 147.233 5.5592 147.361 5.6587 147.545L10.8608 157.768C11.0455 158.122 11.2161 158.476 11.4009 158.858C11.5714 159.241 11.742 159.623 11.8983 160.019C12.0547 159.609 12.2252 159.212 12.3958 158.83C12.5664 158.448 12.7511 158.079 12.9501 157.725L18.138 147.545C18.2375 147.375 18.3227 147.233 18.4222 147.134C18.5217 147.035 18.6354 146.964 18.7491 146.922C18.8628 146.879 19.005 146.851 19.1613 146.837C19.3177 146.822 19.4882 146.837 19.7014 146.837H23.2832H23.2547Z" fill="#3693D1"/>
<path d="M32.1808 150.433V155.134H38.5483V158.589H32.1808V163.389H40.4813V166.986H27.4478V146.822H40.4813V150.419H32.1808V150.433Z" fill="#3693D1"/>
<path d="M58.1911 150.546H52.4915V167H47.8012V150.546H42.1016V146.837H58.1768V150.546H58.1911Z" fill="#3693D1"/>
<path d="M77.0237 167H73.3851C72.9729 167 72.646 166.901 72.4044 166.717C72.1628 166.533 71.9638 166.292 71.8359 165.995L70.6419 162.483H62.9526L61.7586 165.995C61.6591 166.25 61.4744 166.49 61.2043 166.689C60.9343 166.901 60.6074 167 60.2236 167H56.5566L64.3881 146.837H69.1922L77.0237 167ZM69.5617 159.297L67.6856 153.775C67.5434 153.421 67.4013 153.01 67.245 152.543C67.0886 152.062 66.9323 151.552 66.7759 151C66.6338 151.566 66.4917 152.09 66.3353 152.557C66.179 153.039 66.0226 153.449 65.8947 153.803L64.0328 159.297H69.5759H69.5617Z" fill="#3693D1"/>
<path d="M86.3333 146.837C87.7262 146.837 88.9201 146.964 89.9008 147.219C90.8816 147.474 91.6775 147.842 92.3029 148.309C92.9283 148.776 93.3689 149.357 93.6532 150.022C93.9374 150.702 94.0796 151.453 94.0796 152.274C94.0796 152.727 94.0227 153.166 93.8806 153.577C93.7526 154.001 93.5537 154.384 93.2694 154.752C92.9851 155.12 92.6298 155.446 92.2034 155.757C91.7628 156.055 91.2511 156.324 90.6399 156.55C91.976 156.876 92.9567 157.4 93.5963 158.108C94.2359 158.83 94.5486 159.764 94.5486 160.897C94.5486 161.761 94.378 162.554 94.0511 163.29C93.7242 164.026 93.2268 164.678 92.5872 165.216C91.9476 165.768 91.1516 166.193 90.1993 166.504C89.247 166.816 88.181 166.972 86.9587 166.972H78.8713V146.808H86.3191L86.3333 146.837ZM83.5759 150.334V155.318H86.0206C86.5465 155.318 87.0013 155.276 87.4277 155.205C87.8399 155.134 88.1953 155.007 88.4937 154.823C88.7922 154.639 89.0054 154.384 89.1618 154.058C89.3181 153.732 89.3892 153.336 89.3892 152.84C89.3892 152.345 89.3323 151.962 89.2044 151.651C89.0907 151.325 88.8917 151.07 88.6501 150.886C88.4084 150.702 88.0815 150.561 87.6978 150.476C87.314 150.391 86.8592 150.348 86.3333 150.348H83.5759V150.334ZM86.8876 163.46C87.513 163.46 88.0105 163.375 88.4085 163.219C88.8064 163.064 89.1049 162.865 89.3323 162.61C89.5597 162.356 89.7019 162.087 89.7871 161.761C89.8724 161.449 89.9151 161.124 89.9151 160.812C89.9151 160.444 89.8724 160.118 89.7729 159.821C89.6734 159.524 89.5029 159.283 89.2755 159.071C89.0338 158.872 88.7211 158.717 88.3374 158.603C87.9536 158.49 87.4562 158.433 86.8592 158.433H83.5759V163.46H86.8876Z" fill="#3693D1"/>
<path d="M115.57 167H111.931C111.519 167 111.192 166.901 110.951 166.717C110.709 166.533 110.51 166.292 110.382 165.995L109.188 162.483H101.499L100.305 165.995C100.206 166.25 100.021 166.49 99.7507 166.689C99.4807 166.901 99.1537 167 98.77 167H95.103L102.934 146.837H107.739L115.57 167ZM108.108 159.297L106.232 153.775C106.09 153.421 105.948 153.01 105.791 152.543C105.635 152.062 105.479 151.552 105.322 151C105.18 151.566 105.038 152.09 104.882 152.557C104.725 153.039 104.569 153.449 104.441 153.803L102.579 159.297H108.122H108.108Z" fill="#3693D1"/>
<path d="M135.113 146.837V167H132.669C132.313 167 132.001 166.943 131.759 166.83C131.517 166.717 131.276 166.519 131.034 166.221L121.497 154.2C121.54 154.554 121.554 154.908 121.568 155.247C121.582 155.587 121.582 155.899 121.582 156.196V167H117.446V146.837H119.919C120.118 146.837 120.289 146.837 120.431 146.865C120.573 146.893 120.701 146.922 120.801 146.964C120.9 147.007 121.014 147.091 121.113 147.176C121.213 147.276 121.326 147.389 121.454 147.545L131.077 159.651C131.034 159.269 130.991 158.887 130.977 158.518C130.963 158.15 130.949 157.81 130.949 157.485V146.822H135.085L135.113 146.837Z" fill="#3693D1"/>
<path d="M143.997 154.993H144.75C145.447 154.993 145.944 154.78 146.242 154.341L150.805 147.757C151.075 147.403 151.359 147.162 151.672 147.035C151.985 146.907 152.368 146.837 152.837 146.837H156.917L150.919 154.978C150.492 155.545 150.037 155.941 149.54 156.196C149.895 156.324 150.208 156.508 150.492 156.734C150.777 156.961 151.047 157.272 151.302 157.64L157.414 166.986H153.221C152.951 166.986 152.724 166.972 152.539 166.929C152.354 166.887 152.184 166.844 152.041 166.759C151.899 166.689 151.786 166.589 151.686 166.49C151.587 166.377 151.487 166.264 151.388 166.122L146.811 159.113C146.64 158.858 146.427 158.674 146.171 158.561C145.916 158.448 145.574 158.405 145.134 158.405H143.997V166.986H139.306V146.822H143.997V154.978V154.993Z" fill="#3693D1"/>
</svg>
