<svg width="216" height="42" viewBox="0 0 216 42" fill="none" xmlns="http://www.w3.org/2000/svg">
<mask id="mask0_1079_1013" style="mask-type:luminance" maskUnits="userSpaceOnUse" x="0" y="0" width="216" height="42">
<path d="M215.667 0.702148H0V42H215.667V0.702148Z" fill="white"/>
</mask>
<g mask="url(#mask0_1079_1013)">
<path d="M16.4211 42.0011L0 32.1606V12.7451L10.1997 18.7661V26.4447L16.4211 29.9989V42.0011Z" fill="white"/>
<path d="M34.3678 10.4364L24.2073 16.4839L17.8292 12.8103L11.4642 16.4839L1.30371 10.4364L17.8292 0.702148L34.3678 10.4364Z" fill="white"/>
<path d="M19.251 42.0011L35.6721 32.1606V12.7451L25.4726 18.7661V26.4447L19.251 29.9989V42.0011Z" fill="white"/>
<path d="M182.12 30.0514C178.689 30.0514 176.25 28.1019 176.186 25.3168V25.0517H178.821C179.304 25.0517 179.746 25.3434 179.917 25.7678C180.204 26.4971 181.05 26.9349 182.133 26.9349C182.904 26.9349 183.543 26.6962 183.972 26.2584C184.272 25.9535 184.43 25.5555 184.43 25.1179C184.43 24.6803 184.285 24.2824 183.985 23.9774C183.53 23.5133 182.772 23.248 181.859 23.248H180.23V21.6831C180.23 20.9802 180.789 20.41 181.482 20.41H181.859C183.204 20.41 184.104 19.7071 184.104 18.6593C184.104 17.6116 183.346 16.9618 182.172 16.9618C181.207 16.9618 180.398 17.3995 180.098 18.0626C179.876 18.5532 179.408 18.8583 178.872 18.8583H176.499V18.593C176.55 15.8876 178.924 13.9248 182.172 13.9248C183.907 13.9248 185.407 14.4818 186.411 15.5162C187.194 16.3252 187.611 17.3331 187.598 18.4604C187.611 19.959 186.763 21.1659 185.368 21.6963C187.129 22.1871 188.172 23.5133 188.159 25.3036C188.159 26.4177 187.755 27.4387 186.959 28.2478C185.863 29.3751 184.117 30.0116 182.146 30.0116L182.12 30.0514Z" fill="white"/>
<path d="M176.433 25.3166H178.82C179.185 25.3166 179.55 25.5289 179.681 25.8737C180.007 26.696 180.946 27.1998 182.133 27.1998C183.62 27.1998 184.688 26.3378 184.662 25.131C184.688 23.8976 183.594 23.0091 181.846 23.0091H180.462V21.6961C180.462 21.1391 180.907 20.6749 181.468 20.6749H181.846C183.307 20.6749 184.336 19.8528 184.336 18.6591C184.336 17.4656 183.475 16.7096 182.159 16.7096C181.103 16.7096 180.203 17.1871 179.85 17.9696C179.668 18.3674 179.288 18.6194 178.859 18.6194H176.733C176.772 16.0068 179.107 14.2031 182.146 14.2031C185.184 14.2031 187.336 16.0731 187.31 18.4736C187.336 20.1711 186.162 21.3912 184.494 21.6829V21.8022C186.671 22.0807 187.897 23.4334 187.871 25.3166C187.897 27.9161 185.458 29.7727 182.107 29.7727C178.755 29.7727 176.485 27.9293 176.42 25.2902L176.433 25.3166Z" fill="white"/>
<path d="M195.842 30.0513C193.962 30.0513 189.581 29.2688 189.581 22.3593C189.581 17.1738 192.033 13.9512 195.972 13.9512C198.984 13.9512 201.229 15.8211 201.581 18.593L201.619 18.8847H199.258C198.646 18.8847 198.084 18.593 197.81 18.1154C197.459 17.5053 196.807 17.1738 195.972 17.1738C194.329 17.1738 193.311 18.5796 193.142 21.0464C193.885 20.0252 195.268 19.3621 196.82 19.3621C199.677 19.3621 201.749 21.5238 201.749 24.521C201.749 27.7834 199.349 30.0513 195.907 30.0513H195.855H195.842ZM195.868 22.147C194.511 22.147 193.442 23.2213 193.416 24.6006C193.442 25.993 194.472 27.0408 195.829 27.0408C197.185 27.0408 198.242 25.993 198.242 24.6006C198.242 23.2081 197.223 22.147 195.881 22.147H195.868Z" fill="white"/>
<path d="M189.814 22.3587C189.814 17.2528 192.227 14.2158 195.957 14.2158C198.97 14.2158 201.005 16.1388 201.318 18.6321H199.244C198.761 18.6321 198.266 18.4066 198.018 17.9822C197.627 17.3058 196.896 16.908 195.957 16.908C193.935 16.908 192.866 18.778 192.84 21.7486H192.983C193.661 20.4092 195.148 19.6135 196.792 19.6135C199.466 19.6135 201.475 21.669 201.475 24.5204C201.475 27.5972 199.192 29.8252 195.827 29.7987C192.735 29.7721 189.814 27.9155 189.814 22.3587ZM198.461 24.6C198.461 23.0882 197.366 21.8945 195.84 21.8945C194.314 21.8945 193.166 23.1146 193.14 24.6C193.166 26.0854 194.275 27.3055 195.801 27.3055C197.327 27.3055 198.461 26.1384 198.461 24.6Z" fill="white"/>
<path d="M209.418 30.0513C205.505 30.0513 203.17 27.0408 203.17 22.0012C203.17 16.9617 205.505 13.9512 209.418 13.9512C213.331 13.9512 215.666 16.9617 215.666 22.0012C215.666 27.0408 213.331 30.0513 209.418 30.0513ZM209.418 17.0412C207.788 17.0412 206.848 18.8449 206.848 22.0012C206.848 24.07 207.227 25.5687 207.983 26.338C208.375 26.7357 208.857 26.9346 209.418 26.9346C209.979 26.9346 210.462 26.7357 210.853 26.338C211.608 25.5687 212.001 24.07 211.988 22.0012C211.988 18.8449 211.047 17.0412 209.418 17.0412Z" fill="white"/>
<path d="M203.418 22.0012C203.418 17.0412 205.688 14.2031 209.418 14.2031C213.147 14.2031 215.417 17.0545 215.417 22.0012C215.417 26.9479 213.147 29.7993 209.418 29.7993C205.688 29.7993 203.418 26.9745 203.418 22.0012ZM212.234 22.0012C212.234 18.5398 211.14 16.7892 209.418 16.7892C207.696 16.7892 206.601 18.553 206.601 22.0012C206.575 25.5023 207.696 27.1998 209.418 27.1998C211.14 27.1998 212.262 25.5023 212.234 22.0012Z" fill="white"/>
<path d="M49.0293 29.6795V15.078H51.6901C52.2249 15.078 52.5769 15.3167 52.7465 15.8074L52.9813 16.6031C53.2161 16.3512 53.4769 16.1124 53.7248 15.9002C53.9856 15.688 54.2596 15.5024 54.5596 15.3565C54.8596 15.1974 55.1855 15.078 55.5248 14.9852C55.877 14.8923 56.2551 14.8525 56.6725 14.8525C57.5463 14.8525 58.2637 15.078 58.8246 15.5422C59.3985 15.9931 59.8288 16.6031 60.1159 17.3591C60.3507 16.9081 60.6506 16.5235 60.9897 16.2053C61.3289 15.887 61.7071 15.6217 62.1115 15.4361C62.5158 15.2371 62.9331 15.0913 63.3896 14.9984C63.8331 14.9056 64.2766 14.8525 64.7201 14.8525C65.5417 14.8525 66.2722 14.9852 66.9113 15.2239C67.5504 15.4759 68.0851 15.8339 68.5155 16.3114C68.946 16.7888 69.2721 17.3723 69.4938 18.0619C69.7156 18.7516 69.8328 19.534 69.8328 20.4093V29.6927H65.5417V20.4093C65.5417 18.8975 64.9027 18.1416 63.6244 18.1416C63.0376 18.1416 62.5548 18.3405 62.1767 18.725C61.7984 19.1096 61.6028 19.6798 61.6028 20.4093V29.6927H57.3115V20.4093C57.3115 19.5738 57.1551 18.9903 56.829 18.6454C56.5029 18.3139 56.0334 18.1416 55.4074 18.1416C55.0161 18.1416 54.6509 18.2344 54.3117 18.4067C53.9726 18.5792 53.6335 18.8311 53.3335 19.123V29.6795H49.0423H49.0293Z" fill="white"/>
<path d="M76.1325 23.1547C76.276 24.3748 76.6412 25.2634 77.2282 25.807C77.8152 26.3508 78.5846 26.6293 79.5107 26.6293C80.0064 26.6293 80.4367 26.5631 80.8019 26.4437C81.1672 26.3242 81.4802 26.1784 81.7672 26.0325C82.0541 25.8866 82.3018 25.7408 82.5366 25.6215C82.7714 25.5021 83.0192 25.4358 83.2801 25.4358C83.6192 25.4358 83.8801 25.5683 84.0497 25.8204L85.3019 27.3853C84.8584 27.9025 84.3758 28.3136 83.8671 28.6452C83.3584 28.9635 82.8237 29.2154 82.2889 29.4011C81.7541 29.5868 81.2063 29.7062 80.6715 29.7857C80.1367 29.8521 79.6151 29.8919 79.1325 29.8919C78.1281 29.8919 77.1759 29.7194 76.3021 29.3879C75.4282 29.0563 74.6457 28.5656 73.9935 27.9025C73.3283 27.2394 72.8065 26.4305 72.4284 25.4491C72.0501 24.4677 71.8545 23.3404 71.8545 22.0407C71.8545 21.0593 72.0239 20.1443 72.35 19.2689C72.6761 18.3937 73.1457 17.6376 73.7587 16.9746C74.3718 16.3248 75.1153 15.7943 75.9891 15.4097C76.863 15.0251 77.8413 14.8262 78.9499 14.8262C79.9019 14.8262 80.776 14.9721 81.5585 15.2771C82.3411 15.5821 83.0323 16.0197 83.5932 16.59C84.1671 17.1603 84.6106 17.8631 84.9236 18.6987C85.2365 19.5342 85.4061 20.4758 85.4061 21.5234C85.4061 21.855 85.3932 22.1203 85.3671 22.3192C85.341 22.5314 85.2887 22.6905 85.2106 22.81C85.1323 22.9292 85.041 23.0221 84.9106 23.0619C84.7801 23.1017 84.6236 23.1281 84.4279 23.1281H76.1456L76.1325 23.1547ZM81.5324 20.6217C81.5324 20.2769 81.4932 19.932 81.4019 19.6138C81.3106 19.2821 81.1672 18.9904 80.9715 18.7253C80.776 18.4732 80.515 18.2611 80.189 18.1018C79.8629 17.9428 79.4716 17.8631 79.0151 17.8631C78.2064 17.8631 77.5672 18.1018 77.0978 18.5792C76.6412 19.0568 76.3282 19.7331 76.1847 20.6349H81.5324V20.6217Z" fill="white"/>
<path d="M92.4885 29.9051C91.8102 29.9051 91.1972 29.7991 90.6756 29.6002C90.1537 29.4011 89.7103 29.1094 89.3582 28.7381C89.006 28.3667 88.7321 27.9159 88.5495 27.3987C88.367 26.8815 88.2755 26.2846 88.2755 25.6348V18.0887H87.0626C86.8409 18.0887 86.6582 18.0224 86.4887 17.8766C86.3322 17.7307 86.2539 17.5184 86.2539 17.2399V15.5424L88.5364 15.0915L89.3842 11.524C89.4886 11.0731 89.8147 10.8477 90.3234 10.8477H92.5668V15.118H96.1275V18.102H92.5668V25.3563C92.5668 25.6878 92.6449 25.9795 92.8146 26.1918C92.971 26.4173 93.2058 26.5233 93.5188 26.5233C93.6754 26.5233 93.8058 26.5101 93.9102 26.4703C94.0145 26.4305 94.1058 26.4041 94.1841 26.3643C94.2623 26.3244 94.3406 26.2846 94.4058 26.2448C94.471 26.205 94.5493 26.1918 94.6536 26.1918C94.7841 26.1918 94.8884 26.2184 94.9667 26.2846C95.0448 26.3509 95.1232 26.4437 95.2144 26.5764L96.5188 28.6452C95.9709 29.0696 95.3448 29.3879 94.6536 29.6002C93.9623 29.8123 93.2449 29.9183 92.5016 29.9183L92.4885 29.9051Z" fill="white"/>
<path d="M97.6652 17.1084C98.5392 16.3259 99.4912 15.7424 100.548 15.371C101.604 14.9864 102.739 14.8008 103.952 14.8008C104.826 14.8008 105.609 14.9467 106.3 15.2252C106.991 15.5169 107.591 15.9148 108.074 16.4187C108.556 16.936 108.934 17.5328 109.182 18.2357C109.443 18.9386 109.574 19.7077 109.574 20.5433V29.6674H107.604C107.2 29.6674 106.887 29.6144 106.678 29.495C106.469 29.3757 106.3 29.1502 106.156 28.7921L105.856 27.9832C105.491 28.2883 105.152 28.5668 104.813 28.8055C104.474 29.0442 104.135 29.2431 103.782 29.4021C103.43 29.5614 103.052 29.694 102.648 29.7735C102.243 29.8531 101.8 29.8929 101.317 29.8929C100.665 29.8929 100.065 29.8133 99.5304 29.6276C98.9956 29.442 98.5392 29.2033 98.1609 28.8585C97.7826 28.527 97.4957 28.1026 97.3 27.5986C97.0913 27.0946 97 26.5244 97 25.8613C97 25.3308 97.1305 24.8002 97.3913 24.2566C97.6522 23.7128 98.0957 23.2222 98.7347 22.7844C99.3738 22.3336 100.235 21.9623 101.304 21.6705C102.387 21.3654 103.743 21.2063 105.387 21.1665V20.5433C105.387 19.6945 105.217 19.0711 104.865 18.6865C104.513 18.3019 104.03 18.1163 103.391 18.1163C102.883 18.1163 102.465 18.1693 102.139 18.2887C101.813 18.408 101.526 18.5274 101.278 18.6733C101.017 18.8192 100.783 18.9386 100.535 19.0579C100.3 19.1639 100.013 19.2303 99.6738 19.2303C99.3738 19.2303 99.126 19.1507 98.9305 19.0048C98.7218 18.859 98.5651 18.6733 98.4348 18.4744L97.6652 17.1084ZM105.387 23.7394C104.526 23.7792 103.822 23.8587 103.274 23.9649C102.726 24.0709 102.283 24.2168 101.956 24.3893C101.63 24.5615 101.409 24.7472 101.291 24.9595C101.161 25.1716 101.109 25.4103 101.109 25.6624C101.109 26.1664 101.239 26.5111 101.513 26.71C101.787 26.9089 102.178 27.0151 102.687 27.0151C103.235 27.0151 103.73 26.9089 104.135 26.7232C104.552 26.5244 104.969 26.206 105.4 25.7684V23.7394H105.387Z" fill="white"/>
<path d="M127.365 17.1084C128.239 16.3259 129.191 15.7424 130.248 15.371C131.304 14.9864 132.439 14.8008 133.652 14.8008C134.526 14.8008 135.309 14.9467 136 15.2252C136.691 15.5169 137.291 15.9148 137.774 16.4187C138.256 16.936 138.635 17.5328 138.882 18.2357C139.143 18.9386 139.274 19.7077 139.274 20.5433V29.6674H137.304C136.9 29.6674 136.587 29.6144 136.378 29.495C136.169 29.3757 136 29.1502 135.856 28.7921L135.556 27.9832C135.191 28.2883 134.852 28.5668 134.513 28.8055C134.174 29.0442 133.835 29.2431 133.483 29.4021C133.13 29.5614 132.752 29.694 132.348 29.7735C131.943 29.8531 131.5 29.8929 131.017 29.8929C130.365 29.8929 129.765 29.8133 129.231 29.6276C128.696 29.442 128.239 29.2033 127.861 28.8585C127.483 28.527 127.196 28.1026 127 27.5986C126.791 27.0946 126.7 26.5244 126.7 25.8613C126.7 25.3308 126.831 24.8002 127.091 24.2566C127.352 23.7128 127.796 23.2222 128.435 22.7844C129.074 22.3336 129.935 21.9623 131.004 21.6705C132.087 21.3654 133.443 21.2063 135.087 21.1665V20.5433C135.087 19.6945 134.917 19.0711 134.565 18.6865C134.213 18.3019 133.73 18.1163 133.091 18.1163C132.583 18.1163 132.165 18.1693 131.839 18.2887C131.513 18.408 131.226 18.5274 130.978 18.6733C130.717 18.8192 130.483 18.9386 130.235 19.0579C130 19.1639 129.713 19.2303 129.374 19.2303C129.074 19.2303 128.826 19.1507 128.631 19.0048C128.422 18.859 128.265 18.6733 128.135 18.4744L127.365 17.1084ZM135.087 23.7394C134.226 23.7792 133.522 23.8587 132.974 23.9649C132.426 24.0709 131.983 24.2168 131.657 24.3893C131.331 24.5615 131.109 24.7472 130.991 24.9595C130.861 25.1716 130.809 25.4103 130.809 25.6624C130.809 26.1664 130.939 26.5111 131.213 26.71C131.487 26.9089 131.878 27.0151 132.387 27.0151C132.935 27.0151 133.43 26.9089 133.835 26.7232C134.252 26.5244 134.669 26.206 135.1 25.7684V23.7394H135.087Z" fill="white"/>
<path d="M111.871 9.94434H114.219C115.093 9.94434 115.797 10.6605 115.797 11.549V17.2916H115.901C116.462 16.0979 117.597 14.6391 120.023 14.6391C123.205 14.6391 125.892 17.1456 125.892 22.172C125.892 27.1982 123.31 29.7313 120.023 29.7313C117.662 29.7313 116.462 28.3519 115.901 27.1318H115.745V29.4792H111.871V9.94434ZM118.771 26.5484C120.793 26.5484 121.849 24.7447 121.849 22.1454C121.849 19.5461 120.793 17.822 118.771 17.822C116.749 17.822 115.719 19.4931 115.719 22.1454C115.719 24.7979 116.841 26.5484 118.771 26.5484Z" fill="white"/>
<path d="M155.537 10.0645H157.259C158.472 10.0645 159.463 11.0724 159.463 12.3057V20.568H159.672L163.742 15.6875C164.133 15.2234 164.694 14.9581 165.294 14.9581H168.868L163.507 21.3106L169.168 29.626H164.549L160.598 23.6579L159.476 24.9311V29.626H155.55V10.0645H155.537Z" fill="white"/>
<path d="M145.078 16.8025C145.352 16.5373 145.639 16.2985 145.926 16.0731C146.213 15.8476 146.526 15.662 146.865 15.5161C147.204 15.3569 147.556 15.2376 147.947 15.158C148.339 15.0784 148.756 15.0254 149.212 15.0254C149.982 15.0254 150.673 15.158 151.273 15.4365C151.873 15.715 152.369 16.0863 152.786 16.5771C153.191 17.0677 153.504 17.638 153.712 18.3143C153.921 18.9908 154.025 19.7201 154.025 20.5026V29.6666H149.787V20.5026C149.787 19.7997 149.63 19.2427 149.304 18.8581C148.978 18.4602 148.508 18.2613 147.895 18.2613C147.426 18.2613 146.995 18.3674 146.591 18.5664C146.187 18.7653 145.795 19.0438 145.404 19.3754V29.6666H141.165V15.2376H143.787C144.321 15.2376 144.66 15.4763 144.83 15.967L145.078 16.8025Z" fill="white"/>
</g>
</svg>
