<svg width="567" height="120" viewBox="0 0 567 120" fill="none" xmlns="http://www.w3.org/2000/svg">
<g clip-path="url(#clip0_32_2)">
<path d="M48.42 119.78L0 91.23V34.91L30.08 52.37V74.65L48.42 84.97V119.78Z" fill="white"/>
<path d="M101.34 28.21L71.3598 45.78L52.5898 35.13L33.8098 45.78L3.83984 28.21L52.5898 0L101.34 28.21Z" fill="white"/>
<path d="M56.7598 119.78L105.18 91.23V34.91L75.0998 52.37V74.65L56.7598 84.97V119.78Z" fill="white"/>
<path d="M158.54 82.67V40.84H166.29C167.85 40.84 168.87 41.54 169.36 42.94L170.04 45.2C170.74 44.47 171.47 43.8 172.22 43.2C172.97 42.6 173.79 42.08 174.66 41.63C175.53 41.18 176.47 40.83 177.48 40.58C178.49 40.32 179.6 40.19 180.81 40.19C183.34 40.19 185.43 40.84 187.08 42.15C188.73 43.45 189.99 45.2 190.85 47.37C191.55 46.08 192.4 44.98 193.41 44.07C194.42 43.16 195.51 42.41 196.68 41.85C197.85 41.28 199.09 40.87 200.39 40.6C201.69 40.33 202.99 40.19 204.28 40.19C206.67 40.19 208.8 40.55 210.65 41.26C212.51 41.98 214.06 43.01 215.31 44.37C216.56 45.73 217.51 47.4 218.15 49.37C218.79 51.34 219.12 53.59 219.12 56.09V82.68H206.61V56.09C206.61 51.76 204.75 49.6 201.04 49.6C199.35 49.6 197.94 50.16 196.82 51.28C195.7 52.39 195.15 54 195.15 56.1V82.69H182.64V56.1C182.64 53.71 182.17 52.03 181.23 51.06C180.29 50.09 178.9 49.61 177.08 49.61C175.95 49.61 174.88 49.86 173.87 50.37C172.86 50.88 171.91 51.57 171.03 52.43V82.69H158.52L158.54 82.67Z" fill="white"/>
<path d="M237.49 64C237.89 67.5 238.96 70.03 240.68 71.6C242.4 73.17 244.62 73.96 247.34 73.96C248.79 73.96 250.04 73.78 251.09 73.44C252.14 73.09 253.07 72.7 253.89 72.27C254.71 71.84 255.46 71.45 256.15 71.1C256.83 70.75 257.56 70.58 258.31 70.58C259.3 70.58 260.06 70.94 260.57 71.66L264.2 76.14C262.91 77.62 261.52 78.82 260.02 79.75C258.53 80.68 256.99 81.4 255.42 81.92C253.85 82.44 252.27 82.81 250.7 83.01C249.13 83.21 247.63 83.31 246.2 83.31C243.27 83.31 240.52 82.83 237.95 81.88C235.38 80.93 233.14 79.51 231.21 77.63C229.29 75.74 227.77 73.41 226.65 70.6C225.53 67.81 224.98 64.55 224.98 60.84C224.98 58.04 225.46 55.39 226.41 52.89C227.36 50.39 228.74 48.2 230.52 46.31C232.31 44.43 234.47 42.94 237.02 41.83C239.57 40.72 242.43 40.17 245.63 40.17C248.4 40.17 250.94 40.61 253.24 41.46C255.54 42.31 257.52 43.57 259.17 45.21C260.82 46.85 262.12 48.86 263.04 51.25C263.97 53.63 264.43 56.33 264.43 59.34C264.43 60.28 264.39 61.04 264.31 61.64C264.23 62.23 264.08 62.7 263.87 63.05C263.65 63.4 263.37 63.64 263 63.78C262.63 63.92 262.17 63.98 261.61 63.98H237.49V64ZM253.22 56.74C253.22 55.75 253.09 54.78 252.84 53.84C252.58 52.89 252.17 52.05 251.59 51.31C251.01 50.57 250.25 49.97 249.31 49.52C248.37 49.06 247.22 48.83 245.88 48.83C243.51 48.83 241.66 49.51 240.31 50.87C238.97 52.23 238.08 54.19 237.65 56.74H253.22Z" fill="white"/>
<path d="M285.14 83.3101C283.15 83.3101 281.39 83.0201 279.87 82.4401C278.35 81.8601 277.07 81.0401 276.04 79.9801C275.01 78.9201 274.22 77.6401 273.68 76.1301C273.14 74.6201 272.87 72.94 272.87 71.09V49.4601H269.32C268.67 49.4601 268.12 49.2601 267.67 48.8301C267.21 48.4101 266.99 47.8001 266.99 47.0001V42.1201L273.65 40.8301L276.11 30.6201C276.43 29.3301 277.35 28.6801 278.85 28.6801H285.39V40.9001H295.76V49.4501H285.39V70.2301C285.39 71.2001 285.63 72.0001 286.1 72.6301C286.57 73.2601 287.25 73.5801 288.14 73.5801C288.6 73.5801 288.98 73.5301 289.29 73.4401C289.6 73.3401 289.87 73.2401 290.1 73.1201C290.33 73.0001 290.54 72.8901 290.75 72.7901C290.95 72.6901 291.19 72.6501 291.46 72.6501C291.84 72.6501 292.14 72.7401 292.37 72.9201C292.6 73.1001 292.83 73.3701 293.08 73.7401L296.87 79.6701C295.26 80.8801 293.44 81.7801 291.42 82.3901C289.4 83.0001 287.32 83.3001 285.17 83.3001L285.14 83.3101Z" fill="white"/>
<path d="M300.23 46.65C302.76 44.42 305.56 42.75 308.64 41.66C311.72 40.58 315.02 40.03 318.54 40.03C321.07 40.03 323.35 40.44 325.38 41.26C327.41 42.08 329.13 43.22 330.54 44.69C331.95 46.16 333.03 47.89 333.79 49.91C334.54 51.93 334.92 54.13 334.92 56.53V82.68H329.19C328.01 82.68 327.11 82.52 326.51 82.2C325.91 81.87 325.4 81.21 325 80.18L324.11 77.88C323.06 78.77 322.05 79.55 321.08 80.22C320.11 80.89 319.11 81.46 318.07 81.93C317.03 82.4 315.93 82.75 314.76 82.98C313.59 83.21 312.29 83.32 310.87 83.32C308.96 83.32 307.23 83.07 305.67 82.58C304.11 82.09 302.79 81.35 301.7 80.38C300.61 79.41 299.77 78.21 299.18 76.77C298.59 75.33 298.29 73.68 298.29 71.79C298.29 70.28 298.67 68.76 299.42 67.21C300.17 65.66 301.48 64.25 303.33 62.98C305.19 61.7 307.69 60.63 310.83 59.77C313.98 58.91 317.94 58.43 322.73 58.32V56.54C322.73 54.09 322.23 52.33 321.22 51.24C320.21 50.15 318.78 49.6 316.92 49.6C315.44 49.6 314.23 49.76 313.29 50.08C312.35 50.4 311.51 50.77 310.77 51.17C310.03 51.57 309.31 51.93 308.61 52.26C307.91 52.58 307.08 52.74 306.11 52.74C305.25 52.74 304.52 52.52 303.93 52.09C303.34 51.66 302.85 51.15 302.48 50.56L300.22 46.65H300.23ZM322.74 65.65C320.24 65.76 318.18 65.98 316.57 66.3C314.96 66.62 313.68 67.03 312.74 67.51C311.8 67.99 311.15 68.55 310.78 69.16C310.42 69.78 310.23 70.45 310.23 71.18C310.23 72.61 310.62 73.61 311.4 74.18C312.18 74.76 313.32 75.05 314.83 75.05C316.44 75.05 317.86 74.76 319.07 74.2C320.28 73.64 321.5 72.72 322.74 71.46V65.65Z" fill="white"/>
<path d="M399.02 40.84L382.8 82.68H371.42L355.2 40.84H365.61C366.5 40.84 367.24 41.05 367.85 41.47C368.45 41.89 368.86 42.4 369.08 43.02L374.89 61.78C375.4 63.31 375.85 64.81 376.24 66.26C376.63 67.71 376.97 69.16 377.27 70.61C377.86 67.71 378.68 64.76 379.73 61.78L385.78 43.02C385.99 42.4 386.4 41.88 386.99 41.47C387.58 41.06 388.28 40.84 389.09 40.84H399.01H399.02Z" fill="white"/>
<path d="M417.18 29.38C417.18 30.37 416.98 31.31 416.58 32.18C416.18 33.05 415.62 33.82 414.93 34.48C414.23 35.13 413.42 35.66 412.49 36.05C411.56 36.44 410.57 36.63 409.52 36.63C408.47 36.63 407.54 36.44 406.66 36.05C405.77 35.65 404.99 35.13 404.3 34.48C403.62 33.82 403.08 33.05 402.69 32.18C402.3 31.31 402.11 30.37 402.11 29.38C402.11 28.39 402.3 27.4 402.69 26.51C403.08 25.62 403.62 24.85 404.3 24.17C404.99 23.5 405.77 22.97 406.66 22.6C407.55 22.23 408.5 22.03 409.52 22.03C410.54 22.03 411.56 22.22 412.49 22.6C413.42 22.97 414.23 23.5 414.93 24.17C415.63 24.84 416.18 25.62 416.58 26.51C416.98 27.4 417.18 28.36 417.18 29.38ZM415.89 40.83V82.67H403.38V40.84H415.89V40.83Z" fill="white"/>
<path d="M451.23 49.99C450.91 50.5 450.57 50.86 450.2 51.08C449.84 51.3 449.37 51.4 448.81 51.4C448.25 51.4 447.63 51.28 447.03 51.02C446.44 50.77 445.8 50.49 445.11 50.2C444.43 49.9 443.65 49.63 442.79 49.37C441.93 49.12 440.95 48.99 439.84 48.99C438.25 48.99 437.04 49.29 436.19 49.9C435.34 50.51 434.92 51.34 434.92 52.42C434.92 53.2 435.19 53.85 435.75 54.36C436.3 54.88 437.03 55.33 437.95 55.72C438.86 56.11 439.9 56.48 441.06 56.83C442.22 57.18 443.4 57.57 444.61 58C445.82 58.44 447 58.94 448.16 59.51C449.32 60.09 450.35 60.8 451.27 61.65C452.19 62.5 452.92 63.52 453.47 64.74C454.02 65.95 454.3 67.4 454.3 69.1C454.3 71.16 453.92 73.08 453.17 74.82C452.42 76.57 451.29 78.08 449.8 79.34C448.31 80.61 446.46 81.59 444.27 82.29C442.08 82.99 439.56 83.33 436.71 83.33C435.28 83.33 433.86 83.2 432.43 82.93C431 82.66 429.63 82.3 428.3 81.84C426.97 81.38 425.74 80.84 424.61 80.21C423.48 79.58 422.51 78.89 421.71 78.17L424.61 73.57C424.93 73.03 425.34 72.61 425.84 72.3C426.34 71.99 426.98 71.84 427.76 71.84C428.49 71.84 429.14 72 429.72 72.32C430.3 72.65 430.92 72.99 431.6 73.37C432.27 73.74 433.06 74.1 433.96 74.42C434.86 74.74 436 74.9 437.37 74.9C438.34 74.9 439.16 74.8 439.83 74.6C440.5 74.4 441.04 74.12 441.44 73.77C441.84 73.42 442.14 73.03 442.33 72.6C442.52 72.17 442.61 71.72 442.61 71.26C442.61 70.43 442.33 69.74 441.76 69.2C441.19 68.66 440.46 68.2 439.54 67.81C438.63 67.42 437.58 67.06 436.41 66.72C435.24 66.39 434.05 66 432.84 65.57C431.63 65.14 430.44 64.62 429.27 64.02C428.1 63.42 427.06 62.65 426.14 61.72C425.23 60.79 424.49 59.66 423.92 58.31C423.36 56.96 423.07 55.34 423.07 53.42C423.07 51.65 423.41 49.96 424.1 48.36C424.79 46.76 425.81 45.36 427.19 44.15C428.56 42.94 430.28 41.98 432.35 41.26C434.42 40.55 436.84 40.19 439.61 40.19C441.12 40.19 442.57 40.33 443.99 40.6C445.4 40.87 446.73 41.24 447.96 41.72C449.19 42.2 450.33 42.78 451.35 43.44C452.37 44.1 453.27 44.82 454.05 45.6L451.23 50V49.99Z" fill="white"/>
<path d="M474.67 29.38C474.67 30.37 474.47 31.31 474.07 32.18C473.67 33.05 473.11 33.82 472.42 34.48C471.72 35.13 470.91 35.66 469.98 36.05C469.05 36.44 468.06 36.63 467.01 36.63C465.96 36.63 465.03 36.44 464.15 36.05C463.26 35.65 462.48 35.13 461.79 34.48C461.11 33.82 460.57 33.05 460.18 32.18C459.79 31.31 459.6 30.37 459.6 29.38C459.6 28.39 459.79 27.4 460.18 26.51C460.57 25.62 461.11 24.85 461.79 24.17C462.48 23.5 463.26 22.97 464.15 22.6C465.04 22.23 465.99 22.03 467.01 22.03C468.03 22.03 469.05 22.22 469.98 22.6C470.91 22.97 471.72 23.5 472.42 24.17C473.12 24.84 473.67 25.62 474.07 26.51C474.47 27.4 474.67 28.36 474.67 29.38ZM473.38 40.83V82.67H460.87V40.84H473.38V40.83Z" fill="white"/>
<path d="M501.41 40.19C504.58 40.19 507.47 40.69 510.08 41.68C512.69 42.67 514.93 44.11 516.8 45.96C518.67 47.81 520.12 50.07 521.16 52.72C522.2 55.37 522.71 58.35 522.71 61.65C522.71 64.95 522.19 67.99 521.16 70.66C520.12 73.34 518.67 75.61 516.8 77.48C514.93 79.35 512.69 80.78 510.08 81.79C507.47 82.8 504.58 83.3 501.41 83.3C498.24 83.3 495.3 82.8 492.68 81.79C490.06 80.78 487.8 79.34 485.9 77.48C484 75.62 482.54 73.34 481.5 70.66C480.46 67.99 479.95 64.98 479.95 61.65C479.95 58.32 480.47 55.37 481.5 52.72C482.53 50.07 484 47.81 485.9 45.96C487.8 44.11 490.05 42.68 492.68 41.68C495.3 40.69 498.21 40.19 501.41 40.19ZM501.41 74.04C504.29 74.04 506.4 73.02 507.76 70.99C509.12 68.96 509.8 65.87 509.8 61.73C509.8 57.59 509.12 54.51 507.76 52.49C506.4 50.47 504.28 49.46 501.41 49.46C498.54 49.46 496.29 50.47 494.91 52.49C493.53 54.51 492.85 57.59 492.85 61.73C492.85 65.87 493.54 68.96 494.91 70.99C496.28 73.02 498.45 74.04 501.41 74.04Z" fill="white"/>
<path d="M540.55 45.3501C541.36 44.6001 542.19 43.9001 543.05 43.2501C543.91 42.6101 544.83 42.0601 545.81 41.6201C546.79 41.1701 547.85 40.8201 549 40.5701C550.14 40.3101 551.39 40.1801 552.73 40.1801C555.02 40.1801 557.04 40.5801 558.8 41.3701C560.56 42.1601 562.05 43.2601 563.26 44.6801C564.47 46.0901 565.38 47.7701 566 49.7201C566.62 51.6701 566.93 53.7901 566.93 56.0701V82.6601H554.42V56.0701C554.42 54.0301 553.95 52.4301 553.01 51.2901C552.07 50.1501 550.68 49.5801 548.85 49.5801C547.48 49.5801 546.19 49.8701 545 50.4501C543.8 51.0301 542.64 51.8201 541.51 52.8101V82.6601H529V40.8401H536.75C538.31 40.8401 539.33 41.5401 539.82 42.9401L540.55 45.3601V45.3501Z" fill="white"/>
</g>
<defs>
<clipPath id="clip0_32_2">
<rect width="566.93" height="119.78" fill="white"/>
</clipPath>
</defs>
</svg>
