<svg width="75" height="75" viewBox="0 0 75 75" fill="none" xmlns="http://www.w3.org/2000/svg">
<path fill-rule="evenodd" clip-rule="evenodd" d="M15.8978 3H59.1025V3.78085V72H15.8978V3.78085V3ZM75 0V0.780848H75.0004V3.78085V72V75H75H72.0004H72H62.1025H59.1025H15.8978H12.8978H3H0V72V3.78085V3V0.780848V0H3H72H75ZM62.1025 3.78085H72V8.87492H62.1025V3.78085ZM62.1025 64.9069V72H72V64.9069H62.1025ZM62.1025 62.9069H72V55.9016H62.1025V62.9069ZM62.1025 53.9016H72V46.8962H62.1025V53.9016ZM62.1025 44.8962H72V37.8909H62.1025V44.8962ZM62.1025 35.8909H72V28.8856H62.1025V35.8909ZM62.1025 26.8856H72V19.8803H62.1025V26.8856ZM62.1025 17.8803H72V10.8749H62.1025V17.8803ZM3 3.78085V8.87492H12.8978V3.78085H3ZM3 72V64.9069H12.8978V72H3ZM3 62.9069V55.9016H12.8978V62.9069H3ZM12.8978 53.9016H3V46.8962H12.8978V53.9016ZM12.8978 44.8962H3V37.8909H12.8978V44.8962ZM12.8978 35.8909H3V28.8856H12.8978V35.8909ZM12.8978 26.8856H3V19.8803H12.8978V26.8856ZM12.8978 17.8803H3V10.8749H12.8978V17.8803ZM49.6338 33.9698L52.6338 35.7018L49.6338 37.4339L31.4512 47.9316L28.4512 49.6637V46.1996L28.4512 25.2041V21.74L31.4512 23.472L49.6338 33.9698ZM31.4512 26.9361L46.6338 35.7018L31.4512 44.4675L31.4512 26.9361Z" fill="url(#paint0_linear_52_926)"/>
<defs>
<linearGradient id="paint0_linear_52_926" x1="37.5002" y1="0" x2="37.5002" y2="75" gradientUnits="userSpaceOnUse">
<stop stop-color="#0075FF"/>
<stop offset="1" stop-color="#00D6C9"/>
</linearGradient>
</defs>
</svg>
