<svg width="64" height="68" viewBox="0 0 64 68" fill="none" xmlns="http://www.w3.org/2000/svg">
<path fill-rule="evenodd" clip-rule="evenodd" d="M54.5683 53.5245C51.1579 57.2233 46.9337 60.0387 42.2537 61.7532L52.7739 65.0741C53.5639 65.3235 54.0021 66.1661 53.7527 66.9561C53.5034 67.7461 52.6608 68.1844 51.8708 67.935L37.0424 63.2541L35.6202 62.8051L36.0609 61.3803L40.6948 46.4014C40.9396 45.61 41.7797 45.1669 42.5711 45.4117C43.3625 45.6566 43.8056 46.4966 43.5608 47.288L40.0308 58.6986C40.1681 58.609 40.3181 58.5351 40.4787 58.4799C44.8291 56.9861 48.756 54.4249 51.9006 51.0145C55.4616 47.1523 57.876 42.3566 58.8681 37.1747C59.8602 31.9928 59.39 26.6336 57.5112 21.7087C55.6324 16.7838 52.4207 12.4918 48.2427 9.32247C44.0647 6.15317 39.0887 4.23432 33.8828 3.78495C28.6769 3.33558 23.4508 4.37381 18.8011 6.7811C14.1513 9.1884 10.2653 12.8678 7.58656 17.3993C5.21675 21.4081 3.87629 25.941 3.67295 30.5867C3.62894 31.5922 2.83615 32.4254 1.82992 32.4463C0.823096 32.4672 -0.0153232 31.6671 0.0212976 30.6607C0.215478 25.3245 1.73634 20.1126 4.45644 15.5112C7.48566 10.3868 11.8801 6.22602 17.1382 3.50376C22.3963 0.781492 28.3062 -0.392567 34.1932 0.115594C40.0802 0.623756 45.7072 2.79366 50.4319 6.37763C55.1565 9.96159 58.7884 14.8152 60.913 20.3844C63.0376 25.9537 63.5694 32.0141 62.4475 37.874C61.3256 43.7338 58.5954 49.157 54.5683 53.5245ZM36.4673 30.8976C36.4673 33.1226 34.6896 34.8745 32.5605 34.8745C30.4313 34.8745 28.6537 33.1226 28.6537 30.8976C28.6537 28.6726 30.4313 26.9207 32.5605 26.9207C34.6896 26.9207 36.4673 28.6726 36.4673 30.8976ZM39.4673 30.8976C39.4673 34.7508 36.375 37.8745 32.5605 37.8745C28.746 37.8745 25.6537 34.7508 25.6537 30.8976C25.6537 27.0444 28.746 23.9207 32.5605 23.9207C36.375 23.9207 39.4673 27.0444 39.4673 30.8976Z" fill="url(#paint0_linear_52_971)"/>
<defs>
<linearGradient id="paint0_linear_52_971" x1="31.5432" y1="0" x2="31.5432" y2="68.0303" gradientUnits="userSpaceOnUse">
<stop stop-color="#01A2E7"/>
<stop offset="1" stop-color="#00D6C9"/>
</linearGradient>
</defs>
</svg>
