<svg width="101" height="57" viewBox="0 0 101 57" fill="none" xmlns="http://www.w3.org/2000/svg">
<path d="M76.4945 42.7922L94.9738 50.1815L97.2203 37.4443L76.4945 42.7922Z" fill="url(#paint0_linear_52_960)"/>
<path d="M29.2271 10.397L11.5555 2.39648L7.97852 15.0335L29.2271 10.397Z" fill="url(#paint1_linear_52_960)"/>
<path d="M58.3696 52.05C55.7629 52.262 53.0923 52.3681 50.4314 52.3681C39.1157 52.3681 28.1447 50.4711 19.5364 47.026C10.1109 43.2533 4.30684 37.9903 2.74786 31.8058C1.52391 26.9457 2.43606 22.2129 5.3836 18.1201C5.84452 17.48 6.35579 16.8592 6.90966 16.2558L6.60561 16.3214L7.41512 13.4624C5.94522 14.8042 4.66899 16.2154 3.61353 17.6824C0.346446 22.2206 -0.73419 27.1905 0.489756 32.0506C2.17849 38.7575 8.13942 44.9073 17.2725 49.3664C26.4231 53.8332 38.0835 56.2931 50.1099 56.2931C52.5036 56.2931 54.9282 56.1948 57.318 56.002C66.1936 55.283 74.5656 53.2394 81.5316 50.0951C83.1739 49.3529 84.729 48.5567 86.1892 47.7085L82.7691 46.3416C76.1265 49.2893 67.7603 51.2885 58.3696 52.05Z" fill="url(#paint2_linear_52_960)"/>
<path d="M39.6521 3.8576C42.2104 3.64939 44.8617 3.54529 47.5342 3.54529C69.5517 3.54529 94.7839 10.8171 98.1788 24.2965C99.2905 28.7132 98.4403 32.9139 95.6535 36.787C95.6341 36.8159 95.6128 36.8429 95.5915 36.8699L98.2505 36.1836C100.309 32.3298 100.869 28.2505 99.8598 24.2425C98.1711 17.5356 92.2102 11.3858 83.0771 6.92672C73.9246 2.45992 62.2622 0 50.2377 0C47.8421 0 45.4175 0.0983196 43.0296 0.291103C34.8997 0.950423 27.1958 2.7221 20.6035 5.43071L23.5801 6.77827C28.3442 5.3324 33.7513 4.3357 39.6541 3.8576H39.6521Z" fill="url(#paint3_linear_52_960)"/>
<path d="M29.7503 40.5465C27.6665 40.5465 25.912 39.9199 24.535 38.6842C23.1581 37.4485 22.3621 35.8252 22.1685 33.8569L25.0966 33.4675C25.4317 35.1119 26.0088 36.313 26.8125 37.0378C27.6162 37.7627 28.6097 38.1309 29.7658 38.1309C31.137 38.1309 32.3106 37.6509 33.2556 36.7062C34.2007 35.7616 34.679 34.5721 34.679 33.1764C34.679 31.7806 34.2356 30.7299 33.3602 29.8643C32.4848 28.9987 31.3577 28.5611 30.0079 28.5611C29.4579 28.5611 28.7627 28.671 27.9415 28.885L28.2669 26.3268C28.4605 26.348 28.6193 26.3595 28.7394 26.3595C29.9982 26.3595 31.1002 26.0414 32.1072 25.3879C33.1143 24.7344 33.6042 23.7531 33.6042 22.3921C33.6042 21.3279 33.2382 20.4353 32.5139 19.7355C31.7915 19.0376 30.8445 18.6829 29.7 18.6829C28.5554 18.6829 27.6084 19.0434 26.8531 19.7509C26.0979 20.4604 25.604 21.5399 25.3891 22.9569L22.4609 22.4383C22.8172 20.4931 23.6384 18.9644 24.901 17.8963C26.1637 16.8264 27.7576 16.2847 29.6361 16.2847C30.9317 16.2847 32.1401 16.5661 33.2324 17.1194C34.3227 17.6727 35.169 18.4381 35.7461 19.3943C36.3232 20.3505 36.6157 21.3819 36.6157 22.4557C36.6157 23.5295 36.3368 24.4201 35.7868 25.2568C35.4886 25.7118 35.1051 26.1224 34.6481 26.4771L33.6817 27.229L34.7797 27.7746C35.5137 28.1389 36.1315 28.646 36.6176 29.2821C37.3942 30.2981 37.7893 31.5859 37.7893 33.1128C37.7893 35.1755 37.0224 36.9491 35.5118 38.3854C33.9993 39.8197 32.0627 40.5484 29.7523 40.5484L29.7503 40.5465Z" fill="url(#paint4_linear_52_960)"/>
<path d="M48.8339 40.5291C46.4053 40.5291 44.3951 39.6269 42.8632 37.8494C41.3081 36.0469 40.5529 33.1571 40.5529 29.0142C40.5529 24.4471 41.4127 21.0792 43.1073 19.0048C44.5868 17.2004 46.6067 16.2847 49.1108 16.2847C50.9777 16.2847 52.5309 16.8129 53.7238 17.8559C54.9168 18.8988 55.6411 20.3582 55.8793 22.1973L52.9666 22.4248C52.7032 21.2701 52.343 20.4546 51.8608 19.9302C51.0687 19.0993 50.0869 18.6829 48.9326 18.6829C47.9914 18.6829 47.1877 18.9374 46.4751 19.4598C45.559 20.1249 44.8231 21.112 44.2944 22.3921C43.9458 23.2345 43.7037 24.3276 43.5759 25.6405L43.39 27.5355L44.8483 26.3036C45.2201 25.9894 45.6249 25.7195 46.0509 25.5017C47.0657 24.985 48.1444 24.7247 49.256 24.7247C51.1985 24.7247 52.8775 25.4477 54.2428 26.8704C55.6082 28.2951 56.3015 30.1612 56.3015 32.4168C56.3015 33.8993 55.9761 35.297 55.3332 36.5713C54.6902 37.8456 53.7955 38.8346 52.6722 39.5112C51.549 40.1879 50.2573 40.5311 48.8319 40.5311L48.8339 40.5291ZM48.6712 27.2965C47.3543 27.2965 46.2214 27.7726 45.3034 28.7134C44.3719 29.6677 43.9206 30.8822 43.9206 32.4303C43.9206 33.4308 44.1375 34.4005 44.5636 35.3124C44.9955 36.2397 45.5842 36.926 46.3608 37.4099C47.1374 37.8957 47.9314 38.1309 48.7854 38.1309C50.0171 38.1309 51.09 37.6297 51.9751 36.6407C52.8601 35.6517 53.3094 34.2887 53.3094 32.5922C53.3094 30.8957 52.8775 29.6677 51.9925 28.7134C51.1171 27.7726 50.0016 27.2965 48.6731 27.2965H48.6712Z" fill="url(#paint5_linear_52_960)"/>
<path d="M66.9915 40.5291C64.7024 40.5291 62.88 39.7001 61.5728 38.0673C59.9848 36.0739 59.214 32.9161 59.214 28.4146C59.214 25.6212 59.5064 23.3405 60.0855 21.6363C60.6626 19.934 61.5341 18.6 62.6728 17.6765C63.8115 16.7531 65.2659 16.2827 66.9915 16.2827C68.2638 16.2827 69.3987 16.541 70.3593 17.0519C71.3198 17.5628 72.1255 18.3089 72.751 19.2709C73.3765 20.2329 73.8762 21.4223 74.2306 22.8007C74.5869 24.1811 74.767 26.0703 74.767 28.4127C74.767 31.1849 74.4765 33.454 73.9052 35.1582C73.332 36.8624 72.4644 38.1964 71.3256 39.1256C70.1869 40.0549 68.7286 40.5272 66.9895 40.5272L66.9915 40.5291ZM66.9585 18.6964C65.6203 18.6964 64.5358 19.2689 63.7379 20.3967C62.7193 21.858 62.2254 24.4799 62.2254 28.4146C62.2254 32.3493 62.6883 34.9133 63.6004 36.1973C64.5126 37.4812 65.6533 38.1328 66.9934 38.1328C68.3335 38.1328 69.4742 37.4793 70.3864 36.1896C71.2985 34.8998 71.7614 32.2838 71.7614 28.4146C71.7614 24.5454 71.2985 21.9043 70.3864 20.6242C69.4742 19.346 68.3219 18.6964 66.9624 18.6964H66.9585Z" fill="url(#paint6_linear_52_960)"/>
<path d="M77.0987 18.3565C76.3599 18.3565 75.7801 18.1498 75.3248 17.7263C74.8753 17.3079 74.649 16.697 74.649 15.9089C74.649 15.0452 74.9211 14.3971 75.4551 13.9812C75.9018 13.636 76.4559 13.4614 77.0987 13.4614C77.8232 13.4614 78.4001 13.6681 78.8597 14.0942C79.3136 14.5138 79.5441 15.1029 79.5441 15.8422C79.5441 16.4506 79.4453 16.9164 79.242 17.2642C79.0415 17.6082 78.7452 17.879 78.3615 18.069C77.9778 18.2589 77.5511 18.3565 77.0987 18.3565ZM77.0987 14.1185C76.6577 14.1185 76.2869 14.2687 75.9963 14.5639C75.7014 14.8642 75.5582 15.3044 75.5582 15.9089C75.5582 16.5134 75.7014 16.9549 75.9963 17.2565C76.2869 17.553 76.6577 17.7045 77.0987 17.7045C77.5397 17.7045 77.9005 17.5569 78.1954 17.2553C78.486 16.9575 78.6335 16.4955 78.6335 15.8833C78.6335 15.307 78.4846 14.8642 78.1925 14.5665C77.9005 14.27 77.5325 14.1185 77.0987 14.1185Z" fill="url(#paint7_linear_52_960)"/>
<defs>
<linearGradient id="paint0_linear_52_960" x1="86.8574" y1="37.4443" x2="86.8574" y2="50.1815" gradientUnits="userSpaceOnUse">
<stop stop-color="#0075FF"/>
<stop offset="1" stop-color="#00D6C9"/>
</linearGradient>
<linearGradient id="paint1_linear_52_960" x1="18.6028" y1="2.39648" x2="18.6028" y2="15.0335" gradientUnits="userSpaceOnUse">
<stop stop-color="#0075FF"/>
<stop offset="1" stop-color="#00D6C9"/>
</linearGradient>
<linearGradient id="paint2_linear_52_960" x1="43.0946" y1="13.4624" x2="43.0946" y2="56.2931" gradientUnits="userSpaceOnUse">
<stop stop-color="#0075FF"/>
<stop offset="1" stop-color="#00D6C9"/>
</linearGradient>
<linearGradient id="paint3_linear_52_960" x1="60.4762" y1="0" x2="60.4762" y2="36.8699" gradientUnits="userSpaceOnUse">
<stop stop-color="#0075FF"/>
<stop offset="1" stop-color="#00D6C9"/>
</linearGradient>
<linearGradient id="paint4_linear_52_960" x1="29.9789" y1="16.2847" x2="29.9789" y2="40.5484" gradientUnits="userSpaceOnUse">
<stop stop-color="#0075FF"/>
<stop offset="1" stop-color="#00D6C9"/>
</linearGradient>
<linearGradient id="paint5_linear_52_960" x1="48.4272" y1="16.2847" x2="48.4272" y2="40.5311" gradientUnits="userSpaceOnUse">
<stop stop-color="#0075FF"/>
<stop offset="1" stop-color="#00D6C9"/>
</linearGradient>
<linearGradient id="paint6_linear_52_960" x1="66.9905" y1="16.2827" x2="66.9905" y2="40.5291" gradientUnits="userSpaceOnUse">
<stop stop-color="#0075FF"/>
<stop offset="1" stop-color="#00D6C9"/>
</linearGradient>
<linearGradient id="paint7_linear_52_960" x1="77.0966" y1="13.4614" x2="77.0966" y2="18.3565" gradientUnits="userSpaceOnUse">
<stop stop-color="#0075FF"/>
<stop offset="1" stop-color="#00D6C9"/>
</linearGradient>
</defs>
</svg>
