<svg width="68" height="68" viewBox="0 0 68 68" fill="none" xmlns="http://www.w3.org/2000/svg">
<path fill-rule="evenodd" clip-rule="evenodd" d="M34 0C15.2526 0 0 15.2526 0 34C0 52.7474 15.2526 68 34 68C52.7474 68 68 52.7474 68 34C68 15.2526 52.7474 0 34 0ZM34 65.0453C16.8827 65.0453 2.95472 51.1198 2.95472 34C2.95472 16.8802 16.8827 2.95716 34 2.95716C51.1173 2.95716 65.0453 16.8827 65.0453 34.0024C65.0453 51.1222 51.1173 65.0453 34 65.0453ZM16.2622 35.4785C17.0784 35.4785 17.7407 34.8162 17.7407 33.9999C17.7407 33.1836 17.0784 32.5213 16.2622 32.5213H14.7836V29.5642H19.2169C20.0331 29.5642 20.6955 28.9019 20.6955 28.0856C20.6955 27.2693 20.0331 26.607 19.2169 26.607H13.305C12.4887 26.607 11.8264 27.2693 11.8264 28.0856V39.9093C11.8264 40.7256 12.4887 41.3879 13.305 41.3879C14.1213 41.3879 14.7836 40.7256 14.7836 39.9093V35.476H16.2622V35.4785ZM16.7042 20.1429C16.1959 20.7832 15.2672 20.8809 14.6293 20.3702C13.989 19.8618 13.8888 18.9282 14.402 18.2928C19.2044 12.3052 26.3504 8.86901 33.9999 8.86901C41.6494 8.86901 48.7931 12.3052 53.5978 18.2904C54.1086 18.9282 54.0109 19.8594 53.3705 20.3702C53.0993 20.5901 52.7742 20.6952 52.4467 20.6952C52.0166 20.6952 51.5865 20.507 51.2932 20.1429C47.0554 14.8591 40.7501 11.8262 34.0024 11.8262C27.2498 11.8262 20.9493 14.8566 16.7042 20.1429ZM50.0783 49.2455C45.8357 53.713 40.1266 56.1765 34.0021 56.1765C27.8752 56.1765 22.1662 53.713 17.926 49.2455C17.3687 48.6492 16.4278 48.6321 15.8388 49.1893C15.2425 49.749 15.223 50.6874 15.7826 51.2789C20.5874 56.3451 27.0565 59.1312 34.0021 59.1312C40.9454 59.1312 47.4169 56.3451 52.2217 51.2789C52.7862 50.6874 52.7593 49.7514 52.1655 49.1893C51.5789 48.6321 50.638 48.6541 50.0783 49.2455ZM28.0878 26.6119C30.5317 26.6119 32.5211 28.5988 32.5211 31.0452C32.5211 33.2936 30.8347 35.1607 28.6596 35.4418L32.086 38.8682C32.6628 39.445 32.6628 40.381 32.086 40.9578C31.8001 41.2486 31.4213 41.3928 31.0425 41.3928C30.6637 41.3928 30.2873 41.2486 29.9965 40.9626L26.6092 37.5705V39.9142C26.6092 40.7305 25.9469 41.3928 25.1306 41.3928C24.3143 41.3928 23.652 40.7305 23.652 39.9142V34.0121V33.9901V28.0904C23.652 27.2742 24.3143 26.6119 25.1306 26.6119H28.0878ZM26.6092 32.5237H28.0878C28.9016 32.5237 29.5639 31.8614 29.5663 31.0452C29.5663 30.2289 28.9016 29.5666 28.0878 29.5666H26.6092V32.5237ZM42.8689 29.5666C43.6852 29.5666 44.3475 28.9043 44.3475 28.088C44.3475 27.2718 43.6852 26.6094 42.8689 26.6094H36.957C36.1408 26.6094 35.4784 27.2718 35.4784 28.088V39.9142C35.4784 40.7305 36.1408 41.3928 36.957 41.3928H42.8689C43.6852 41.3928 44.3475 40.7305 44.3475 39.9142C44.3475 39.0979 43.6852 38.4356 42.8689 38.4356H38.4356V35.476H39.9142C40.7305 35.476 41.3928 34.8137 41.3928 33.9975C41.3928 33.1812 40.7305 32.5189 39.9142 32.5189H38.4356V29.5617H42.8689V29.5666ZM50.2619 38.4357H54.6952C55.5115 38.4357 56.1738 39.098 56.1738 39.9094C56.1738 40.7257 55.5115 41.388 54.6952 41.388H48.7834C47.9671 41.388 47.3048 40.7257 47.3048 39.9094V28.0832C47.3048 27.267 47.9671 26.6047 48.7834 26.6047H54.6952C55.5115 26.6047 56.1738 27.267 56.1738 28.0832C56.1738 28.8995 55.5115 29.5618 54.6952 29.5618H50.2619V32.5214H51.7405C52.5568 32.5214 53.2191 33.1837 53.2191 34C53.2191 34.8163 52.5568 35.4786 51.7405 35.4786H50.2619V38.4357Z" fill="url(#paint0_linear_52_972)"/>
<defs>
<linearGradient id="paint0_linear_52_972" x1="51.7392" y1="26.6045" x2="51.7392" y2="41.3878" gradientUnits="userSpaceOnUse">
<stop stop-color="#0075FF"/>
<stop offset="1" stop-color="#00D6C9"/>
</linearGradient>
</defs>
</svg>
