<svg width="76" height="75" viewBox="0 0 76 75" fill="none" xmlns="http://www.w3.org/2000/svg">
<path d="M68.7979 0H6.29632C2.84627 0.00320622 0.0503255 2.79903 0.0471191 6.24893V53.7491C0.0503255 57.199 2.84627 59.9949 6.29632 59.9981H26.9902L24.1782 67.4974H21.2925C19.2244 67.4974 17.5442 69.1775 17.5442 71.2455V73.7496C17.5442 74.4389 18.1053 75 18.7947 75H56.2995C56.9889 75 57.55 74.4389 57.55 73.7496V71.2455C57.55 69.1775 55.8699 67.4974 53.8018 67.4974H50.916L48.1041 59.9981H68.7979C72.248 59.9949 75.0439 57.199 75.0471 53.7491V6.24893C75.0439 2.79903 72.2448 0.00320622 68.7979 0ZM6.29632 2.50085H68.7979C70.866 2.50085 72.5462 4.18092 72.5462 6.24893V44.9994H2.54808V6.24893C2.54808 4.18092 4.22821 2.50085 6.29632 2.50085ZM55.049 71.2455V72.4959H20.0452V71.2455C20.0452 70.5562 20.6063 69.9951 21.2957 69.9951H53.7986C54.4879 69.9983 55.049 70.5562 55.049 71.2455ZM48.2419 67.4974H26.8491L29.6611 59.9981H45.43L48.2419 67.4974ZM68.7979 57.4972H6.29632C4.22821 57.4972 2.54808 55.8172 2.54808 53.7491V47.5002H72.5494V53.7491C72.5462 55.8204 70.866 57.4972 68.7979 57.4972Z" fill="url(#paint0_linear_52_888)"/>
<path d="M37.5456 48.75C35.4775 48.75 33.7974 50.4301 33.7974 52.4981C33.7974 54.5661 35.4775 56.2462 37.5456 56.2462C39.6137 56.2462 41.2938 54.5661 41.2938 52.4981C41.297 50.4301 39.6169 48.75 37.5456 48.75ZM37.5456 53.7485C36.8562 53.7485 36.2951 53.1874 36.2951 52.4981C36.2951 51.8087 36.8562 51.2476 37.5456 51.2476C38.235 51.2476 38.7961 51.8087 38.7961 52.4981C38.7961 53.1874 38.2382 53.7485 37.5456 53.7485Z" fill="url(#paint1_linear_52_888)"/>
<defs>
<linearGradient id="paint0_linear_52_888" x1="37.5471" y1="0" x2="37.5471" y2="75" gradientUnits="userSpaceOnUse">
<stop stop-color="#0075FF"/>
<stop offset="1" stop-color="#00D6C9"/>
</linearGradient>
<linearGradient id="paint1_linear_52_888" x1="37.5456" y1="48.75" x2="37.5456" y2="56.2462" gradientUnits="userSpaceOnUse">
<stop stop-color="#0075FF"/>
<stop offset="1" stop-color="#00D6C9"/>
</linearGradient>
</defs>
</svg>
