<svg width="138" height="34" viewBox="0 0 138 34" fill="none" xmlns="http://www.w3.org/2000/svg">
<g clip-path="url(#clip0_362_2672)">
<path d="M13.3726 33.6153L0 25.6039V9.79785L8.30963 14.6959V20.9504L13.3726 23.8469V33.6153Z" fill="#004096"/>
<path d="M27.9881 7.91777L19.7092 12.8488L14.525 9.85862L9.33921 12.8488L1.05859 7.91777L14.525 0L27.9881 7.91777Z" fill="#3592D1"/>
<path d="M15.6758 33.6153L29.0501 25.6039V9.79785L20.7404 14.6959V20.9504L15.6758 23.8469V33.6153Z" fill="#3592D1"/>
<path d="M100.406 20.4752H102.707C103.064 20.4752 103.409 20.6747 103.544 21.0095C103.858 21.7969 104.762 22.2912 105.911 22.2912C107.342 22.2912 108.374 21.4639 108.356 20.2931C108.376 19.1016 107.323 18.2534 105.633 18.2534H104.302V16.9925C104.302 16.4513 104.733 16.0125 105.266 16.0125H105.633C107.043 16.0125 108.038 15.2251 108.038 14.0751C108.038 12.9651 107.203 12.1967 105.932 12.1967C104.918 12.1967 104.044 12.6581 103.709 13.4074C103.539 13.7889 103.165 14.0335 102.752 14.0335H100.705C100.744 11.5099 102.991 9.77368 105.93 9.77368C108.931 9.77368 110.937 11.5706 110.918 13.893C110.938 15.5286 109.805 16.6993 108.195 16.9821V17.1035C110.302 17.3654 111.474 18.6784 111.454 20.4961C111.474 22.9989 109.129 24.7958 105.891 24.7958C102.731 24.7958 100.466 23.0197 100.406 20.4752Z" fill="#3592D1"/>
<path d="M113.324 17.629C113.324 12.7031 115.649 9.77539 119.246 9.77539C122.148 9.77539 124.114 11.633 124.413 14.0352H122.414C121.943 14.0352 121.468 13.8236 121.228 13.4108C120.847 12.7586 120.142 12.3788 119.246 12.3788C117.298 12.3788 116.265 14.1757 116.245 17.0427H116.383C117.039 15.7506 118.469 14.9839 120.058 14.9839C122.641 14.9839 124.568 16.963 124.568 19.7086C124.568 22.6762 122.363 24.8165 119.125 24.7957C116.146 24.7767 113.324 22.9798 113.324 17.629ZM121.67 19.7901C121.67 18.3366 120.616 17.185 119.147 17.185C117.677 17.185 116.564 18.3557 116.544 19.7901C116.564 21.2228 117.636 22.3953 119.108 22.3953C120.579 22.3953 121.67 21.2627 121.67 19.7901Z" fill="#3592D1"/>
<path d="M126.438 17.2856C126.438 12.5002 128.622 9.77539 132.219 9.77539C135.816 9.77539 138.001 12.521 138.001 17.2856C138.001 22.09 135.816 24.7957 132.219 24.7957C128.624 24.7957 126.438 22.0709 126.438 17.2856ZM134.942 17.2856C134.942 13.9537 133.889 12.2591 132.219 12.2591C130.55 12.2591 129.496 13.9554 129.496 17.2856C129.476 20.6573 130.55 22.2929 132.219 22.2929C133.89 22.2929 134.962 20.6573 134.942 17.2856Z" fill="#3592D1"/>
<path d="M43.3477 24.7693V13.4487H45.4958C45.9312 13.4487 46.2118 13.6375 46.3473 14.0152L46.5408 14.6289C46.7344 14.4306 46.9376 14.2512 47.1408 14.0907C47.3536 13.9302 47.5762 13.7886 47.8181 13.6658C48.06 13.5431 48.3213 13.4487 48.6019 13.3826C48.8825 13.3165 49.1921 13.2787 49.5211 13.2787C50.2178 13.2787 50.7984 13.4581 51.2628 13.8075C51.7176 14.1568 52.066 14.6289 52.3079 15.2237C52.5014 14.8744 52.7433 14.5722 53.0143 14.3268C53.2852 14.0813 53.5948 13.883 53.9238 13.7225C54.2528 13.5714 54.5915 13.4581 54.9495 13.3826C55.3075 13.3071 55.6752 13.2693 56.0333 13.2693C56.7009 13.2693 57.2912 13.3637 57.804 13.562C58.3169 13.7603 58.7523 14.0341 59.1006 14.4023C59.449 14.7705 59.7102 15.2237 59.8844 15.7525C60.0586 16.2812 60.1553 16.8949 60.1553 17.5747V24.7693H56.6912V17.5747C56.6912 16.4039 56.1784 15.8185 55.143 15.8185C54.6689 15.8185 54.2818 15.9696 53.9722 16.2717C53.6626 16.5739 53.5077 17.0082 53.5077 17.5747V24.7693H50.0436V17.5747C50.0436 16.9232 49.9082 16.47 49.6566 16.2057C49.3953 15.9413 49.0083 15.8091 48.5051 15.8091C48.1955 15.8091 47.8955 15.8752 47.6149 16.0168C47.3343 16.1584 47.073 16.3378 46.8214 16.5739V24.7598H43.3573L43.3477 24.7693Z" fill="#3693D1"/>
<path d="M65.562 19.6013C65.684 20.5324 65.9891 21.2122 66.4873 21.6312C66.9855 22.0503 67.6363 22.2644 68.4294 22.2644C68.8564 22.2644 69.2123 22.2179 69.5275 22.1248C69.8326 22.0316 70.1071 21.9292 70.341 21.8082C70.5748 21.6964 70.7985 21.594 71.0019 21.5009C71.2052 21.4077 71.4086 21.3612 71.6323 21.3612C71.9272 21.3612 72.1407 21.4543 72.2932 21.6499L73.3507 22.8511C72.9745 23.2422 72.5678 23.5681 72.1305 23.8195C71.6933 24.0709 71.2459 24.2571 70.7884 24.3968C70.3308 24.5365 69.8732 24.6296 69.4157 24.6855C68.9581 24.7414 68.5209 24.7693 68.104 24.7693C67.2499 24.7693 66.4466 24.6389 65.7044 24.3875C64.9621 24.1361 64.3012 23.7543 63.7419 23.2515C63.1827 22.7486 62.7353 22.1248 62.4099 21.3798C62.0846 20.6349 61.9219 19.7689 61.9219 18.7725C61.9219 18.0276 62.0642 17.3199 62.3388 16.6494C62.6133 15.979 63.02 15.4017 63.5386 14.8988C64.0572 14.396 64.6876 13.9956 65.4298 13.7069C66.1721 13.4183 67.0059 13.2693 67.9413 13.2693C68.7446 13.2693 69.4869 13.381 70.1579 13.6138C70.829 13.8466 71.4086 14.1818 71.8865 14.6102C72.3644 15.0478 72.7406 15.5879 73.0152 16.2211C73.2897 16.8543 73.4219 17.5806 73.4219 18.3814C73.4219 18.6329 73.4117 18.8377 73.3914 18.996C73.371 19.1543 73.3202 19.2754 73.2592 19.3685C73.1982 19.4616 73.1168 19.5268 73.005 19.564C72.8931 19.6013 72.761 19.6199 72.5983 19.6199H65.562V19.6013ZM70.1478 17.6644C70.1478 17.3944 70.1071 17.143 70.0359 16.8916C69.9648 16.6401 69.8427 16.4167 69.6699 16.2211C69.497 16.0256 69.2835 15.8673 69.009 15.7462C68.7344 15.6252 68.3989 15.56 68.0125 15.56C67.3211 15.56 66.7822 15.7462 66.3856 16.1001C65.9891 16.4632 65.7349 16.9847 65.6129 17.6644H70.1478Z" fill="#3693D1"/>
<path d="M78.806 24.7692C78.217 24.7692 77.7003 24.6924 77.2456 24.5292C76.7909 24.3661 76.4188 24.1454 76.1088 23.8479C75.7988 23.5504 75.5714 23.2049 75.4061 22.7922C75.2407 22.3795 75.1684 21.9189 75.1684 21.4006V15.4505H74.1143C73.9179 15.4505 73.7629 15.3929 73.6286 15.2778C73.4942 15.1626 73.4219 14.9995 73.4219 14.7691V13.4255L75.3957 13.0705L76.1295 10.2585C76.2225 9.90346 76.4912 9.73071 76.9459 9.73071H78.8784V13.0897H81.9477V15.4409H78.8784V21.1607C78.8784 21.4294 78.9507 21.6502 79.0851 21.8229C79.2194 21.9956 79.4261 22.082 79.6845 22.082C79.8188 22.082 79.9325 22.0724 80.0255 22.0436C80.1185 22.0148 80.2012 21.9861 80.2632 21.9573C80.3355 21.9189 80.3975 21.8901 80.4595 21.8709C80.5215 21.8421 80.5835 21.8325 80.6662 21.8325C80.7799 21.8325 80.8626 21.8613 80.9349 21.9093C81.0072 21.9573 81.0692 22.034 81.1416 22.1396L82.268 23.7711C81.7927 24.107 81.2553 24.3565 80.6559 24.5197C80.0565 24.6828 79.4364 24.7692 78.806 24.7692Z" fill="#3693D1"/>
<path d="M82.8261 15.0314C83.5547 14.4378 84.3744 13.9927 85.2649 13.7052C86.1554 13.4177 87.1168 13.2693 88.1389 13.2693C88.8675 13.2693 89.5353 13.3806 90.1223 13.5939C90.7092 13.8165 91.2152 14.1132 91.62 14.5028C92.0248 14.8923 92.3385 15.356 92.5611 15.8939C92.7837 16.4318 92.8849 17.0161 92.8849 17.656V24.6024H91.2253C90.8812 24.6024 90.6181 24.556 90.4461 24.4725C90.2741 24.389 90.1223 24.2036 90.011 23.9346L89.758 23.3225C89.4544 23.5544 89.1609 23.7677 88.8776 23.9439C88.5942 24.1201 88.3109 24.2778 88.0073 24.3983C87.7037 24.5189 87.39 24.6209 87.046 24.6765C86.712 24.7415 86.3275 24.7693 85.9126 24.7693C85.356 24.7693 84.8601 24.7044 84.4048 24.5745C83.9494 24.4447 83.5648 24.2499 83.2511 23.9903C82.9374 23.7306 82.6946 23.4153 82.5225 23.0257C82.3505 22.6455 82.2695 22.2003 82.2695 21.6995C82.2695 21.3007 82.3808 20.8927 82.5934 20.4846C82.8059 20.0765 83.1904 19.6963 83.7267 19.3624C84.2631 19.0193 84.9917 18.7411 85.9024 18.5092C86.8132 18.2774 87.9668 18.1568 89.3532 18.1197V17.6467C89.3532 16.9975 89.2115 16.5245 88.9181 16.237C88.6246 15.9495 88.2097 15.8011 87.6734 15.8011C87.2483 15.8011 86.8942 15.8475 86.6209 15.931C86.3477 16.0144 86.1048 16.1165 85.8923 16.2185C85.6798 16.3298 85.4673 16.4225 85.2649 16.506C85.0625 16.5894 84.8197 16.6358 84.5363 16.6358C84.2833 16.6358 84.0708 16.5802 83.9089 16.4596C83.7369 16.3483 83.5952 16.2092 83.4839 16.0515L82.8261 15.0128V15.0314ZM89.3532 20.0858C88.6246 20.1136 88.0275 20.1693 87.562 20.262C87.0965 20.3455 86.7221 20.4568 86.4489 20.5866C86.1757 20.7165 85.9834 20.8649 85.8822 21.0225C85.781 21.1894 85.7203 21.3657 85.7203 21.5604C85.7203 21.9407 85.8316 22.2096 86.0644 22.358C86.287 22.5157 86.6209 22.5899 87.0561 22.5899C87.5216 22.5899 87.9365 22.5157 88.2805 22.3673C88.6347 22.2189 88.9889 21.9778 89.3431 21.6346V20.0858H89.3532Z" fill="#3693D1"/>
</g>
<defs>
<clipPath id="clip0_362_2672">
<rect width="138" height="33.6154" fill="white"/>
</clipPath>
</defs>
</svg>
