<svg width="84" height="82" viewBox="0 0 84 82" fill="none" xmlns="http://www.w3.org/2000/svg">
<g clip-path="url(#clip0_392_4955)">
<ellipse cx="41.6094" cy="26.9428" rx="24.5" ry="24.6" fill="white"/>
<path d="M41.3901 46.1945C33.6253 46.1945 25.984 44.8279 18.9051 42.2312C11.9634 39.7712 5.85854 36.0812 0.590536 31.4345C-0.109121 30.8879 -0.246309 29.7945 0.453348 29.1112C5.72135 22.6879 11.8262 17.6312 18.7679 14.0779C25.984 10.3879 33.6116 8.47455 41.3901 8.47455C49.1687 8.47455 56.9335 10.3879 64.0124 14.0779C70.9541 17.6312 77.0589 22.6879 82.3269 29.1112C82.8757 29.7945 82.8757 30.8879 82.1898 31.4345C76.9218 36.0812 70.8169 39.6346 63.8752 42.2312C56.7963 44.8279 49.1687 46.1945 41.3901 46.1945ZM4.19857 29.9312C14.1858 38.1312 27.3696 42.6412 41.3901 42.6412C55.4107 42.6412 68.5945 38.1312 78.5817 29.9312C68.5945 18.3145 55.4107 12.0279 41.3901 12.0279C27.3696 12.0279 14.1996 18.3145 4.19857 29.9312Z" fill="#01CFFF"/>
<path d="M41.3898 54.6667C26.1208 54.6667 13.6367 42.3667 13.6367 27.3333C13.6367 12.3 26.1345 0 41.3898 0C56.645 0 69.1428 12.3 69.1428 27.3333C69.1428 42.3667 56.6588 54.6667 41.3898 54.6667ZM41.3898 3.41667C28.0689 3.41667 17.1076 14.2133 17.1076 27.3333C17.1076 40.4533 28.0689 51.25 41.3898 51.25C54.7107 51.25 65.672 40.4533 65.672 27.3333C65.672 14.2133 54.7244 3.41667 41.3898 3.41667Z" fill="#01CFFF"/>
<path d="M45.4237 23.6434C45.4237 23.6434 45.2865 23.5067 45.0121 23.37C44.875 23.2334 44.6006 23.0967 44.1753 22.96C43.7637 22.8234 43.4756 22.6867 43.0641 22.55C42.6525 22.4134 42.2272 22.2767 41.9529 22.2767V25.1467L42.6525 25.2834C43.3522 25.42 44.0381 25.6934 44.6006 25.9667C45.1493 26.24 45.7118 26.5134 46.1234 26.7867C46.5349 27.1967 46.823 27.6067 47.0974 28.0167C47.3718 28.5634 47.3718 29.11 47.3718 29.7934C47.3718 30.6134 47.2346 31.2967 46.9602 31.8434C46.6858 32.39 46.2605 32.8 45.849 33.21C45.4374 33.62 44.8749 33.8934 44.189 34.03C43.6403 34.1667 42.9406 34.3034 42.2409 34.3034V36.7634H40.7182V34.3034C39.7441 34.1667 38.7701 34.03 37.8098 33.7567C36.8358 33.4834 36.0126 33.0734 35.1758 32.5267L36.6986 29.52C36.6986 29.6567 36.9729 29.6567 37.1101 29.93C37.3845 30.0667 37.6589 30.2034 38.0842 30.4767C38.4957 30.6134 38.921 30.8867 39.3326 31.0234C39.7441 31.16 40.3066 31.2967 40.8554 31.4334V28.7L40.0185 28.1534C39.3188 27.88 38.7701 27.7434 38.2213 27.47C37.6726 27.1967 37.2473 26.9234 36.9729 26.65C36.6986 26.3767 36.4242 25.9667 36.2733 25.5567C36.1361 25.1467 35.9989 24.6 35.9989 24.0534C35.9989 23.37 36.1361 22.6867 36.4105 22.14C36.6848 21.5934 36.9592 21.0467 37.3845 20.6367C37.7961 20.2267 38.3585 19.9534 38.9073 19.68C39.456 19.4067 40.1557 19.27 40.8554 19.27V17.0834H42.3781V19.1334C43.3522 19.27 44.1753 19.4067 45.0121 19.68C45.849 19.9534 46.5349 20.3634 47.0974 20.6367L45.4374 23.6434H45.4237ZM39.456 23.5067C39.456 23.9167 39.5932 24.19 39.8676 24.3267C40.142 24.4634 40.4164 24.7367 40.9788 24.8734V22.2767C40.0048 22.2767 39.456 22.6867 39.456 23.5067ZM43.6265 30.0667C43.6265 29.6567 43.4894 29.3834 43.215 29.2467C42.9406 29.11 42.5153 28.8367 41.9666 28.7V31.16C43.0778 31.16 43.6265 30.8867 43.6265 30.0667Z" fill="#01CFFF"/>
<path d="M82.0541 82H54.3011C53.327 82 52.5039 81.18 52.5039 80.2233V63.2767C52.5039 62.32 53.3408 61.5 54.3011 61.5C55.2614 61.5 56.0982 62.32 56.0982 63.2767V78.5833H82.1913C83.1653 78.5833 84.0022 79.4033 84.0022 80.36C84.0022 81.3167 82.891 82 82.0541 82Z" fill="#01CFFF"/>
<path d="M30.0151 82H2.262C1.28797 82 0.464844 81.18 0.464844 80.2233C0.464844 79.2667 1.30169 78.4467 2.262 78.4467H28.3551V63.2767C28.3551 62.32 29.1919 61.5 30.166 61.5C31.14 61.5 31.9631 62.32 31.9631 63.2767V80.36C31.6888 81.18 30.8519 82 30.0151 82Z" fill="#01CFFF"/>
<path d="M10.0285 63.1412C11.4827 63.1412 12.6625 64.3029 12.6625 65.7379C12.6625 67.1729 11.4827 68.3346 10.0285 68.3346C8.57435 68.3346 7.39453 67.1729 7.39453 65.7379C7.39453 64.3029 8.57435 63.1412 10.0285 63.1412Z" fill="#01CFFF"/>
<path d="M22.1028 63.1412C23.5569 63.1412 24.7368 64.3029 24.7368 65.7379C24.7368 67.1729 23.5569 68.3346 22.1028 68.3346C20.6486 68.3346 19.4688 67.1729 19.4688 65.7379C19.4688 64.3029 20.6486 63.1412 22.1028 63.1412Z" fill="#01CFFF"/>
<path d="M63.7395 63.1412C65.1937 63.1412 66.3735 64.3029 66.3735 65.7379C66.3735 67.1729 65.1937 68.3346 63.7395 68.3346C62.2853 68.3346 61.1055 67.1729 61.1055 65.7379C61.1055 64.3029 62.2853 63.1412 63.7395 63.1412Z" fill="#01CFFF"/>
<path d="M75.9465 63.1412C77.4007 63.1412 78.5805 64.3029 78.5805 65.7379C78.5805 67.1729 77.4007 68.3346 75.9465 68.3346C74.4923 68.3346 73.3125 67.1729 73.3125 65.7379C73.3125 64.3029 74.4923 63.1412 75.9465 63.1412Z" fill="#01CFFF"/>
</g>
<defs>
<clipPath id="clip0_392_4955">
<rect width="84" height="82" fill="white"/>
</clipPath>
</defs>
</svg>
